<svg width="12" height="12" viewBox="0 0 12 12" fill="none" xmlns="http://www.w3.org/2000/svg">
<g clip-path="url(#clip0_369_700)">
<path d="M10.6667 1.66675H1.33333C0.979711 1.66675 0.640573 1.80722 0.390524 2.05727C0.140476 2.30732 0 2.64646 0 3.00008L0 6.00008H12V3.00008C12 2.64646 11.8595 2.30732 11.6095 2.05727C11.3594 1.80722 11.0203 1.66675 10.6667 1.66675Z" fill="#005BBB"/>
<path d="M12 9C12 9.35362 11.8595 9.69276 11.6095 9.94281C11.3594 10.1929 11.0203 10.3333 10.6667 10.3333H1.33333C0.979711 10.3333 0.640573 10.1929 0.390524 9.94281C0.140476 9.69276 0 9.35362 0 9V6H12V9Z" fill="#FFD500"/>
</g>
<defs>
<clipPath id="clip0_369_700">
<rect width="12" height="12" fill="white"/>
</clipPath>
</defs>
</svg>
