<svg width="18" height="19" viewBox="0 0 18 19"  xmlns="http://www.w3.org/2000/svg">
<path d="M15.825 7.47499L9.52499 13.7937C9.44999 13.8687 9.36874 13.922 9.28124 13.9535C9.19374 13.985 9.09999 14.0005 8.99999 14C8.89999 14 8.80624 13.9842 8.71874 13.9527C8.63124 13.9212 8.54999 13.8682 8.47499 13.7937L2.15624 7.47499C1.98124 7.29999 1.89374 7.08124 1.89374 6.81874C1.89374 6.55624 1.98749 6.33124 2.17499 6.14374C2.36249 5.95624 2.58124 5.86249 2.83124 5.86249C3.08124 5.86249 3.29999 5.95624 3.48749 6.14374L8.99999 11.6562L14.5125 6.14374C14.6875 5.96874 14.9032 5.88124 15.1597 5.88124C15.4162 5.88124 15.638 5.97499 15.825 6.16249C16.0125 6.34999 16.1062 6.56874 16.1062 6.81874C16.1062 7.06874 16.0125 7.28749 15.825 7.47499Z" />
</svg>
