<svg xmlns="http://www.w3.org/2000/svg" width="28" height="28" viewBox="0 0 28 28" >
  <path d="M10.8501 24.6166L20.6793 14.8166C20.7959 14.7 20.8788 14.5736 20.9278 14.4375C20.9768 14.3014 21.0009 14.1555 21.0001 14C21.0001 13.8444 20.9756 13.6986 20.9266 13.5625C20.8776 13.4264 20.7952 13.3 20.6793 13.1833L10.8501 3.35413C10.5779 3.08191 10.2376 2.9458 9.82927 2.9458C9.42094 2.9458 9.07094 3.09163 8.77927 3.3833C8.4876 3.67497 8.34177 4.01525 8.34177 4.40413C8.34177 4.79302 8.4876 5.1333 8.77927 5.42497L17.3543 14L8.77927 22.575C8.50705 22.8472 8.37094 23.1828 8.37094 23.5818C8.37094 23.9808 8.51677 24.3257 8.80844 24.6166C9.1001 24.9083 9.44038 25.0541 9.82927 25.0541C10.2182 25.0541 10.5584 24.9083 10.8501 24.6166Z" />
</svg>