<svg xmlns="http://www.w3.org/2000/svg" width="28" height="28" viewBox="0 0 28 28" >
  <path d="M17.15 24.6166L7.32079 14.8166C7.20412 14.7 7.12129 14.5736 7.07229 14.4375C7.02329 14.3014 6.99918 14.1555 6.99996 14C6.99996 13.8444 7.02446 13.6986 7.07346 13.5625C7.12246 13.4264 7.2049 13.3 7.32079 13.1833L17.15 3.35413C17.4222 3.08191 17.7625 2.9458 18.1708 2.9458C18.5791 2.9458 18.9291 3.09163 19.2208 3.3833C19.5125 3.67497 19.6583 4.01525 19.6583 4.40413C19.6583 4.79302 19.5125 5.1333 19.2208 5.42497L10.6458 14L19.2208 22.575C19.493 22.8472 19.6291 23.1828 19.6291 23.5818C19.6291 23.9808 19.4833 24.3257 19.1916 24.6166C18.9 24.9083 18.5597 25.0541 18.1708 25.0541C17.7819 25.0541 17.4416 24.9083 17.15 24.6166Z" />
</svg>