<svg xmlns="http://www.w3.org/2000/svg" width="28" height="28" fill="none"><path fill="#fff" fill-rule="evenodd" d="M23.506 6.417H7.39L6.014 3.949A.875.875 0 0 0 5.25 3.5H3.5a.875.875 0 1 0 0 1.75h1.236l1.359 2.436 3.134 6.933.003.007.276.611-3.146 3.356a.875.875 0 0 0 .539 1.468l2.867.328c3.588.41 7.21.41 10.797 0l2.868-.328a.875.875 0 0 0-.199-1.739l-2.868.328a45.8 45.8 0 0 1-10.399 0l-1.138-.13 2.31-2.463a.9.9 0 0 0 .062-.074l.878.114c1.23.16 2.475.191 3.712.094a10.838 10.838 0 0 0 7.427-3.814l.675-.799a.864.864 0 0 0 .063-.084l1.257-1.916c.89-1.357-.083-3.161-1.707-3.161Zm-12.24 7.81a.565.565 0 0 1-.441-.325l-.002-.003-2.59-5.732h15.273c.232 0 .37.257.244.451L22.52 10.49l-.64.758a9.088 9.088 0 0 1-6.228 3.198c-1.116.088-2.238.06-3.348-.084l-1.04-.136Z" clip-rule="evenodd"/><path fill="#fff" d="M8.75 21.875a1.75 1.75 0 1 0 0 3.5 1.75 1.75 0 0 0 0-3.5ZM19.833 23.625a1.75 1.75 0 1 1 3.5 0 1.75 1.75 0 0 1-3.5 0Z"/></svg>