<svg xmlns="http://www.w3.org/2000/svg" width="24" height="24" fill="none"><path fill="#2B2B2B" fill-rule="evenodd" d="M5.84 9.856a17.216 17.216 0 0 0 8.922 8.663l.012.005.764.34a2.25 2.25 0 0 0 2.74-.737l1.274-1.764a.25.25 0 0 0-.046-.34l-2.224-1.796a.25.25 0 0 0-.358.046l-.866 1.169a.75.75 0 0 1-.912.236 13.388 13.388 0 0 1-6.67-6.67.75.75 0 0 1 .237-.911l1.168-.866a.25.25 0 0 0 .046-.358L8.132 4.648a.25.25 0 0 0-.34-.046l-1.774 1.28a2.25 2.25 0 0 0-.731 2.756l.553 1.217v.001Zm8.33 10.041a18.716 18.716 0 0 1-9.693-9.416l-.001-.003-.555-1.22A3.75 3.75 0 0 1 5.14 4.667l1.773-1.28a1.75 1.75 0 0 1 2.386.32l1.796 2.225a1.75 1.75 0 0 1-.32 2.505l-.67.496a11.892 11.892 0 0 0 5.118 5.118l.496-.67a1.75 1.75 0 0 1 2.505-.32l2.224 1.795a1.75 1.75 0 0 1 .32 2.387l-1.274 1.764a3.75 3.75 0 0 1-4.566 1.229l-.758-.338Z" clip-rule="evenodd"/></svg>