<svg width="24" height="24" viewBox="0 0 24 24" fill="none" xmlns="http://www.w3.org/2000/svg">
<g clip-path="url(#clip0_959_5666)">
<rect width="24" height="24" rx="5" fill="#2B2B2B" fill-opacity="0.7"/>
<g clip-path="url(#clip1_959_5666)">
<path fill-rule="evenodd" clip-rule="evenodd" d="M11.9999 13.4141L17.6569 19.0711C17.8455 19.2533 18.0982 19.3541 18.3603 19.3518C18.6225 19.3495 18.8734 19.2444 19.0588 19.059C19.2442 18.8736 19.3493 18.6227 19.3516 18.3606C19.3539 18.0984 19.2531 17.8458 19.0709 17.6571L13.4139 12.0001L19.0709 6.34315C19.2531 6.15455 19.3539 5.90194 19.3516 5.63975C19.3493 5.37755 19.2442 5.12674 19.0588 4.94133C18.8734 4.75592 18.6225 4.65075 18.3603 4.64848C18.0982 4.6462 17.8455 4.74699 17.6569 4.92915L11.9999 10.5861L6.34295 4.92915C6.15349 4.75149 5.90236 4.65451 5.64268 4.65873C5.38299 4.66295 5.13514 4.76803 4.95155 4.95174C4.76797 5.13546 4.66307 5.38339 4.65903 5.64307C4.655 5.90276 4.75216 6.15382 4.92995 6.34315L10.5859 12.0001L4.92895 17.6571C4.83343 17.7494 4.75725 17.8597 4.70484 17.9817C4.65244 18.1037 4.62485 18.235 4.62369 18.3677C4.62254 18.5005 4.64784 18.6322 4.69812 18.7551C4.7484 18.878 4.82266 18.9897 4.91655 19.0835C5.01044 19.1774 5.1221 19.2517 5.24499 19.302C5.36789 19.3523 5.49957 19.3776 5.63235 19.3764C5.76513 19.3752 5.89635 19.3477 6.01835 19.2953C6.14035 19.2428 6.2507 19.1667 6.34295 19.0711L11.9999 13.4141Z" fill="#FCBE0A"/>
</g>
</g>
<defs>
<clipPath id="clip0_959_5666">
<rect width="24" height="24" rx="5" fill="white"/>
</clipPath>
<clipPath id="clip1_959_5666">
<rect width="24" height="24" fill="white"/>
</clipPath>
</defs>
</svg>
