<svg xmlns="http://www.w3.org/2000/svg" width="170" height="186" viewBox="0 0 170 186" fill="none">
  <g opacity="0.2">
    <path d="M169 84.8681V99.447C169 99.6039 168.825 99.7046 168.687 99.6241L94.6107 56.8817C93.0309 55.968 91.3536 55.2315 89.5951 54.7323C88.1331 54.3137 86.4314 53.9958 84.9085 54.1286C84.9085 54.1286 82.2768 54.4586 80.8107 54.8732C79.0522 55.3723 77.3749 56.1129 75.7951 57.0226L1.71859 99.769C1.58051 99.8454 1.40588 99.7488 1.40588 99.5878V85.013C1.40588 81.644 3.18875 78.5246 6.1047 76.7898L46.3716 52.8325C46.4569 52.7802 46.5097 52.6916 46.5097 52.591V38.6199C46.5097 36.543 47.6184 34.619 49.4257 33.5645L60.2285 27.2612L49.9577 13.4713C47.5697 10.2633 43.7887 8.36344 39.764 8.35137L28.0353 8.31111C25.9356 8.30306 24.2705 6.55618 24.3883 4.47521L24.4127 3.9922C24.5061 2.35802 25.895 1.09415 27.5479 1.14245L45.6853 1.68582C49.2998 1.7945 52.6828 3.47296 54.9408 6.27039L68.1438 22.6404L80.0837 15.673L81.4524 14.872C83.9379 13.423 87.0284 13.4713 89.4692 14.9927L90.3221 15.5281L102.262 22.4955L115.465 6.12549C117.723 3.32806 121.106 1.65363 124.721 1.54496L142.858 1.00157C144.511 0.949242 145.9 2.21312 145.993 3.8473L146.018 4.33433C146.135 6.41127 144.47 8.16218 142.371 8.17023L130.642 8.20646C126.617 8.21853 122.84 10.1184 120.448 13.3264L110.177 27.1163L120.98 33.4236C122.787 34.4781 123.896 36.3981 123.896 38.4751V52.4501C123.896 52.5467 123.949 52.6393 124.034 52.6876L164.301 76.6449C167.217 78.3797 169 81.5031 169 84.8681Z" fill="url(#paint0_linear_2871_27915)" stroke="url(#paint1_linear_2871_27915)" stroke-width="0.0957895" stroke-miterlimit="10"/>
    <path d="M85.4964 63.4432C88.3393 63.4311 93.233 66.6794 93.233 66.6794L123.842 83.5525L168.837 110.323C168.902 110.364 168.942 110.436 168.942 110.512V130.36C168.942 130.533 168.751 130.642 168.601 130.557L93.6798 87.32C93.2777 87.0905 92.8675 86.8812 92.4411 86.7001C90.9791 86.0802 88.2662 84.9371 85.4964 85.1786C85.4964 85.1786 83.4658 84.7761 77.9629 86.845C77.5283 87.01 77.1222 87.2314 76.7242 87.4649L1.79891 130.694C1.64865 130.783 1.45776 130.674 1.45776 130.497V110.653C1.45776 110.577 1.49838 110.504 1.56336 110.464L46.5575 83.6934L77.1669 66.8202C77.1709 66.8243 82.6536 63.4311 85.4964 63.4432Z" fill="url(#paint2_linear_2871_27915)" stroke="url(#paint3_linear_2871_27915)" stroke-width="0.0957895" stroke-miterlimit="10"/>
    <path d="M91.3123 117.749C92.0555 118.015 92.7662 118.353 93.4444 118.755L131.283 141.336C131.429 141.424 131.616 141.32 131.616 141.151V121.283C131.616 121.215 131.579 121.15 131.518 121.114L95.6131 100.381C93.5743 99.2054 91.4016 98.2635 89.1273 97.6477C87.6247 97.2412 85.4966 97.2533 85.4966 97.2533C84.3716 97.0923 82.7796 97.3821 81.277 97.7886C79.0027 98.4044 76.83 99.3423 74.7912 100.522L38.8861 121.255C38.8251 121.291 38.7886 121.355 38.7886 121.424V141.292C38.7886 141.461 38.9754 141.565 39.1216 141.477L77.7762 118.184C77.7762 118.184 82.2436 116.171 85.2935 116.28L87.6978 116.714C88.6603 116.888 89.6065 117.141 90.5284 117.471L91.3123 117.749Z" fill="url(#paint4_linear_2871_27915)" stroke="url(#paint5_linear_2871_27915)" stroke-width="0.0957895" stroke-miterlimit="10"/>
    <path d="M85.4973 185L69.7235 164.963C69.6789 164.907 69.622 164.859 69.553 164.83L57.8729 159.815C57.6049 159.698 57.3409 159.578 57.0769 159.445L39.9954 150.851C39.8452 150.775 39.8371 150.561 39.9833 150.477L73.8538 130.915C76.6844 129.281 79.7466 128.065 82.955 127.421C83.889 127.232 84.7744 127.107 85.4851 127.111C85.4851 127.111 87.3939 127.256 88.3279 127.445C91.5363 128.093 93.7009 129.14 96.5316 130.774L130.402 150.336C130.548 150.421 130.544 150.634 130.39 150.71L113.308 159.304C113.049 159.437 112.781 159.557 112.512 159.674L100.832 164.689C100.763 164.718 100.707 164.766 100.662 164.822L85.4973 185Z" fill="url(#paint6_linear_2871_27915)" stroke="url(#paint7_linear_2871_27915)" stroke-width="0.0957895" stroke-miterlimit="10"/>
    <path d="M84.795 13.8205V54.1076C84.6975 54.1116 84.6001 54.1196 84.5026 54.1277C84.5026 54.1277 81.8709 54.4577 80.4048 54.8723C78.6463 55.3714 76.969 56.112 75.3892 57.0217L1.31271 99.768C1.17463 99.8445 1 99.7479 1 99.5869V85.0121C1 81.6431 2.78287 78.5237 5.69882 76.7889L45.9657 52.8316C46.051 52.7793 46.1038 52.6907 46.1038 52.5901V38.619C46.1038 36.5421 47.2125 34.6181 49.0198 33.5635L59.8226 27.2603L49.5518 13.4703C47.1638 10.2624 43.3828 8.36253 39.3581 8.35046L27.6294 8.3102C25.5297 8.30215 23.8646 6.55527 23.9824 4.4743L24.0068 3.99129C24.1002 2.35711 25.4891 1.09324 27.142 1.14154L45.2794 1.68491C48.8939 1.79359 52.2769 3.47205 54.5349 6.26948L67.7379 22.6395L79.6779 15.6721L81.0465 14.8711C82.204 14.1949 83.4995 13.8447 84.795 13.8205Z" fill="#FFCD1C" stroke="url(#paint8_linear_2871_27915)" stroke-width="0.0957895" stroke-miterlimit="10"/>
    <path d="M84.7939 63.4506V85.1498C84.0548 85.1176 81.878 85.2223 77.5569 86.8444C77.1264 87.0054 76.7203 87.2308 76.3182 87.4642L1.39696 130.694C1.24264 130.782 1.05176 130.673 1.05176 130.5V110.653C1.05176 110.576 1.09237 110.504 1.16141 110.464L46.1556 83.6968L76.7649 66.8236C76.7649 66.8236 81.8861 63.6519 84.7939 63.4506Z" fill="#FFCD1C" stroke="url(#paint9_linear_2871_27915)" stroke-width="0.0957895" stroke-miterlimit="10"/>
    <path d="M84.7944 97.2244V116.279C81.7485 116.211 77.3746 118.183 77.3746 118.183L38.72 141.476C38.5738 141.565 38.387 141.46 38.387 141.291V121.423C38.387 121.355 38.4235 121.29 38.4844 121.254L74.3896 100.521C76.4243 99.3456 78.597 98.4037 80.8713 97.7879C82.2481 97.4176 83.6979 97.1398 84.7944 97.2244Z" fill="#FFCD1C" stroke="url(#paint10_linear_2871_27915)" stroke-width="0.0957895" stroke-miterlimit="10"/>
    <path d="M84.7947 127.111V184.622L69.3175 164.963C69.2769 164.907 69.2159 164.858 69.151 164.83L57.4709 159.815C57.2029 159.698 56.9389 159.577 56.679 159.445L39.5975 150.851C39.4432 150.775 39.4391 150.561 39.5853 150.477L73.4558 130.915C76.2865 129.281 79.3487 128.065 82.5611 127.417C83.3652 127.256 84.1409 127.143 84.7947 127.111Z" fill="#FFCD1C" stroke="url(#paint11_linear_2871_27915)" stroke-width="0.0957895" stroke-miterlimit="10"/>
  </g>
  <defs>
    <linearGradient id="paint0_linear_2871_27915" x1="85.2023" y1="1.0006" x2="85.2023" y2="99.7962" gradientUnits="userSpaceOnUse">
      <stop stop-color="#FFE013"/>
      <stop offset="0.5058" stop-color="#F29612"/>
      <stop offset="0.9899" stop-color="#E64111"/>
    </linearGradient>
    <linearGradient id="paint1_linear_2871_27915" x1="85.2023" y1="0.799348" x2="85.2023" y2="99.9975" gradientUnits="userSpaceOnUse">
      <stop stop-color="#FFD14E"/>
      <stop offset="0.0064866" stop-color="#FECF53" stop-opacity="0.9935"/>
      <stop offset="0.0851" stop-color="#FABF78" stop-opacity="0.9149"/>
      <stop offset="0.17" stop-color="#F6AF8E" stop-opacity="0.83"/>
      <stop offset="0.2605" stop-color="#F4A09C" stop-opacity="0.7395"/>
      <stop offset="0.3581" stop-color="#F293A3" stop-opacity="0.6419"/>
      <stop offset="0.4657" stop-color="#F088A7" stop-opacity="0.5343"/>
      <stop offset="0.5883" stop-color="#EF81A9" stop-opacity="0.4117"/>
      <stop offset="0.7389" stop-color="#EE7CAA" stop-opacity="0.2611"/>
      <stop offset="1" stop-color="#EE7AAA" stop-opacity="0"/>
    </linearGradient>
    <linearGradient id="paint2_linear_2871_27915" x1="85.2016" y1="63.4438" x2="85.2016" y2="130.727" gradientUnits="userSpaceOnUse">
      <stop stop-color="#FFE013"/>
      <stop offset="0.5058" stop-color="#F29612"/>
      <stop offset="0.9899" stop-color="#E64111"/>
    </linearGradient>
    <linearGradient id="paint3_linear_2871_27915" x1="85.2016" y1="63.2425" x2="85.2016" y2="130.928" gradientUnits="userSpaceOnUse">
      <stop stop-color="#FFD14E"/>
      <stop offset="0.0064866" stop-color="#FECF53" stop-opacity="0.9935"/>
      <stop offset="0.0851" stop-color="#FABF78" stop-opacity="0.9149"/>
      <stop offset="0.17" stop-color="#F6AF8E" stop-opacity="0.83"/>
      <stop offset="0.2605" stop-color="#F4A09C" stop-opacity="0.7395"/>
      <stop offset="0.3581" stop-color="#F293A3" stop-opacity="0.6419"/>
      <stop offset="0.4657" stop-color="#F088A7" stop-opacity="0.5343"/>
      <stop offset="0.5883" stop-color="#EF81A9" stop-opacity="0.4117"/>
      <stop offset="0.7389" stop-color="#EE7CAA" stop-opacity="0.2611"/>
      <stop offset="1" stop-color="#EE7AAA" stop-opacity="0"/>
    </linearGradient>
    <linearGradient id="paint4_linear_2871_27915" x1="85.2018" y1="97.2093" x2="85.2018" y2="141.509" gradientUnits="userSpaceOnUse">
      <stop stop-color="#FFE013"/>
      <stop offset="0.5058" stop-color="#F29612"/>
      <stop offset="0.9899" stop-color="#E64111"/>
    </linearGradient>
    <linearGradient id="paint5_linear_2871_27915" x1="85.2018" y1="97.0081" x2="85.2018" y2="141.71" gradientUnits="userSpaceOnUse">
      <stop stop-color="#FFD14E"/>
      <stop offset="0.0064866" stop-color="#FECF53" stop-opacity="0.9935"/>
      <stop offset="0.0851" stop-color="#FABF78" stop-opacity="0.9149"/>
      <stop offset="0.17" stop-color="#F6AF8E" stop-opacity="0.83"/>
      <stop offset="0.2605" stop-color="#F4A09C" stop-opacity="0.7395"/>
      <stop offset="0.3581" stop-color="#F293A3" stop-opacity="0.6419"/>
      <stop offset="0.4657" stop-color="#F088A7" stop-opacity="0.5343"/>
      <stop offset="0.5883" stop-color="#EF81A9" stop-opacity="0.4117"/>
      <stop offset="0.7389" stop-color="#EE7CAA" stop-opacity="0.2611"/>
      <stop offset="1" stop-color="#EE7AAA" stop-opacity="0"/>
    </linearGradient>
    <linearGradient id="paint6_linear_2871_27915" x1="85.2025" y1="127.108" x2="85.2025" y2="185.001" gradientUnits="userSpaceOnUse">
      <stop stop-color="#FFE013"/>
      <stop offset="0.5058" stop-color="#F29612"/>
      <stop offset="0.9899" stop-color="#E64111"/>
    </linearGradient>
    <linearGradient id="paint7_linear_2871_27915" x1="85.2025" y1="126.907" x2="85.2025" y2="185.332" gradientUnits="userSpaceOnUse">
      <stop stop-color="#FFD14E"/>
      <stop offset="0.0064866" stop-color="#FECF53" stop-opacity="0.9935"/>
      <stop offset="0.0851" stop-color="#FABF78" stop-opacity="0.9149"/>
      <stop offset="0.17" stop-color="#F6AF8E" stop-opacity="0.83"/>
      <stop offset="0.2605" stop-color="#F4A09C" stop-opacity="0.7395"/>
      <stop offset="0.3581" stop-color="#F293A3" stop-opacity="0.6419"/>
      <stop offset="0.4657" stop-color="#F088A7" stop-opacity="0.5343"/>
      <stop offset="0.5883" stop-color="#EF81A9" stop-opacity="0.4117"/>
      <stop offset="0.7389" stop-color="#EE7CAA" stop-opacity="0.2611"/>
      <stop offset="1" stop-color="#EE7AAA" stop-opacity="0"/>
    </linearGradient>
    <linearGradient id="paint8_linear_2871_27915" x1="42.8969" y1="99.9965" x2="42.8969" y2="0.939518" gradientUnits="userSpaceOnUse">
      <stop stop-color="#FFD14E"/>
      <stop offset="0.0064866" stop-color="#FECF53" stop-opacity="0.9935"/>
      <stop offset="0.0851" stop-color="#FABF78" stop-opacity="0.9149"/>
      <stop offset="0.17" stop-color="#F6AF8E" stop-opacity="0.83"/>
      <stop offset="0.2605" stop-color="#F4A09C" stop-opacity="0.7395"/>
      <stop offset="0.3581" stop-color="#F293A3" stop-opacity="0.6419"/>
      <stop offset="0.4657" stop-color="#F088A7" stop-opacity="0.5343"/>
      <stop offset="0.5883" stop-color="#EF81A9" stop-opacity="0.4117"/>
      <stop offset="0.7389" stop-color="#EE7CAA" stop-opacity="0.2611"/>
      <stop offset="1" stop-color="#EE7AAA" stop-opacity="0"/>
    </linearGradient>
    <linearGradient id="paint9_linear_2871_27915" x1="42.9223" y1="130.927" x2="42.9223" y2="63.2354" gradientUnits="userSpaceOnUse">
      <stop stop-color="#FFD14E"/>
      <stop offset="0.0064866" stop-color="#FECF53" stop-opacity="0.9935"/>
      <stop offset="0.0851" stop-color="#FABF78" stop-opacity="0.9149"/>
      <stop offset="0.17" stop-color="#F6AF8E" stop-opacity="0.83"/>
      <stop offset="0.2605" stop-color="#F4A09C" stop-opacity="0.7395"/>
      <stop offset="0.3581" stop-color="#F293A3" stop-opacity="0.6419"/>
      <stop offset="0.4657" stop-color="#F088A7" stop-opacity="0.5343"/>
      <stop offset="0.5883" stop-color="#EF81A9" stop-opacity="0.4117"/>
      <stop offset="0.7389" stop-color="#EE7CAA" stop-opacity="0.2611"/>
      <stop offset="1" stop-color="#EE7AAA" stop-opacity="0"/>
    </linearGradient>
    <linearGradient id="paint10_linear_2871_27915" x1="61.5901" y1="141.71" x2="61.5901" y2="97.0085" gradientUnits="userSpaceOnUse">
      <stop stop-color="#FFD14E"/>
      <stop offset="0.0064866" stop-color="#FECF53" stop-opacity="0.9935"/>
      <stop offset="0.0851" stop-color="#FABF78" stop-opacity="0.9149"/>
      <stop offset="0.17" stop-color="#F6AF8E" stop-opacity="0.83"/>
      <stop offset="0.2605" stop-color="#F4A09C" stop-opacity="0.7395"/>
      <stop offset="0.3581" stop-color="#F293A3" stop-opacity="0.6419"/>
      <stop offset="0.4657" stop-color="#F088A7" stop-opacity="0.5343"/>
      <stop offset="0.5883" stop-color="#EF81A9" stop-opacity="0.4117"/>
      <stop offset="0.7389" stop-color="#EE7CAA" stop-opacity="0.2611"/>
      <stop offset="1" stop-color="#EE7AAA" stop-opacity="0"/>
    </linearGradient>
    <linearGradient id="paint11_linear_2871_27915" x1="62.1361" y1="185.207" x2="62.1361" y2="126.9" gradientUnits="userSpaceOnUse">
      <stop stop-color="#FFD14E"/>
      <stop offset="0.0064866" stop-color="#FECF53" stop-opacity="0.9935"/>
      <stop offset="0.0851" stop-color="#FABF78" stop-opacity="0.9149"/>
      <stop offset="0.17" stop-color="#F6AF8E" stop-opacity="0.83"/>
      <stop offset="0.2605" stop-color="#F4A09C" stop-opacity="0.7395"/>
      <stop offset="0.3581" stop-color="#F293A3" stop-opacity="0.6419"/>
      <stop offset="0.4657" stop-color="#F088A7" stop-opacity="0.5343"/>
      <stop offset="0.5883" stop-color="#EF81A9" stop-opacity="0.4117"/>
      <stop offset="0.7389" stop-color="#EE7CAA" stop-opacity="0.2611"/>
      <stop offset="1" stop-color="#EE7AAA" stop-opacity="0"/>
    </linearGradient>
  </defs>
</svg>