<svg width="557" height="524" viewBox="0 0 557 524" fill="none" xmlns="http://www.w3.org/2000/svg">
<g opacity="0.2">
<path d="M497.517 180.798C498.103 181.76 498.103 182.969 497.517 183.931L484.104 205.978C483.558 206.877 482.582 207.425 481.53 207.425L454.208 207.425C453.156 207.425 452.18 206.877 451.633 205.978L438.22 183.931C437.635 182.969 437.635 181.76 438.22 180.798L451.633 158.751C452.18 157.852 453.156 157.304 454.208 157.304L481.53 157.304C482.582 157.304 483.558 157.852 484.104 158.751L497.517 180.798Z" stroke="#FCBE0A" stroke-width="4.68841" stroke-linejoin="bevel"/>
<path d="M497.517 241.477C498.103 242.44 498.103 243.648 497.517 244.61L484.105 266.657C483.558 267.556 482.582 268.105 481.53 268.105L454.208 268.105C453.156 268.105 452.18 267.556 451.633 266.657L438.22 244.61C437.635 243.648 437.635 242.44 438.22 241.477L451.633 219.43C452.18 218.532 453.156 217.983 454.208 217.983L481.53 217.983C482.582 217.983 483.558 218.532 484.105 219.43L497.517 241.477Z" stroke="#FCBE0A" stroke-width="4.68841" stroke-linejoin="bevel"/>
<path d="M498.205 301.504C498.79 302.466 498.79 303.675 498.205 304.637L484.792 326.684C484.245 327.583 483.269 328.131 482.217 328.131L454.896 328.131C453.844 328.131 452.868 327.583 452.321 326.684L438.908 304.637C438.322 303.675 438.322 302.466 438.908 301.504L452.321 279.457C452.868 278.558 453.844 278.01 454.896 278.01L482.217 278.01C483.269 278.01 484.245 278.558 484.792 279.457L498.205 301.504Z" stroke="#FCBE0A" stroke-width="4.68841" stroke-linejoin="bevel"/>
<path d="M171.625 243.435C172.21 244.397 172.21 245.605 171.625 246.568L158.212 268.614C157.665 269.513 156.689 270.062 155.637 270.062L128.316 270.062C127.264 270.062 126.288 269.513 125.741 268.614L112.328 246.568C111.742 245.605 111.742 244.397 112.328 243.435L125.741 221.388C126.288 220.489 127.264 219.94 128.316 219.94L155.637 219.94C156.689 219.94 157.665 220.489 158.212 221.388L171.625 243.435Z" stroke="#FCBE0A" stroke-width="4.68841" stroke-linejoin="bevel"/>
<path d="M171.625 303.461C172.21 304.424 172.21 305.632 171.625 306.594L158.212 328.641C157.665 329.54 156.689 330.089 155.637 330.089L128.316 330.089C127.264 330.089 126.288 329.54 125.741 328.641L112.328 306.594C111.742 305.632 111.742 304.424 112.328 303.461L125.741 281.415C126.288 280.516 127.264 279.967 128.316 279.967L155.637 279.967C156.689 279.967 157.665 280.516 158.212 281.415L171.625 303.461Z" stroke="#FCBE0A" stroke-width="4.68841" stroke-linejoin="bevel"/>
<path d="M170.937 365.446C171.523 366.408 171.523 367.617 170.937 368.579L157.524 390.626C156.978 391.525 156.002 392.073 154.95 392.073L127.628 392.073C126.576 392.073 125.6 391.525 125.053 390.626L111.64 368.579C111.055 367.617 111.055 366.408 111.64 365.446L125.053 343.399C125.6 342.5 126.576 341.951 127.628 341.951L154.95 341.951C156.002 341.951 156.978 342.5 157.524 343.399L170.937 365.446Z" stroke="#FCBE0A" stroke-width="4.68841" stroke-linejoin="bevel"/>
<path d="M225.94 213.421C226.526 214.383 226.526 215.592 225.94 216.554L212.527 238.601C211.981 239.5 211.005 240.048 209.953 240.048L182.631 240.048C181.579 240.048 180.603 239.5 180.056 238.601L166.643 216.554C166.058 215.592 166.058 214.383 166.643 213.421L180.056 191.374C180.603 190.475 181.579 189.927 182.631 189.927L209.953 189.927C211.005 189.927 211.981 190.475 212.527 191.374L225.94 213.421Z" stroke="#FCBE0A" stroke-width="4.68841" stroke-linejoin="bevel"/>
<path d="M225.94 272.796C226.526 273.758 226.526 274.966 225.94 275.929L212.527 297.976C211.981 298.874 211.005 299.423 209.953 299.423L182.631 299.423C181.579 299.423 180.603 298.874 180.056 297.976L166.643 275.929C166.058 274.966 166.058 273.758 166.643 272.796L180.056 250.749C180.603 249.85 181.579 249.301 182.631 249.301L209.953 249.301C211.005 249.301 211.981 249.85 212.527 250.749L225.94 272.796Z" stroke="#FCBE0A" stroke-width="4.68841" stroke-linejoin="bevel"/>
<path d="M279.568 303.462C280.154 304.424 280.154 305.632 279.568 306.595L266.155 328.642C265.608 329.54 264.632 330.089 263.58 330.089L236.259 330.089C235.207 330.089 234.231 329.54 233.684 328.642L220.271 306.595C219.686 305.632 219.686 304.424 220.271 303.462L233.684 281.415C234.231 280.516 235.207 279.967 236.259 279.967L263.58 279.967C264.632 279.967 265.608 280.516 266.155 281.415L279.568 303.462Z" stroke="#FCBE0A" stroke-width="4.68841" stroke-linejoin="bevel"/>
<path d="M62.9941 243.435C63.5795 244.397 63.5795 245.605 62.9941 246.568L49.5812 268.614C49.0343 269.513 48.0584 270.062 47.0063 270.062L19.6848 270.062C18.6327 270.062 17.6568 269.513 17.1099 268.614L3.697 246.568C3.11156 245.605 3.11156 244.397 3.69701 243.435L17.11 221.388C17.6568 220.489 18.6327 219.94 19.6848 219.94L47.0063 219.94C48.0584 219.94 49.0343 220.489 49.5812 221.388L62.9941 243.435Z" stroke="#FCBE0A" stroke-width="4.68841" stroke-linejoin="bevel"/>
<path d="M117.997 272.796C118.583 273.758 118.583 274.966 117.997 275.929L104.584 297.976C104.037 298.874 103.061 299.423 102.009 299.423L74.6878 299.423C73.6357 299.423 72.6597 298.874 72.1129 297.976L58.7 275.929C58.1145 274.966 58.1145 273.758 58.7 272.796L72.1129 250.749C72.6597 249.85 73.6357 249.301 74.6878 249.301L102.009 249.301C103.061 249.301 104.037 249.85 104.584 250.749L117.997 272.796Z" stroke="#FCBE0A" stroke-width="4.68841" stroke-linejoin="bevel"/>
<path d="M387.512 60.7441C388.097 61.7064 388.097 62.9149 387.512 63.8772L374.099 85.924C373.552 86.8229 372.576 87.3715 371.524 87.3715L344.202 87.3715C343.15 87.3715 342.174 86.8229 341.627 85.924L328.214 63.8772C327.629 62.9149 327.629 61.7064 328.214 60.7441L341.627 38.6972C342.174 37.7984 343.15 37.2498 344.202 37.2498L371.524 37.2498C372.576 37.2498 373.552 37.7984 374.099 38.6972L387.512 60.7441Z" stroke="#FCBE0A" stroke-width="4.68841" stroke-linejoin="bevel"/>
<path d="M387.512 122.728C388.097 123.691 388.097 124.899 387.512 125.861L374.099 147.908C373.552 148.807 372.576 149.356 371.524 149.356L344.202 149.356C343.15 149.356 342.174 148.807 341.627 147.908L328.214 125.861C327.629 124.899 327.629 123.691 328.214 122.728L341.627 100.681C342.174 99.7825 343.15 99.2339 344.202 99.2339L371.524 99.2339C372.576 99.2339 373.552 99.7825 374.099 100.681L387.512 122.728Z" stroke="#FCBE0A" stroke-width="4.68841" stroke-linejoin="bevel"/>
<path d="M387.512 184.06C388.097 185.023 388.097 186.231 387.512 187.193L374.099 209.24C373.552 210.139 372.576 210.688 371.524 210.688L344.202 210.688C343.15 210.688 342.174 210.139 341.627 209.24L328.214 187.193C327.629 186.231 327.629 185.023 328.214 184.06L341.627 162.013C342.174 161.115 343.15 160.566 344.202 160.566L371.524 160.566C372.576 160.566 373.552 161.115 374.099 162.013L387.512 184.06Z" stroke="#FCBE0A" stroke-width="4.68841" stroke-linejoin="bevel"/>
<path d="M387.512 242.782C388.097 243.745 388.097 244.953 387.512 245.915L374.099 267.962C373.552 268.861 372.576 269.41 371.524 269.41L344.202 269.41C343.15 269.41 342.174 268.861 341.627 267.962L328.214 245.915C327.629 244.953 327.629 243.744 328.214 242.782L341.627 220.735C342.174 219.837 343.15 219.288 344.202 219.288L371.524 219.288C372.576 219.288 373.552 219.837 374.099 220.735L387.512 242.782Z" stroke="#FCBE0A" stroke-width="4.68841" stroke-linejoin="bevel"/>
<path d="M387.512 303.461C388.097 304.424 388.097 305.632 387.512 306.594L374.099 328.641C373.552 329.54 372.576 330.089 371.524 330.089L344.202 330.089C343.15 330.089 342.174 329.54 341.627 328.641L328.214 306.594C327.629 305.632 327.629 304.424 328.214 303.461L341.627 281.415C342.174 280.516 343.15 279.967 344.202 279.967L371.524 279.967C372.576 279.967 373.552 280.516 374.099 281.415L387.512 303.461Z" stroke="#FCBE0A" stroke-width="4.68841" stroke-linejoin="bevel"/>
<path d="M441.827 30.0781C442.412 31.0404 442.412 32.2488 441.827 33.2111L428.414 55.258C427.867 56.1568 426.891 56.7055 425.839 56.7055L398.518 56.7055C397.466 56.7055 396.49 56.1568 395.943 55.258L382.53 33.2111C381.944 32.2488 381.944 31.0404 382.53 30.0781L395.943 8.03123C396.49 7.1324 397.466 6.58377 398.518 6.58378L425.839 6.58378C426.891 6.58378 427.867 7.1324 428.414 8.03123L441.827 30.0781Z" stroke="#FCBE0A" stroke-width="4.68841" stroke-linejoin="bevel"/>
<path d="M441.827 91.4099C442.412 92.3722 442.412 93.5806 441.827 94.5429L428.414 116.59C427.867 117.489 426.891 118.037 425.839 118.037L398.518 118.037C397.466 118.037 396.49 117.489 395.943 116.59L382.53 94.5429C381.944 93.5806 381.944 92.3722 382.53 91.4099L395.943 69.363C396.49 68.4642 397.466 67.9156 398.518 67.9156L425.839 67.9156C426.891 67.9156 427.867 68.4642 428.414 69.363L441.827 91.4099Z" stroke="#FCBE0A" stroke-width="4.68841" stroke-linejoin="bevel"/>
<path d="M441.827 152.089C442.412 153.052 442.412 154.26 441.827 155.222L428.414 177.269C427.867 178.168 426.891 178.717 425.839 178.717L398.518 178.717C397.466 178.717 396.49 178.168 395.943 177.269L382.53 155.222C381.944 154.26 381.944 153.052 382.53 152.089L395.943 130.042C396.49 129.144 397.466 128.595 398.518 128.595L425.839 128.595C426.891 128.595 427.867 129.144 428.414 130.042L441.827 152.089Z" stroke="#FCBE0A" stroke-width="4.68841" stroke-linejoin="bevel"/>
<path d="M441.827 212.116C442.412 213.078 442.412 214.287 441.827 215.249L428.414 237.296C427.867 238.195 426.891 238.744 425.839 238.744L398.518 238.744C397.466 238.744 396.49 238.195 395.943 237.296L382.53 215.249C381.944 214.287 381.944 213.078 382.53 212.116L395.943 190.069C396.49 189.17 397.466 188.622 398.518 188.622L425.839 188.622C426.891 188.622 427.867 189.17 428.414 190.069L441.827 212.116Z" stroke="#FCBE0A" stroke-width="4.68841" stroke-linejoin="bevel"/>
<path d="M441.827 272.796C442.412 273.758 442.412 274.966 441.827 275.929L428.414 297.976C427.867 298.874 426.891 299.423 425.839 299.423L398.518 299.423C397.466 299.423 396.49 298.874 395.943 297.976L382.53 275.929C381.944 274.966 381.944 273.758 382.53 272.796L395.943 250.749C396.49 249.85 397.466 249.301 398.518 249.301L425.839 249.301C426.891 249.301 427.867 249.85 428.414 250.749L441.827 272.796Z" stroke="#FCBE0A" stroke-width="4.68841" stroke-linejoin="bevel"/>
<path d="M445.265 334.127C445.85 335.09 445.85 336.298 445.265 337.26L431.852 359.307C431.305 360.206 430.329 360.755 429.277 360.755L401.955 360.755C400.903 360.755 399.927 360.206 399.38 359.307L385.968 337.26C385.382 336.298 385.382 335.09 385.968 334.127L399.38 312.081C399.927 311.182 400.903 310.633 401.955 310.633L429.277 310.633C430.329 310.633 431.305 311.182 431.852 312.081L445.265 334.127Z" stroke="#FCBE0A" stroke-width="4.68841" stroke-linejoin="bevel"/>
<path d="M497.517 60.7441C498.103 61.7064 498.103 62.9149 497.517 63.8772L484.104 85.924C483.558 86.8229 482.582 87.3715 481.53 87.3715L454.208 87.3715C453.156 87.3715 452.18 86.8229 451.633 85.924L438.22 63.8772C437.635 62.9149 437.635 61.7064 438.22 60.7441L451.633 38.6972C452.18 37.7984 453.156 37.2498 454.208 37.2498L481.53 37.2498C482.582 37.2498 483.558 37.7984 484.104 38.6972L497.517 60.7441Z" stroke="#FCBE0A" stroke-width="4.68841" stroke-linejoin="bevel"/>
<path d="M497.517 120.771C498.103 121.733 498.103 122.942 497.517 123.904L484.104 145.951C483.558 146.85 482.582 147.398 481.53 147.398L454.208 147.398C453.156 147.398 452.18 146.85 451.633 145.951L438.22 123.904C437.635 122.942 437.635 121.733 438.22 120.771L451.633 98.7241C452.18 97.8253 453.156 97.2766 454.208 97.2766L481.53 97.2766C482.582 97.2766 483.558 97.8253 484.104 98.7241L497.517 120.771Z" stroke="#FCBE0A" stroke-width="4.68841" stroke-linejoin="bevel"/>
<path d="M553.208 30.0781C553.793 31.0404 553.793 32.2488 553.208 33.2111L539.795 55.258C539.248 56.1568 538.272 56.7055 537.22 56.7055L509.899 56.7055C508.847 56.7055 507.871 56.1568 507.324 55.258L493.911 33.2111C493.325 32.2488 493.325 31.0404 493.911 30.0781L507.324 8.03123C507.871 7.1324 508.847 6.58377 509.899 6.58378L537.22 6.58378C538.272 6.58378 539.248 7.1324 539.795 8.03123L553.208 30.0781Z" stroke="#FCBE0A" stroke-width="4.68841" stroke-linejoin="bevel"/>
<path d="M553.208 149.479C553.793 150.442 553.793 151.65 553.208 152.613L539.795 174.659C539.248 175.558 538.272 176.107 537.22 176.107L509.899 176.107C508.847 176.107 507.871 175.558 507.324 174.659L493.911 152.613C493.325 151.65 493.325 150.442 493.911 149.479L507.324 127.433C507.871 126.534 508.847 125.985 509.899 125.985L537.22 125.985C538.272 125.985 539.248 126.534 539.795 127.433L553.208 149.479Z" stroke="#FCBE0A" stroke-width="4.68841" stroke-linejoin="bevel"/>
<path d="M553.208 90.105C553.793 91.0673 553.793 92.2757 553.208 93.238L539.795 115.285C539.248 116.184 538.272 116.732 537.22 116.732L509.899 116.732C508.847 116.732 507.871 116.184 507.324 115.285L493.911 93.238C493.325 92.2757 493.325 91.0673 493.911 90.1049L507.324 68.0581C507.871 67.1593 508.847 66.6106 509.899 66.6106L537.22 66.6106C538.272 66.6106 539.248 67.1593 539.795 68.0581L553.208 90.105Z" stroke="#FCBE0A" stroke-width="4.68841" stroke-linejoin="bevel"/>
<path d="M553.208 270.186C553.793 271.148 553.793 272.357 553.208 273.319L539.795 295.366C539.248 296.265 538.272 296.813 537.22 296.813L509.899 296.813C508.847 296.813 507.871 296.265 507.324 295.366L493.911 273.319C493.325 272.357 493.325 271.148 493.911 270.186L507.324 248.139C507.871 247.24 508.847 246.691 509.899 246.691L537.22 246.691C538.272 246.691 539.248 247.24 539.795 248.139L553.208 270.186Z" stroke="#FCBE0A" stroke-width="4.68841" stroke-linejoin="bevel"/>
<path d="M553.208 210.159C553.793 211.121 553.793 212.33 553.208 213.292L539.795 235.339C539.248 236.238 538.272 236.786 537.22 236.786L509.899 236.786C508.847 236.786 507.871 236.238 507.324 235.339L493.911 213.292C493.325 212.33 493.325 211.121 493.911 210.159L507.324 188.112C507.871 187.213 508.847 186.665 509.899 186.665L537.22 186.665C538.272 186.665 539.248 187.213 539.795 188.112L553.208 210.159Z" stroke="#FCBE0A" stroke-width="4.68841" stroke-linejoin="bevel"/>
<path d="M279.568 243.435C280.154 244.397 280.154 245.605 279.568 246.568L266.155 268.614C265.608 269.513 264.632 270.062 263.58 270.062L236.259 270.062C235.207 270.062 234.231 269.513 233.684 268.614L220.271 246.568C219.686 245.605 219.686 244.397 220.271 243.435L233.684 221.388C234.231 220.489 235.207 219.94 236.259 219.94L263.58 219.94C264.632 219.94 265.608 220.489 266.155 221.388L279.568 243.435Z" stroke="#FCBE0A" stroke-width="4.68841" stroke-linejoin="bevel"/>
<path d="M332.509 213.421C333.094 214.383 333.094 215.592 332.509 216.554L319.096 238.601C318.549 239.5 317.573 240.048 316.521 240.048L289.199 240.048C288.147 240.048 287.171 239.5 286.624 238.601L273.211 216.554C272.626 215.592 272.626 214.383 273.211 213.421L286.624 191.374C287.171 190.475 288.147 189.927 289.199 189.927L316.521 189.927C317.573 189.927 318.549 190.475 319.096 191.374L332.509 213.421Z" stroke="#FCBE0A" stroke-width="4.68841" stroke-linejoin="bevel"/>
<path d="M332.509 273.448C333.094 274.41 333.094 275.619 332.509 276.581L319.096 298.628C318.549 299.527 317.573 300.075 316.521 300.075L289.199 300.075C288.147 300.075 287.171 299.527 286.624 298.628L273.211 276.581C272.626 275.619 272.626 274.41 273.211 273.448L286.624 251.401C287.171 250.502 288.147 249.954 289.199 249.954L316.521 249.954C317.573 249.954 318.549 250.502 319.096 251.401L332.509 273.448Z" stroke="#FCBE0A" stroke-width="4.68841" stroke-linejoin="bevel"/>
<path d="M62.9941 303.461C63.5795 304.424 63.5795 305.632 62.9941 306.594L49.5811 328.641C49.0343 329.54 48.0584 330.089 47.0063 330.089L19.6848 330.089C18.6327 330.089 17.6568 329.54 17.1099 328.641L3.697 306.594C3.11156 305.632 3.11156 304.424 3.697 303.461L17.1099 281.415C17.6568 280.516 18.6327 279.967 19.6848 279.967L47.0063 279.967C48.0584 279.967 49.0343 280.516 49.5811 281.415L62.9941 303.461Z" stroke="#FCBE0A" stroke-width="4.68841" stroke-linejoin="bevel"/>
</g>
<g opacity="0.2">
<path d="M381.401 435.814L378.024 441.366C377.987 441.425 377.895 441.426 377.858 441.365L358.356 408.978C357.941 408.286 357.445 407.641 356.863 407.069C356.38 406.591 355.778 406.1 355.143 405.819C355.143 405.819 354.021 405.373 353.343 405.212C352.53 405.019 351.692 404.937 350.855 404.939L311.547 405.106C311.474 405.106 311.427 405.031 311.465 404.969L314.841 399.419C315.622 398.136 317.052 397.336 318.611 397.31L340.146 396.944C340.192 396.943 340.233 396.921 340.256 396.883L343.493 391.562C343.974 390.771 344.86 390.28 345.822 390.271L351.57 390.221L350.688 382.736C350.483 380.995 349.423 379.449 347.828 378.569L343.181 376.003C342.35 375.543 342.094 374.516 342.622 373.749L342.744 373.57C343.16 372.968 344.004 372.789 344.649 373.167L351.723 377.318C353.132 378.146 354.086 379.521 354.334 381.077L355.783 390.182L362.137 390.126L362.865 390.119C364.188 390.107 365.403 390.798 366.02 391.908L366.234 392.298L369.36 397.548L378.393 394.185C379.937 393.611 381.668 393.709 383.128 394.454L390.454 398.192C391.122 398.531 391.38 399.315 391.039 399.957L390.936 400.148C390.501 400.965 389.435 401.269 388.599 400.816L383.935 398.279C382.335 397.408 380.396 397.31 378.703 398.011L371.431 401.029L374.258 405.78C374.731 406.575 374.726 407.547 374.245 408.338L371.008 413.66C370.985 413.696 370.985 413.743 371.007 413.78L381.441 431.661C382.197 432.955 382.181 434.533 381.401 435.814Z" fill="url(#paint0_linear_5208_12883)" stroke="url(#paint1_linear_5208_12883)" stroke-width="0.0641901" stroke-miterlimit="10"/>
<path d="M353.218 409.494C354.349 410.108 355.539 412.409 355.539 412.409L363.781 425.492L375.439 445.472C375.456 445.501 375.455 445.538 375.437 445.567L370.839 453.125C370.799 453.191 370.698 453.191 370.658 453.126L350.935 420.366C350.828 420.192 350.714 420.023 350.587 419.861C350.15 419.307 349.338 418.282 348.183 417.771C348.183 417.771 347.47 417.176 344.806 416.767C344.595 416.736 344.383 416.732 344.171 416.734L304.414 416.9C304.334 416.901 304.283 416.818 304.324 416.751L308.922 409.195C308.939 409.165 308.972 409.147 309.007 409.145L333.07 408.737L349.129 408.969C349.13 408.971 352.092 408.871 353.218 409.494Z" fill="url(#paint2_linear_5208_12883)" stroke="url(#paint3_linear_5208_12883)" stroke-width="0.0641901" stroke-miterlimit="10"/>
<path d="M342.945 431.439C343.179 431.702 343.383 431.985 343.559 432.286L353.347 449.114C353.385 449.18 353.483 449.18 353.522 449.116L358.125 441.55C358.141 441.524 358.141 441.492 358.126 441.465L348.676 425.76C348.139 424.87 347.495 424.038 346.735 423.309C346.233 422.828 345.385 422.369 345.385 422.369C344.976 422.063 344.277 421.827 343.586 421.655C342.541 421.395 341.461 421.28 340.378 421.286L321.323 421.372C321.29 421.372 321.261 421.389 321.245 421.415L316.642 428.981C316.603 429.045 316.653 429.126 316.731 429.124L337.472 428.661C337.472 428.661 339.711 428.866 340.897 429.57L341.75 430.259C342.092 430.534 342.409 430.837 342.699 431.163L342.945 431.439Z" fill="url(#paint4_linear_5208_12883)" stroke="url(#paint5_linear_5208_12883)" stroke-width="0.0641901" stroke-miterlimit="10"/>
<path d="M325.057 455.783L323.437 444.723C323.433 444.692 323.421 444.661 323.4 444.635L319.926 440.185C319.847 440.082 319.77 439.979 319.696 439.871L314.906 432.883C314.864 432.822 314.911 432.739 314.988 432.738L332.965 432.655C334.467 432.649 335.964 432.852 337.387 433.304C337.802 433.436 338.182 433.581 338.463 433.737C338.463 433.737 339.187 434.207 339.514 434.482C340.638 435.427 341.255 436.296 342 437.534L350.913 452.35C350.951 452.414 350.9 452.494 350.821 452.49L342.05 452.047C341.916 452.041 341.781 452.029 341.648 452.015L335.85 451.384C335.816 451.38 335.782 451.386 335.751 451.398L325.057 455.783Z" fill="url(#paint6_linear_5208_12883)" stroke="url(#paint7_linear_5208_12883)" stroke-width="0.0641901" stroke-miterlimit="10"/>
<path d="M364.436 390.445L355.102 405.787C355.063 405.767 355.022 405.749 354.982 405.731C354.982 405.731 353.861 405.284 353.183 405.123C352.369 404.931 351.531 404.848 350.694 404.851L311.386 405.018C311.313 405.017 311.266 404.942 311.304 404.881L314.68 399.331C315.461 398.048 316.891 397.248 318.45 397.221L339.985 396.856C340.031 396.854 340.072 396.832 340.095 396.794L343.332 391.474C343.813 390.683 344.699 390.191 345.661 390.183L351.409 390.132L350.527 382.647C350.322 380.906 349.262 379.36 347.667 378.48L343.021 375.914C342.189 375.454 341.933 374.427 342.462 373.66L342.583 373.482C342.999 372.88 343.843 372.7 344.488 373.078L351.562 377.23C352.971 378.057 353.925 379.432 354.173 380.989L355.622 390.094L361.976 390.037L362.704 390.03C363.321 390.024 363.916 390.173 364.436 390.445Z" fill="#FFCD1C" stroke="url(#paint8_linear_5208_12883)" stroke-width="0.0641901" stroke-miterlimit="10"/>
<path d="M352.938 409.344L347.91 417.607C347.624 417.434 346.736 417.001 344.645 416.679C344.437 416.646 344.223 416.644 344.01 416.645L304.255 416.813C304.173 416.813 304.122 416.73 304.162 416.664L308.761 409.106C308.778 409.077 308.811 409.058 308.848 409.058L332.91 408.651L348.969 408.883C348.969 408.883 351.737 408.789 352.938 409.344Z" fill="#FFCD1C" stroke="url(#paint9_linear_5208_12883)" stroke-width="0.0641901" stroke-miterlimit="10"/>
<path d="M345.113 422.206L340.699 429.462C339.505 428.773 337.312 428.573 337.312 428.573L316.572 429.036C316.493 429.038 316.443 428.958 316.483 428.893L321.085 421.327C321.101 421.301 321.131 421.285 321.163 421.284L340.219 421.198C341.299 421.193 342.38 421.307 343.425 421.567C344.058 421.725 344.697 421.935 345.113 422.206Z" fill="#FFCD1C" stroke="url(#paint10_linear_5208_12883)" stroke-width="0.0641901" stroke-miterlimit="10"/>
<path d="M338.189 433.587L324.866 455.487L323.276 444.635C323.273 444.604 323.26 444.573 323.241 444.548L319.766 440.098C319.687 439.995 319.61 439.892 319.538 439.784L314.748 432.797C314.705 432.734 314.753 432.652 314.83 432.652L332.807 432.569C334.309 432.562 335.806 432.766 337.232 433.217C337.588 433.331 337.922 433.457 338.189 433.587Z" fill="#FFCD1C" stroke="url(#paint11_linear_5208_12883)" stroke-width="0.0641901" stroke-miterlimit="10"/>
</g>
<g opacity="0.2">
<path d="M445.524 496.293V500.222C445.524 500.264 445.475 500.291 445.437 500.27L424.822 488.751C424.383 488.504 423.916 488.306 423.427 488.171C423.02 488.059 422.546 487.973 422.122 488.009C422.122 488.009 421.39 488.098 420.982 488.209C420.493 488.344 420.026 488.543 419.586 488.789L398.971 500.309C398.933 500.329 398.884 500.303 398.884 500.26V496.332C398.884 495.424 399.381 494.583 400.192 494.116L411.398 487.659C411.422 487.645 411.436 487.621 411.436 487.594V483.829C411.436 483.269 411.745 482.751 412.248 482.467L415.254 480.768L412.396 477.052C411.731 476.187 410.679 475.675 409.559 475.672L406.295 475.661C405.711 475.659 405.247 475.188 405.28 474.627L405.287 474.497C405.313 474.057 405.7 473.716 406.159 473.729L411.207 473.876C412.213 473.905 413.154 474.357 413.783 475.111L417.457 479.523L420.78 477.645L421.161 477.429C421.852 477.039 422.712 477.052 423.392 477.462L423.629 477.606L426.952 479.484L430.626 475.072C431.254 474.318 432.196 473.867 433.202 473.838L438.249 473.691C438.709 473.677 439.095 474.018 439.121 474.458L439.128 474.589C439.161 475.149 438.698 475.621 438.113 475.623L434.849 475.633C433.729 475.636 432.678 476.148 432.013 477.013L429.154 480.729L432.161 482.429C432.664 482.713 432.972 483.23 432.972 483.79V487.556C432.972 487.582 432.987 487.607 433.011 487.62L444.216 494.077C445.028 494.544 445.524 495.386 445.524 496.293Z" fill="url(#paint12_linear_5208_12883)" stroke="url(#paint13_linear_5208_12883)" stroke-width="0.0394801" stroke-miterlimit="10"/>
<path d="M422.286 490.519C423.077 490.516 424.439 491.391 424.439 491.391L432.957 495.938L445.478 503.153C445.496 503.164 445.508 503.183 445.508 503.204V508.553C445.508 508.6 445.455 508.629 445.413 508.606L424.563 496.954C424.451 496.892 424.337 496.836 424.218 496.787C423.812 496.62 423.057 496.312 422.286 496.377C422.286 496.377 421.721 496.268 420.189 496.826C420.068 496.87 419.955 496.93 419.845 496.993L398.994 508.643C398.952 508.667 398.899 508.638 398.899 508.59V503.242C398.899 503.221 398.91 503.202 398.928 503.191L411.45 495.976L419.968 491.429C419.969 491.43 421.495 490.516 422.286 490.519Z" fill="url(#paint14_linear_5208_12883)" stroke="url(#paint15_linear_5208_12883)" stroke-width="0.0394801" stroke-miterlimit="10"/>
<path d="M423.905 505.154C424.111 505.226 424.309 505.317 424.498 505.425L435.028 511.511C435.069 511.535 435.121 511.506 435.121 511.461V506.107C435.121 506.088 435.11 506.071 435.093 506.061L425.101 500.473C424.534 500.157 423.929 499.903 423.296 499.737C422.878 499.627 422.286 499.631 422.286 499.631C421.973 499.587 421.53 499.665 421.112 499.775C420.479 499.941 419.874 500.194 419.307 500.511L409.315 506.099C409.298 506.109 409.288 506.126 409.288 506.145V511.499C409.288 511.544 409.34 511.573 409.38 511.549L420.138 505.271C420.138 505.271 421.381 504.729 422.23 504.758L422.899 504.875C423.167 504.922 423.43 504.99 423.686 505.079L423.905 505.154Z" fill="url(#paint16_linear_5208_12883)" stroke="url(#paint17_linear_5208_12883)" stroke-width="0.0394801" stroke-miterlimit="10"/>
<path d="M422.286 523.278L417.896 517.878C417.884 517.863 417.868 517.85 417.849 517.842L414.599 516.491C414.524 516.459 414.451 516.427 414.377 516.391L409.623 514.075C409.582 514.054 409.579 513.997 409.62 513.974L419.046 508.702C419.834 508.262 420.686 507.934 421.579 507.761C421.839 507.71 422.085 507.676 422.283 507.677C422.283 507.677 422.814 507.716 423.074 507.767C423.967 507.942 424.569 508.224 425.357 508.664L434.783 513.936C434.823 513.959 434.822 514.017 434.779 514.037L430.026 516.353C429.953 516.389 429.879 516.421 429.804 516.453L426.554 517.804C426.534 517.812 426.519 517.825 426.506 517.84L422.286 523.278Z" fill="url(#paint18_linear_5208_12883)" stroke="url(#paint19_linear_5208_12883)" stroke-width="0.0394801" stroke-miterlimit="10"/>
<path d="M422.091 477.146V488.003C422.063 488.004 422.036 488.006 422.009 488.008C422.009 488.008 421.277 488.097 420.869 488.209C420.379 488.344 419.913 488.543 419.473 488.788L398.858 500.308C398.82 500.329 398.771 500.303 398.771 500.26V496.332C398.771 495.424 399.268 494.583 400.079 494.116L411.285 487.659C411.309 487.645 411.323 487.621 411.323 487.594V483.829C411.323 483.269 411.632 482.751 412.135 482.467L415.141 480.768L412.283 477.051C411.618 476.187 410.566 475.675 409.446 475.672L406.182 475.661C405.598 475.659 405.134 475.188 405.167 474.627L405.174 474.497C405.2 474.056 405.586 473.716 406.046 473.729L411.094 473.875C412.1 473.905 413.041 474.357 413.67 475.111L417.344 479.523L420.667 477.645L421.047 477.429C421.37 477.247 421.73 477.152 422.091 477.146Z" fill="#FFCD1C" stroke="url(#paint20_linear_5208_12883)" stroke-width="0.0394801" stroke-miterlimit="10"/>
<path d="M422.09 490.521V496.369C421.885 496.36 421.279 496.388 420.076 496.825C419.957 496.869 419.844 496.929 419.732 496.992L398.882 508.643C398.839 508.666 398.786 508.637 398.786 508.59V503.242C398.786 503.221 398.797 503.201 398.816 503.191L411.338 495.977L419.856 491.43C419.856 491.43 421.281 490.575 422.09 490.521Z" fill="#FFCD1C" stroke="url(#paint21_linear_5208_12883)" stroke-width="0.0394801" stroke-miterlimit="10"/>
<path d="M422.09 499.623V504.758C421.243 504.74 420.025 505.271 420.025 505.271L409.268 511.548C409.228 511.572 409.176 511.544 409.176 511.499V506.144C409.176 506.126 409.186 506.108 409.203 506.099L419.195 500.511C419.761 500.194 420.366 499.941 420.999 499.775C421.382 499.675 421.785 499.6 422.09 499.623Z" fill="#FFCD1C" stroke="url(#paint22_linear_5208_12883)" stroke-width="0.0394801" stroke-miterlimit="10"/>
<path d="M422.09 507.677V523.176L417.783 517.878C417.772 517.863 417.755 517.85 417.737 517.842L414.486 516.491C414.412 516.459 414.338 516.427 414.266 516.391L409.513 514.075C409.47 514.054 409.468 513.997 409.509 513.974L418.935 508.702C419.723 508.262 420.575 507.934 421.469 507.76C421.693 507.716 421.908 507.686 422.09 507.677Z" fill="#FFCD1C" stroke="url(#paint23_linear_5208_12883)" stroke-width="0.0394801" stroke-miterlimit="10"/>
</g>
<defs>
<linearGradient id="paint0_linear_5208_12883" x1="367.568" y1="385.652" x2="346.429" y2="424.232" gradientUnits="userSpaceOnUse">
<stop stop-color="#FFE013"/>
<stop offset="0.5058" stop-color="#F29612"/>
<stop offset="0.9899" stop-color="#E64111"/>
</linearGradient>
<linearGradient id="paint1_linear_5208_12883" x1="367.614" y1="385.575" x2="346.39" y2="424.313" gradientUnits="userSpaceOnUse">
<stop stop-color="#FFD14E"/>
<stop offset="0.0064866" stop-color="#FECF53" stop-opacity="0.9935"/>
<stop offset="0.0851" stop-color="#FABF78" stop-opacity="0.9149"/>
<stop offset="0.17" stop-color="#F6AF8E" stop-opacity="0.83"/>
<stop offset="0.2605" stop-color="#F4A09C" stop-opacity="0.7395"/>
<stop offset="0.3581" stop-color="#F293A3" stop-opacity="0.6419"/>
<stop offset="0.4657" stop-color="#F088A7" stop-opacity="0.5343"/>
<stop offset="0.5883" stop-color="#EF81A9" stop-opacity="0.4117"/>
<stop offset="0.7389" stop-color="#EE7CAA" stop-opacity="0.2611"/>
<stop offset="1" stop-color="#EE7AAA" stop-opacity="0"/>
</linearGradient>
<linearGradient id="paint2_linear_5208_12883" x1="353.101" y1="409.43" x2="338.705" y2="435.705" gradientUnits="userSpaceOnUse">
<stop stop-color="#FFE013"/>
<stop offset="0.5058" stop-color="#F29612"/>
<stop offset="0.9899" stop-color="#E64111"/>
</linearGradient>
<linearGradient id="paint3_linear_5208_12883" x1="353.148" y1="409.354" x2="338.666" y2="435.786" gradientUnits="userSpaceOnUse">
<stop stop-color="#FFD14E"/>
<stop offset="0.0064866" stop-color="#FECF53" stop-opacity="0.9935"/>
<stop offset="0.0851" stop-color="#FABF78" stop-opacity="0.9149"/>
<stop offset="0.17" stop-color="#F6AF8E" stop-opacity="0.83"/>
<stop offset="0.2605" stop-color="#F4A09C" stop-opacity="0.7395"/>
<stop offset="0.3581" stop-color="#F293A3" stop-opacity="0.6419"/>
<stop offset="0.4657" stop-color="#F088A7" stop-opacity="0.5343"/>
<stop offset="0.5883" stop-color="#EF81A9" stop-opacity="0.4117"/>
<stop offset="0.7389" stop-color="#EE7CAA" stop-opacity="0.2611"/>
<stop offset="1" stop-color="#EE7AAA" stop-opacity="0"/>
</linearGradient>
<linearGradient id="paint4_linear_5208_12883" x1="345.278" y1="422.288" x2="335.8" y2="439.588" gradientUnits="userSpaceOnUse">
<stop stop-color="#FFE013"/>
<stop offset="0.5058" stop-color="#F29612"/>
<stop offset="0.9899" stop-color="#E64111"/>
</linearGradient>
<linearGradient id="paint5_linear_5208_12883" x1="345.325" y1="422.212" x2="335.761" y2="439.668" gradientUnits="userSpaceOnUse">
<stop stop-color="#FFD14E"/>
<stop offset="0.0064866" stop-color="#FECF53" stop-opacity="0.9935"/>
<stop offset="0.0851" stop-color="#FABF78" stop-opacity="0.9149"/>
<stop offset="0.17" stop-color="#F6AF8E" stop-opacity="0.83"/>
<stop offset="0.2605" stop-color="#F4A09C" stop-opacity="0.7395"/>
<stop offset="0.3581" stop-color="#F293A3" stop-opacity="0.6419"/>
<stop offset="0.4657" stop-color="#F088A7" stop-opacity="0.5343"/>
<stop offset="0.5883" stop-color="#EF81A9" stop-opacity="0.4117"/>
<stop offset="0.7389" stop-color="#EE7CAA" stop-opacity="0.2611"/>
<stop offset="1" stop-color="#EE7AAA" stop-opacity="0"/>
</linearGradient>
<linearGradient id="paint6_linear_5208_12883" x1="338.352" y1="433.674" x2="325.965" y2="456.281" gradientUnits="userSpaceOnUse">
<stop stop-color="#FFE013"/>
<stop offset="0.5058" stop-color="#F29612"/>
<stop offset="0.9899" stop-color="#E64111"/>
</linearGradient>
<linearGradient id="paint7_linear_5208_12883" x1="338.399" y1="433.597" x2="325.898" y2="456.413" gradientUnits="userSpaceOnUse">
<stop stop-color="#FFD14E"/>
<stop offset="0.0064866" stop-color="#FECF53" stop-opacity="0.9935"/>
<stop offset="0.0851" stop-color="#FABF78" stop-opacity="0.9149"/>
<stop offset="0.17" stop-color="#F6AF8E" stop-opacity="0.83"/>
<stop offset="0.2605" stop-color="#F4A09C" stop-opacity="0.7395"/>
<stop offset="0.3581" stop-color="#F293A3" stop-opacity="0.6419"/>
<stop offset="0.4657" stop-color="#F088A7" stop-opacity="0.5343"/>
<stop offset="0.5883" stop-color="#EF81A9" stop-opacity="0.4117"/>
<stop offset="0.7389" stop-color="#EE7CAA" stop-opacity="0.2611"/>
<stop offset="1" stop-color="#EE7AAA" stop-opacity="0"/>
</linearGradient>
<linearGradient id="paint8_linear_5208_12883" x1="327.84" y1="414.149" x2="349.034" y2="375.466" gradientUnits="userSpaceOnUse">
<stop stop-color="#FFD14E"/>
<stop offset="0.0064866" stop-color="#FECF53" stop-opacity="0.9935"/>
<stop offset="0.0851" stop-color="#FABF78" stop-opacity="0.9149"/>
<stop offset="0.17" stop-color="#F6AF8E" stop-opacity="0.83"/>
<stop offset="0.2605" stop-color="#F4A09C" stop-opacity="0.7395"/>
<stop offset="0.3581" stop-color="#F293A3" stop-opacity="0.6419"/>
<stop offset="0.4657" stop-color="#F088A7" stop-opacity="0.5343"/>
<stop offset="0.5883" stop-color="#EF81A9" stop-opacity="0.4117"/>
<stop offset="0.7389" stop-color="#EE7CAA" stop-opacity="0.2611"/>
<stop offset="1" stop-color="#EE7AAA" stop-opacity="0"/>
</linearGradient>
<linearGradient id="paint9_linear_5208_12883" x1="320.684" y1="425.933" x2="335.167" y2="399.499" gradientUnits="userSpaceOnUse">
<stop stop-color="#FFD14E"/>
<stop offset="0.0064866" stop-color="#FECF53" stop-opacity="0.9935"/>
<stop offset="0.0851" stop-color="#FABF78" stop-opacity="0.9149"/>
<stop offset="0.17" stop-color="#F6AF8E" stop-opacity="0.83"/>
<stop offset="0.2605" stop-color="#F4A09C" stop-opacity="0.7395"/>
<stop offset="0.3581" stop-color="#F293A3" stop-opacity="0.6419"/>
<stop offset="0.4657" stop-color="#F088A7" stop-opacity="0.5343"/>
<stop offset="0.5883" stop-color="#EF81A9" stop-opacity="0.4117"/>
<stop offset="0.7389" stop-color="#EE7CAA" stop-opacity="0.2611"/>
<stop offset="1" stop-color="#EE7AAA" stop-opacity="0"/>
</linearGradient>
<linearGradient id="paint10_linear_5208_12883" x1="325.596" y1="434.099" x2="335.16" y2="416.643" gradientUnits="userSpaceOnUse">
<stop stop-color="#FFD14E"/>
<stop offset="0.0064866" stop-color="#FECF53" stop-opacity="0.9935"/>
<stop offset="0.0851" stop-color="#FABF78" stop-opacity="0.9149"/>
<stop offset="0.17" stop-color="#F6AF8E" stop-opacity="0.83"/>
<stop offset="0.2605" stop-color="#F4A09C" stop-opacity="0.7395"/>
<stop offset="0.3581" stop-color="#F293A3" stop-opacity="0.6419"/>
<stop offset="0.4657" stop-color="#F088A7" stop-opacity="0.5343"/>
<stop offset="0.5883" stop-color="#EF81A9" stop-opacity="0.4117"/>
<stop offset="0.7389" stop-color="#EE7CAA" stop-opacity="0.2611"/>
<stop offset="1" stop-color="#EE7AAA" stop-opacity="0"/>
</linearGradient>
<linearGradient id="paint11_linear_5208_12883" x1="315.736" y1="450.782" x2="328.211" y2="428.012" gradientUnits="userSpaceOnUse">
<stop stop-color="#FFD14E"/>
<stop offset="0.0064866" stop-color="#FECF53" stop-opacity="0.9935"/>
<stop offset="0.0851" stop-color="#FABF78" stop-opacity="0.9149"/>
<stop offset="0.17" stop-color="#F6AF8E" stop-opacity="0.83"/>
<stop offset="0.2605" stop-color="#F4A09C" stop-opacity="0.7395"/>
<stop offset="0.3581" stop-color="#F293A3" stop-opacity="0.6419"/>
<stop offset="0.4657" stop-color="#F088A7" stop-opacity="0.5343"/>
<stop offset="0.5883" stop-color="#EF81A9" stop-opacity="0.4117"/>
<stop offset="0.7389" stop-color="#EE7CAA" stop-opacity="0.2611"/>
<stop offset="1" stop-color="#EE7AAA" stop-opacity="0"/>
</linearGradient>
<linearGradient id="paint12_linear_5208_12883" x1="422.204" y1="473.691" x2="422.204" y2="500.316" gradientUnits="userSpaceOnUse">
<stop stop-color="#FFE013"/>
<stop offset="0.5058" stop-color="#F29612"/>
<stop offset="0.9899" stop-color="#E64111"/>
</linearGradient>
<linearGradient id="paint13_linear_5208_12883" x1="422.204" y1="473.637" x2="422.204" y2="500.37" gradientUnits="userSpaceOnUse">
<stop stop-color="#FFD14E"/>
<stop offset="0.0064866" stop-color="#FECF53" stop-opacity="0.9935"/>
<stop offset="0.0851" stop-color="#FABF78" stop-opacity="0.9149"/>
<stop offset="0.17" stop-color="#F6AF8E" stop-opacity="0.83"/>
<stop offset="0.2605" stop-color="#F4A09C" stop-opacity="0.7395"/>
<stop offset="0.3581" stop-color="#F293A3" stop-opacity="0.6419"/>
<stop offset="0.4657" stop-color="#F088A7" stop-opacity="0.5343"/>
<stop offset="0.5883" stop-color="#EF81A9" stop-opacity="0.4117"/>
<stop offset="0.7389" stop-color="#EE7CAA" stop-opacity="0.2611"/>
<stop offset="1" stop-color="#EE7AAA" stop-opacity="0"/>
</linearGradient>
<linearGradient id="paint14_linear_5208_12883" x1="422.204" y1="490.519" x2="422.204" y2="508.652" gradientUnits="userSpaceOnUse">
<stop stop-color="#FFE013"/>
<stop offset="0.5058" stop-color="#F29612"/>
<stop offset="0.9899" stop-color="#E64111"/>
</linearGradient>
<linearGradient id="paint15_linear_5208_12883" x1="422.204" y1="490.465" x2="422.204" y2="508.706" gradientUnits="userSpaceOnUse">
<stop stop-color="#FFD14E"/>
<stop offset="0.0064866" stop-color="#FECF53" stop-opacity="0.9935"/>
<stop offset="0.0851" stop-color="#FABF78" stop-opacity="0.9149"/>
<stop offset="0.17" stop-color="#F6AF8E" stop-opacity="0.83"/>
<stop offset="0.2605" stop-color="#F4A09C" stop-opacity="0.7395"/>
<stop offset="0.3581" stop-color="#F293A3" stop-opacity="0.6419"/>
<stop offset="0.4657" stop-color="#F088A7" stop-opacity="0.5343"/>
<stop offset="0.5883" stop-color="#EF81A9" stop-opacity="0.4117"/>
<stop offset="0.7389" stop-color="#EE7CAA" stop-opacity="0.2611"/>
<stop offset="1" stop-color="#EE7AAA" stop-opacity="0"/>
</linearGradient>
<linearGradient id="paint16_linear_5208_12883" x1="422.204" y1="499.619" x2="422.204" y2="511.557" gradientUnits="userSpaceOnUse">
<stop stop-color="#FFE013"/>
<stop offset="0.5058" stop-color="#F29612"/>
<stop offset="0.9899" stop-color="#E64111"/>
</linearGradient>
<linearGradient id="paint17_linear_5208_12883" x1="422.204" y1="499.565" x2="422.204" y2="511.612" gradientUnits="userSpaceOnUse">
<stop stop-color="#FFD14E"/>
<stop offset="0.0064866" stop-color="#FECF53" stop-opacity="0.9935"/>
<stop offset="0.0851" stop-color="#FABF78" stop-opacity="0.9149"/>
<stop offset="0.17" stop-color="#F6AF8E" stop-opacity="0.83"/>
<stop offset="0.2605" stop-color="#F4A09C" stop-opacity="0.7395"/>
<stop offset="0.3581" stop-color="#F293A3" stop-opacity="0.6419"/>
<stop offset="0.4657" stop-color="#F088A7" stop-opacity="0.5343"/>
<stop offset="0.5883" stop-color="#EF81A9" stop-opacity="0.4117"/>
<stop offset="0.7389" stop-color="#EE7CAA" stop-opacity="0.2611"/>
<stop offset="1" stop-color="#EE7AAA" stop-opacity="0"/>
</linearGradient>
<linearGradient id="paint18_linear_5208_12883" x1="422.204" y1="507.676" x2="422.204" y2="523.278" gradientUnits="userSpaceOnUse">
<stop stop-color="#FFE013"/>
<stop offset="0.5058" stop-color="#F29612"/>
<stop offset="0.9899" stop-color="#E64111"/>
</linearGradient>
<linearGradient id="paint19_linear_5208_12883" x1="422.204" y1="507.622" x2="422.204" y2="523.368" gradientUnits="userSpaceOnUse">
<stop stop-color="#FFD14E"/>
<stop offset="0.0064866" stop-color="#FECF53" stop-opacity="0.9935"/>
<stop offset="0.0851" stop-color="#FABF78" stop-opacity="0.9149"/>
<stop offset="0.17" stop-color="#F6AF8E" stop-opacity="0.83"/>
<stop offset="0.2605" stop-color="#F4A09C" stop-opacity="0.7395"/>
<stop offset="0.3581" stop-color="#F293A3" stop-opacity="0.6419"/>
<stop offset="0.4657" stop-color="#F088A7" stop-opacity="0.5343"/>
<stop offset="0.5883" stop-color="#EF81A9" stop-opacity="0.4117"/>
<stop offset="0.7389" stop-color="#EE7CAA" stop-opacity="0.2611"/>
<stop offset="1" stop-color="#EE7AAA" stop-opacity="0"/>
</linearGradient>
<linearGradient id="paint20_linear_5208_12883" x1="410.431" y1="500.37" x2="410.431" y2="473.674" gradientUnits="userSpaceOnUse">
<stop stop-color="#FFD14E"/>
<stop offset="0.0064866" stop-color="#FECF53" stop-opacity="0.9935"/>
<stop offset="0.0851" stop-color="#FABF78" stop-opacity="0.9149"/>
<stop offset="0.17" stop-color="#F6AF8E" stop-opacity="0.83"/>
<stop offset="0.2605" stop-color="#F4A09C" stop-opacity="0.7395"/>
<stop offset="0.3581" stop-color="#F293A3" stop-opacity="0.6419"/>
<stop offset="0.4657" stop-color="#F088A7" stop-opacity="0.5343"/>
<stop offset="0.5883" stop-color="#EF81A9" stop-opacity="0.4117"/>
<stop offset="0.7389" stop-color="#EE7CAA" stop-opacity="0.2611"/>
<stop offset="1" stop-color="#EE7AAA" stop-opacity="0"/>
</linearGradient>
<linearGradient id="paint21_linear_5208_12883" x1="410.438" y1="508.705" x2="410.438" y2="490.463" gradientUnits="userSpaceOnUse">
<stop stop-color="#FFD14E"/>
<stop offset="0.0064866" stop-color="#FECF53" stop-opacity="0.9935"/>
<stop offset="0.0851" stop-color="#FABF78" stop-opacity="0.9149"/>
<stop offset="0.17" stop-color="#F6AF8E" stop-opacity="0.83"/>
<stop offset="0.2605" stop-color="#F4A09C" stop-opacity="0.7395"/>
<stop offset="0.3581" stop-color="#F293A3" stop-opacity="0.6419"/>
<stop offset="0.4657" stop-color="#F088A7" stop-opacity="0.5343"/>
<stop offset="0.5883" stop-color="#EF81A9" stop-opacity="0.4117"/>
<stop offset="0.7389" stop-color="#EE7CAA" stop-opacity="0.2611"/>
<stop offset="1" stop-color="#EE7AAA" stop-opacity="0"/>
</linearGradient>
<linearGradient id="paint22_linear_5208_12883" x1="415.633" y1="511.612" x2="415.633" y2="499.565" gradientUnits="userSpaceOnUse">
<stop stop-color="#FFD14E"/>
<stop offset="0.0064866" stop-color="#FECF53" stop-opacity="0.9935"/>
<stop offset="0.0851" stop-color="#FABF78" stop-opacity="0.9149"/>
<stop offset="0.17" stop-color="#F6AF8E" stop-opacity="0.83"/>
<stop offset="0.2605" stop-color="#F4A09C" stop-opacity="0.7395"/>
<stop offset="0.3581" stop-color="#F293A3" stop-opacity="0.6419"/>
<stop offset="0.4657" stop-color="#F088A7" stop-opacity="0.5343"/>
<stop offset="0.5883" stop-color="#EF81A9" stop-opacity="0.4117"/>
<stop offset="0.7389" stop-color="#EE7CAA" stop-opacity="0.2611"/>
<stop offset="1" stop-color="#EE7AAA" stop-opacity="0"/>
</linearGradient>
<linearGradient id="paint23_linear_5208_12883" x1="415.785" y1="523.334" x2="415.785" y2="507.62" gradientUnits="userSpaceOnUse">
<stop stop-color="#FFD14E"/>
<stop offset="0.0064866" stop-color="#FECF53" stop-opacity="0.9935"/>
<stop offset="0.0851" stop-color="#FABF78" stop-opacity="0.9149"/>
<stop offset="0.17" stop-color="#F6AF8E" stop-opacity="0.83"/>
<stop offset="0.2605" stop-color="#F4A09C" stop-opacity="0.7395"/>
<stop offset="0.3581" stop-color="#F293A3" stop-opacity="0.6419"/>
<stop offset="0.4657" stop-color="#F088A7" stop-opacity="0.5343"/>
<stop offset="0.5883" stop-color="#EF81A9" stop-opacity="0.4117"/>
<stop offset="0.7389" stop-color="#EE7CAA" stop-opacity="0.2611"/>
<stop offset="1" stop-color="#EE7AAA" stop-opacity="0"/>
</linearGradient>
</defs>
</svg>
