<svg width="304" height="230" viewBox="0 0 304 230" fill="none" xmlns="http://www.w3.org/2000/svg">
<g opacity="0.2">
<path d="M32.3777 125.156C32.0762 124.634 32.0762 123.991 32.3777 123.469L39.7394 110.718C40.0408 110.196 40.5979 109.874 41.2008 109.874L55.9242 109.874C56.5271 109.874 57.0842 110.196 57.3856 110.718L64.7473 123.469C65.0488 123.991 65.0488 124.634 64.7473 125.156L57.3856 137.907C57.0842 138.429 56.5271 138.751 55.9242 138.751L41.2008 138.751C40.5979 138.751 40.0408 138.429 39.7394 137.907L32.3777 125.156Z" stroke="#FCBE0A" stroke-width="2.625" stroke-linejoin="bevel"/>
<path d="M32.3777 90.2812C32.0762 89.7591 32.0762 89.1159 32.3777 88.5937L39.7394 75.8429C40.0408 75.3208 40.5979 74.9992 41.2008 74.9992L55.9242 74.9992C56.5271 74.9992 57.0842 75.3208 57.3856 75.8429L64.7473 88.5937C65.0488 89.1159 65.0488 89.7591 64.7473 90.2813L57.3856 103.032C57.0842 103.554 56.5271 103.876 55.9242 103.876L41.2008 103.876C40.5979 103.876 40.0408 103.554 39.7394 103.032L32.3777 90.2812Z" stroke="#FCBE0A" stroke-width="2.625" stroke-linejoin="bevel"/>
<path d="M210.128 89.1562C209.826 88.6341 209.826 87.9909 210.128 87.4687L217.489 74.7179C217.791 74.1958 218.348 73.8742 218.951 73.8742L233.674 73.8742C234.277 73.8742 234.834 74.1958 235.136 74.7179L242.497 87.4687C242.799 87.9909 242.799 88.6341 242.497 89.1563L235.136 101.907C234.834 102.429 234.277 102.751 233.674 102.751L218.951 102.751C218.348 102.751 217.791 102.429 217.489 101.907L210.128 89.1562Z" stroke="#FCBE0A" stroke-width="2.625" stroke-linejoin="bevel"/>
<path d="M210.128 54.6562C209.826 54.1341 209.826 53.4909 210.128 52.9687L217.489 40.2179C217.791 39.6958 218.348 39.3742 218.951 39.3742L233.674 39.3742C234.277 39.3742 234.834 39.6958 235.136 40.2179L242.497 52.9687C242.799 53.4909 242.799 54.1341 242.497 54.6563L235.136 67.4071C234.834 67.9292 234.277 68.2508 233.674 68.2508L218.951 68.2508C218.348 68.2508 217.791 67.9292 217.489 67.4071L210.128 54.6562Z" stroke="#FCBE0A" stroke-width="2.625" stroke-linejoin="bevel"/>
<path d="M210.503 19.0312C210.201 18.5091 210.201 17.8659 210.503 17.3437L217.864 4.59291C218.166 4.0708 218.723 3.74916 219.326 3.74916L234.049 3.74916C234.652 3.74916 235.209 4.0708 235.511 4.59291L242.872 17.3437C243.174 17.8659 243.174 18.5091 242.872 19.0313L235.511 31.7821C235.209 32.3042 234.652 32.6258 234.049 32.6258L219.326 32.6258C218.723 32.6258 218.166 32.3042 217.864 31.7821L210.503 19.0312Z" stroke="#FCBE0A" stroke-width="2.625" stroke-linejoin="bevel"/>
<path d="M180.503 106.406C180.201 105.884 180.201 105.241 180.503 104.719L187.864 91.9679C188.166 91.4458 188.723 91.1242 189.326 91.1242L204.049 91.1242C204.652 91.1242 205.209 91.4458 205.511 91.9679L212.872 104.719C213.174 105.241 213.174 105.884 212.872 106.406L205.511 119.157C205.209 119.679 204.652 120.001 204.049 120.001L189.326 120.001C188.723 120.001 188.166 119.679 187.864 119.157L180.503 106.406Z" stroke="#FCBE0A" stroke-width="2.625" stroke-linejoin="bevel"/>
<path d="M180.503 72.2812C180.201 71.7591 180.201 71.1159 180.503 70.5937L187.864 57.8429C188.166 57.3208 188.723 56.9992 189.326 56.9992L204.049 56.9992C204.652 56.9992 205.209 57.3208 205.511 57.8429L212.872 70.5937C213.174 71.1159 213.174 71.7591 212.872 72.2813L205.511 85.0321C205.209 85.5542 204.652 85.8758 204.049 85.8758L189.326 85.8758C188.723 85.8758 188.166 85.5542 187.864 85.0321L180.503 72.2812Z" stroke="#FCBE0A" stroke-width="2.625" stroke-linejoin="bevel"/>
<path d="M151.253 54.6562C150.951 54.1341 150.951 53.4909 151.253 52.9687L158.614 40.2179C158.916 39.6958 159.473 39.3742 160.076 39.3742L174.799 39.3742C175.402 39.3742 175.959 39.6958 176.261 40.2179L183.622 52.9687C183.924 53.4909 183.924 54.1341 183.622 54.6563L176.261 67.4071C175.959 67.9292 175.402 68.2508 174.799 68.2508L160.076 68.2508C159.473 68.2508 158.916 67.9292 158.614 67.4071L151.253 54.6562Z" stroke="#FCBE0A" stroke-width="2.625" stroke-linejoin="bevel"/>
<path d="M269.378 89.1562C269.076 88.6341 269.076 87.9909 269.378 87.4687L276.739 74.7179C277.041 74.1958 277.598 73.8742 278.201 73.8742L292.924 73.8742C293.527 73.8742 294.084 74.1958 294.386 74.7179L301.747 87.4687C302.049 87.9909 302.049 88.6341 301.747 89.1563L294.386 101.907C294.084 102.429 293.527 102.751 292.924 102.751L278.201 102.751C277.598 102.751 277.041 102.429 276.739 101.907L269.378 89.1562Z" stroke="#FCBE0A" stroke-width="2.625" stroke-linejoin="bevel"/>
<path d="M239.378 72.2812C239.076 71.7591 239.076 71.1159 239.378 70.5937L246.739 57.8429C247.041 57.3208 247.598 56.9992 248.201 56.9992L262.924 56.9992C263.527 56.9992 264.084 57.3208 264.386 57.8429L271.747 70.5937C272.049 71.1159 272.049 71.7591 271.747 72.2813L264.386 85.0321C264.084 85.5542 263.527 85.8758 262.924 85.8758L248.201 85.8758C247.598 85.8758 247.041 85.5542 246.739 85.0321L239.378 72.2812Z" stroke="#FCBE0A" stroke-width="2.625" stroke-linejoin="bevel"/>
<path d="M92.3777 123.281C92.0762 122.759 92.0762 122.116 92.3777 121.594L99.7394 108.843C100.041 108.321 100.598 107.999 101.201 107.999L115.924 107.999C116.527 107.999 117.084 108.321 117.386 108.843L124.747 121.594C125.049 122.116 125.049 122.759 124.747 123.281L117.386 136.032C117.084 136.554 116.527 136.876 115.924 136.876L101.201 136.876C100.598 136.876 100.041 136.554 99.7394 136.032L92.3777 123.281Z" stroke="#FCBE0A" stroke-width="2.625" stroke-linejoin="bevel"/>
<path d="M62.7527 211.781C62.4512 211.259 62.4512 210.616 62.7527 210.094L70.1144 197.343C70.4158 196.821 70.9729 196.499 71.5758 196.499L86.2992 196.499C86.9021 196.499 87.4592 196.821 87.7606 197.343L95.1223 210.094C95.4238 210.616 95.4238 211.259 95.1223 211.781L87.7606 224.532C87.4592 225.054 86.9021 225.376 86.2992 225.376L71.5758 225.376C70.9729 225.376 70.4158 225.054 70.1144 224.532L62.7527 211.781Z" stroke="#FCBE0A" stroke-width="2.625" stroke-linejoin="bevel"/>
<path d="M62.7527 141.656C62.4512 141.134 62.4512 140.491 62.7527 139.969L70.1144 127.218C70.4158 126.696 70.9729 126.374 71.5758 126.374L86.2992 126.374C86.9021 126.374 87.4592 126.696 87.7606 127.218L95.1223 139.969C95.4238 140.491 95.4238 141.134 95.1223 141.656L87.7606 154.407C87.4592 154.929 86.9021 155.251 86.2992 155.251L71.5758 155.251C70.9729 155.251 70.4158 154.929 70.1144 154.407L62.7527 141.656Z" stroke="#FCBE0A" stroke-width="2.625" stroke-linejoin="bevel"/>
<path d="M62.7527 107.156C62.4512 106.634 62.4512 105.991 62.7527 105.469L70.1144 92.7179C70.4158 92.1958 70.9729 91.8742 71.5758 91.8742L86.2992 91.8742C86.9021 91.8742 87.4592 92.1958 87.7606 92.7179L95.1223 105.469C95.4238 105.991 95.4238 106.634 95.1223 107.156L87.7606 119.907C87.4592 120.429 86.9021 120.751 86.2992 120.751L71.5758 120.751C70.9729 120.751 70.4158 120.429 70.1144 119.907L62.7527 107.156Z" stroke="#FCBE0A" stroke-width="2.625" stroke-linejoin="bevel"/>
<path d="M32.3777 194.156C32.0762 193.634 32.0762 192.991 32.3777 192.469L39.7394 179.718C40.0408 179.196 40.5979 178.874 41.2008 178.874L55.9242 178.874C56.5271 178.874 57.0842 179.196 57.3856 179.718L64.7473 192.469C65.0488 192.991 65.0488 193.634 64.7473 194.156L57.3856 206.907C57.0842 207.429 56.5271 207.751 55.9242 207.751L41.2008 207.751C40.5979 207.751 40.0408 207.429 39.7394 206.907L32.3777 194.156Z" stroke="#FCBE0A" stroke-width="2.625" stroke-linejoin="bevel"/>
<path d="M32.3777 159.656C32.0762 159.134 32.0762 158.491 32.3777 157.969L39.7394 145.218C40.0408 144.696 40.5979 144.374 41.2008 144.374L55.9242 144.374C56.5271 144.374 57.0842 144.696 57.3856 145.218L64.7473 157.969C65.0488 158.491 65.0488 159.134 64.7473 159.656L57.3856 172.407C57.0842 172.929 56.5271 173.251 55.9242 173.251L41.2008 173.251C40.5979 173.251 40.0408 172.929 39.7394 172.407L32.3777 159.656Z" stroke="#FCBE0A" stroke-width="2.625" stroke-linejoin="bevel"/>
<path d="M2.00268 143.156C1.70124 142.634 1.70124 141.991 2.00268 141.469L9.36438 128.718C9.66582 128.196 10.2229 127.874 10.8258 127.874L25.5492 127.874C26.1521 127.874 26.7092 128.196 27.0106 128.718L34.3723 141.469C34.6738 141.991 34.6738 142.634 34.3723 143.156L27.0106 155.907C26.7092 156.429 26.1521 156.751 25.5492 156.751L10.8258 156.751C10.2229 156.751 9.66583 156.429 9.36438 155.907L2.00268 143.156Z" stroke="#FCBE0A" stroke-width="2.625" stroke-linejoin="bevel"/>
<path d="M2.00268 177.281C1.70124 176.759 1.70124 176.116 2.00268 175.594L9.36438 162.843C9.66582 162.321 10.2229 161.999 10.8258 161.999L25.5492 161.999C26.1521 161.999 26.7092 162.321 27.0106 162.843L34.3723 175.594C34.6738 176.116 34.6738 176.759 34.3723 177.281L27.0106 190.032C26.7092 190.554 26.1521 190.876 25.5492 190.876L10.8258 190.876C10.2229 190.876 9.66583 190.554 9.36438 190.032L2.00268 177.281Z" stroke="#FCBE0A" stroke-width="2.625" stroke-linejoin="bevel"/>
<path d="M2.00268 73.7812C1.70124 73.2591 1.70124 72.6159 2.00268 72.0937L9.36438 59.3429C9.66582 58.8208 10.2229 58.4992 10.8258 58.4992L25.5492 58.4992C26.1521 58.4992 26.7092 58.8208 27.0106 59.3429L34.3723 72.0937C34.6738 72.6159 34.6738 73.2591 34.3723 73.7813L27.0106 86.5321C26.7092 87.0542 26.1521 87.3758 25.5492 87.3758L10.8258 87.3758C10.2229 87.3758 9.66583 87.0542 9.36438 86.5321L2.00268 73.7812Z" stroke="#FCBE0A" stroke-width="2.625" stroke-linejoin="bevel"/>
<path d="M2.00268 108.281C1.70124 107.759 1.70124 107.116 2.00268 106.594L9.36438 93.8429C9.66582 93.3208 10.2229 92.9992 10.8258 92.9992L25.5492 92.9992C26.1521 92.9992 26.7092 93.3208 27.0106 93.8429L34.3723 106.594C34.6738 107.116 34.6738 107.759 34.3723 108.281L27.0106 121.032C26.7092 121.554 26.1521 121.876 25.5492 121.876L10.8258 121.876C10.2229 121.876 9.66583 121.554 9.36438 121.032L2.00268 108.281Z" stroke="#FCBE0A" stroke-width="2.625" stroke-linejoin="bevel"/>
<path d="M151.253 89.1562C150.951 88.6341 150.951 87.9909 151.253 87.4687L158.614 74.7179C158.916 74.1958 159.473 73.8742 160.076 73.8742L174.799 73.8742C175.402 73.8742 175.959 74.1958 176.261 74.7179L183.622 87.4687C183.924 87.9909 183.924 88.6341 183.622 89.1563L176.261 101.907C175.959 102.429 175.402 102.751 174.799 102.751L160.076 102.751C159.473 102.751 158.916 102.429 158.614 101.907L151.253 89.1562Z" stroke="#FCBE0A" stroke-width="2.625" stroke-linejoin="bevel"/>
<path d="M122.378 106.406C122.076 105.884 122.076 105.241 122.378 104.719L129.739 91.9679C130.041 91.4458 130.598 91.1242 131.201 91.1242L145.924 91.1242C146.527 91.1242 147.084 91.4458 147.386 91.9679L154.747 104.719C155.049 105.241 155.049 105.884 154.747 106.406L147.386 119.157C147.084 119.679 146.527 120.001 145.924 120.001L131.201 120.001C130.598 120.001 130.041 119.679 129.739 119.157L122.378 106.406Z" stroke="#FCBE0A" stroke-width="2.625" stroke-linejoin="bevel"/>
<path d="M122.378 71.9062C122.076 71.3841 122.076 70.7409 122.378 70.2187L129.739 57.4679C130.041 56.9458 130.598 56.6242 131.201 56.6242L145.924 56.6242C146.527 56.6242 147.084 56.9458 147.386 57.4679L154.747 70.2187C155.049 70.7409 155.049 71.3841 154.747 71.9063L147.386 84.6571C147.084 85.1792 146.527 85.5008 145.924 85.5008L131.201 85.5008C130.598 85.5008 130.041 85.1792 129.739 84.6571L122.378 71.9062Z" stroke="#FCBE0A" stroke-width="2.625" stroke-linejoin="bevel"/>
<path d="M269.378 54.6562C269.076 54.1341 269.076 53.4909 269.378 52.9687L276.739 40.2179C277.041 39.6958 277.598 39.3742 278.201 39.3742L292.924 39.3742C293.527 39.3742 294.084 39.6958 294.386 40.2179L301.747 52.9687C302.049 53.4909 302.049 54.1341 301.747 54.6563L294.386 67.4071C294.084 67.9292 293.527 68.2508 292.924 68.2508L278.201 68.2508C277.598 68.2508 277.041 67.9292 276.739 67.4071L269.378 54.6562Z" stroke="#FCBE0A" stroke-width="2.625" stroke-linejoin="bevel"/>
</g>
</svg>
