<svg width="611" height="810" viewBox="0 0 611 810" fill="none" xmlns="http://www.w3.org/2000/svg">
<g opacity="0.2">
<path d="M277.25 723.66C278.642 724.463 280.358 724.463 281.75 723.66L315.752 704.028C317.145 703.224 318.002 701.739 318.002 700.131L318.002 660.869C318.002 659.261 317.145 657.776 315.752 656.972L281.75 637.34C280.358 636.537 278.642 636.537 277.25 637.34L243.248 656.972C241.856 657.776 240.998 659.261 240.998 660.869L240.998 700.131C240.998 701.739 241.856 703.224 243.248 704.028L277.25 723.66Z" stroke="#FCBE0A" stroke-width="7" stroke-linejoin="bevel"/>
<path d="M370.25 723.66C371.642 724.463 373.358 724.463 374.75 723.66L408.752 704.028C410.145 703.224 411.002 701.739 411.002 700.131L411.002 660.869C411.002 659.261 410.145 657.776 408.752 656.972L374.75 637.34C373.358 636.537 371.642 636.537 370.25 637.34L336.248 656.972C334.856 657.776 333.998 659.261 333.998 660.869L333.998 700.131C333.998 701.739 334.856 703.224 336.248 704.028L370.25 723.66Z" stroke="#FCBE0A" stroke-width="7" stroke-linejoin="bevel"/>
<path d="M462.25 724.66C463.642 725.463 465.358 725.463 466.75 724.66L500.752 705.028C502.145 704.224 503.002 702.739 503.002 701.131L503.002 661.869C503.002 660.261 502.145 658.776 500.752 657.972L466.75 638.34C465.358 637.537 463.642 637.537 462.25 638.34L428.248 657.972C426.856 658.776 425.998 660.261 425.998 661.869L425.998 701.131C425.998 702.739 426.856 704.224 428.248 705.028L462.25 724.66Z" stroke="#FCBE0A" stroke-width="7" stroke-linejoin="bevel"/>
<path d="M373.25 249.66C374.642 250.463 376.358 250.463 377.75 249.66L411.752 230.028C413.145 229.224 414.002 227.739 414.002 226.131L414.002 186.869C414.002 185.261 413.145 183.776 411.752 182.972L377.75 163.34C376.358 162.537 374.642 162.537 373.25 163.34L339.248 182.972C337.856 183.776 336.998 185.261 336.998 186.869L336.998 226.131C336.998 227.739 337.856 229.224 339.248 230.028L373.25 249.66Z" stroke="#FCBE0A" stroke-width="7" stroke-linejoin="bevel"/>
<path d="M465.25 249.66C466.642 250.463 468.358 250.463 469.75 249.66L503.752 230.028C505.145 229.224 506.002 227.739 506.002 226.131L506.002 186.869C506.002 185.261 505.145 183.776 503.752 182.972L469.75 163.34C468.358 162.537 466.642 162.537 465.25 163.34L431.248 182.972C429.856 183.776 428.998 185.261 428.998 186.869L428.998 226.131C428.998 227.739 429.856 229.224 431.248 230.028L465.25 249.66Z" stroke="#FCBE0A" stroke-width="7" stroke-linejoin="bevel"/>
<path d="M560.25 248.66C561.642 249.463 563.358 249.463 564.75 248.66L598.752 229.028C600.145 228.224 601.002 226.739 601.002 225.131L601.002 185.869C601.002 184.261 600.145 182.776 598.752 181.972L564.75 162.34C563.358 161.537 561.642 161.537 560.25 162.34L526.248 181.972C524.856 182.776 523.998 184.261 523.998 185.869L523.998 225.131C523.998 226.739 524.856 228.224 526.248 229.028L560.25 248.66Z" stroke="#FCBE0A" stroke-width="7" stroke-linejoin="bevel"/>
<path d="M327.25 328.66C328.642 329.463 330.358 329.463 331.75 328.66L365.752 309.028C367.145 308.224 368.002 306.739 368.002 305.131L368.002 265.869C368.002 264.261 367.145 262.776 365.752 261.972L331.75 242.34C330.358 241.537 328.642 241.537 327.25 242.34L293.248 261.972C291.856 262.776 290.998 264.261 290.998 265.869L290.998 305.131C290.998 306.739 291.856 308.224 293.248 309.028L327.25 328.66Z" stroke="#FCBE0A" stroke-width="7" stroke-linejoin="bevel"/>
<path d="M418.25 328.66C419.642 329.463 421.358 329.463 422.75 328.66L456.752 309.028C458.145 308.224 459.002 306.739 459.002 305.131L459.002 265.869C459.002 264.261 458.145 262.776 456.752 261.972L422.75 242.34C421.358 241.537 419.642 241.537 418.25 242.34L384.248 261.972C382.856 262.776 381.998 264.261 381.998 265.869L381.998 305.131C381.998 306.739 382.856 308.224 384.248 309.028L418.25 328.66Z" stroke="#FCBE0A" stroke-width="7" stroke-linejoin="bevel"/>
<path d="M465.25 406.66C466.642 407.463 468.358 407.463 469.75 406.66L503.752 387.028C505.145 386.224 506.002 384.739 506.002 383.131L506.002 343.869C506.002 342.261 505.145 340.776 503.752 339.972L469.75 320.34C468.358 319.537 466.642 319.537 465.25 320.34L431.248 339.972C429.856 340.776 428.998 342.261 428.998 343.869L428.998 383.131C428.998 384.739 429.856 386.224 431.248 387.028L465.25 406.66Z" stroke="#FCBE0A" stroke-width="7" stroke-linejoin="bevel"/>
<path d="M373.25 91.6595C374.642 92.4634 376.358 92.4634 377.75 91.6595L411.752 72.0283C413.145 71.2245 414.002 69.7389 414.002 68.1312L414.002 28.8688C414.002 27.2611 413.145 25.7755 411.752 24.9717L377.75 5.34049C376.358 4.53664 374.642 4.53664 373.25 5.34049L339.248 24.9717C337.855 25.7755 336.998 27.2611 336.998 28.8688L336.998 68.1312C336.998 69.7389 337.855 71.2245 339.248 72.0283L373.25 91.6595Z" stroke="#FCBE0A" stroke-width="7" stroke-linejoin="bevel"/>
<path d="M418.25 171.66C419.642 172.463 421.358 172.463 422.75 171.66L456.752 152.028C458.145 151.224 459.002 149.739 459.002 148.131L459.002 108.869C459.002 107.261 458.145 105.776 456.752 104.972L422.75 85.3405C421.358 84.5366 419.642 84.5366 418.25 85.3405L384.248 104.972C382.856 105.776 381.998 107.261 381.998 108.869L381.998 148.131C381.998 149.739 382.856 151.224 384.248 152.028L418.25 171.66Z" stroke="#FCBE0A" stroke-width="7" stroke-linejoin="bevel"/>
<path d="M93.2501 563.66C94.6424 564.463 96.3578 564.463 97.7501 563.66L131.752 544.028C133.145 543.224 134.002 541.739 134.002 540.131L134.002 500.869C134.002 499.261 133.145 497.776 131.752 496.972L97.7501 477.34C96.3578 476.537 94.6424 476.537 93.2501 477.34L59.2479 496.972C57.8556 497.776 56.9979 499.261 56.9979 500.869L56.9979 540.131C56.9979 541.739 57.8556 543.224 59.2479 544.028L93.2501 563.66Z" stroke="#FCBE0A" stroke-width="7" stroke-linejoin="bevel"/>
<path d="M188.25 563.66C189.642 564.463 191.358 564.463 192.75 563.66L226.752 544.028C228.145 543.224 229.002 541.739 229.002 540.131L229.002 500.869C229.002 499.261 228.145 497.776 226.752 496.972L192.75 477.34C191.358 476.537 189.642 476.537 188.25 477.34L154.248 496.972C152.856 497.776 151.998 499.261 151.998 500.869L151.998 540.131C151.998 541.739 152.856 543.224 154.248 544.028L188.25 563.66Z" stroke="#FCBE0A" stroke-width="7" stroke-linejoin="bevel"/>
<path d="M282.25 563.66C283.642 564.463 285.358 564.463 286.75 563.66L320.752 544.028C322.145 543.224 323.002 541.739 323.002 540.131L323.002 500.869C323.002 499.261 322.145 497.776 320.752 496.972L286.75 477.34C285.358 476.537 283.642 476.537 282.25 477.34L248.248 496.972C246.856 497.776 245.998 499.261 245.998 500.869L245.998 540.131C245.998 541.739 246.856 543.224 248.248 544.028L282.25 563.66Z" stroke="#FCBE0A" stroke-width="7" stroke-linejoin="bevel"/>
<path d="M372.25 563.66C373.642 564.463 375.358 564.463 376.75 563.66L410.752 544.028C412.145 543.224 413.002 541.739 413.002 540.131L413.002 500.869C413.002 499.261 412.145 497.776 410.752 496.972L376.75 477.34C375.358 476.537 373.642 476.537 372.25 477.34L338.248 496.972C336.856 497.776 335.998 499.261 335.998 500.869L335.998 540.131C335.998 541.739 336.856 543.224 338.248 544.028L372.25 563.66Z" stroke="#FCBE0A" stroke-width="7" stroke-linejoin="bevel"/>
<path d="M465.25 563.66C466.642 564.463 468.358 564.463 469.75 563.66L503.752 544.028C505.145 543.224 506.002 541.739 506.002 540.131L506.002 500.869C506.002 499.261 505.145 497.776 503.752 496.972L469.75 477.34C468.358 476.537 466.642 476.537 465.25 477.34L431.248 496.972C429.856 497.776 428.998 499.261 428.998 500.869L428.998 540.131C428.998 541.739 429.856 543.224 431.248 544.028L465.25 563.66Z" stroke="#FCBE0A" stroke-width="7" stroke-linejoin="bevel"/>
<path d="M46.2501 642.66C47.6424 643.463 49.3578 643.463 50.7501 642.66L84.7523 623.028C86.1447 622.224 87.0023 620.739 87.0023 619.131L87.0023 579.869C87.0023 578.261 86.1446 576.776 84.7523 575.972L50.7501 556.34C49.3578 555.537 47.6424 555.537 46.2501 556.34L12.2479 575.972C10.8556 576.776 9.99788 578.261 9.99788 579.869L9.99789 619.131C9.99789 620.739 10.8556 622.224 12.2479 623.028L46.2501 642.66Z" stroke="#FCBE0A" stroke-width="7" stroke-linejoin="bevel"/>
<path d="M140.25 642.66C141.642 643.463 143.358 643.463 144.75 642.66L178.752 623.028C180.145 622.224 181.002 620.739 181.002 619.131L181.002 579.869C181.002 578.261 180.145 576.776 178.752 575.972L144.75 556.34C143.358 555.537 141.642 555.537 140.25 556.34L106.248 575.972C104.856 576.776 103.998 578.261 103.998 579.869L103.998 619.131C103.998 620.739 104.856 622.224 106.248 623.028L140.25 642.66Z" stroke="#FCBE0A" stroke-width="7" stroke-linejoin="bevel"/>
<path d="M233.25 642.66C234.642 643.463 236.358 643.463 237.75 642.66L271.752 623.028C273.145 622.224 274.002 620.739 274.002 619.131L274.002 579.869C274.002 578.261 273.145 576.776 271.752 575.972L237.75 556.34C236.358 555.537 234.642 555.537 233.25 556.34L199.248 575.972C197.856 576.776 196.998 578.261 196.998 579.869L196.998 619.131C196.998 620.739 197.856 622.224 199.248 623.028L233.25 642.66Z" stroke="#FCBE0A" stroke-width="7" stroke-linejoin="bevel"/>
<path d="M325.25 642.66C326.642 643.463 328.358 643.463 329.75 642.66L363.752 623.028C365.145 622.224 366.002 620.739 366.002 619.131L366.002 579.869C366.002 578.261 365.145 576.776 363.752 575.972L329.75 556.34C328.358 555.537 326.642 555.537 325.25 556.34L291.248 575.972C289.856 576.776 288.998 578.261 288.998 579.869L288.998 619.131C288.998 620.739 289.856 622.224 291.248 623.028L325.25 642.66Z" stroke="#FCBE0A" stroke-width="7" stroke-linejoin="bevel"/>
<path d="M418.25 642.66C419.642 643.463 421.358 643.463 422.75 642.66L456.752 623.028C458.145 622.224 459.002 620.739 459.002 619.131L459.002 579.869C459.002 578.261 458.145 576.776 456.752 575.972L422.75 556.34C421.358 555.537 419.642 555.537 418.25 556.34L384.248 575.972C382.856 576.776 381.998 578.261 381.998 579.869L381.998 619.131C381.998 620.739 382.856 622.224 384.248 623.028L418.25 642.66Z" stroke="#FCBE0A" stroke-width="7" stroke-linejoin="bevel"/>
<path d="M512.25 647.66C513.642 648.463 515.358 648.463 516.75 647.66L550.752 628.028C552.145 627.224 553.002 625.739 553.002 624.131L553.002 584.869C553.002 583.261 552.145 581.776 550.752 580.972L516.75 561.34C515.358 560.537 513.642 560.537 512.25 561.34L478.248 580.972C476.856 581.776 475.998 583.261 475.998 584.869L475.998 624.131C475.998 625.739 476.856 627.224 478.248 628.028L512.25 647.66Z" stroke="#FCBE0A" stroke-width="7" stroke-linejoin="bevel"/>
<path d="M93.2501 723.66C94.6424 724.463 96.3578 724.463 97.7501 723.66L131.752 704.028C133.145 703.224 134.002 701.739 134.002 700.131L134.002 660.869C134.002 659.261 133.145 657.776 131.752 656.972L97.7501 637.34C96.3578 636.537 94.6424 636.537 93.2501 637.34L59.2479 656.972C57.8556 657.776 56.9979 659.261 56.9979 660.869L56.9979 700.131C56.9979 701.739 57.8556 703.224 59.2479 704.028L93.2501 723.66Z" stroke="#FCBE0A" stroke-width="7" stroke-linejoin="bevel"/>
<path d="M185.25 723.66C186.642 724.463 188.358 724.463 189.75 723.66L223.752 704.028C225.145 703.224 226.002 701.739 226.002 700.131L226.002 660.869C226.002 659.261 225.145 657.776 223.752 656.972L189.75 637.34C188.358 636.537 186.642 636.537 185.25 637.34L151.248 656.972C149.856 657.776 148.998 659.261 148.998 660.869L148.998 700.131C148.998 701.739 149.856 703.224 151.248 704.028L185.25 723.66Z" stroke="#FCBE0A" stroke-width="7" stroke-linejoin="bevel"/>
<path d="M46.2501 804.66C47.6424 805.463 49.3578 805.463 50.7501 804.66L84.7523 785.028C86.1447 784.224 87.0023 782.739 87.0023 781.131L87.0023 741.869C87.0023 740.261 86.1446 738.776 84.7523 737.972L50.7501 718.34C49.3578 717.537 47.6424 717.537 46.2501 718.34L12.2479 737.972C10.8556 738.776 9.99788 740.261 9.99788 741.869L9.99789 781.131C9.99789 782.739 10.8556 784.224 12.2479 785.028L46.2501 804.66Z" stroke="#FCBE0A" stroke-width="7" stroke-linejoin="bevel"/>
<path d="M229.25 804.66C230.642 805.463 232.358 805.463 233.75 804.66L267.752 785.028C269.145 784.224 270.002 782.739 270.002 781.131L270.002 741.869C270.002 740.261 269.145 738.776 267.752 737.972L233.75 718.34C232.358 717.537 230.642 717.537 229.25 718.34L195.248 737.972C193.856 738.776 192.998 740.261 192.998 741.869L192.998 781.131C192.998 782.739 193.856 784.224 195.248 785.028L229.25 804.66Z" stroke="#FCBE0A" stroke-width="7" stroke-linejoin="bevel"/>
<path d="M138.25 804.66C139.642 805.463 141.358 805.463 142.75 804.66L176.752 785.028C178.145 784.224 179.002 782.739 179.002 781.131L179.002 741.869C179.002 740.261 178.145 738.776 176.752 737.972L142.75 718.34C141.358 717.537 139.642 717.537 138.25 718.34L104.248 737.972C102.856 738.776 101.998 740.261 101.998 741.869L101.998 781.131C101.998 782.739 102.856 784.224 104.248 785.028L138.25 804.66Z" stroke="#FCBE0A" stroke-width="7" stroke-linejoin="bevel"/>
<path d="M414.25 804.66C415.642 805.463 417.358 805.463 418.75 804.66L452.752 785.028C454.145 784.224 455.002 782.739 455.002 781.131L455.002 741.869C455.002 740.261 454.145 738.776 452.752 737.972L418.75 718.34C417.358 717.537 415.642 717.537 414.25 718.34L380.248 737.972C378.856 738.776 377.998 740.261 377.998 741.869L377.998 781.131C377.998 782.739 378.856 784.224 380.248 785.028L414.25 804.66Z" stroke="#FCBE0A" stroke-width="7" stroke-linejoin="bevel"/>
<path d="M322.25 804.66C323.642 805.463 325.358 805.463 326.75 804.66L360.752 785.028C362.145 784.224 363.002 782.739 363.002 781.131L363.002 741.869C363.002 740.261 362.145 738.776 360.752 737.972L326.75 718.34C325.358 717.537 323.642 717.537 322.25 718.34L288.248 737.972C286.856 738.776 285.998 740.261 285.998 741.869L285.998 781.131C285.998 782.739 286.856 784.224 288.248 785.028L322.25 804.66Z" stroke="#FCBE0A" stroke-width="7" stroke-linejoin="bevel"/>
<path d="M373.25 406.66C374.642 407.463 376.358 407.463 377.75 406.66L411.752 387.028C413.145 386.224 414.002 384.739 414.002 383.131L414.002 343.869C414.002 342.261 413.145 340.776 411.752 339.972L377.75 320.34C376.358 319.537 374.642 319.537 373.25 320.34L339.248 339.972C337.856 340.776 336.998 342.261 336.998 343.869L336.998 383.131C336.998 384.739 337.856 386.224 339.248 387.028L373.25 406.66Z" stroke="#FCBE0A" stroke-width="7" stroke-linejoin="bevel"/>
<path d="M327.25 483.66C328.642 484.463 330.358 484.463 331.75 483.66L365.752 464.028C367.145 463.224 368.002 461.739 368.002 460.131L368.002 420.869C368.002 419.261 367.145 417.776 365.752 416.972L331.75 397.34C330.358 396.537 328.642 396.537 327.25 397.34L293.248 416.972C291.856 417.776 290.998 419.261 290.998 420.869L290.998 460.131C290.998 461.739 291.856 463.224 293.248 464.028L327.25 483.66Z" stroke="#FCBE0A" stroke-width="7" stroke-linejoin="bevel"/>
<path d="M419.25 483.66C420.642 484.463 422.358 484.463 423.75 483.66L457.752 464.028C459.145 463.224 460.002 461.739 460.002 460.131L460.002 420.869C460.002 419.261 459.145 417.776 457.752 416.972L423.75 397.34C422.358 396.537 420.642 396.537 419.25 397.34L385.248 416.972C383.856 417.776 382.998 419.261 382.998 420.869L382.998 460.131C382.998 461.739 383.856 463.224 385.248 464.028L419.25 483.66Z" stroke="#FCBE0A" stroke-width="7" stroke-linejoin="bevel"/>
<path d="M465.25 91.6595C466.642 92.4634 468.358 92.4634 469.75 91.6595L503.752 72.0283C505.145 71.2245 506.002 69.7389 506.002 68.1312L506.002 28.8688C506.002 27.2611 505.145 25.7755 503.752 24.9717L469.75 5.34049C468.358 4.53664 466.642 4.53664 465.25 5.34049L431.248 24.9717C429.855 25.7755 428.998 27.2611 428.998 28.8688L428.998 68.1312C428.998 69.7389 429.855 71.2245 431.248 72.0283L465.25 91.6595Z" stroke="#FCBE0A" stroke-width="7" stroke-linejoin="bevel"/>
</g>
</svg>
