<svg width="557" height="398" viewBox="0 0 557 398" fill="none" xmlns="http://www.w3.org/2000/svg">
<g opacity="0.2">
<path d="M59.3875 217.859C58.8021 216.897 58.8021 215.688 59.3875 214.726L72.8005 192.679C73.3473 191.78 74.3232 191.232 75.3753 191.232L102.697 191.232C103.749 191.232 104.725 191.78 105.272 192.679L118.685 214.726C119.27 215.688 119.27 216.897 118.685 217.859L105.272 239.906C104.725 240.805 103.749 241.353 102.697 241.353L75.3753 241.353C74.3232 241.353 73.3473 240.805 72.8005 239.906L59.3875 217.859Z" stroke="#FCBE0A" stroke-width="4.68841" stroke-linejoin="bevel"/>
<path d="M59.3875 157.18C58.8021 156.217 58.8021 155.009 59.3875 154.047L72.8005 132C73.3473 131.101 74.3232 130.552 75.3753 130.552L102.697 130.552C103.749 130.552 104.725 131.101 105.272 132L118.685 154.047C119.27 155.009 119.27 156.217 118.685 157.18L105.272 179.227C104.725 180.125 103.749 180.674 102.697 180.674L75.3753 180.674C74.3232 180.674 73.3473 180.125 72.8005 179.227L59.3875 157.18Z" stroke="#FCBE0A" stroke-width="4.68841" stroke-linejoin="bevel"/>
<path d="M385.28 155.222C384.695 154.26 384.695 153.052 385.28 152.089L398.693 130.043C399.24 129.144 400.216 128.595 401.268 128.595L428.589 128.595C429.641 128.595 430.617 129.144 431.164 130.043L444.577 152.089C445.163 153.052 445.163 154.26 444.577 155.222L431.164 177.269C430.617 178.168 429.641 178.717 428.589 178.717L401.268 178.717C400.216 178.717 399.24 178.168 398.693 177.269L385.28 155.222Z" stroke="#FCBE0A" stroke-width="4.68841" stroke-linejoin="bevel"/>
<path d="M385.28 95.1956C384.695 94.2333 384.695 93.0248 385.28 92.0625L398.693 70.0157C399.24 69.1168 400.216 68.5682 401.268 68.5682L428.589 68.5682C429.641 68.5682 430.617 69.1168 431.164 70.0157L444.577 92.0625C445.163 93.0248 445.163 94.2333 444.577 95.1956L431.164 117.242C430.617 118.141 429.641 118.69 428.589 118.69L401.268 118.69C400.216 118.69 399.24 118.141 398.693 117.242L385.28 95.1956Z" stroke="#FCBE0A" stroke-width="4.68841" stroke-linejoin="bevel"/>
<path d="M385.968 33.2112C385.382 32.2489 385.382 31.0405 385.968 30.0782L399.381 8.0313C399.927 7.13247 400.903 6.58384 401.955 6.58384L429.277 6.58384C430.329 6.58384 431.305 7.13246 431.852 8.0313L445.265 30.0782C445.85 31.0405 445.85 32.2489 445.265 33.2112L431.852 55.2581C431.305 56.1569 430.329 56.7055 429.277 56.7055L401.955 56.7055C400.903 56.7055 399.927 56.1569 399.381 55.2581L385.968 33.2112Z" stroke="#FCBE0A" stroke-width="4.68841" stroke-linejoin="bevel"/>
<path d="M330.965 185.236C330.379 184.274 330.379 183.065 330.965 182.103L344.378 160.056C344.924 159.157 345.9 158.609 346.952 158.609L374.274 158.608C375.326 158.608 376.302 159.157 376.849 160.056L390.262 182.103C390.847 183.065 390.847 184.274 390.262 185.236L376.849 207.283C376.302 208.182 375.326 208.73 374.274 208.73L346.952 208.73C345.9 208.73 344.924 208.182 344.378 207.283L330.965 185.236Z" stroke="#FCBE0A" stroke-width="4.68841" stroke-linejoin="bevel"/>
<path d="M330.965 125.861C330.379 124.899 330.379 123.691 330.965 122.728L344.378 100.681C344.924 99.7826 345.9 99.234 346.952 99.234L374.274 99.234C375.326 99.234 376.302 99.7826 376.849 100.681L390.262 122.728C390.847 123.691 390.847 124.899 390.262 125.861L376.849 147.908C376.302 148.807 375.326 149.356 374.274 149.356L346.952 149.356C345.9 149.356 344.924 148.807 344.378 147.908L330.965 125.861Z" stroke="#FCBE0A" stroke-width="4.68841" stroke-linejoin="bevel"/>
<path d="M277.337 95.1956C276.751 94.2333 276.751 93.0248 277.337 92.0625L290.75 70.0157C291.296 69.1168 292.272 68.5682 293.325 68.5682L320.646 68.5682C321.698 68.5682 322.674 69.1168 323.221 70.0157L336.634 92.0625C337.219 93.0248 337.219 94.2333 336.634 95.1956L323.221 117.242C322.674 118.141 321.698 118.69 320.646 118.69L293.325 118.69C292.272 118.69 291.296 118.141 290.75 117.242L277.337 95.1956Z" stroke="#FCBE0A" stroke-width="4.68841" stroke-linejoin="bevel"/>
<path d="M493.911 155.222C493.325 154.26 493.325 153.052 493.911 152.089L507.324 130.043C507.871 129.144 508.847 128.595 509.899 128.595L537.22 128.595C538.272 128.595 539.248 129.144 539.795 130.043L553.208 152.089C553.793 153.052 553.793 154.26 553.208 155.222L539.795 177.269C539.248 178.168 538.272 178.717 537.22 178.717L509.899 178.717C508.847 178.717 507.871 178.168 507.324 177.269L493.911 155.222Z" stroke="#FCBE0A" stroke-width="4.68841" stroke-linejoin="bevel"/>
<path d="M438.908 125.861C438.322 124.899 438.322 123.691 438.908 122.728L452.321 100.681C452.868 99.7826 453.844 99.234 454.896 99.234L482.217 99.234C483.269 99.234 484.245 99.7826 484.792 100.681L498.205 122.728C498.79 123.691 498.79 124.899 498.205 125.861L484.792 147.908C484.245 148.807 483.269 149.356 482.217 149.356L454.896 149.356C453.844 149.356 452.868 148.807 452.321 147.908L438.908 125.861Z" stroke="#FCBE0A" stroke-width="4.68841" stroke-linejoin="bevel"/>
<path d="M169.393 214.597C168.808 213.635 168.808 212.426 169.393 211.464L182.806 189.417C183.353 188.518 184.329 187.97 185.381 187.97L212.703 187.97C213.755 187.97 214.731 188.518 215.278 189.417L228.691 211.464C229.276 212.426 229.276 213.635 228.691 214.597L215.278 236.644C214.731 237.543 213.755 238.091 212.703 238.091L185.381 238.091C184.329 238.091 183.353 237.543 182.806 236.644L169.393 214.597Z" stroke="#FCBE0A" stroke-width="4.68841" stroke-linejoin="bevel"/>
<path d="M115.078 368.579C114.493 367.617 114.493 366.408 115.078 365.446L128.491 343.399C129.038 342.5 130.014 341.952 131.066 341.952L158.387 341.952C159.439 341.952 160.415 342.5 160.962 343.399L174.375 365.446C174.961 366.408 174.961 367.617 174.375 368.579L160.962 390.626C160.415 391.525 159.439 392.073 158.387 392.073L131.066 392.073C130.014 392.073 129.038 391.525 128.491 390.626L115.078 368.579Z" stroke="#FCBE0A" stroke-width="4.68841" stroke-linejoin="bevel"/>
<path d="M115.078 246.568C114.493 245.605 114.493 244.397 115.078 243.435L128.491 221.388C129.038 220.489 130.014 219.94 131.066 219.94L158.387 219.94C159.439 219.94 160.415 220.489 160.962 221.388L174.375 243.435C174.961 244.397 174.961 245.605 174.375 246.568L160.962 268.615C160.415 269.513 159.439 270.062 158.387 270.062L131.066 270.062C130.014 270.062 129.038 269.513 128.491 268.615L115.078 246.568Z" stroke="#FCBE0A" stroke-width="4.68841" stroke-linejoin="bevel"/>
<path d="M115.078 186.541C114.493 185.578 114.493 184.37 115.078 183.408L128.491 161.361C129.038 160.462 130.014 159.913 131.066 159.913L158.387 159.913C159.439 159.913 160.415 160.462 160.962 161.361L174.375 183.408C174.961 184.37 174.961 185.578 174.375 186.541L160.962 208.588C160.415 209.486 159.439 210.035 158.387 210.035L131.066 210.035C130.014 210.035 129.038 209.486 128.491 208.588L115.078 186.541Z" stroke="#FCBE0A" stroke-width="4.68841" stroke-linejoin="bevel"/>
<path d="M59.3875 337.913C58.8021 336.951 58.8021 335.742 59.3875 334.78L72.8005 312.733C73.3473 311.834 74.3233 311.286 75.3754 311.286L102.697 311.286C103.749 311.286 104.725 311.834 105.272 312.733L118.685 334.78C119.27 335.742 119.27 336.951 118.685 337.913L105.272 359.96C104.725 360.859 103.749 361.407 102.697 361.407L75.3754 361.407C74.3233 361.407 73.3473 360.859 72.8005 359.96L59.3875 337.913Z" stroke="#FCBE0A" stroke-width="4.68841" stroke-linejoin="bevel"/>
<path d="M59.3875 277.886C58.8021 276.924 58.8021 275.715 59.3875 274.753L72.8005 252.706C73.3473 251.807 74.3233 251.259 75.3754 251.259L102.697 251.259C103.749 251.259 104.725 251.807 105.272 252.706L118.685 274.753C119.27 275.715 119.27 276.924 118.685 277.886L105.272 299.933C104.725 300.832 103.749 301.38 102.697 301.38L75.3754 301.38C74.3233 301.38 73.3473 300.832 72.8005 299.933L59.3875 277.886Z" stroke="#FCBE0A" stroke-width="4.68841" stroke-linejoin="bevel"/>
<path d="M3.69705 249.178C3.11161 248.215 3.11161 247.007 3.69705 246.044L17.11 223.998C17.6568 223.099 18.6328 222.55 19.6849 222.55L47.0063 222.55C48.0584 222.55 49.0344 223.099 49.5812 223.998L62.9941 246.044C63.5796 247.007 63.5796 248.215 62.9941 249.178L49.5812 271.224C49.0344 272.123 48.0584 272.672 47.0063 272.672L19.6849 272.672C18.6328 272.672 17.6568 272.123 17.11 271.224L3.69705 249.178Z" stroke="#FCBE0A" stroke-width="4.68841" stroke-linejoin="bevel"/>
<path d="M3.69705 308.552C3.11161 307.59 3.11161 306.381 3.69705 305.419L17.11 283.372C17.6568 282.473 18.6328 281.925 19.6849 281.925L47.0063 281.925C48.0584 281.925 49.0344 282.473 49.5812 283.372L62.9941 305.419C63.5796 306.381 63.5796 307.59 62.9941 308.552L49.5812 330.599C49.0344 331.498 48.0584 332.046 47.0063 332.046L19.6849 332.046C18.6328 332.046 17.6568 331.498 17.11 330.599L3.69705 308.552Z" stroke="#FCBE0A" stroke-width="4.68841" stroke-linejoin="bevel"/>
<path d="M3.69705 128.471C3.11161 127.509 3.11161 126.3 3.69705 125.338L17.11 103.291C17.6568 102.392 18.6328 101.844 19.6849 101.844L47.0063 101.844C48.0584 101.844 49.0344 102.392 49.5812 103.291L62.9941 125.338C63.5796 126.3 63.5796 127.509 62.9941 128.471L49.5812 150.518C49.0344 151.417 48.0584 151.966 47.0063 151.966L19.6849 151.966C18.6328 151.966 17.6568 151.417 17.11 150.518L3.69705 128.471Z" stroke="#FCBE0A" stroke-width="4.68841" stroke-linejoin="bevel"/>
<path d="M3.69705 188.498C3.11161 187.536 3.11161 186.328 3.69705 185.365L17.11 163.318C17.6568 162.42 18.6328 161.871 19.6849 161.871L47.0063 161.871C48.0584 161.871 49.0344 162.42 49.5812 163.318L62.9941 185.365C63.5796 186.328 63.5796 187.536 62.9941 188.498L49.5812 210.545C49.0344 211.444 48.0584 211.993 47.0063 211.993L19.6849 211.993C18.6328 211.993 17.6568 211.444 17.11 210.545L3.69705 188.498Z" stroke="#FCBE0A" stroke-width="4.68841" stroke-linejoin="bevel"/>
<path d="M277.337 155.222C276.751 154.26 276.751 153.052 277.337 152.089L290.75 130.043C291.297 129.144 292.272 128.595 293.325 128.595L320.646 128.595C321.698 128.595 322.674 129.144 323.221 130.043L336.634 152.089C337.219 153.052 337.219 154.26 336.634 155.222L323.221 177.269C322.674 178.168 321.698 178.717 320.646 178.717L293.325 178.717C292.272 178.717 291.297 178.168 290.75 177.269L277.337 155.222Z" stroke="#FCBE0A" stroke-width="4.68841" stroke-linejoin="bevel"/>
<path d="M224.396 185.236C223.811 184.274 223.811 183.065 224.396 182.103L237.809 160.056C238.356 159.157 239.332 158.609 240.384 158.609L267.706 158.608C268.758 158.608 269.734 159.157 270.281 160.056L283.693 182.103C284.279 183.065 284.279 184.274 283.693 185.236L270.281 207.283C269.734 208.182 268.758 208.73 267.706 208.73L240.384 208.73C239.332 208.73 238.356 208.182 237.809 207.283L224.396 185.236Z" stroke="#FCBE0A" stroke-width="4.68841" stroke-linejoin="bevel"/>
<path d="M224.396 125.209C223.811 124.247 223.811 123.038 224.396 122.076L237.809 100.029C238.356 99.1303 239.332 98.5816 240.384 98.5816L267.706 98.5816C268.758 98.5816 269.734 99.1303 270.281 100.029L283.693 122.076C284.279 123.038 284.279 124.247 283.693 125.209L270.281 147.256C269.734 148.155 268.758 148.703 267.706 148.703L240.384 148.703C239.332 148.703 238.356 148.155 237.809 147.256L224.396 125.209Z" stroke="#FCBE0A" stroke-width="4.68841" stroke-linejoin="bevel"/>
<path d="M493.911 95.1956C493.325 94.2333 493.325 93.0248 493.911 92.0625L507.324 70.0157C507.871 69.1168 508.847 68.5682 509.899 68.5682L537.22 68.5682C538.272 68.5682 539.248 69.1168 539.795 70.0157L553.208 92.0625C553.793 93.0248 553.793 94.2333 553.208 95.1956L539.795 117.242C539.248 118.141 538.272 118.69 537.22 118.69L509.899 118.69C508.847 118.69 507.871 118.141 507.324 117.242L493.911 95.1956Z" stroke="#FCBE0A" stroke-width="4.68841" stroke-linejoin="bevel"/>
</g>
</svg>
