<svg width="810" height="803" viewBox="0 0 810 803" fill="none" xmlns="http://www.w3.org/2000/svg">
<g opacity="0.2">
<path d="M723.66 277.25C724.463 278.642 724.463 280.358 723.66 281.75L704.028 315.752C703.224 317.145 701.739 318.002 700.131 318.002L660.869 318.002C659.261 318.002 657.776 317.145 656.972 315.752L637.34 281.75C636.537 280.358 636.537 278.642 637.34 277.25L656.972 243.248C657.776 241.855 659.261 240.998 660.869 240.998L700.131 240.998C701.739 240.998 703.224 241.855 704.028 243.248L723.66 277.25Z" stroke="#FCBE0A" stroke-width="7" stroke-linejoin="bevel"/>
<path d="M723.66 370.25C724.463 371.642 724.463 373.358 723.66 374.75L704.028 408.752C703.224 410.145 701.739 411.002 700.131 411.002L660.869 411.002C659.261 411.002 657.776 410.145 656.972 408.752L637.34 374.75C636.537 373.358 636.537 371.642 637.34 370.25L656.972 336.248C657.776 334.855 659.261 333.998 660.869 333.998L700.131 333.998C701.739 333.998 703.224 334.855 704.028 336.248L723.66 370.25Z" stroke="#FCBE0A" stroke-width="7" stroke-linejoin="bevel"/>
<path d="M724.66 462.25C725.463 463.642 725.463 465.358 724.66 466.75L705.028 500.752C704.224 502.145 702.739 503.002 701.131 503.002L661.869 503.002C660.261 503.002 658.776 502.145 657.972 500.752L638.34 466.75C637.537 465.358 637.537 463.642 638.34 462.25L657.972 428.248C658.776 426.855 660.261 425.998 661.869 425.998L701.131 425.998C702.739 425.998 704.224 426.855 705.028 428.248L724.66 462.25Z" stroke="#FCBE0A" stroke-width="7" stroke-linejoin="bevel"/>
<path d="M249.66 373.25C250.463 374.642 250.463 376.358 249.66 377.75L230.028 411.752C229.224 413.145 227.739 414.002 226.131 414.002L186.869 414.002C185.261 414.002 183.776 413.145 182.972 411.752L163.34 377.75C162.537 376.358 162.537 374.642 163.34 373.25L182.972 339.248C183.776 337.855 185.261 336.998 186.869 336.998L226.131 336.998C227.739 336.998 229.224 337.855 230.028 339.248L249.66 373.25Z" stroke="#FCBE0A" stroke-width="7" stroke-linejoin="bevel"/>
<path d="M249.66 465.25C250.463 466.642 250.463 468.358 249.66 469.75L230.028 503.752C229.224 505.145 227.739 506.002 226.131 506.002L186.869 506.002C185.261 506.002 183.776 505.145 182.972 503.752L163.34 469.75C162.537 468.358 162.537 466.642 163.34 465.25L182.972 431.248C183.776 429.855 185.261 428.998 186.869 428.998L226.131 428.998C227.739 428.998 229.224 429.855 230.028 431.248L249.66 465.25Z" stroke="#FCBE0A" stroke-width="7" stroke-linejoin="bevel"/>
<path d="M248.66 560.25C249.463 561.642 249.463 563.358 248.66 564.75L229.028 598.752C228.224 600.145 226.739 601.002 225.131 601.002L185.869 601.002C184.261 601.002 182.776 600.145 181.972 598.752L162.34 564.75C161.537 563.358 161.537 561.642 162.34 560.25L181.972 526.248C182.776 524.855 184.261 523.998 185.869 523.998L225.131 523.998C226.739 523.998 228.224 524.855 229.028 526.248L248.66 560.25Z" stroke="#FCBE0A" stroke-width="7" stroke-linejoin="bevel"/>
<path d="M328.66 327.25C329.463 328.642 329.463 330.358 328.66 331.75L309.028 365.752C308.224 367.145 306.739 368.002 305.131 368.002L265.869 368.002C264.261 368.002 262.776 367.145 261.972 365.752L242.34 331.75C241.537 330.358 241.537 328.642 242.34 327.25L261.972 293.248C262.776 291.855 264.261 290.998 265.869 290.998L305.131 290.998C306.739 290.998 308.224 291.855 309.028 293.248L328.66 327.25Z" stroke="#FCBE0A" stroke-width="7" stroke-linejoin="bevel"/>
<path d="M328.66 418.25C329.463 419.642 329.463 421.358 328.66 422.75L309.028 456.752C308.224 458.145 306.739 459.002 305.131 459.002L265.869 459.002C264.261 459.002 262.776 458.145 261.972 456.752L242.34 422.75C241.537 421.358 241.537 419.642 242.34 418.25L261.972 384.248C262.776 382.855 264.261 381.998 265.869 381.998L305.131 381.998C306.739 381.998 308.224 382.855 309.028 384.248L328.66 418.25Z" stroke="#FCBE0A" stroke-width="7" stroke-linejoin="bevel"/>
<path d="M406.66 465.25C407.463 466.642 407.463 468.358 406.66 469.75L387.028 503.752C386.224 505.145 384.739 506.002 383.131 506.002L343.869 506.002C342.261 506.002 340.776 505.145 339.972 503.752L320.34 469.75C319.537 468.358 319.537 466.642 320.34 465.25L339.972 431.248C340.776 429.855 342.261 428.998 343.869 428.998L383.131 428.998C384.739 428.998 386.224 429.855 387.028 431.248L406.66 465.25Z" stroke="#FCBE0A" stroke-width="7" stroke-linejoin="bevel"/>
<path d="M91.6595 373.25C92.4634 374.642 92.4634 376.358 91.6595 377.75L72.0283 411.752C71.2245 413.145 69.7389 414.002 68.1312 414.002L28.8688 414.002C27.2611 414.002 25.7755 413.145 24.9717 411.752L5.34049 377.75C4.53664 376.358 4.53664 374.642 5.34049 373.25L24.9717 339.248C25.7755 337.855 27.2611 336.998 28.8688 336.998L68.1312 336.998C69.7389 336.998 71.2245 337.855 72.0283 339.248L91.6595 373.25Z" stroke="#FCBE0A" stroke-width="7" stroke-linejoin="bevel"/>
<path d="M171.66 418.25C172.463 419.642 172.463 421.358 171.66 422.75L152.028 456.752C151.224 458.145 149.739 459.002 148.131 459.002L108.869 459.002C107.261 459.002 105.776 458.145 104.972 456.752L85.3405 422.75C84.5366 421.358 84.5366 419.642 85.3405 418.25L104.972 384.248C105.776 382.855 107.261 381.998 108.869 381.998L148.131 381.998C149.739 381.998 151.224 382.855 152.028 384.248L171.66 418.25Z" stroke="#FCBE0A" stroke-width="7" stroke-linejoin="bevel"/>
<path d="M563.66 93.25C564.463 94.6423 564.463 96.3577 563.66 97.75L544.028 131.752C543.224 133.145 541.739 134.002 540.131 134.002L500.869 134.002C499.261 134.002 497.776 133.145 496.972 131.752L477.34 97.75C476.537 96.3577 476.537 94.6423 477.34 93.25L496.972 59.2478C497.776 57.8555 499.261 56.9978 500.869 56.9978L540.131 56.9978C541.739 56.9978 543.224 57.8555 544.028 59.2478L563.66 93.25Z" stroke="#FCBE0A" stroke-width="7" stroke-linejoin="bevel"/>
<path d="M563.66 188.25C564.463 189.642 564.463 191.358 563.66 192.75L544.028 226.752C543.224 228.145 541.739 229.002 540.131 229.002L500.869 229.002C499.261 229.002 497.776 228.145 496.972 226.752L477.34 192.75C476.537 191.358 476.537 189.642 477.34 188.25L496.972 154.248C497.776 152.855 499.261 151.998 500.869 151.998L540.131 151.998C541.739 151.998 543.224 152.855 544.028 154.248L563.66 188.25Z" stroke="#FCBE0A" stroke-width="7" stroke-linejoin="bevel"/>
<path d="M563.66 282.25C564.463 283.642 564.463 285.358 563.66 286.75L544.028 320.752C543.224 322.145 541.739 323.002 540.131 323.002L500.869 323.002C499.261 323.002 497.776 322.145 496.972 320.752L477.34 286.75C476.537 285.358 476.537 283.642 477.34 282.25L496.972 248.248C497.776 246.855 499.261 245.998 500.869 245.998L540.131 245.998C541.739 245.998 543.224 246.855 544.028 248.248L563.66 282.25Z" stroke="#FCBE0A" stroke-width="7" stroke-linejoin="bevel"/>
<path d="M563.66 372.25C564.463 373.642 564.463 375.358 563.66 376.75L544.028 410.752C543.224 412.145 541.739 413.002 540.131 413.002L500.869 413.002C499.261 413.002 497.776 412.145 496.972 410.752L477.34 376.75C476.537 375.358 476.537 373.642 477.34 372.25L496.972 338.248C497.776 336.855 499.261 335.998 500.869 335.998L540.131 335.998C541.739 335.998 543.224 336.855 544.028 338.248L563.66 372.25Z" stroke="#FCBE0A" stroke-width="7" stroke-linejoin="bevel"/>
<path d="M563.66 465.25C564.463 466.642 564.463 468.358 563.66 469.75L544.028 503.752C543.224 505.145 541.739 506.002 540.131 506.002L500.869 506.002C499.261 506.002 497.776 505.145 496.972 503.752L477.34 469.75C476.537 468.358 476.537 466.642 477.34 465.25L496.972 431.248C497.776 429.855 499.261 428.998 500.869 428.998L540.131 428.998C541.739 428.998 543.224 429.855 544.028 431.248L563.66 465.25Z" stroke="#FCBE0A" stroke-width="7" stroke-linejoin="bevel"/>
<path d="M642.66 46.25C643.463 47.6423 643.463 49.3577 642.66 50.75L623.028 84.7522C622.224 86.1445 620.739 87.0022 619.131 87.0022L579.869 87.0022C578.261 87.0022 576.776 86.1445 575.972 84.7522L556.34 50.75C555.537 49.3577 555.537 47.6423 556.34 46.25L575.972 12.2478C576.776 10.8555 578.261 9.99777 579.869 9.99777L619.131 9.99777C620.739 9.99777 622.224 10.8555 623.028 12.2478L642.66 46.25Z" stroke="#FCBE0A" stroke-width="7" stroke-linejoin="bevel"/>
<path d="M642.66 140.25C643.463 141.642 643.463 143.358 642.66 144.75L623.028 178.752C622.224 180.145 620.739 181.002 619.131 181.002L579.869 181.002C578.261 181.002 576.776 180.145 575.972 178.752L556.34 144.75C555.537 143.358 555.537 141.642 556.34 140.25L575.972 106.248C576.776 104.855 578.261 103.998 579.869 103.998L619.131 103.998C620.739 103.998 622.224 104.855 623.028 106.248L642.66 140.25Z" stroke="#FCBE0A" stroke-width="7" stroke-linejoin="bevel"/>
<path d="M642.66 233.25C643.463 234.642 643.463 236.358 642.66 237.75L623.028 271.752C622.224 273.145 620.739 274.002 619.131 274.002L579.869 274.002C578.261 274.002 576.776 273.145 575.972 271.752L556.34 237.75C555.537 236.358 555.537 234.642 556.34 233.25L575.972 199.248C576.776 197.855 578.261 196.998 579.869 196.998L619.131 196.998C620.739 196.998 622.224 197.855 623.028 199.248L642.66 233.25Z" stroke="#FCBE0A" stroke-width="7" stroke-linejoin="bevel"/>
<path d="M642.66 325.25C643.463 326.642 643.463 328.358 642.66 329.75L623.028 363.752C622.224 365.145 620.739 366.002 619.131 366.002L579.869 366.002C578.261 366.002 576.776 365.145 575.972 363.752L556.34 329.75C555.537 328.358 555.537 326.642 556.34 325.25L575.972 291.248C576.776 289.855 578.261 288.998 579.869 288.998L619.131 288.998C620.739 288.998 622.224 289.855 623.028 291.248L642.66 325.25Z" stroke="#FCBE0A" stroke-width="7" stroke-linejoin="bevel"/>
<path d="M642.66 418.25C643.463 419.642 643.463 421.358 642.66 422.75L623.028 456.752C622.224 458.145 620.739 459.002 619.131 459.002L579.869 459.002C578.261 459.002 576.776 458.145 575.972 456.752L556.34 422.75C555.537 421.358 555.537 419.642 556.34 418.25L575.972 384.248C576.776 382.855 578.261 381.998 579.869 381.998L619.131 381.998C620.739 381.998 622.224 382.855 623.028 384.248L642.66 418.25Z" stroke="#FCBE0A" stroke-width="7" stroke-linejoin="bevel"/>
<path d="M647.66 512.25C648.463 513.642 648.463 515.358 647.66 516.75L628.028 550.752C627.224 552.145 625.739 553.002 624.131 553.002L584.869 553.002C583.261 553.002 581.776 552.145 580.972 550.752L561.34 516.75C560.537 515.358 560.537 513.642 561.34 512.25L580.972 478.248C581.776 476.855 583.261 475.998 584.869 475.998L624.131 475.998C625.739 475.998 627.224 476.855 628.028 478.248L647.66 512.25Z" stroke="#FCBE0A" stroke-width="7" stroke-linejoin="bevel"/>
<path d="M723.66 93.25C724.463 94.6423 724.463 96.3577 723.66 97.75L704.028 131.752C703.224 133.145 701.739 134.002 700.131 134.002L660.869 134.002C659.261 134.002 657.776 133.145 656.972 131.752L637.34 97.75C636.537 96.3577 636.537 94.6423 637.34 93.25L656.972 59.2478C657.776 57.8555 659.261 56.9978 660.869 56.9978L700.131 56.9978C701.739 56.9978 703.224 57.8555 704.028 59.2478L723.66 93.25Z" stroke="#FCBE0A" stroke-width="7" stroke-linejoin="bevel"/>
<path d="M723.66 185.25C724.463 186.642 724.463 188.358 723.66 189.75L704.028 223.752C703.224 225.145 701.739 226.002 700.131 226.002L660.869 226.002C659.261 226.002 657.776 225.145 656.972 223.752L637.34 189.75C636.537 188.358 636.537 186.642 637.34 185.25L656.972 151.248C657.776 149.855 659.261 148.998 660.869 148.998L700.131 148.998C701.739 148.998 703.224 149.855 704.028 151.248L723.66 185.25Z" stroke="#FCBE0A" stroke-width="7" stroke-linejoin="bevel"/>
<path d="M804.66 46.25C805.463 47.6423 805.463 49.3577 804.66 50.75L785.028 84.7522C784.224 86.1445 782.739 87.0022 781.131 87.0022L741.869 87.0022C740.261 87.0022 738.776 86.1445 737.972 84.7522L718.34 50.75C717.537 49.3577 717.537 47.6423 718.34 46.25L737.972 12.2478C738.776 10.8555 740.261 9.99777 741.869 9.99777L781.131 9.99777C782.739 9.99777 784.224 10.8555 785.028 12.2478L804.66 46.25Z" stroke="#FCBE0A" stroke-width="7" stroke-linejoin="bevel"/>
<path d="M804.66 229.25C805.463 230.642 805.463 232.358 804.66 233.75L785.028 267.752C784.224 269.145 782.739 270.002 781.131 270.002L741.869 270.002C740.261 270.002 738.776 269.145 737.972 267.752L718.34 233.75C717.537 232.358 717.537 230.642 718.34 229.25L737.972 195.248C738.776 193.855 740.261 192.998 741.869 192.998L781.131 192.998C782.739 192.998 784.224 193.855 785.028 195.248L804.66 229.25Z" stroke="#FCBE0A" stroke-width="7" stroke-linejoin="bevel"/>
<path d="M804.66 138.25C805.463 139.642 805.463 141.358 804.66 142.75L785.028 176.752C784.224 178.145 782.739 179.002 781.131 179.002L741.869 179.002C740.261 179.002 738.776 178.145 737.972 176.752L718.34 142.75C717.537 141.358 717.537 139.642 718.34 138.25L737.972 104.248C738.776 102.855 740.261 101.998 741.869 101.998L781.131 101.998C782.739 101.998 784.224 102.855 785.028 104.248L804.66 138.25Z" stroke="#FCBE0A" stroke-width="7" stroke-linejoin="bevel"/>
<path d="M804.66 414.25C805.463 415.642 805.463 417.358 804.66 418.75L785.028 452.752C784.224 454.145 782.739 455.002 781.131 455.002L741.869 455.002C740.261 455.002 738.776 454.145 737.972 452.752L718.34 418.75C717.537 417.358 717.537 415.642 718.34 414.25L737.972 380.248C738.776 378.855 740.261 377.998 741.869 377.998L781.131 377.998C782.739 377.998 784.224 378.855 785.028 380.248L804.66 414.25Z" stroke="#FCBE0A" stroke-width="7" stroke-linejoin="bevel"/>
<path d="M804.66 322.25C805.463 323.642 805.463 325.358 804.66 326.75L785.028 360.752C784.224 362.145 782.739 363.002 781.131 363.002L741.869 363.002C740.261 363.002 738.776 362.145 737.972 360.752L718.34 326.75C717.537 325.358 717.537 323.642 718.34 322.25L737.972 288.248C738.776 286.855 740.261 285.998 741.869 285.998L781.131 285.998C782.739 285.998 784.224 286.855 785.028 288.248L804.66 322.25Z" stroke="#FCBE0A" stroke-width="7" stroke-linejoin="bevel"/>
<path d="M406.66 373.25C407.463 374.642 407.463 376.358 406.66 377.75L387.028 411.752C386.224 413.145 384.739 414.002 383.131 414.002L343.869 414.002C342.261 414.002 340.776 413.145 339.972 411.752L320.34 377.75C319.537 376.358 319.537 374.642 320.34 373.25L339.972 339.248C340.776 337.855 342.261 336.998 343.869 336.998L383.131 336.998C384.739 336.998 386.224 337.855 387.028 339.248L406.66 373.25Z" stroke="#FCBE0A" stroke-width="7" stroke-linejoin="bevel"/>
<path d="M483.66 327.25C484.463 328.642 484.463 330.358 483.66 331.75L464.028 365.752C463.224 367.145 461.739 368.002 460.131 368.002L420.869 368.002C419.261 368.002 417.776 367.145 416.972 365.752L397.34 331.75C396.537 330.358 396.537 328.642 397.34 327.25L416.972 293.248C417.776 291.855 419.261 290.998 420.869 290.998L460.131 290.998C461.739 290.998 463.224 291.855 464.028 293.248L483.66 327.25Z" stroke="#FCBE0A" stroke-width="7" stroke-linejoin="bevel"/>
<path d="M483.66 419.25C484.463 420.642 484.463 422.358 483.66 423.75L464.028 457.752C463.224 459.145 461.739 460.002 460.131 460.002L420.869 460.002C419.261 460.002 417.776 459.145 416.972 457.752L397.34 423.75C396.537 422.358 396.537 420.642 397.34 419.25L416.972 385.248C417.776 383.855 419.261 382.998 420.869 382.998L460.131 382.998C461.739 382.998 463.224 383.855 464.028 385.248L483.66 419.25Z" stroke="#FCBE0A" stroke-width="7" stroke-linejoin="bevel"/>
<path d="M91.6595 465.25C92.4634 466.642 92.4634 468.358 91.6595 469.75L72.0283 503.752C71.2245 505.145 69.7389 506.002 68.1312 506.002L28.8688 506.002C27.2611 506.002 25.7755 505.145 24.9717 503.752L5.34049 469.75C4.53664 468.358 4.53664 466.642 5.34049 465.25L24.9717 431.248C25.7755 429.855 27.2611 428.998 28.8688 428.998L68.1312 428.998C69.7389 428.998 71.2245 429.855 72.0283 431.248L91.6595 465.25Z" stroke="#FCBE0A" stroke-width="7" stroke-linejoin="bevel"/>
</g>
<g opacity="0.2">
<path d="M554.735 667.948L549.823 676.457C549.77 676.549 549.635 676.549 549.583 676.456L521.217 626.818C520.613 625.758 519.893 624.769 519.046 623.892C518.343 623.16 517.467 622.407 516.543 621.977C516.543 621.977 514.913 621.293 513.927 621.046C512.743 620.751 511.525 620.624 510.307 620.628L453.135 620.885C453.029 620.883 452.961 620.769 453.015 620.675L457.926 612.168C459.061 610.202 461.142 608.976 463.41 608.935L494.731 608.375C494.798 608.373 494.858 608.339 494.892 608.28L499.6 600.126C500.299 598.914 501.588 598.161 502.987 598.148L511.348 598.07L510.064 586.598C509.767 583.93 508.224 581.56 505.904 580.212L499.146 576.279C497.937 575.574 497.564 574 498.333 572.824L498.51 572.551C499.115 571.628 500.342 571.353 501.28 571.932L511.569 578.295C513.619 579.564 515.007 581.671 515.368 584.056L517.475 598.011L526.716 597.925L527.776 597.914C529.699 597.896 531.467 598.955 532.364 600.656L532.676 601.253L537.222 609.299L550.36 604.146C552.607 603.266 555.124 603.417 557.247 604.558L567.902 610.287C568.874 610.807 569.25 612.008 568.753 612.993L568.603 613.285C567.972 614.537 566.42 615.003 565.205 614.308L558.421 610.42C556.094 609.085 553.273 608.935 550.811 610.01L540.234 614.635L544.346 621.917C545.034 623.135 545.027 624.625 544.327 625.837L539.618 633.993C539.586 634.05 539.585 634.121 539.618 634.178L554.794 661.583C555.892 663.567 555.869 665.984 554.735 667.948Z" fill="url(#paint0_linear_4776_16198)" stroke="url(#paint1_linear_4776_16198)" stroke-width="0.0957895" stroke-miterlimit="10"/>
<path d="M513.744 627.61C515.39 628.55 517.12 632.077 517.12 632.077L529.107 652.128L546.064 682.75C546.088 682.796 546.087 682.851 546.061 682.896L539.373 694.48C539.315 694.581 539.168 694.581 539.11 694.481L510.423 644.273C510.268 644.005 510.102 643.746 509.917 643.498C509.282 642.649 508.101 641.077 506.42 640.295C506.42 640.295 505.383 639.383 501.509 638.757C501.203 638.708 500.894 638.702 500.585 638.705L442.76 638.96C442.644 638.962 442.57 638.835 442.63 638.732L449.316 627.15C449.342 627.106 449.39 627.077 449.441 627.075L484.439 626.449L507.797 626.804C507.798 626.808 512.107 626.655 513.744 627.61Z" fill="url(#paint2_linear_4776_16198)" stroke="url(#paint3_linear_4776_16198)" stroke-width="0.0957895" stroke-miterlimit="10"/>
<path d="M498.803 661.243C499.142 661.646 499.439 662.08 499.695 662.541L513.932 688.333C513.986 688.433 514.13 688.434 514.187 688.335L520.881 676.74C520.904 676.7 520.905 676.65 520.882 676.609L507.138 652.54C506.357 651.174 505.42 649.9 504.315 648.783C503.584 648.045 502.351 647.342 502.351 647.342C501.756 646.873 500.739 646.512 499.735 646.248C498.214 645.85 496.644 645.673 495.069 645.681L467.353 645.814C467.306 645.814 467.263 645.84 467.24 645.88L460.545 657.475C460.488 657.574 460.561 657.697 460.675 657.694L490.841 656.985C490.841 656.985 494.099 657.299 495.823 658.379L497.065 659.434C497.562 659.856 498.023 660.32 498.444 660.82L498.803 661.243Z" fill="url(#paint4_linear_4776_16198)" stroke="url(#paint5_linear_4776_16198)" stroke-width="0.0957895" stroke-miterlimit="10"/>
<path d="M472.784 698.554L470.429 681.602C470.422 681.554 470.406 681.507 470.375 681.468L465.322 674.647C465.206 674.49 465.095 674.331 464.987 674.166L458.021 663.457C457.96 663.362 458.027 663.235 458.14 663.234L484.287 663.107C486.472 663.097 488.649 663.408 490.719 664.102C491.322 664.303 491.875 664.525 492.284 664.764C492.284 664.764 493.337 665.485 493.812 665.907C495.446 667.355 496.344 668.687 497.427 670.584L510.391 693.292C510.447 693.39 510.372 693.513 510.258 693.506L497.5 692.828C497.305 692.818 497.11 692.8 496.916 692.778L488.482 691.812C488.433 691.806 488.384 691.815 488.339 691.833L472.784 698.554Z" fill="url(#paint6_linear_4776_16198)" stroke="url(#paint7_linear_4776_16198)" stroke-width="0.0957895" stroke-miterlimit="10"/>
<path d="M530.06 598.414L516.485 621.927C516.427 621.897 516.368 621.869 516.309 621.842C516.309 621.842 514.679 621.157 513.692 620.91C512.509 620.615 511.291 620.489 510.072 620.493L452.9 620.749C452.795 620.748 452.727 620.633 452.781 620.539L457.692 612.033C458.827 610.066 460.908 608.84 463.176 608.8L494.497 608.24C494.564 608.237 494.624 608.203 494.658 608.145L499.365 599.991C500.065 598.778 501.354 598.025 502.753 598.012L511.114 597.934L509.83 586.462C509.533 583.794 507.99 581.425 505.67 580.076L498.912 576.143C497.703 575.439 497.33 573.864 498.099 572.689L498.276 572.415C498.881 571.492 500.108 571.218 501.046 571.797L511.335 578.16C513.385 579.428 514.773 581.535 515.134 583.921L517.24 597.876L526.482 597.789L527.542 597.778C528.438 597.769 529.304 597.997 530.06 598.414Z" fill="#FFCD1C" stroke="url(#paint8_linear_4776_16198)" stroke-width="0.0957895" stroke-miterlimit="10"/>
<path d="M513.336 627.38L506.024 640.044C505.608 639.779 504.316 639.115 501.275 638.621C500.972 638.571 500.662 638.568 500.351 638.57L442.529 638.826C442.41 638.827 442.336 638.699 442.394 638.598L449.082 627.015C449.108 626.97 449.156 626.941 449.209 626.941L484.206 626.317L507.564 626.672C507.564 626.672 511.589 626.528 513.336 627.38Z" fill="#FFCD1C" stroke="url(#paint9_linear_4776_16198)" stroke-width="0.0957895" stroke-miterlimit="10"/>
<path d="M501.956 647.092L495.535 658.213C493.799 657.158 490.61 656.851 490.61 656.851L460.443 657.561C460.329 657.563 460.257 657.44 460.314 657.341L467.008 645.746C467.031 645.706 467.074 645.681 467.122 645.68L494.838 645.548C496.408 645.54 497.98 645.714 499.501 646.113C500.42 646.356 501.351 646.677 501.956 647.092Z" fill="#FFCD1C" stroke="url(#paint10_linear_4776_16198)" stroke-width="0.0957895" stroke-miterlimit="10"/>
<path d="M491.885 664.535L472.506 698.1L470.195 681.467C470.19 681.421 470.171 681.372 470.143 681.334L465.09 674.514C464.974 674.356 464.863 674.198 464.757 674.034L457.791 663.324C457.728 663.228 457.797 663.102 457.91 663.102L484.057 662.975C486.242 662.965 488.419 663.276 490.492 663.969C491.011 664.143 491.497 664.335 491.885 664.535Z" fill="#FFCD1C" stroke="url(#paint11_linear_4776_16198)" stroke-width="0.0957895" stroke-miterlimit="10"/>
</g>
<g opacity="0.2">
<path d="M648 760.641V766.663C648 766.728 647.929 766.769 647.874 766.736L617.89 749.082C617.251 748.704 616.572 748.4 615.86 748.194C615.268 748.021 614.58 747.89 613.963 747.944C613.963 747.944 612.898 748.081 612.304 748.252C611.593 748.458 610.914 748.764 610.274 749.14L580.291 766.796C580.235 766.827 580.164 766.788 580.164 766.721V760.701C580.164 759.309 580.886 758.021 582.066 757.304L598.365 747.409C598.399 747.387 598.421 747.351 598.421 747.309V741.539C598.421 740.681 598.87 739.886 599.601 739.451L603.974 736.847L599.816 731.151C598.85 729.826 597.319 729.041 595.69 729.036L590.943 729.02C590.093 729.016 589.419 728.295 589.467 727.435L589.477 727.236C589.515 726.561 590.077 726.039 590.746 726.059L598.087 726.283C599.55 726.328 600.919 727.021 601.833 728.177L607.177 734.938L612.01 732.061L612.564 731.73C613.57 731.131 614.821 731.151 615.809 731.78L616.154 732.001L620.987 734.879L626.331 728.117C627.245 726.962 628.615 726.27 630.078 726.225L637.419 726.001C638.088 725.979 638.65 726.501 638.688 727.176L638.698 727.377C638.745 728.235 638.071 728.958 637.222 728.962L632.474 728.977C630.845 728.982 629.316 729.766 628.348 731.091L624.191 736.787L628.564 739.392C629.295 739.828 629.744 740.621 629.744 741.479V747.251C629.744 747.291 629.765 747.329 629.8 747.349L646.098 757.245C647.278 757.961 648 759.251 648 760.641Z" fill="url(#paint12_linear_4776_16198)" stroke="url(#paint13_linear_4776_16198)" stroke-width="0.0589456" stroke-miterlimit="10"/>
<path d="M614.201 751.792C615.352 751.787 617.332 753.129 617.332 753.129L629.722 760.098L647.934 771.156C647.96 771.172 647.977 771.202 647.977 771.234V779.432C647.977 779.503 647.899 779.548 647.839 779.513L617.513 761.654C617.351 761.559 617.184 761.473 617.012 761.398C616.42 761.142 615.322 760.67 614.201 760.77C614.201 760.77 613.379 760.603 611.152 761.458C610.976 761.526 610.811 761.618 610.65 761.714L580.323 779.57C580.263 779.606 580.185 779.561 580.185 779.488V771.292C580.185 771.26 580.202 771.23 580.228 771.214L598.44 760.156L610.829 753.187C610.831 753.189 613.05 751.787 614.201 751.792Z" fill="url(#paint14_linear_4776_16198)" stroke="url(#paint15_linear_4776_16198)" stroke-width="0.0589456" stroke-miterlimit="10"/>
<path d="M616.555 774.222C616.856 774.332 617.144 774.471 617.418 774.638L632.734 783.965C632.793 784.001 632.869 783.958 632.869 783.888V775.682C632.869 775.654 632.854 775.627 632.829 775.612L618.296 767.048C617.471 766.563 616.591 766.174 615.671 765.919C615.063 765.751 614.201 765.756 614.201 765.756C613.746 765.69 613.102 765.81 612.493 765.978C611.573 766.232 610.693 766.619 609.868 767.106L595.335 775.67C595.31 775.685 595.296 775.712 595.296 775.74V783.946C595.296 784.016 595.371 784.059 595.43 784.023L611.076 774.402C611.076 774.402 612.885 773.57 614.119 773.615L615.092 773.795C615.482 773.866 615.865 773.971 616.238 774.107L616.555 774.222Z" fill="url(#paint16_linear_4776_16198)" stroke="url(#paint17_linear_4776_16198)" stroke-width="0.0589456" stroke-miterlimit="10"/>
<path d="M614.201 802L607.817 793.724C607.799 793.701 607.776 793.681 607.748 793.669L603.02 791.597C602.912 791.549 602.805 791.499 602.698 791.445L595.784 787.895C595.723 787.863 595.72 787.775 595.779 787.74L609.489 779.66C610.634 778.986 611.874 778.483 613.172 778.217C613.55 778.139 613.909 778.088 614.196 778.089C614.196 778.089 614.969 778.149 615.347 778.227C616.646 778.495 617.522 778.927 618.668 779.602L632.377 787.682C632.436 787.717 632.435 787.805 632.372 787.837L625.458 791.386C625.353 791.441 625.245 791.491 625.136 791.539L620.408 793.611C620.381 793.622 620.358 793.642 620.339 793.666L614.201 802Z" fill="url(#paint18_linear_4776_16198)" stroke="url(#paint19_linear_4776_16198)" stroke-width="0.0589456" stroke-miterlimit="10"/>
<path d="M613.917 731.296V747.936C613.878 747.938 613.838 747.941 613.799 747.944C613.799 747.944 612.733 748.081 612.14 748.252C611.428 748.458 610.749 748.764 610.11 749.14L580.127 766.796C580.071 766.827 580 766.787 580 766.721V760.701C580 759.309 580.722 758.021 581.902 757.304L598.2 747.409C598.235 747.387 598.256 747.351 598.256 747.309V741.538C598.256 740.681 598.705 739.886 599.437 739.45L603.809 736.847L599.652 731.151C598.685 729.826 597.155 729.041 595.526 729.036L590.779 729.02C589.929 729.016 589.255 728.295 589.302 727.435L589.312 727.236C589.35 726.561 589.912 726.039 590.581 726.059L597.923 726.283C599.386 726.328 600.755 727.021 601.669 728.177L607.013 734.938L611.846 732.06L612.4 731.73C612.868 731.45 613.393 731.306 613.917 731.296Z" fill="#FFCD1C" stroke="url(#paint20_linear_4776_16198)" stroke-width="0.0589456" stroke-miterlimit="10"/>
<path d="M613.917 751.795V760.758C613.618 760.744 612.737 760.788 610.988 761.458C610.813 761.524 610.649 761.617 610.486 761.714L580.161 779.569C580.099 779.606 580.021 779.561 580.021 779.489V771.291C580.021 771.26 580.038 771.23 580.066 771.213L598.278 760.157L610.667 753.188C610.667 753.188 612.74 751.878 613.917 751.795Z" fill="#FFCD1C" stroke="url(#paint21_linear_4776_16198)" stroke-width="0.0589456" stroke-miterlimit="10"/>
<path d="M613.917 765.745V773.616C612.684 773.587 610.913 774.402 610.913 774.402L595.267 784.023C595.208 784.06 595.133 784.016 595.133 783.946V775.74C595.133 775.712 595.147 775.685 595.172 775.67L609.705 767.107C610.529 766.621 611.408 766.232 612.329 765.978C612.886 765.825 613.473 765.71 613.917 765.745Z" fill="#FFCD1C" stroke="url(#paint22_linear_4776_16198)" stroke-width="0.0589456" stroke-miterlimit="10"/>
<path d="M613.917 778.089V801.844L607.652 793.724C607.636 793.701 607.611 793.681 607.585 793.669L602.857 791.597C602.749 791.549 602.642 791.499 602.537 791.444L595.623 787.895C595.56 787.863 595.559 787.775 595.618 787.74L609.327 779.66C610.473 778.985 611.712 778.483 613.013 778.216C613.338 778.149 613.652 778.103 613.917 778.089Z" fill="#FFCD1C" stroke="url(#paint23_linear_4776_16198)" stroke-width="0.0589456" stroke-miterlimit="10"/>
</g>
<defs>
<linearGradient id="paint0_linear_4776_16198" x1="534.615" y1="591.068" x2="501.325" y2="648.728" gradientUnits="userSpaceOnUse">
<stop stop-color="#FFE013"/>
<stop offset="0.5058" stop-color="#F29612"/>
<stop offset="0.9899" stop-color="#E64111"/>
</linearGradient>
<linearGradient id="paint1_linear_4776_16198" x1="534.683" y1="590.95" x2="501.257" y2="648.846" gradientUnits="userSpaceOnUse">
<stop stop-color="#FFD14E"/>
<stop offset="0.0064866" stop-color="#FECF53" stop-opacity="0.9935"/>
<stop offset="0.0851" stop-color="#FABF78" stop-opacity="0.9149"/>
<stop offset="0.17" stop-color="#F6AF8E" stop-opacity="0.83"/>
<stop offset="0.2605" stop-color="#F4A09C" stop-opacity="0.7395"/>
<stop offset="0.3581" stop-color="#F293A3" stop-opacity="0.6419"/>
<stop offset="0.4657" stop-color="#F088A7" stop-opacity="0.5343"/>
<stop offset="0.5883" stop-color="#EF81A9" stop-opacity="0.4117"/>
<stop offset="0.7389" stop-color="#EE7CAA" stop-opacity="0.2611"/>
<stop offset="1" stop-color="#EE7AAA" stop-opacity="0"/>
</linearGradient>
<linearGradient id="paint2_linear_4776_16198" x1="513.574" y1="627.512" x2="490.902" y2="666.781" gradientUnits="userSpaceOnUse">
<stop stop-color="#FFE013"/>
<stop offset="0.5058" stop-color="#F29612"/>
<stop offset="0.9899" stop-color="#E64111"/>
</linearGradient>
<linearGradient id="paint3_linear_4776_16198" x1="513.642" y1="627.394" x2="490.834" y2="666.898" gradientUnits="userSpaceOnUse">
<stop stop-color="#FFD14E"/>
<stop offset="0.0064866" stop-color="#FECF53" stop-opacity="0.9935"/>
<stop offset="0.0851" stop-color="#FABF78" stop-opacity="0.9149"/>
<stop offset="0.17" stop-color="#F6AF8E" stop-opacity="0.83"/>
<stop offset="0.2605" stop-color="#F4A09C" stop-opacity="0.7395"/>
<stop offset="0.3581" stop-color="#F293A3" stop-opacity="0.6419"/>
<stop offset="0.4657" stop-color="#F088A7" stop-opacity="0.5343"/>
<stop offset="0.5883" stop-color="#EF81A9" stop-opacity="0.4117"/>
<stop offset="0.7389" stop-color="#EE7CAA" stop-opacity="0.2611"/>
<stop offset="1" stop-color="#EE7AAA" stop-opacity="0"/>
</linearGradient>
<linearGradient id="paint4_linear_4776_16198" x1="502.196" y1="647.218" x2="487.269" y2="673.073" gradientUnits="userSpaceOnUse">
<stop stop-color="#FFE013"/>
<stop offset="0.5058" stop-color="#F29612"/>
<stop offset="0.9899" stop-color="#E64111"/>
</linearGradient>
<linearGradient id="paint5_linear_4776_16198" x1="502.264" y1="647.101" x2="487.201" y2="673.191" gradientUnits="userSpaceOnUse">
<stop stop-color="#FFD14E"/>
<stop offset="0.0064866" stop-color="#FECF53" stop-opacity="0.9935"/>
<stop offset="0.0851" stop-color="#FABF78" stop-opacity="0.9149"/>
<stop offset="0.17" stop-color="#F6AF8E" stop-opacity="0.83"/>
<stop offset="0.2605" stop-color="#F4A09C" stop-opacity="0.7395"/>
<stop offset="0.3581" stop-color="#F293A3" stop-opacity="0.6419"/>
<stop offset="0.4657" stop-color="#F088A7" stop-opacity="0.5343"/>
<stop offset="0.5883" stop-color="#EF81A9" stop-opacity="0.4117"/>
<stop offset="0.7389" stop-color="#EE7CAA" stop-opacity="0.2611"/>
<stop offset="1" stop-color="#EE7AAA" stop-opacity="0"/>
</linearGradient>
<linearGradient id="paint6_linear_4776_16198" x1="492.122" y1="664.668" x2="472.614" y2="698.456" gradientUnits="userSpaceOnUse">
<stop stop-color="#FFE013"/>
<stop offset="0.5058" stop-color="#F29612"/>
<stop offset="0.9899" stop-color="#E64111"/>
</linearGradient>
<linearGradient id="paint7_linear_4776_16198" x1="492.19" y1="664.551" x2="472.502" y2="698.65" gradientUnits="userSpaceOnUse">
<stop stop-color="#FFD14E"/>
<stop offset="0.0064866" stop-color="#FECF53" stop-opacity="0.9935"/>
<stop offset="0.0851" stop-color="#FABF78" stop-opacity="0.9149"/>
<stop offset="0.17" stop-color="#F6AF8E" stop-opacity="0.83"/>
<stop offset="0.2605" stop-color="#F4A09C" stop-opacity="0.7395"/>
<stop offset="0.3581" stop-color="#F293A3" stop-opacity="0.6419"/>
<stop offset="0.4657" stop-color="#F088A7" stop-opacity="0.5343"/>
<stop offset="0.5883" stop-color="#EF81A9" stop-opacity="0.4117"/>
<stop offset="0.7389" stop-color="#EE7CAA" stop-opacity="0.2611"/>
<stop offset="1" stop-color="#EE7AAA" stop-opacity="0"/>
</linearGradient>
<linearGradient id="paint8_linear_4776_16198" x1="476.832" y1="634.744" x2="510.211" y2="576.931" gradientUnits="userSpaceOnUse">
<stop stop-color="#FFD14E"/>
<stop offset="0.0064866" stop-color="#FECF53" stop-opacity="0.9935"/>
<stop offset="0.0851" stop-color="#FABF78" stop-opacity="0.9149"/>
<stop offset="0.17" stop-color="#F6AF8E" stop-opacity="0.83"/>
<stop offset="0.2605" stop-color="#F4A09C" stop-opacity="0.7395"/>
<stop offset="0.3581" stop-color="#F293A3" stop-opacity="0.6419"/>
<stop offset="0.4657" stop-color="#F088A7" stop-opacity="0.5343"/>
<stop offset="0.5883" stop-color="#EF81A9" stop-opacity="0.4117"/>
<stop offset="0.7389" stop-color="#EE7CAA" stop-opacity="0.2611"/>
<stop offset="1" stop-color="#EE7AAA" stop-opacity="0"/>
</linearGradient>
<linearGradient id="paint9_linear_4776_16198" x1="466.425" y1="652.804" x2="489.234" y2="613.297" gradientUnits="userSpaceOnUse">
<stop stop-color="#FFD14E"/>
<stop offset="0.0064866" stop-color="#FECF53" stop-opacity="0.9935"/>
<stop offset="0.0851" stop-color="#FABF78" stop-opacity="0.9149"/>
<stop offset="0.17" stop-color="#F6AF8E" stop-opacity="0.83"/>
<stop offset="0.2605" stop-color="#F4A09C" stop-opacity="0.7395"/>
<stop offset="0.3581" stop-color="#F293A3" stop-opacity="0.6419"/>
<stop offset="0.4657" stop-color="#F088A7" stop-opacity="0.5343"/>
<stop offset="0.5883" stop-color="#EF81A9" stop-opacity="0.4117"/>
<stop offset="0.7389" stop-color="#EE7CAA" stop-opacity="0.2611"/>
<stop offset="1" stop-color="#EE7AAA" stop-opacity="0"/>
</linearGradient>
<linearGradient id="paint10_linear_4776_16198" x1="473.569" y1="665.321" x2="488.631" y2="639.231" gradientUnits="userSpaceOnUse">
<stop stop-color="#FFD14E"/>
<stop offset="0.0064866" stop-color="#FECF53" stop-opacity="0.9935"/>
<stop offset="0.0851" stop-color="#FABF78" stop-opacity="0.9149"/>
<stop offset="0.17" stop-color="#F6AF8E" stop-opacity="0.83"/>
<stop offset="0.2605" stop-color="#F4A09C" stop-opacity="0.7395"/>
<stop offset="0.3581" stop-color="#F293A3" stop-opacity="0.6419"/>
<stop offset="0.4657" stop-color="#F088A7" stop-opacity="0.5343"/>
<stop offset="0.5883" stop-color="#EF81A9" stop-opacity="0.4117"/>
<stop offset="0.7389" stop-color="#EE7CAA" stop-opacity="0.2611"/>
<stop offset="1" stop-color="#EE7AAA" stop-opacity="0"/>
</linearGradient>
<linearGradient id="paint11_linear_4776_16198" x1="459.227" y1="690.889" x2="478.874" y2="656.859" gradientUnits="userSpaceOnUse">
<stop stop-color="#FFD14E"/>
<stop offset="0.0064866" stop-color="#FECF53" stop-opacity="0.9935"/>
<stop offset="0.0851" stop-color="#FABF78" stop-opacity="0.9149"/>
<stop offset="0.17" stop-color="#F6AF8E" stop-opacity="0.83"/>
<stop offset="0.2605" stop-color="#F4A09C" stop-opacity="0.7395"/>
<stop offset="0.3581" stop-color="#F293A3" stop-opacity="0.6419"/>
<stop offset="0.4657" stop-color="#F088A7" stop-opacity="0.5343"/>
<stop offset="0.5883" stop-color="#EF81A9" stop-opacity="0.4117"/>
<stop offset="0.7389" stop-color="#EE7CAA" stop-opacity="0.2611"/>
<stop offset="1" stop-color="#EE7AAA" stop-opacity="0"/>
</linearGradient>
<linearGradient id="paint12_linear_4776_16198" x1="614.082" y1="726" x2="614.082" y2="766.807" gradientUnits="userSpaceOnUse">
<stop stop-color="#FFE013"/>
<stop offset="0.5058" stop-color="#F29612"/>
<stop offset="0.9899" stop-color="#E64111"/>
</linearGradient>
<linearGradient id="paint13_linear_4776_16198" x1="614.082" y1="725.917" x2="614.082" y2="766.89" gradientUnits="userSpaceOnUse">
<stop stop-color="#FFD14E"/>
<stop offset="0.0064866" stop-color="#FECF53" stop-opacity="0.9935"/>
<stop offset="0.0851" stop-color="#FABF78" stop-opacity="0.9149"/>
<stop offset="0.17" stop-color="#F6AF8E" stop-opacity="0.83"/>
<stop offset="0.2605" stop-color="#F4A09C" stop-opacity="0.7395"/>
<stop offset="0.3581" stop-color="#F293A3" stop-opacity="0.6419"/>
<stop offset="0.4657" stop-color="#F088A7" stop-opacity="0.5343"/>
<stop offset="0.5883" stop-color="#EF81A9" stop-opacity="0.4117"/>
<stop offset="0.7389" stop-color="#EE7CAA" stop-opacity="0.2611"/>
<stop offset="1" stop-color="#EE7AAA" stop-opacity="0"/>
</linearGradient>
<linearGradient id="paint14_linear_4776_16198" x1="614.082" y1="751.792" x2="614.082" y2="779.583" gradientUnits="userSpaceOnUse">
<stop stop-color="#FFE013"/>
<stop offset="0.5058" stop-color="#F29612"/>
<stop offset="0.9899" stop-color="#E64111"/>
</linearGradient>
<linearGradient id="paint15_linear_4776_16198" x1="614.082" y1="751.709" x2="614.082" y2="779.666" gradientUnits="userSpaceOnUse">
<stop stop-color="#FFD14E"/>
<stop offset="0.0064866" stop-color="#FECF53" stop-opacity="0.9935"/>
<stop offset="0.0851" stop-color="#FABF78" stop-opacity="0.9149"/>
<stop offset="0.17" stop-color="#F6AF8E" stop-opacity="0.83"/>
<stop offset="0.2605" stop-color="#F4A09C" stop-opacity="0.7395"/>
<stop offset="0.3581" stop-color="#F293A3" stop-opacity="0.6419"/>
<stop offset="0.4657" stop-color="#F088A7" stop-opacity="0.5343"/>
<stop offset="0.5883" stop-color="#EF81A9" stop-opacity="0.4117"/>
<stop offset="0.7389" stop-color="#EE7CAA" stop-opacity="0.2611"/>
<stop offset="1" stop-color="#EE7AAA" stop-opacity="0"/>
</linearGradient>
<linearGradient id="paint16_linear_4776_16198" x1="614.082" y1="765.738" x2="614.082" y2="784.036" gradientUnits="userSpaceOnUse">
<stop stop-color="#FFE013"/>
<stop offset="0.5058" stop-color="#F29612"/>
<stop offset="0.9899" stop-color="#E64111"/>
</linearGradient>
<linearGradient id="paint17_linear_4776_16198" x1="614.082" y1="765.655" x2="614.082" y2="784.119" gradientUnits="userSpaceOnUse">
<stop stop-color="#FFD14E"/>
<stop offset="0.0064866" stop-color="#FECF53" stop-opacity="0.9935"/>
<stop offset="0.0851" stop-color="#FABF78" stop-opacity="0.9149"/>
<stop offset="0.17" stop-color="#F6AF8E" stop-opacity="0.83"/>
<stop offset="0.2605" stop-color="#F4A09C" stop-opacity="0.7395"/>
<stop offset="0.3581" stop-color="#F293A3" stop-opacity="0.6419"/>
<stop offset="0.4657" stop-color="#F088A7" stop-opacity="0.5343"/>
<stop offset="0.5883" stop-color="#EF81A9" stop-opacity="0.4117"/>
<stop offset="0.7389" stop-color="#EE7CAA" stop-opacity="0.2611"/>
<stop offset="1" stop-color="#EE7AAA" stop-opacity="0"/>
</linearGradient>
<linearGradient id="paint18_linear_4776_16198" x1="614.082" y1="778.088" x2="614.082" y2="802" gradientUnits="userSpaceOnUse">
<stop stop-color="#FFE013"/>
<stop offset="0.5058" stop-color="#F29612"/>
<stop offset="0.9899" stop-color="#E64111"/>
</linearGradient>
<linearGradient id="paint19_linear_4776_16198" x1="614.082" y1="778.005" x2="614.082" y2="802.137" gradientUnits="userSpaceOnUse">
<stop stop-color="#FFD14E"/>
<stop offset="0.0064866" stop-color="#FECF53" stop-opacity="0.9935"/>
<stop offset="0.0851" stop-color="#FABF78" stop-opacity="0.9149"/>
<stop offset="0.17" stop-color="#F6AF8E" stop-opacity="0.83"/>
<stop offset="0.2605" stop-color="#F4A09C" stop-opacity="0.7395"/>
<stop offset="0.3581" stop-color="#F293A3" stop-opacity="0.6419"/>
<stop offset="0.4657" stop-color="#F088A7" stop-opacity="0.5343"/>
<stop offset="0.5883" stop-color="#EF81A9" stop-opacity="0.4117"/>
<stop offset="0.7389" stop-color="#EE7CAA" stop-opacity="0.2611"/>
<stop offset="1" stop-color="#EE7AAA" stop-opacity="0"/>
</linearGradient>
<linearGradient id="paint20_linear_4776_16198" x1="596.958" y1="766.89" x2="596.958" y2="725.975" gradientUnits="userSpaceOnUse">
<stop stop-color="#FFD14E"/>
<stop offset="0.0064866" stop-color="#FECF53" stop-opacity="0.9935"/>
<stop offset="0.0851" stop-color="#FABF78" stop-opacity="0.9149"/>
<stop offset="0.17" stop-color="#F6AF8E" stop-opacity="0.83"/>
<stop offset="0.2605" stop-color="#F4A09C" stop-opacity="0.7395"/>
<stop offset="0.3581" stop-color="#F293A3" stop-opacity="0.6419"/>
<stop offset="0.4657" stop-color="#F088A7" stop-opacity="0.5343"/>
<stop offset="0.5883" stop-color="#EF81A9" stop-opacity="0.4117"/>
<stop offset="0.7389" stop-color="#EE7CAA" stop-opacity="0.2611"/>
<stop offset="1" stop-color="#EE7AAA" stop-opacity="0"/>
</linearGradient>
<linearGradient id="paint21_linear_4776_16198" x1="596.969" y1="779.666" x2="596.969" y2="751.706" gradientUnits="userSpaceOnUse">
<stop stop-color="#FFD14E"/>
<stop offset="0.0064866" stop-color="#FECF53" stop-opacity="0.9935"/>
<stop offset="0.0851" stop-color="#FABF78" stop-opacity="0.9149"/>
<stop offset="0.17" stop-color="#F6AF8E" stop-opacity="0.83"/>
<stop offset="0.2605" stop-color="#F4A09C" stop-opacity="0.7395"/>
<stop offset="0.3581" stop-color="#F293A3" stop-opacity="0.6419"/>
<stop offset="0.4657" stop-color="#F088A7" stop-opacity="0.5343"/>
<stop offset="0.5883" stop-color="#EF81A9" stop-opacity="0.4117"/>
<stop offset="0.7389" stop-color="#EE7CAA" stop-opacity="0.2611"/>
<stop offset="1" stop-color="#EE7AAA" stop-opacity="0"/>
</linearGradient>
<linearGradient id="paint22_linear_4776_16198" x1="604.524" y1="784.12" x2="604.524" y2="765.656" gradientUnits="userSpaceOnUse">
<stop stop-color="#FFD14E"/>
<stop offset="0.0064866" stop-color="#FECF53" stop-opacity="0.9935"/>
<stop offset="0.0851" stop-color="#FABF78" stop-opacity="0.9149"/>
<stop offset="0.17" stop-color="#F6AF8E" stop-opacity="0.83"/>
<stop offset="0.2605" stop-color="#F4A09C" stop-opacity="0.7395"/>
<stop offset="0.3581" stop-color="#F293A3" stop-opacity="0.6419"/>
<stop offset="0.4657" stop-color="#F088A7" stop-opacity="0.5343"/>
<stop offset="0.5883" stop-color="#EF81A9" stop-opacity="0.4117"/>
<stop offset="0.7389" stop-color="#EE7CAA" stop-opacity="0.2611"/>
<stop offset="1" stop-color="#EE7AAA" stop-opacity="0"/>
</linearGradient>
<linearGradient id="paint23_linear_4776_16198" x1="604.745" y1="802.086" x2="604.745" y2="778.002" gradientUnits="userSpaceOnUse">
<stop stop-color="#FFD14E"/>
<stop offset="0.0064866" stop-color="#FECF53" stop-opacity="0.9935"/>
<stop offset="0.0851" stop-color="#FABF78" stop-opacity="0.9149"/>
<stop offset="0.17" stop-color="#F6AF8E" stop-opacity="0.83"/>
<stop offset="0.2605" stop-color="#F4A09C" stop-opacity="0.7395"/>
<stop offset="0.3581" stop-color="#F293A3" stop-opacity="0.6419"/>
<stop offset="0.4657" stop-color="#F088A7" stop-opacity="0.5343"/>
<stop offset="0.5883" stop-color="#EF81A9" stop-opacity="0.4117"/>
<stop offset="0.7389" stop-color="#EE7CAA" stop-opacity="0.2611"/>
<stop offset="1" stop-color="#EE7AAA" stop-opacity="0"/>
</linearGradient>
</defs>
</svg>
