<svg width="230" height="304" viewBox="0 0 230 304" fill="none" xmlns="http://www.w3.org/2000/svg">
<g opacity="0.2">
<path d="M103.969 271.372C104.491 271.674 105.134 271.674 105.656 271.372L118.407 264.011C118.929 263.709 119.251 263.152 119.251 262.549L119.251 247.826C119.251 247.223 118.929 246.666 118.407 246.364L105.656 239.003C105.134 238.701 104.491 238.701 103.969 239.003L91.2179 246.364C90.6958 246.666 90.3742 247.223 90.3742 247.826L90.3742 262.549C90.3742 263.152 90.6958 263.709 91.2179 264.011L103.969 271.372Z" stroke="#FCBE0A" stroke-width="2.625" stroke-linejoin="bevel"/>
<path d="M138.844 271.372C139.366 271.674 140.009 271.674 140.531 271.372L153.282 264.011C153.804 263.709 154.126 263.152 154.126 262.549L154.126 247.826C154.126 247.223 153.804 246.666 153.282 246.364L140.531 239.003C140.009 238.701 139.366 238.701 138.844 239.003L126.093 246.364C125.571 246.666 125.249 247.223 125.249 247.826L125.249 262.549C125.249 263.152 125.571 263.709 126.093 264.011L138.844 271.372Z" stroke="#FCBE0A" stroke-width="2.625" stroke-linejoin="bevel"/>
<path d="M173.344 271.747C173.866 272.049 174.509 272.049 175.031 271.747L187.782 264.386C188.304 264.084 188.626 263.527 188.626 262.924L188.626 248.201C188.626 247.598 188.304 247.041 187.782 246.739L175.031 239.378C174.509 239.076 173.866 239.076 173.344 239.378L160.593 246.739C160.071 247.041 159.749 247.598 159.749 248.201L159.749 262.924C159.749 263.527 160.071 264.084 160.593 264.386L173.344 271.747Z" stroke="#FCBE0A" stroke-width="2.625" stroke-linejoin="bevel"/>
<path d="M139.969 93.6223C140.491 93.9238 141.134 93.9238 141.656 93.6223L154.407 86.2606C154.929 85.9592 155.251 85.4021 155.251 84.7992L155.251 70.0758C155.251 69.4729 154.929 68.9158 154.407 68.6144L141.656 61.2527C141.134 60.9512 140.491 60.9512 139.969 61.2527L127.218 68.6144C126.696 68.9158 126.374 69.4729 126.374 70.0758L126.374 84.7992C126.374 85.4021 126.696 85.9592 127.218 86.2606L139.969 93.6223Z" stroke="#FCBE0A" stroke-width="2.625" stroke-linejoin="bevel"/>
<path d="M174.469 93.6223C174.991 93.9238 175.634 93.9238 176.156 93.6223L188.907 86.2606C189.429 85.9592 189.751 85.4021 189.751 84.7992L189.751 70.0758C189.751 69.4729 189.429 68.9158 188.907 68.6144L176.156 61.2527C175.634 60.9512 174.991 60.9512 174.469 61.2527L161.718 68.6144C161.196 68.9158 160.874 69.4729 160.874 70.0758L160.874 84.7992C160.874 85.4021 161.196 85.9592 161.718 86.2606L174.469 93.6223Z" stroke="#FCBE0A" stroke-width="2.625" stroke-linejoin="bevel"/>
<path d="M210.094 93.2473C210.616 93.5488 211.259 93.5488 211.781 93.2473L224.532 85.8856C225.054 85.5842 225.376 85.0271 225.376 84.4242L225.376 69.7008C225.376 69.0979 225.054 68.5408 224.532 68.2394L211.781 60.8777C211.259 60.5762 210.616 60.5762 210.094 60.8777L197.343 68.2394C196.821 68.5408 196.499 69.0979 196.499 69.7008L196.499 84.4242C196.499 85.0271 196.821 85.5842 197.343 85.8856L210.094 93.2473Z" stroke="#FCBE0A" stroke-width="2.625" stroke-linejoin="bevel"/>
<path d="M122.719 123.247C123.241 123.549 123.884 123.549 124.406 123.247L137.157 115.886C137.679 115.584 138.001 115.027 138.001 114.424L138.001 99.7008C138.001 99.0979 137.679 98.5408 137.157 98.2394L124.406 90.8777C123.884 90.5762 123.241 90.5762 122.719 90.8777L109.968 98.2394C109.446 98.5408 109.124 99.0979 109.124 99.7008L109.124 114.424C109.124 115.027 109.446 115.584 109.968 115.886L122.719 123.247Z" stroke="#FCBE0A" stroke-width="2.625" stroke-linejoin="bevel"/>
<path d="M156.844 123.247C157.366 123.549 158.009 123.549 158.531 123.247L171.282 115.886C171.804 115.584 172.126 115.027 172.126 114.424L172.126 99.7008C172.126 99.0979 171.804 98.5408 171.282 98.2394L158.531 90.8777C158.009 90.5762 157.366 90.5762 156.844 90.8777L144.093 98.2394C143.571 98.5408 143.249 99.0979 143.249 99.7008L143.249 114.424C143.249 115.027 143.571 115.584 144.093 115.886L156.844 123.247Z" stroke="#FCBE0A" stroke-width="2.625" stroke-linejoin="bevel"/>
<path d="M174.469 152.497C174.991 152.799 175.634 152.799 176.156 152.497L188.907 145.136C189.429 144.834 189.751 144.277 189.751 143.674L189.751 128.951C189.751 128.348 189.429 127.791 188.907 127.489L176.156 120.128C175.634 119.826 174.991 119.826 174.469 120.128L161.718 127.489C161.196 127.791 160.874 128.348 160.874 128.951L160.874 143.674C160.874 144.277 161.196 144.834 161.718 145.136L174.469 152.497Z" stroke="#FCBE0A" stroke-width="2.625" stroke-linejoin="bevel"/>
<path d="M139.969 34.3723C140.491 34.6738 141.134 34.6738 141.656 34.3723L154.407 27.0106C154.929 26.7092 155.251 26.1521 155.251 25.5492L155.251 10.8258C155.251 10.2229 154.929 9.66582 154.407 9.36438L141.656 2.00268C141.134 1.70124 140.491 1.70124 139.969 2.00268L127.218 9.36438C126.696 9.66583 126.374 10.2229 126.374 10.8258L126.374 25.5492C126.374 26.1521 126.696 26.7092 127.218 27.0106L139.969 34.3723Z" stroke="#FCBE0A" stroke-width="2.625" stroke-linejoin="bevel"/>
<path d="M156.844 64.3723C157.366 64.6738 158.009 64.6738 158.531 64.3723L171.282 57.0106C171.804 56.7092 172.126 56.1521 172.126 55.5492L172.126 40.8258C172.126 40.2229 171.804 39.6658 171.282 39.3644L158.531 32.0027C158.009 31.7012 157.366 31.7012 156.844 32.0027L144.093 39.3644C143.571 39.6658 143.249 40.2229 143.249 40.8258L143.249 55.5492C143.249 56.1521 143.571 56.7092 144.093 57.0106L156.844 64.3723Z" stroke="#FCBE0A" stroke-width="2.625" stroke-linejoin="bevel"/>
<path d="M34.9688 211.372C35.4909 211.674 36.1341 211.674 36.6562 211.372L49.4071 204.011C49.9292 203.709 50.2508 203.152 50.2508 202.549L50.2508 187.826C50.2508 187.223 49.9292 186.666 49.4071 186.364L36.6562 179.003C36.1341 178.701 35.4909 178.701 34.9687 179.003L22.2179 186.364C21.6958 186.666 21.3742 187.223 21.3742 187.826L21.3742 202.549C21.3742 203.152 21.6958 203.709 22.2179 204.011L34.9688 211.372Z" stroke="#FCBE0A" stroke-width="2.625" stroke-linejoin="bevel"/>
<path d="M70.5938 211.372C71.1159 211.674 71.7591 211.674 72.2812 211.372L85.0321 204.011C85.5542 203.709 85.8758 203.152 85.8758 202.549L85.8758 187.826C85.8758 187.223 85.5542 186.666 85.0321 186.364L72.2812 179.003C71.7591 178.701 71.1159 178.701 70.5937 179.003L57.8429 186.364C57.3208 186.666 56.9992 187.223 56.9992 187.826L56.9992 202.549C56.9992 203.152 57.3208 203.709 57.8429 204.011L70.5938 211.372Z" stroke="#FCBE0A" stroke-width="2.625" stroke-linejoin="bevel"/>
<path d="M105.844 211.372C106.366 211.674 107.009 211.674 107.531 211.372L120.282 204.011C120.804 203.709 121.126 203.152 121.126 202.549L121.126 187.826C121.126 187.223 120.804 186.666 120.282 186.364L107.531 179.003C107.009 178.701 106.366 178.701 105.844 179.003L93.0929 186.364C92.5708 186.666 92.2492 187.223 92.2492 187.826L92.2492 202.549C92.2492 203.152 92.5708 203.709 93.0929 204.011L105.844 211.372Z" stroke="#FCBE0A" stroke-width="2.625" stroke-linejoin="bevel"/>
<path d="M139.594 211.372C140.116 211.674 140.759 211.674 141.281 211.372L154.032 204.011C154.554 203.709 154.876 203.152 154.876 202.549L154.876 187.826C154.876 187.223 154.554 186.666 154.032 186.364L141.281 179.003C140.759 178.701 140.116 178.701 139.594 179.003L126.843 186.364C126.321 186.666 125.999 187.223 125.999 187.826L125.999 202.549C125.999 203.152 126.321 203.709 126.843 204.011L139.594 211.372Z" stroke="#FCBE0A" stroke-width="2.625" stroke-linejoin="bevel"/>
<path d="M174.469 211.372C174.991 211.674 175.634 211.674 176.156 211.372L188.907 204.011C189.429 203.709 189.751 203.152 189.751 202.549L189.751 187.826C189.751 187.223 189.429 186.666 188.907 186.364L176.156 179.003C175.634 178.701 174.991 178.701 174.469 179.003L161.718 186.364C161.196 186.666 160.874 187.223 160.874 187.826L160.874 202.549C160.874 203.152 161.196 203.709 161.718 204.011L174.469 211.372Z" stroke="#FCBE0A" stroke-width="2.625" stroke-linejoin="bevel"/>
<path d="M17.3438 240.997C17.8659 241.299 18.5091 241.299 19.0312 240.997L31.7821 233.636C32.3042 233.334 32.6258 232.777 32.6258 232.174L32.6258 217.451C32.6258 216.848 32.3042 216.291 31.7821 215.989L19.0312 208.628C18.5091 208.326 17.8659 208.326 17.3437 208.628L4.59291 215.989C4.0708 216.291 3.74916 216.848 3.74916 217.451L3.74916 232.174C3.74916 232.777 4.0708 233.334 4.59291 233.636L17.3438 240.997Z" stroke="#FCBE0A" stroke-width="2.625" stroke-linejoin="bevel"/>
<path d="M52.5938 240.997C53.1159 241.299 53.7591 241.299 54.2812 240.997L67.0321 233.636C67.5542 233.334 67.8758 232.777 67.8758 232.174L67.8758 217.451C67.8758 216.848 67.5542 216.291 67.0321 215.989L54.2812 208.628C53.7591 208.326 53.1159 208.326 52.5937 208.628L39.8429 215.989C39.3208 216.291 38.9992 216.848 38.9992 217.451L38.9992 232.174C38.9992 232.777 39.3208 233.334 39.8429 233.636L52.5938 240.997Z" stroke="#FCBE0A" stroke-width="2.625" stroke-linejoin="bevel"/>
<path d="M87.4688 240.997C87.9909 241.299 88.6341 241.299 89.1562 240.997L101.907 233.636C102.429 233.334 102.751 232.777 102.751 232.174L102.751 217.451C102.751 216.848 102.429 216.291 101.907 215.989L89.1562 208.628C88.6341 208.326 87.9909 208.326 87.4687 208.628L74.7179 215.989C74.1958 216.291 73.8742 216.848 73.8742 217.451L73.8742 232.174C73.8742 232.777 74.1958 233.334 74.7179 233.636L87.4688 240.997Z" stroke="#FCBE0A" stroke-width="2.625" stroke-linejoin="bevel"/>
<path d="M121.969 240.997C122.491 241.299 123.134 241.299 123.656 240.997L136.407 233.636C136.929 233.334 137.251 232.777 137.251 232.174L137.251 217.451C137.251 216.848 136.929 216.291 136.407 215.989L123.656 208.628C123.134 208.326 122.491 208.326 121.969 208.628L109.218 215.989C108.696 216.291 108.374 216.848 108.374 217.451L108.374 232.174C108.374 232.777 108.696 233.334 109.218 233.636L121.969 240.997Z" stroke="#FCBE0A" stroke-width="2.625" stroke-linejoin="bevel"/>
<path d="M156.844 240.997C157.366 241.299 158.009 241.299 158.531 240.997L171.282 233.636C171.804 233.334 172.126 232.777 172.126 232.174L172.126 217.451C172.126 216.848 171.804 216.291 171.282 215.989L158.531 208.628C158.009 208.326 157.366 208.326 156.844 208.628L144.093 215.989C143.571 216.291 143.249 216.848 143.249 217.451L143.249 232.174C143.249 232.777 143.571 233.334 144.093 233.636L156.844 240.997Z" stroke="#FCBE0A" stroke-width="2.625" stroke-linejoin="bevel"/>
<path d="M192.094 242.872C192.616 243.174 193.259 243.174 193.781 242.872L206.532 235.511C207.054 235.209 207.376 234.652 207.376 234.049L207.376 219.326C207.376 218.723 207.054 218.166 206.532 217.864L193.781 210.503C193.259 210.201 192.616 210.201 192.094 210.503L179.343 217.864C178.821 218.166 178.499 218.723 178.499 219.326L178.499 234.049C178.499 234.652 178.821 235.209 179.343 235.511L192.094 242.872Z" stroke="#FCBE0A" stroke-width="2.625" stroke-linejoin="bevel"/>
<path d="M34.9688 271.372C35.4909 271.674 36.1341 271.674 36.6562 271.372L49.4071 264.011C49.9292 263.709 50.2508 263.152 50.2508 262.549L50.2508 247.826C50.2508 247.223 49.9292 246.666 49.4071 246.364L36.6562 239.003C36.1341 238.701 35.4909 238.701 34.9687 239.003L22.2179 246.364C21.6958 246.666 21.3742 247.223 21.3742 247.826L21.3742 262.549C21.3742 263.152 21.6958 263.709 22.2179 264.011L34.9688 271.372Z" stroke="#FCBE0A" stroke-width="2.625" stroke-linejoin="bevel"/>
<path d="M69.4688 271.372C69.9909 271.674 70.6341 271.674 71.1562 271.372L83.9071 264.011C84.4292 263.709 84.7508 263.152 84.7508 262.549L84.7508 247.826C84.7508 247.223 84.4292 246.666 83.9071 246.364L71.1562 239.003C70.6341 238.701 69.9909 238.701 69.4687 239.003L56.7179 246.364C56.1958 246.666 55.8742 247.223 55.8742 247.826L55.8742 262.549C55.8742 263.152 56.1958 263.709 56.7179 264.011L69.4688 271.372Z" stroke="#FCBE0A" stroke-width="2.625" stroke-linejoin="bevel"/>
<path d="M17.3438 301.747C17.8659 302.049 18.5091 302.049 19.0312 301.747L31.7821 294.386C32.3042 294.084 32.6258 293.527 32.6258 292.924L32.6258 278.201C32.6258 277.598 32.3042 277.041 31.7821 276.739L19.0312 269.378C18.5091 269.076 17.8659 269.076 17.3437 269.378L4.59291 276.739C4.0708 277.041 3.74916 277.598 3.74916 278.201L3.74916 292.924C3.74916 293.527 4.0708 294.084 4.59291 294.386L17.3438 301.747Z" stroke="#FCBE0A" stroke-width="2.625" stroke-linejoin="bevel"/>
<path d="M85.9688 301.747C86.4909 302.049 87.1341 302.049 87.6562 301.747L100.407 294.386C100.929 294.084 101.251 293.527 101.251 292.924L101.251 278.201C101.251 277.598 100.929 277.041 100.407 276.739L87.6562 269.378C87.1341 269.076 86.4909 269.076 85.9687 269.378L73.2179 276.739C72.6958 277.041 72.3742 277.598 72.3742 278.201L72.3742 292.924C72.3742 293.527 72.6958 294.084 73.2179 294.386L85.9688 301.747Z" stroke="#FCBE0A" stroke-width="2.625" stroke-linejoin="bevel"/>
<path d="M51.8438 301.747C52.3659 302.049 53.0091 302.049 53.5312 301.747L66.2821 294.386C66.8042 294.084 67.1258 293.527 67.1258 292.924L67.1258 278.201C67.1258 277.598 66.8042 277.041 66.2821 276.739L53.5312 269.378C53.0091 269.076 52.3659 269.076 51.8437 269.378L39.0929 276.739C38.5708 277.041 38.2492 277.598 38.2492 278.201L38.2492 292.924C38.2492 293.527 38.5708 294.084 39.0929 294.386L51.8438 301.747Z" stroke="#FCBE0A" stroke-width="2.625" stroke-linejoin="bevel"/>
<path d="M155.344 301.747C155.866 302.049 156.509 302.049 157.031 301.747L169.782 294.386C170.304 294.084 170.626 293.527 170.626 292.924L170.626 278.201C170.626 277.598 170.304 277.041 169.782 276.739L157.031 269.378C156.509 269.076 155.866 269.076 155.344 269.378L142.593 276.739C142.071 277.041 141.749 277.598 141.749 278.201L141.749 292.924C141.749 293.527 142.071 294.084 142.593 294.386L155.344 301.747Z" stroke="#FCBE0A" stroke-width="2.625" stroke-linejoin="bevel"/>
<path d="M120.844 301.747C121.366 302.049 122.009 302.049 122.531 301.747L135.282 294.386C135.804 294.084 136.126 293.527 136.126 292.924L136.126 278.201C136.126 277.598 135.804 277.041 135.282 276.739L122.531 269.378C122.009 269.076 121.366 269.076 120.844 269.378L108.093 276.739C107.571 277.041 107.249 277.598 107.249 278.201L107.249 292.924C107.249 293.527 107.571 294.084 108.093 294.386L120.844 301.747Z" stroke="#FCBE0A" stroke-width="2.625" stroke-linejoin="bevel"/>
<path d="M139.969 152.497C140.491 152.799 141.134 152.799 141.656 152.497L154.407 145.136C154.929 144.834 155.251 144.277 155.251 143.674L155.251 128.951C155.251 128.348 154.929 127.791 154.407 127.489L141.656 120.128C141.134 119.826 140.491 119.826 139.969 120.128L127.218 127.489C126.696 127.791 126.374 128.348 126.374 128.951L126.374 143.674C126.374 144.277 126.696 144.834 127.218 145.136L139.969 152.497Z" stroke="#FCBE0A" stroke-width="2.625" stroke-linejoin="bevel"/>
<path d="M122.719 181.372C123.241 181.674 123.884 181.674 124.406 181.372L137.157 174.011C137.679 173.709 138.001 173.152 138.001 172.549L138.001 157.826C138.001 157.223 137.679 156.666 137.157 156.364L124.406 149.003C123.884 148.701 123.241 148.701 122.719 149.003L109.968 156.364C109.446 156.666 109.124 157.223 109.124 157.826L109.124 172.549C109.124 173.152 109.446 173.709 109.968 174.011L122.719 181.372Z" stroke="#FCBE0A" stroke-width="2.625" stroke-linejoin="bevel"/>
<path d="M157.219 181.372C157.741 181.674 158.384 181.674 158.906 181.372L171.657 174.011C172.179 173.709 172.501 173.152 172.501 172.549L172.501 157.826C172.501 157.223 172.179 156.666 171.657 156.364L158.906 149.003C158.384 148.701 157.741 148.701 157.219 149.003L144.468 156.364C143.946 156.666 143.624 157.223 143.624 157.826L143.624 172.549C143.624 173.152 143.946 173.709 144.468 174.011L157.219 181.372Z" stroke="#FCBE0A" stroke-width="2.625" stroke-linejoin="bevel"/>
<path d="M174.469 34.3723C174.991 34.6738 175.634 34.6738 176.156 34.3723L188.907 27.0106C189.429 26.7092 189.751 26.1521 189.751 25.5492L189.751 10.8258C189.751 10.2229 189.429 9.66582 188.907 9.36438L176.156 2.00268C175.634 1.70124 174.991 1.70124 174.469 2.00268L161.718 9.36438C161.196 9.66583 160.874 10.2229 160.874 10.8258L160.874 25.5492C160.874 26.1521 161.196 26.7092 161.718 27.0106L174.469 34.3723Z" stroke="#FCBE0A" stroke-width="2.625" stroke-linejoin="bevel"/>
</g>
</svg>
