<svg width="420" height="528" viewBox="0 0 420 528" fill="none" xmlns="http://www.w3.org/2000/svg">
<g opacity="0.2">
<path d="M190.718 472.181C191.621 472.676 192.713 472.676 193.615 472.181L217.135 459.295C218.1 458.766 218.7 457.753 218.7 456.652L218.7 431.355C218.7 430.254 218.1 429.241 217.135 428.712L193.615 415.825C192.713 415.331 191.621 415.331 190.718 415.825L167.198 428.712C166.233 429.241 165.633 430.254 165.633 431.355L165.633 456.652C165.633 457.753 166.233 458.766 167.198 459.295L190.718 472.181Z" stroke="#FCBE0A" stroke-width="4.68841" stroke-linejoin="bevel"/>
<path d="M254.659 472.181C255.562 472.676 256.654 472.676 257.556 472.181L281.076 459.295C282.041 458.766 282.641 457.753 282.641 456.652L282.641 431.355C282.641 430.254 282.041 429.241 281.076 428.712L257.556 415.825C256.654 415.331 255.562 415.331 254.659 415.825L231.139 428.712C230.174 429.241 229.574 430.254 229.574 431.355L229.574 456.652C229.574 457.753 230.174 458.766 231.139 459.295L254.659 472.181Z" stroke="#FCBE0A" stroke-width="4.68841" stroke-linejoin="bevel"/>
<path d="M317.913 472.834C318.815 473.328 319.907 473.328 320.809 472.834L344.329 459.947C345.295 459.418 345.895 458.405 345.895 457.304L345.895 432.008C345.895 430.907 345.295 429.893 344.329 429.364L320.809 416.478C319.907 415.983 318.815 415.983 317.913 416.478L294.393 429.364C293.427 429.893 292.827 430.907 292.827 432.008L292.827 457.304C292.827 458.405 293.427 459.418 294.393 459.947L317.913 472.834Z" stroke="#FCBE0A" stroke-width="4.68841" stroke-linejoin="bevel"/>
<path d="M256.722 162.912C257.624 163.407 258.716 163.407 259.618 162.912L283.138 150.026C284.104 149.497 284.704 148.484 284.704 147.383L284.704 122.086C284.704 120.985 284.104 119.972 283.138 119.443L259.618 106.556C258.716 106.062 257.624 106.062 256.722 106.556L233.202 119.443C232.237 119.972 231.636 120.985 231.636 122.086L231.636 147.383C231.636 148.484 232.237 149.497 233.202 150.026L256.722 162.912Z" stroke="#FCBE0A" stroke-width="4.68841" stroke-linejoin="bevel"/>
<path d="M319.975 162.912C320.878 163.407 321.97 163.407 322.872 162.912L346.392 150.026C347.357 149.497 347.957 148.484 347.957 147.383L347.957 122.086C347.957 120.985 347.357 119.972 346.392 119.443L322.872 106.556C321.97 106.062 320.878 106.062 319.975 106.556L296.455 119.443C295.49 119.972 294.89 120.985 294.89 122.086L294.89 147.383C294.89 148.484 295.49 149.497 296.455 150.026L319.975 162.912Z" stroke="#FCBE0A" stroke-width="4.68841" stroke-linejoin="bevel"/>
<path d="M385.291 162.26C386.194 162.754 387.286 162.754 388.188 162.26L411.708 149.374C412.673 148.845 413.273 147.831 413.273 146.73L413.273 121.434C413.273 120.333 412.673 119.319 411.708 118.79L388.188 105.904C387.286 105.409 386.194 105.409 385.291 105.904L361.771 118.79C360.806 119.319 360.206 120.333 360.206 121.434L360.206 146.73C360.206 147.831 360.806 148.845 361.771 149.374L385.291 162.26Z" stroke="#FCBE0A" stroke-width="4.68841" stroke-linejoin="bevel"/>
<path d="M225.095 214.457C225.997 214.952 227.089 214.952 227.992 214.457L251.512 201.571C252.477 201.042 253.077 200.028 253.077 198.928L253.077 173.631C253.077 172.53 252.477 171.517 251.512 170.988L227.992 158.101C227.089 157.607 225.997 157.607 225.095 158.101L201.575 170.988C200.61 171.517 200.01 172.53 200.01 173.631L200.01 198.928C200.01 200.028 200.61 201.042 201.575 201.571L225.095 214.457Z" stroke="#FCBE0A" stroke-width="4.68841" stroke-linejoin="bevel"/>
<path d="M287.661 214.457C288.563 214.952 289.655 214.952 290.558 214.457L314.077 201.571C315.043 201.042 315.643 200.028 315.643 198.928L315.643 173.631C315.643 172.53 315.043 171.517 314.077 170.988L290.558 158.101C289.655 157.607 288.563 157.607 287.661 158.101L264.141 170.988C263.176 171.517 262.575 172.53 262.575 173.631L262.575 198.928C262.575 200.028 263.176 201.042 264.141 201.571L287.661 214.457Z" stroke="#FCBE0A" stroke-width="4.68841" stroke-linejoin="bevel"/>
<path d="M319.975 265.35C320.878 265.844 321.97 265.844 322.872 265.35L346.392 252.463C347.357 251.934 347.957 250.921 347.957 249.82L347.957 224.523C347.957 223.422 347.357 222.409 346.392 221.88L322.872 208.993C321.97 208.499 320.878 208.499 319.975 208.993L296.455 221.88C295.49 222.409 294.89 223.422 294.89 224.523L294.89 249.82C294.89 250.921 295.49 251.934 296.455 252.463L319.975 265.35Z" stroke="#FCBE0A" stroke-width="4.68841" stroke-linejoin="bevel"/>
<path d="M256.722 59.8228C257.624 60.3171 258.716 60.3171 259.618 59.8228L283.138 46.9363C284.104 46.4073 284.704 45.3939 284.704 44.293L284.704 18.9963C284.704 17.8954 284.104 16.8821 283.138 16.3531L259.618 3.46655C258.716 2.97223 257.624 2.97223 256.722 3.46655L233.202 16.3531C232.236 16.8821 231.636 17.8954 231.636 18.9963L231.636 44.293C231.636 45.3939 232.236 46.4073 233.202 46.9363L256.722 59.8228Z" stroke="#FCBE0A" stroke-width="4.68841" stroke-linejoin="bevel"/>
<path d="M287.661 112.02C288.563 112.514 289.655 112.514 290.558 112.02L314.077 99.1335C315.043 98.6045 315.643 97.5912 315.643 96.4903L315.643 71.1936C315.643 70.0927 315.043 69.0794 314.077 68.5504L290.558 55.6638C289.655 55.1695 288.563 55.1695 287.661 55.6638L264.141 68.5504C263.176 69.0794 262.575 70.0927 262.575 71.1936L262.575 96.4903C262.575 97.5912 263.176 98.6045 264.141 99.1335L287.661 112.02Z" stroke="#FCBE0A" stroke-width="4.68841" stroke-linejoin="bevel"/>
<path d="M64.2116 367.787C65.1138 368.281 66.2058 368.281 67.108 367.787L90.6279 354.9C91.5934 354.371 92.1937 353.358 92.1937 352.257L92.1937 326.96C92.1937 325.86 91.5934 324.846 90.6279 324.317L67.108 311.431C66.2058 310.936 65.1138 310.936 64.2116 311.431L40.6917 324.317C39.7262 324.846 39.1259 325.86 39.1259 326.96L39.1259 352.257C39.1259 353.358 39.7262 354.371 40.6917 354.9L64.2116 367.787Z" stroke="#FCBE0A" stroke-width="4.68841" stroke-linejoin="bevel"/>
<path d="M129.528 367.787C130.43 368.281 131.522 368.281 132.424 367.787L155.944 354.9C156.909 354.371 157.51 353.358 157.51 352.257L157.51 326.96C157.51 325.86 156.909 324.846 155.944 324.317L132.424 311.431C131.522 310.936 130.43 310.936 129.528 311.431L106.008 324.317C105.042 324.846 104.442 325.86 104.442 326.96L104.442 352.257C104.442 353.358 105.042 354.371 106.008 354.9L129.528 367.787Z" stroke="#FCBE0A" stroke-width="4.68841" stroke-linejoin="bevel"/>
<path d="M194.156 367.787C195.058 368.281 196.15 368.281 197.053 367.787L220.572 354.9C221.538 354.371 222.138 353.358 222.138 352.257L222.138 326.96C222.138 325.86 221.538 324.846 220.572 324.317L197.053 311.431C196.15 310.936 195.058 310.936 194.156 311.431L170.636 324.317C169.671 324.846 169.07 325.86 169.07 326.96L169.07 352.257C169.07 353.358 169.671 354.371 170.636 354.9L194.156 367.787Z" stroke="#FCBE0A" stroke-width="4.68841" stroke-linejoin="bevel"/>
<path d="M256.034 367.787C256.937 368.281 258.029 368.281 258.931 367.787L282.451 354.9C283.416 354.371 284.017 353.358 284.017 352.257L284.017 326.96C284.017 325.86 283.416 324.846 282.451 324.317L258.931 311.431C258.029 310.936 256.937 310.936 256.034 311.431L232.514 324.317C231.549 324.846 230.949 325.86 230.949 326.96L230.949 352.257C230.949 353.358 231.549 354.371 232.514 354.9L256.034 367.787Z" stroke="#FCBE0A" stroke-width="4.68841" stroke-linejoin="bevel"/>
<path d="M319.975 367.787C320.878 368.281 321.97 368.281 322.872 367.787L346.392 354.9C347.357 354.371 347.957 353.358 347.957 352.257L347.957 326.96C347.957 325.86 347.357 324.846 346.392 324.317L322.872 311.431C321.97 310.936 320.878 310.936 319.975 311.431L296.455 324.317C295.49 324.846 294.89 325.86 294.89 326.96L294.89 352.257C294.89 353.358 295.49 354.371 296.455 354.9L319.975 367.787Z" stroke="#FCBE0A" stroke-width="4.68841" stroke-linejoin="bevel"/>
<path d="M31.8973 419.332C32.7996 419.826 33.8916 419.826 34.7938 419.332L58.3137 406.445C59.2792 405.916 59.8795 404.903 59.8795 403.802L59.8795 378.505C59.8795 377.404 59.2792 376.391 58.3137 375.862L34.7938 362.976C33.8916 362.481 32.7996 362.481 31.8973 362.976L8.37744 375.862C7.41195 376.391 6.81169 377.404 6.81169 378.505L6.81169 403.802C6.81169 404.903 7.41195 405.916 8.37744 406.445L31.8973 419.332Z" stroke="#FCBE0A" stroke-width="4.68841" stroke-linejoin="bevel"/>
<path d="M96.5258 419.332C97.428 419.826 98.5201 419.826 99.4223 419.332L122.942 406.445C123.908 405.916 124.508 404.903 124.508 403.802L124.508 378.505C124.508 377.404 123.908 376.391 122.942 375.862L99.4223 362.976C98.5201 362.481 97.428 362.481 96.5258 362.976L73.0059 375.862C72.0404 376.391 71.4402 377.404 71.4402 378.505L71.4402 403.802C71.4402 404.903 72.0404 405.916 73.0059 406.445L96.5258 419.332Z" stroke="#FCBE0A" stroke-width="4.68841" stroke-linejoin="bevel"/>
<path d="M160.467 419.332C161.369 419.826 162.461 419.826 163.363 419.332L186.883 406.445C187.849 405.916 188.449 404.903 188.449 403.802L188.449 378.505C188.449 377.404 187.849 376.391 186.883 375.862L163.363 362.975C162.461 362.481 161.369 362.481 160.467 362.975L136.947 375.862C135.981 376.391 135.381 377.404 135.381 378.505L135.381 403.802C135.381 404.903 135.981 405.916 136.947 406.445L160.467 419.332Z" stroke="#FCBE0A" stroke-width="4.68841" stroke-linejoin="bevel"/>
<path d="M223.72 419.332C224.622 419.826 225.714 419.826 226.617 419.332L250.137 406.445C251.102 405.916 251.702 404.903 251.702 403.802L251.702 378.505C251.702 377.404 251.102 376.391 250.137 375.862L226.617 362.976C225.714 362.481 224.622 362.481 223.72 362.976L200.2 375.862C199.235 376.391 198.634 377.404 198.634 378.505L198.634 403.802C198.634 404.903 199.235 405.916 200.2 406.445L223.72 419.332Z" stroke="#FCBE0A" stroke-width="4.68841" stroke-linejoin="bevel"/>
<path d="M287.661 419.332C288.563 419.826 289.655 419.826 290.558 419.332L314.077 406.445C315.043 405.916 315.643 404.903 315.643 403.802L315.643 378.505C315.643 377.404 315.043 376.391 314.077 375.862L290.558 362.976C289.655 362.481 288.563 362.481 287.661 362.976L264.141 375.862C263.176 376.391 262.575 377.404 262.575 378.505L262.575 403.802C262.575 404.903 263.176 405.916 264.141 406.445L287.661 419.332Z" stroke="#FCBE0A" stroke-width="4.68841" stroke-linejoin="bevel"/>
<path d="M352.29 422.594C353.192 423.088 354.284 423.088 355.186 422.594L378.706 409.707C379.671 409.179 380.272 408.165 380.272 407.064L380.272 381.768C380.272 380.667 379.671 379.653 378.706 379.124L355.186 366.238C354.284 365.743 353.192 365.743 352.29 366.238L328.77 379.124C327.804 379.653 327.204 380.667 327.204 381.768L327.204 407.064C327.204 408.165 327.804 409.179 328.77 409.707L352.29 422.594Z" stroke="#FCBE0A" stroke-width="4.68841" stroke-linejoin="bevel"/>
<path d="M64.2116 472.181C65.1138 472.676 66.2058 472.676 67.108 472.181L90.6279 459.295C91.5934 458.766 92.1937 457.753 92.1937 456.652L92.1937 431.355C92.1937 430.254 91.5934 429.241 90.6279 428.712L67.108 415.825C66.2058 415.331 65.1138 415.331 64.2116 415.825L40.6917 428.712C39.7262 429.241 39.1259 430.254 39.1259 431.355L39.1259 456.652C39.1259 457.753 39.7262 458.766 40.6917 459.295L64.2116 472.181Z" stroke="#FCBE0A" stroke-width="4.68841" stroke-linejoin="bevel"/>
<path d="M127.465 472.181C128.367 472.676 129.459 472.676 130.361 472.181L153.881 459.295C154.847 458.766 155.447 457.753 155.447 456.652L155.447 431.355C155.447 430.254 154.847 429.241 153.881 428.712L130.361 415.825C129.459 415.331 128.367 415.331 127.465 415.825L103.945 428.712C102.98 429.241 102.379 430.254 102.379 431.355L102.379 456.652C102.379 457.753 102.98 458.766 103.945 459.295L127.465 472.181Z" stroke="#FCBE0A" stroke-width="4.68841" stroke-linejoin="bevel"/>
<path d="M31.8974 525.031C32.7996 525.526 33.8916 525.526 34.7938 525.031L58.3137 512.145C59.2792 511.616 59.8795 510.602 59.8795 509.502L59.8795 484.205C59.8795 483.104 59.2792 482.091 58.3137 481.562L34.7938 468.675C33.8916 468.181 32.7996 468.181 31.8974 468.675L8.37745 481.562C7.41196 482.091 6.8117 483.104 6.8117 484.205L6.81171 509.502C6.81171 510.602 7.41196 511.616 8.37745 512.145L31.8974 525.031Z" stroke="#FCBE0A" stroke-width="4.68841" stroke-linejoin="bevel"/>
<path d="M157.717 525.031C158.619 525.526 159.711 525.526 160.613 525.031L184.133 512.145C185.098 511.616 185.699 510.602 185.699 509.502L185.699 484.205C185.699 483.104 185.098 482.091 184.133 481.562L160.613 468.675C159.711 468.181 158.619 468.181 157.717 468.675L134.197 481.562C133.231 482.091 132.631 483.104 132.631 484.205L132.631 509.502C132.631 510.602 133.231 511.616 134.197 512.145L157.717 525.031Z" stroke="#FCBE0A" stroke-width="4.68841" stroke-linejoin="bevel"/>
<path d="M95.1507 525.031C96.053 525.526 97.145 525.526 98.0472 525.031L121.567 512.145C122.533 511.616 123.133 510.602 123.133 509.502L123.133 484.205C123.133 483.104 122.533 482.091 121.567 481.562L98.0472 468.675C97.145 468.181 96.053 468.181 95.1507 468.675L71.6308 481.562C70.6653 482.091 70.0651 483.104 70.0651 484.205L70.0651 509.502C70.0651 510.602 70.6653 511.616 71.6308 512.145L95.1507 525.031Z" stroke="#FCBE0A" stroke-width="4.68841" stroke-linejoin="bevel"/>
<path d="M284.911 525.031C285.813 525.526 286.905 525.526 287.807 525.031L311.327 512.145C312.293 511.616 312.893 510.602 312.893 509.502L312.893 484.205C312.893 483.104 312.293 482.091 311.327 481.562L287.807 468.675C286.905 468.181 285.813 468.181 284.911 468.675L261.391 481.562C260.426 482.091 259.825 483.104 259.825 484.205L259.825 509.502C259.825 510.602 260.426 511.616 261.391 512.145L284.911 525.031Z" stroke="#FCBE0A" stroke-width="4.68841" stroke-linejoin="bevel"/>
<path d="M221.658 525.031C222.56 525.526 223.652 525.526 224.554 525.031L248.074 512.145C249.039 511.616 249.64 510.602 249.64 509.502L249.64 484.205C249.64 483.104 249.039 482.091 248.074 481.562L224.554 468.675C223.652 468.181 222.56 468.181 221.658 468.675L198.138 481.562C197.172 482.091 196.572 483.104 196.572 484.205L196.572 509.502C196.572 510.602 197.172 511.616 198.138 512.145L221.658 525.031Z" stroke="#FCBE0A" stroke-width="4.68841" stroke-linejoin="bevel"/>
<path d="M256.722 265.35C257.624 265.844 258.716 265.844 259.618 265.35L283.138 252.463C284.104 251.934 284.704 250.921 284.704 249.82L284.704 224.523C284.704 223.422 284.104 222.409 283.138 221.88L259.618 208.993C258.716 208.499 257.624 208.499 256.722 208.993L233.202 221.88C232.237 222.409 231.636 223.422 231.636 224.523L231.636 249.82C231.636 250.921 232.237 251.934 233.202 252.463L256.722 265.35Z" stroke="#FCBE0A" stroke-width="4.68841" stroke-linejoin="bevel"/>
<path d="M225.095 315.59C225.997 316.084 227.089 316.084 227.992 315.59L251.512 302.703C252.477 302.174 253.077 301.161 253.077 300.06L253.077 274.763C253.077 273.662 252.477 272.649 251.512 272.12L227.992 259.233C227.089 258.739 225.997 258.739 225.095 259.233L201.575 272.12C200.61 272.649 200.01 273.662 200.01 274.763L200.01 300.06C200.01 301.161 200.61 302.174 201.575 302.703L225.095 315.59Z" stroke="#FCBE0A" stroke-width="4.68841" stroke-linejoin="bevel"/>
<path d="M288.349 315.59C289.251 316.084 290.343 316.084 291.245 315.59L314.765 302.703C315.73 302.174 316.331 301.161 316.331 300.06L316.331 274.763C316.331 273.662 315.73 272.649 314.765 272.12L291.245 259.233C290.343 258.739 289.251 258.739 288.349 259.233L264.829 272.12C263.863 272.649 263.263 273.662 263.263 274.763L263.263 300.06C263.263 301.161 263.863 302.174 264.829 302.703L288.349 315.59Z" stroke="#FCBE0A" stroke-width="4.68841" stroke-linejoin="bevel"/>
<path d="M319.975 59.8228C320.877 60.3171 321.969 60.3171 322.872 59.8228L346.392 46.9363C347.357 46.4073 347.957 45.3939 347.957 44.293L347.957 18.9963C347.957 17.8954 347.357 16.8821 346.392 16.3531L322.872 3.46655C321.969 2.97223 320.877 2.97223 319.975 3.46655L296.455 16.3531C295.49 16.8821 294.89 17.8954 294.89 18.9963L294.89 44.293C294.89 45.3939 295.49 46.4073 296.455 46.9363L319.975 59.8228Z" stroke="#FCBE0A" stroke-width="4.68841" stroke-linejoin="bevel"/>
</g>
</svg>
