<svg width="810" height="611" viewBox="0 0 810 611" fill="none" xmlns="http://www.w3.org/2000/svg">
<g opacity="0.2">
<path d="M86.3405 333.75C85.5366 332.358 85.5366 330.642 86.3405 329.25L105.972 295.248C106.776 293.855 108.261 292.998 109.869 292.998L149.131 292.998C150.739 292.998 152.224 293.855 153.028 295.248L172.66 329.25C173.463 330.642 173.463 332.358 172.66 333.75L153.028 367.752C152.224 369.145 150.739 370.002 149.131 370.002L109.869 370.002C108.261 370.002 106.776 369.145 105.972 367.752L86.3405 333.75Z" stroke="#FCBE0A" stroke-width="7" stroke-linejoin="bevel"/>
<path d="M86.3405 240.75C85.5366 239.358 85.5366 237.642 86.3405 236.25L105.972 202.248C106.776 200.855 108.261 199.998 109.869 199.998L149.131 199.998C150.739 199.998 152.224 200.855 153.028 202.248L172.66 236.25C173.463 237.642 173.463 239.358 172.66 240.75L153.028 274.752C152.224 276.145 150.739 277.002 149.131 277.002L109.869 277.002C108.261 277.002 106.776 276.145 105.972 274.752L86.3405 240.75Z" stroke="#FCBE0A" stroke-width="7" stroke-linejoin="bevel"/>
<path d="M560.34 237.75C559.537 236.358 559.537 234.642 560.34 233.25L579.972 199.248C580.776 197.855 582.261 196.998 583.869 196.998L623.131 196.998C624.739 196.998 626.224 197.855 627.028 199.248L646.66 233.25C647.463 234.642 647.463 236.358 646.66 237.75L627.028 271.752C626.224 273.145 624.739 274.002 623.131 274.002L583.869 274.002C582.261 274.002 580.776 273.145 579.972 271.752L560.34 237.75Z" stroke="#FCBE0A" stroke-width="7" stroke-linejoin="bevel"/>
<path d="M560.34 145.75C559.537 144.358 559.537 142.642 560.34 141.25L579.972 107.248C580.776 105.855 582.261 104.998 583.869 104.998L623.131 104.998C624.739 104.998 626.224 105.855 627.028 107.248L646.66 141.25C647.463 142.642 647.463 144.358 646.66 145.75L627.028 179.752C626.224 181.145 624.739 182.002 623.131 182.002L583.869 182.002C582.261 182.002 580.776 181.145 579.972 179.752L560.34 145.75Z" stroke="#FCBE0A" stroke-width="7" stroke-linejoin="bevel"/>
<path d="M561.34 50.75C560.537 49.3577 560.537 47.6423 561.34 46.25L580.972 12.2478C581.776 10.8555 583.261 9.99777 584.869 9.99777L624.131 9.99777C625.739 9.99777 627.224 10.8555 628.028 12.2478L647.66 46.25C648.463 47.6423 648.463 49.3577 647.66 50.75L628.028 84.7522C627.224 86.1445 625.739 87.0022 624.131 87.0022L584.869 87.0022C583.261 87.0022 581.776 86.1445 580.972 84.7522L561.34 50.75Z" stroke="#FCBE0A" stroke-width="7" stroke-linejoin="bevel"/>
<path d="M481.34 283.75C480.537 282.358 480.537 280.642 481.34 279.25L500.972 245.248C501.776 243.855 503.261 242.998 504.869 242.998L544.131 242.998C545.739 242.998 547.224 243.855 548.028 245.248L567.66 279.25C568.463 280.642 568.463 282.358 567.66 283.75L548.028 317.752C547.224 319.145 545.739 320.002 544.131 320.002L504.869 320.002C503.261 320.002 501.776 319.145 500.972 317.752L481.34 283.75Z" stroke="#FCBE0A" stroke-width="7" stroke-linejoin="bevel"/>
<path d="M481.34 192.75C480.537 191.358 480.537 189.642 481.34 188.25L500.972 154.248C501.776 152.855 503.261 151.998 504.869 151.998L544.131 151.998C545.739 151.998 547.224 152.855 548.028 154.248L567.66 188.25C568.463 189.642 568.463 191.358 567.66 192.75L548.028 226.752C547.224 228.145 545.739 229.002 544.131 229.002L504.869 229.002C503.261 229.002 501.776 228.145 500.972 226.752L481.34 192.75Z" stroke="#FCBE0A" stroke-width="7" stroke-linejoin="bevel"/>
<path d="M403.34 145.75C402.537 144.358 402.537 142.642 403.34 141.25L422.972 107.248C423.776 105.855 425.261 104.998 426.869 104.998L466.131 104.998C467.739 104.998 469.224 105.855 470.028 107.248L489.66 141.25C490.463 142.642 490.463 144.358 489.66 145.75L470.028 179.752C469.224 181.145 467.739 182.002 466.131 182.002L426.869 182.002C425.261 182.002 423.776 181.145 422.972 179.752L403.34 145.75Z" stroke="#FCBE0A" stroke-width="7" stroke-linejoin="bevel"/>
<path d="M718.34 237.75C717.537 236.358 717.537 234.642 718.34 233.25L737.972 199.248C738.776 197.855 740.261 196.998 741.869 196.998L781.131 196.998C782.739 196.998 784.224 197.855 785.028 199.248L804.66 233.25C805.463 234.642 805.463 236.358 804.66 237.75L785.028 271.752C784.224 273.145 782.739 274.002 781.131 274.002L741.869 274.002C740.261 274.002 738.776 273.145 737.972 271.752L718.34 237.75Z" stroke="#FCBE0A" stroke-width="7" stroke-linejoin="bevel"/>
<path d="M638.34 192.75C637.537 191.358 637.537 189.642 638.34 188.25L657.972 154.248C658.776 152.855 660.261 151.998 661.869 151.998L701.131 151.998C702.739 151.998 704.224 152.855 705.028 154.248L724.66 188.25C725.463 189.642 725.463 191.358 724.66 192.75L705.028 226.752C704.224 228.145 702.739 229.002 701.131 229.002L661.869 229.002C660.261 229.002 658.776 228.145 657.972 226.752L638.34 192.75Z" stroke="#FCBE0A" stroke-width="7" stroke-linejoin="bevel"/>
<path d="M246.34 328.75C245.537 327.358 245.537 325.642 246.34 324.25L265.972 290.248C266.776 288.855 268.261 287.998 269.869 287.998L309.131 287.998C310.739 287.998 312.224 288.855 313.028 290.248L332.66 324.25C333.463 325.642 333.463 327.358 332.66 328.75L313.028 362.752C312.224 364.145 310.739 365.002 309.131 365.002L269.869 365.002C268.261 365.002 266.776 364.145 265.972 362.752L246.34 328.75Z" stroke="#FCBE0A" stroke-width="7" stroke-linejoin="bevel"/>
<path d="M167.34 564.75C166.537 563.358 166.537 561.642 167.34 560.25L186.972 526.248C187.776 524.855 189.261 523.998 190.869 523.998L230.131 523.998C231.739 523.998 233.224 524.855 234.028 526.248L253.66 560.25C254.463 561.642 254.463 563.358 253.66 564.75L234.028 598.752C233.224 600.145 231.739 601.002 230.131 601.002L190.869 601.002C189.261 601.002 187.776 600.145 186.972 598.752L167.34 564.75Z" stroke="#FCBE0A" stroke-width="7" stroke-linejoin="bevel"/>
<path d="M167.34 377.75C166.537 376.358 166.537 374.642 167.34 373.25L186.972 339.248C187.776 337.855 189.261 336.998 190.869 336.998L230.131 336.998C231.739 336.998 233.224 337.855 234.028 339.248L253.66 373.25C254.463 374.642 254.463 376.358 253.66 377.75L234.028 411.752C233.224 413.145 231.739 414.002 230.131 414.002L190.869 414.002C189.261 414.002 187.776 413.145 186.972 411.752L167.34 377.75Z" stroke="#FCBE0A" stroke-width="7" stroke-linejoin="bevel"/>
<path d="M167.34 285.75C166.537 284.358 166.537 282.642 167.34 281.25L186.972 247.248C187.776 245.855 189.261 244.998 190.869 244.998L230.131 244.998C231.739 244.998 233.224 245.855 234.028 247.248L253.66 281.25C254.463 282.642 254.463 284.358 253.66 285.75L234.028 319.752C233.224 321.145 231.739 322.002 230.131 322.002L190.869 322.002C189.261 322.002 187.776 321.145 186.972 319.752L167.34 285.75Z" stroke="#FCBE0A" stroke-width="7" stroke-linejoin="bevel"/>
<path d="M86.3405 517.75C85.5366 516.358 85.5366 514.642 86.3405 513.25L105.972 479.248C106.776 477.855 108.261 476.998 109.869 476.998L149.131 476.998C150.739 476.998 152.224 477.855 153.028 479.248L172.66 513.25C173.463 514.642 173.463 516.358 172.66 517.75L153.028 551.752C152.224 553.145 150.739 554.002 149.131 554.002L109.869 554.002C108.261 554.002 106.776 553.145 105.972 551.752L86.3405 517.75Z" stroke="#FCBE0A" stroke-width="7" stroke-linejoin="bevel"/>
<path d="M86.3405 425.75C85.5366 424.358 85.5366 422.642 86.3405 421.25L105.972 387.248C106.776 385.855 108.261 384.998 109.869 384.998L149.131 384.998C150.739 384.998 152.224 385.855 153.028 387.248L172.66 421.25C173.463 422.642 173.463 424.358 172.66 425.75L153.028 459.752C152.224 461.145 150.739 462.002 149.131 462.002L109.869 462.002C108.261 462.002 106.776 461.145 105.972 459.752L86.3405 425.75Z" stroke="#FCBE0A" stroke-width="7" stroke-linejoin="bevel"/>
<path d="M5.34049 381.75C4.53664 380.358 4.53664 378.642 5.34049 377.25L24.9717 343.248C25.7755 341.855 27.2611 340.998 28.8688 340.998L68.1312 340.998C69.7389 340.998 71.2245 341.855 72.0283 343.248L91.6595 377.25C92.4634 378.642 92.4634 380.358 91.6595 381.75L72.0283 415.752C71.2245 417.145 69.7389 418.002 68.1312 418.002L28.8688 418.002C27.2611 418.002 25.7755 417.145 24.9717 415.752L5.34049 381.75Z" stroke="#FCBE0A" stroke-width="7" stroke-linejoin="bevel"/>
<path d="M5.34049 472.75C4.53664 471.358 4.53664 469.642 5.34049 468.25L24.9717 434.248C25.7755 432.855 27.2611 431.998 28.8688 431.998L68.1312 431.998C69.7389 431.998 71.2245 432.855 72.0283 434.248L91.6595 468.25C92.4634 469.642 92.4634 471.358 91.6595 472.75L72.0283 506.752C71.2245 508.145 69.7389 509.002 68.1312 509.002L28.8688 509.002C27.2611 509.002 25.7755 508.145 24.9717 506.752L5.34049 472.75Z" stroke="#FCBE0A" stroke-width="7" stroke-linejoin="bevel"/>
<path d="M5.34049 196.75C4.53664 195.358 4.53664 193.642 5.34049 192.25L24.9717 158.248C25.7755 156.855 27.2611 155.998 28.8688 155.998L68.1312 155.998C69.7389 155.998 71.2245 156.855 72.0283 158.248L91.6595 192.25C92.4634 193.642 92.4634 195.358 91.6595 196.75L72.0283 230.752C71.2245 232.145 69.7389 233.002 68.1312 233.002L28.8688 233.002C27.2611 233.002 25.7755 232.145 24.9717 230.752L5.34049 196.75Z" stroke="#FCBE0A" stroke-width="7" stroke-linejoin="bevel"/>
<path d="M5.34049 288.75C4.53664 287.358 4.53664 285.642 5.34049 284.25L24.9717 250.248C25.7755 248.855 27.2611 247.998 28.8688 247.998L68.1312 247.998C69.7389 247.998 71.2245 248.855 72.0283 250.248L91.6595 284.25C92.4634 285.642 92.4634 287.358 91.6595 288.75L72.0283 322.752C71.2245 324.145 69.7389 325.002 68.1312 325.002L28.8688 325.002C27.2611 325.002 25.7755 324.145 24.9717 322.752L5.34049 288.75Z" stroke="#FCBE0A" stroke-width="7" stroke-linejoin="bevel"/>
<path d="M403.34 237.75C402.537 236.358 402.537 234.642 403.34 233.25L422.972 199.248C423.776 197.855 425.261 196.998 426.869 196.998L466.131 196.998C467.739 196.998 469.224 197.855 470.028 199.248L489.66 233.25C490.463 234.642 490.463 236.358 489.66 237.75L470.028 271.752C469.224 273.145 467.739 274.002 466.131 274.002L426.869 274.002C425.261 274.002 423.776 273.145 422.972 271.752L403.34 237.75Z" stroke="#FCBE0A" stroke-width="7" stroke-linejoin="bevel"/>
<path d="M326.34 283.75C325.537 282.358 325.537 280.642 326.34 279.25L345.972 245.248C346.776 243.855 348.261 242.998 349.869 242.998L389.131 242.998C390.739 242.998 392.224 243.855 393.028 245.248L412.66 279.25C413.463 280.642 413.463 282.358 412.66 283.75L393.028 317.752C392.224 319.145 390.739 320.002 389.131 320.002L349.869 320.002C348.261 320.002 346.776 319.145 345.972 317.752L326.34 283.75Z" stroke="#FCBE0A" stroke-width="7" stroke-linejoin="bevel"/>
<path d="M326.34 191.75C325.537 190.358 325.537 188.642 326.34 187.25L345.972 153.248C346.776 151.855 348.261 150.998 349.869 150.998L389.131 150.998C390.739 150.998 392.224 151.855 393.028 153.248L412.66 187.25C413.463 188.642 413.463 190.358 412.66 191.75L393.028 225.752C392.224 227.145 390.739 228.002 389.131 228.002L349.869 228.002C348.261 228.002 346.776 227.145 345.972 225.752L326.34 191.75Z" stroke="#FCBE0A" stroke-width="7" stroke-linejoin="bevel"/>
<path d="M718.34 145.75C717.537 144.358 717.537 142.642 718.34 141.25L737.972 107.248C738.776 105.855 740.261 104.998 741.869 104.998L781.131 104.998C782.739 104.998 784.224 105.855 785.028 107.248L804.66 141.25C805.463 142.642 805.463 144.358 804.66 145.75L785.028 179.752C784.224 181.145 782.739 182.002 781.131 182.002L741.869 182.002C740.261 182.002 738.776 181.145 737.972 179.752L718.34 145.75Z" stroke="#FCBE0A" stroke-width="7" stroke-linejoin="bevel"/>
</g>
</svg>
