<svg width="304" height="301" viewBox="0 0 304 301" fill="none" xmlns="http://www.w3.org/2000/svg">
<g opacity="0.2">
<path d="M271.346 103.911C271.648 104.433 271.648 105.077 271.346 105.6L263.979 118.342C263.677 118.864 263.121 119.185 262.518 119.185L247.777 119.185C247.175 119.185 246.618 118.864 246.316 118.342L238.95 105.6C238.647 105.077 238.647 104.433 238.95 103.911L246.316 91.1684C246.618 90.6467 247.175 90.3255 247.777 90.3255L262.518 90.3255C263.121 90.3255 263.677 90.6467 263.979 91.1684L271.346 103.911Z" stroke="#FCBE0A" stroke-width="2.625" stroke-linejoin="bevel"/>
<path d="M271.346 138.767C271.648 139.289 271.648 139.933 271.346 140.456L263.979 153.198C263.677 153.72 263.121 154.041 262.518 154.041L247.777 154.041C247.175 154.041 246.618 153.72 246.316 153.198L238.95 140.456C238.647 139.933 238.647 139.289 238.95 138.767L246.316 126.024C246.618 125.503 247.175 125.181 247.777 125.181L262.518 125.181C263.121 125.181 263.677 125.503 263.979 126.024L271.346 138.767Z" stroke="#FCBE0A" stroke-width="2.625" stroke-linejoin="bevel"/>
<path d="M271.721 173.248C272.023 173.77 272.023 174.414 271.721 174.937L264.354 187.679C264.052 188.201 263.496 188.522 262.893 188.522L248.152 188.522C247.55 188.522 246.993 188.201 246.691 187.679L239.325 174.937C239.022 174.414 239.022 173.77 239.325 173.248L246.691 160.505C246.993 159.984 247.55 159.662 248.152 159.662L262.893 159.662C263.496 159.662 264.052 159.984 264.354 160.505L271.721 173.248Z" stroke="#FCBE0A" stroke-width="2.625" stroke-linejoin="bevel"/>
<path d="M93.4492 139.891C93.7514 140.414 93.7514 141.058 93.4492 141.58L86.0824 154.323C85.7809 154.844 85.224 155.165 84.6215 155.165L69.8808 155.165C69.2782 155.165 68.7214 154.844 68.4199 154.323L61.053 141.58C60.7509 141.058 60.7509 140.414 61.053 139.891L68.4199 127.149C68.7214 126.627 69.2782 126.306 69.8808 126.306L84.6215 126.306C85.224 126.306 85.7809 126.627 86.0824 127.149L93.4492 139.891Z" stroke="#FCBE0A" stroke-width="2.625" stroke-linejoin="bevel"/>
<path d="M93.4492 174.373C93.7514 174.895 93.7514 175.539 93.4492 176.062L86.0824 188.804C85.7809 189.326 85.224 189.647 84.6215 189.647L69.8808 189.647C69.2782 189.647 68.7214 189.326 68.4199 188.804L61.053 176.062C60.7509 175.539 60.7509 174.895 61.053 174.373L68.4199 161.63C68.7214 161.109 69.2782 160.787 69.8808 160.787L84.6215 160.787C85.224 160.787 85.7809 161.109 86.0824 161.63L93.4492 174.373Z" stroke="#FCBE0A" stroke-width="2.625" stroke-linejoin="bevel"/>
<path d="M93.0742 209.978C93.3764 210.501 93.3764 211.145 93.0742 211.667L85.7074 224.409C85.4059 224.931 84.849 225.252 84.2465 225.252L69.5058 225.252C68.9032 225.252 68.3464 224.931 68.0449 224.409L60.678 211.667C60.3759 211.145 60.3759 210.501 60.678 209.978L68.0449 197.236C68.3464 196.714 68.9032 196.393 69.5058 196.393L84.2465 196.393C84.849 196.393 85.4059 196.714 85.7074 197.236L93.0742 209.978Z" stroke="#FCBE0A" stroke-width="2.625" stroke-linejoin="bevel"/>
<path d="M123.099 122.65C123.401 123.173 123.401 123.817 123.099 124.34L115.732 137.082C115.43 137.603 114.873 137.925 114.271 137.925L99.5302 137.925C98.9277 137.925 98.3708 137.603 98.0693 137.082L90.7025 124.34C90.4004 123.817 90.4004 123.173 90.7025 122.65L98.0693 109.908C98.3708 109.386 98.9277 109.065 99.5302 109.065L114.271 109.065C114.873 109.065 115.43 109.386 115.732 109.908L123.099 122.65Z" stroke="#FCBE0A" stroke-width="2.625" stroke-linejoin="bevel"/>
<path d="M123.099 156.757C123.401 157.279 123.401 157.923 123.099 158.446L115.732 171.188C115.43 171.71 114.873 172.031 114.271 172.031L99.5302 172.031C98.9277 172.031 98.3708 171.71 98.0693 171.188L90.7025 158.446C90.4004 157.923 90.4004 157.279 90.7025 156.757L98.0693 144.015C98.3708 143.493 98.9277 143.172 99.5302 143.172L114.271 143.172C114.873 143.172 115.43 143.493 115.732 144.015L123.099 156.757Z" stroke="#FCBE0A" stroke-width="2.625" stroke-linejoin="bevel"/>
<path d="M152.373 174.372C152.675 174.895 152.675 175.539 152.373 176.061L145.006 188.803C144.704 189.325 144.147 189.646 143.545 189.646L128.804 189.646C128.202 189.646 127.645 189.325 127.343 188.803L119.976 176.061C119.674 175.539 119.674 174.895 119.976 174.372L127.343 161.63C127.645 161.108 128.202 160.787 128.804 160.787L143.545 160.787C144.147 160.787 144.704 161.108 145.006 161.63L152.373 174.372Z" stroke="#FCBE0A" stroke-width="2.625" stroke-linejoin="bevel"/>
<path d="M34.1504 139.891C34.4525 140.414 34.4525 141.058 34.1504 141.58L26.7836 154.323C26.482 154.844 25.9252 155.165 25.3227 155.165L10.5819 155.165C9.97942 155.165 9.4226 154.844 9.12103 154.323L1.75422 141.58C1.45211 141.058 1.45211 140.414 1.75422 139.891L9.12103 127.149C9.4226 126.627 9.97942 126.306 10.5819 126.306L25.3227 126.306C25.9252 126.306 26.482 126.627 26.7836 127.149L34.1504 139.891Z" stroke="#FCBE0A" stroke-width="2.625" stroke-linejoin="bevel"/>
<path d="M64.1753 156.757C64.4774 157.279 64.4774 157.923 64.1753 158.446L56.8085 171.188C56.5069 171.71 55.9501 172.031 55.3476 172.031L40.6069 172.031C40.0043 172.031 39.4475 171.71 39.1459 171.188L31.7791 158.446C31.477 157.923 31.477 157.279 31.7791 156.757L39.1459 144.015C39.4475 143.493 40.0043 143.172 40.6068 143.172L55.3476 143.172C55.9501 143.172 56.5069 143.493 56.8085 144.015L64.1753 156.757Z" stroke="#FCBE0A" stroke-width="2.625" stroke-linejoin="bevel"/>
<path d="M211.296 34.9482C211.599 35.4707 211.599 36.1149 211.296 36.6374L203.93 49.3797C203.628 49.9013 203.071 50.2226 202.469 50.2226L187.728 50.2226C187.125 50.2226 186.569 49.9013 186.267 49.3797L178.9 36.6374C178.598 36.1149 178.598 35.4707 178.9 34.9482L186.267 22.206C186.569 21.6843 187.125 21.3631 187.728 21.3631L202.469 21.3631C203.071 21.3631 203.628 21.6843 203.93 22.206L211.296 34.9482Z" stroke="#FCBE0A" stroke-width="2.625" stroke-linejoin="bevel"/>
<path d="M211.296 70.5537C211.599 71.0762 211.599 71.7203 211.296 72.2429L203.93 84.9851C203.628 85.5068 203.071 85.828 202.469 85.828L187.728 85.828C187.125 85.828 186.569 85.5068 186.267 84.9851L178.9 72.2429C178.598 71.7203 178.598 71.0762 178.9 70.5537L186.267 57.8114C186.569 57.2898 187.125 56.9685 187.728 56.9685L202.469 56.9685C203.071 56.9685 203.628 57.2898 203.93 57.8114L211.296 70.5537Z" stroke="#FCBE0A" stroke-width="2.625" stroke-linejoin="bevel"/>
<path d="M211.296 105.785C211.599 106.307 211.599 106.951 211.296 107.474L203.93 120.216C203.628 120.738 203.071 121.059 202.469 121.059L187.728 121.059C187.125 121.059 186.569 120.738 186.267 120.216L178.9 107.474C178.598 106.951 178.598 106.307 178.9 105.785L186.267 93.0424C186.569 92.5208 187.125 92.1995 187.728 92.1995L202.469 92.1995C203.071 92.1995 203.628 92.5208 203.93 93.0424L211.296 105.785Z" stroke="#FCBE0A" stroke-width="2.625" stroke-linejoin="bevel"/>
<path d="M211.296 139.517C211.599 140.039 211.599 140.683 211.296 141.206L203.93 153.948C203.628 154.47 203.071 154.791 202.469 154.791L187.728 154.791C187.125 154.791 186.569 154.47 186.267 153.948L178.9 141.206C178.598 140.683 178.598 140.039 178.9 139.517L186.267 126.774C186.569 126.253 187.125 125.931 187.728 125.931L202.469 125.931C203.071 125.931 203.628 126.253 203.93 126.774L211.296 139.517Z" stroke="#FCBE0A" stroke-width="2.625" stroke-linejoin="bevel"/>
<path d="M211.296 174.372C211.599 174.895 211.599 175.539 211.296 176.061L203.93 188.803C203.628 189.325 203.071 189.646 202.469 189.646L187.728 189.646C187.125 189.646 186.569 189.325 186.267 188.803L178.9 176.061C178.598 175.539 178.598 174.895 178.9 174.372L186.267 161.63C186.569 161.108 187.125 160.787 187.728 160.787L202.469 160.787C203.071 160.787 203.628 161.108 203.93 161.63L211.296 174.372Z" stroke="#FCBE0A" stroke-width="2.625" stroke-linejoin="bevel"/>
<path d="M240.946 17.333C241.248 17.8555 241.248 18.4996 240.946 19.0222L233.579 31.7644C233.277 32.2861 232.721 32.6073 232.118 32.6073L217.377 32.6073C216.775 32.6073 216.218 32.2861 215.916 31.7644L208.55 19.0222C208.248 18.4996 208.248 17.8555 208.55 17.333L215.916 4.59072C216.218 4.06909 216.775 3.74783 217.377 3.74783L232.118 3.74783C232.721 3.74783 233.277 4.06909 233.579 4.59072L240.946 17.333Z" stroke="#FCBE0A" stroke-width="2.625" stroke-linejoin="bevel"/>
<path d="M240.946 52.5639C241.248 53.0865 241.248 53.7306 240.946 54.2532L233.579 66.9954C233.277 67.517 232.721 67.8383 232.118 67.8383L217.377 67.8383C216.775 67.8383 216.218 67.517 215.916 66.9954L208.55 54.2532C208.248 53.7306 208.248 53.0865 208.55 52.5639L215.916 39.8217C216.218 39.3 216.775 38.9788 217.377 38.9788L232.118 38.9788C232.721 38.9788 233.277 39.3 233.579 39.8217L240.946 52.5639Z" stroke="#FCBE0A" stroke-width="2.625" stroke-linejoin="bevel"/>
<path d="M240.946 87.4194C241.248 87.9419 241.248 88.5861 240.946 89.1086L233.579 101.851C233.277 102.372 232.721 102.694 232.118 102.694L217.377 102.694C216.775 102.694 216.218 102.372 215.916 101.851L208.55 89.1086C208.248 88.5861 208.248 87.9419 208.55 87.4194L215.916 74.6771C216.218 74.1555 216.775 73.8343 217.377 73.8343L232.118 73.8343C232.721 73.8343 233.277 74.1555 233.579 74.6771L240.946 87.4194Z" stroke="#FCBE0A" stroke-width="2.625" stroke-linejoin="bevel"/>
<path d="M240.946 121.901C241.248 122.423 241.248 123.068 240.946 123.59L233.579 136.332C233.277 136.854 232.721 137.175 232.118 137.175L217.377 137.175C216.775 137.175 216.218 136.854 215.916 136.332L208.55 123.59C208.248 123.068 208.248 122.423 208.55 121.901L215.916 109.159C216.218 108.637 216.775 108.316 217.377 108.316L232.118 108.316C232.721 108.316 233.277 108.637 233.579 109.159L240.946 121.901Z" stroke="#FCBE0A" stroke-width="2.625" stroke-linejoin="bevel"/>
<path d="M240.946 156.757C241.248 157.279 241.248 157.923 240.946 158.446L233.579 171.188C233.277 171.71 232.721 172.031 232.118 172.031L217.377 172.031C216.775 172.031 216.218 171.71 215.916 171.188L208.55 158.446C208.248 157.923 208.248 157.279 208.55 156.757L215.916 144.015C216.218 143.493 216.775 143.172 217.377 143.172L232.118 143.172C232.721 143.172 233.277 143.493 233.579 144.015L240.946 156.757Z" stroke="#FCBE0A" stroke-width="2.625" stroke-linejoin="bevel"/>
<path d="M242.822 191.987C243.124 192.51 243.124 193.154 242.822 193.676L235.455 206.419C235.154 206.94 234.597 207.262 233.995 207.262L219.254 207.262C218.651 207.262 218.094 206.94 217.793 206.419L210.426 193.676C210.124 193.154 210.124 192.51 210.426 191.987L217.793 179.245C218.094 178.723 218.651 178.402 219.254 178.402L233.995 178.402C234.597 178.402 235.154 178.723 235.455 179.245L242.822 191.987Z" stroke="#FCBE0A" stroke-width="2.625" stroke-linejoin="bevel"/>
<path d="M271.346 34.9487C271.648 35.4712 271.648 36.1154 271.346 36.6379L263.979 49.3802C263.677 49.9018 263.121 50.223 262.518 50.223L247.777 50.223C247.175 50.223 246.618 49.9018 246.316 49.3802L238.95 36.6379C238.647 36.1154 238.647 35.4712 238.95 34.9487L246.316 22.2064C246.618 21.6848 247.175 21.3636 247.777 21.3636L262.518 21.3636C263.121 21.3636 263.677 21.6848 263.979 22.2064L271.346 34.9487Z" stroke="#FCBE0A" stroke-width="2.625" stroke-linejoin="bevel"/>
<path d="M271.346 69.4296C271.648 69.9522 271.648 70.5963 271.346 71.1189L263.979 83.8611C263.677 84.3827 263.121 84.704 262.518 84.704L247.777 84.704C247.175 84.704 246.618 84.3827 246.316 83.8611L238.95 71.1189C238.647 70.5963 238.647 69.9522 238.95 69.4296L246.316 56.6874C246.618 56.1658 247.175 55.8445 247.777 55.8445L262.518 55.8445C263.121 55.8445 263.677 56.1658 263.979 56.6874L271.346 69.4296Z" stroke="#FCBE0A" stroke-width="2.625" stroke-linejoin="bevel"/>
<path d="M301.746 17.333C302.048 17.8555 302.048 18.4996 301.746 19.0222L294.379 31.7644C294.077 32.2861 293.52 32.6073 292.918 32.6073L278.177 32.6073C277.575 32.6073 277.018 32.2861 276.716 31.7644L269.349 19.0222C269.047 18.4996 269.047 17.8555 269.349 17.333L276.716 4.59072C277.018 4.06909 277.575 3.74783 278.177 3.74783L292.918 3.74783C293.52 3.74783 294.077 4.06909 294.379 4.59072L301.746 17.333Z" stroke="#FCBE0A" stroke-width="2.625" stroke-linejoin="bevel"/>
<path d="M301.746 85.9204C302.048 86.4429 302.048 87.087 301.746 87.6096L294.379 100.352C294.077 100.873 293.52 101.195 292.918 101.195L278.177 101.195C277.575 101.195 277.018 100.873 276.716 100.352L269.349 87.6096C269.047 87.087 269.047 86.4429 269.349 85.9204L276.716 73.1781C277.018 72.6565 277.575 72.3352 278.177 72.3352L292.918 72.3352C293.52 72.3352 294.077 72.6565 294.379 73.1781L301.746 85.9204Z" stroke="#FCBE0A" stroke-width="2.625" stroke-linejoin="bevel"/>
<path d="M301.746 51.8139C302.048 52.3365 302.048 52.9806 301.746 53.5032L294.379 66.2454C294.077 66.767 293.52 67.0883 292.918 67.0883L278.177 67.0883C277.575 67.0883 277.018 66.767 276.716 66.2454L269.349 53.5032C269.047 52.9806 269.047 52.3365 269.349 51.8139L276.716 39.0717C277.018 38.55 277.575 38.2288 278.177 38.2288L292.918 38.2288C293.52 38.2288 294.077 38.55 294.379 39.0717L301.746 51.8139Z" stroke="#FCBE0A" stroke-width="2.625" stroke-linejoin="bevel"/>
<path d="M301.746 155.258C302.048 155.78 302.048 156.424 301.746 156.947L294.379 169.689C294.077 170.211 293.52 170.532 292.918 170.532L278.177 170.532C277.575 170.532 277.018 170.211 276.716 169.689L269.349 156.947C269.047 156.424 269.047 155.78 269.349 155.258L276.716 142.516C277.018 141.994 277.575 141.673 278.177 141.673L292.918 141.673C293.52 141.673 294.077 141.994 294.379 142.516L301.746 155.258Z" stroke="#FCBE0A" stroke-width="2.625" stroke-linejoin="bevel"/>
<path d="M301.746 120.776C302.048 121.299 302.048 121.943 301.746 122.466L294.379 135.208C294.077 135.729 293.52 136.051 292.918 136.051L278.177 136.051C277.575 136.051 277.018 135.729 276.716 135.208L269.349 122.466C269.047 121.943 269.047 121.299 269.349 120.776L276.716 108.034C277.018 107.512 277.575 107.191 278.177 107.191L292.918 107.191C293.52 107.191 294.077 107.512 294.379 108.034L301.746 120.776Z" stroke="#FCBE0A" stroke-width="2.625" stroke-linejoin="bevel"/>
<path d="M152.373 139.891C152.675 140.414 152.675 141.058 152.373 141.58L145.006 154.323C144.704 154.844 144.147 155.165 143.545 155.165L128.804 155.165C128.202 155.165 127.645 154.844 127.343 154.323L119.976 141.58C119.674 141.058 119.674 140.414 119.976 139.891L127.343 127.149C127.645 126.627 128.202 126.306 128.804 126.306L143.545 126.306C144.147 126.306 144.704 126.627 145.006 127.149L152.373 139.891Z" stroke="#FCBE0A" stroke-width="2.625" stroke-linejoin="bevel"/>
<path d="M181.272 122.651C181.574 123.173 181.574 123.818 181.272 124.34L173.905 137.082C173.603 137.604 173.046 137.925 172.444 137.925L157.703 137.925C157.101 137.925 156.544 137.604 156.242 137.082L148.875 124.34C148.573 123.818 148.573 123.173 148.875 122.651L156.242 109.909C156.544 109.387 157.101 109.066 157.703 109.066L172.444 109.066C173.046 109.066 173.603 109.387 173.905 109.909L181.272 122.651Z" stroke="#FCBE0A" stroke-width="2.625" stroke-linejoin="bevel"/>
<path d="M181.272 157.131C181.574 157.654 181.574 158.298 181.272 158.821L173.905 171.563C173.603 172.084 173.046 172.406 172.444 172.406L157.703 172.406C157.101 172.406 156.544 172.084 156.242 171.563L148.875 158.821C148.573 158.298 148.573 157.654 148.875 157.131L156.242 144.389C156.544 143.867 157.101 143.546 157.703 143.546L172.444 143.546C173.046 143.546 173.603 143.867 173.905 144.389L181.272 157.131Z" stroke="#FCBE0A" stroke-width="2.625" stroke-linejoin="bevel"/>
<path d="M34.1504 174.373C34.4525 174.895 34.4525 175.539 34.1504 176.062L26.7836 188.804C26.482 189.326 25.9252 189.647 25.3227 189.647L10.5819 189.647C9.97942 189.647 9.4226 189.326 9.12103 188.804L1.75422 176.062C1.45211 175.539 1.45211 174.895 1.75422 174.373L9.12103 161.63C9.4226 161.109 9.97942 160.787 10.5819 160.787L25.3227 160.787C25.9252 160.787 26.482 161.109 26.7836 161.63L34.1504 174.373Z" stroke="#FCBE0A" stroke-width="2.625" stroke-linejoin="bevel"/>
</g>
<g opacity="0.2">
<path d="M208.026 250.481L206.184 253.671C206.164 253.706 206.113 253.706 206.094 253.671L195.457 235.057C195.23 234.659 194.96 234.289 194.642 233.959C194.379 233.685 194.05 233.403 193.704 233.241C193.704 233.241 193.092 232.985 192.723 232.892C192.279 232.782 191.822 232.734 191.365 232.736L169.926 232.832C169.886 232.831 169.86 232.788 169.881 232.753L171.722 229.563C172.148 228.826 172.928 228.366 173.779 228.351L185.524 228.141C185.549 228.14 185.572 228.127 185.585 228.105L187.35 225.047C187.612 224.593 188.096 224.31 188.62 224.305L191.755 224.276L191.274 219.974C191.163 218.974 190.584 218.085 189.714 217.579L187.18 216.105C186.726 215.84 186.587 215.25 186.875 214.809L186.941 214.707C187.168 214.361 187.629 214.258 187.98 214.475L191.838 216.861C192.607 217.336 193.128 218.127 193.263 219.021L194.053 224.254L197.519 224.222L197.916 224.218C198.637 224.211 199.3 224.608 199.637 225.246L199.754 225.47L201.458 228.487L206.385 226.555C207.228 226.225 208.172 226.281 208.968 226.709L212.963 228.858C213.328 229.053 213.469 229.503 213.283 229.872L213.226 229.982C212.989 230.451 212.408 230.626 211.952 230.366L209.408 228.907C208.535 228.407 207.477 228.351 206.554 228.754L202.588 230.488L204.13 233.219C204.388 233.676 204.385 234.234 204.123 234.689L202.357 237.748C202.345 237.769 202.345 237.796 202.357 237.817L208.048 248.094C208.46 248.838 208.451 249.744 208.026 250.481Z" fill="url(#paint0_linear_5380_19939)" stroke="url(#paint1_linear_5380_19939)" stroke-width="0.0359211" stroke-miterlimit="10"/>
<path d="M192.654 235.354C193.271 235.706 193.92 237.029 193.92 237.029L198.415 244.548L204.774 256.032C204.783 256.048 204.783 256.069 204.773 256.086L202.265 260.43C202.243 260.468 202.188 260.468 202.166 260.431L191.409 241.602C191.351 241.502 191.289 241.405 191.219 241.312C190.981 240.993 190.538 240.404 189.908 240.111C189.908 240.111 189.519 239.769 188.066 239.534C187.951 239.516 187.835 239.513 187.72 239.515L166.035 239.61C165.992 239.611 165.964 239.563 165.987 239.524L168.494 235.181C168.504 235.165 168.522 235.154 168.541 235.153L181.665 234.918L190.424 235.052C190.425 235.053 192.04 234.996 192.654 235.354Z" fill="url(#paint2_linear_5380_19939)" stroke="url(#paint3_linear_5380_19939)" stroke-width="0.0359211" stroke-miterlimit="10"/>
<path d="M187.051 247.966C187.178 248.117 187.29 248.28 187.386 248.453L192.724 258.125C192.745 258.162 192.799 258.163 192.82 258.126L195.33 253.778C195.339 253.763 195.339 253.744 195.331 253.728L190.177 244.702C189.884 244.19 189.533 243.713 189.118 243.294C188.844 243.017 188.382 242.753 188.382 242.753C188.159 242.578 187.777 242.442 187.401 242.343C186.83 242.194 186.241 242.127 185.651 242.131L175.257 242.18C175.24 242.18 175.224 242.19 175.215 242.205L172.704 246.553C172.683 246.59 172.71 246.637 172.753 246.635L184.065 246.369C184.065 246.369 185.287 246.487 185.934 246.892L186.399 247.288C186.586 247.446 186.759 247.62 186.916 247.807L187.051 247.966Z" fill="url(#paint4_linear_5380_19939)" stroke="url(#paint5_linear_5380_19939)" stroke-width="0.0359211" stroke-miterlimit="10"/>
<path d="M177.294 261.958L176.411 255.601C176.409 255.583 176.402 255.565 176.391 255.55L174.496 252.993C174.453 252.934 174.411 252.874 174.37 252.812L171.758 248.796C171.735 248.761 171.76 248.713 171.803 248.713L181.608 248.665C182.427 248.661 183.244 248.778 184.02 249.038C184.246 249.114 184.453 249.197 184.607 249.287C184.607 249.287 185.002 249.557 185.18 249.715C185.793 250.258 186.129 250.758 186.535 251.469L191.397 259.984C191.418 260.021 191.39 260.067 191.347 260.065L186.563 259.81C186.49 259.807 186.416 259.8 186.344 259.792L183.181 259.429C183.163 259.427 183.144 259.43 183.127 259.437L177.294 261.958Z" fill="url(#paint6_linear_5380_19939)" stroke="url(#paint7_linear_5380_19939)" stroke-width="0.0359211" stroke-miterlimit="10"/>
<path d="M198.772 224.405L193.682 233.222C193.66 233.211 193.638 233.201 193.616 233.19C193.616 233.19 193.004 232.934 192.634 232.841C192.191 232.731 191.734 232.683 191.277 232.685L169.837 232.781C169.798 232.78 169.772 232.737 169.793 232.702L171.634 229.512C172.06 228.775 172.84 228.315 173.691 228.3L185.436 228.09C185.461 228.089 185.484 228.076 185.496 228.054L187.262 224.996C187.524 224.542 188.007 224.259 188.532 224.254L191.667 224.225L191.186 219.923C191.074 218.922 190.496 218.034 189.626 217.528L187.092 216.053C186.638 215.789 186.499 215.199 186.787 214.758L186.853 214.655C187.08 214.309 187.54 214.206 187.892 214.424L191.75 216.81C192.519 217.285 193.04 218.075 193.175 218.97L193.965 224.203L197.43 224.171L197.828 224.167C198.164 224.163 198.489 224.248 198.772 224.405Z" fill="#FFCD1C" stroke="url(#paint8_linear_5380_19939)" stroke-width="0.0359211" stroke-miterlimit="10"/>
<path d="M192.501 235.267L189.759 240.016C189.603 239.917 189.118 239.668 187.978 239.482C187.864 239.464 187.748 239.462 187.631 239.463L165.948 239.559C165.903 239.56 165.876 239.512 165.898 239.474L168.406 235.13C168.415 235.113 168.433 235.103 168.453 235.102L181.577 234.868L190.336 235.002C190.336 235.002 191.846 234.948 192.501 235.267Z" fill="#FFCD1C" stroke="url(#paint9_linear_5380_19939)" stroke-width="0.0359211" stroke-miterlimit="10"/>
<path d="M188.234 242.659L185.826 246.83C185.175 246.434 183.979 246.319 183.979 246.319L172.666 246.585C172.624 246.586 172.596 246.54 172.618 246.503L175.128 242.155C175.137 242.14 175.153 242.13 175.171 242.13L185.564 242.08C186.153 242.077 186.743 242.143 187.313 242.292C187.658 242.383 188.007 242.504 188.234 242.659Z" fill="#FFCD1C" stroke="url(#paint10_linear_5380_19939)" stroke-width="0.0359211" stroke-miterlimit="10"/>
<path d="M184.457 249.2L177.19 261.787L176.323 255.55C176.321 255.533 176.314 255.515 176.304 255.5L174.408 252.943C174.365 252.884 174.323 252.824 174.284 252.763L171.671 248.747C171.648 248.711 171.674 248.663 171.716 248.663L181.521 248.616C182.341 248.612 183.157 248.728 183.934 248.988C184.129 249.053 184.311 249.126 184.457 249.2Z" fill="#FFCD1C" stroke="url(#paint11_linear_5380_19939)" stroke-width="0.0359211" stroke-miterlimit="10"/>
</g>
<g opacity="0.2">
<path d="M243 285.24V287.499C243 287.523 242.973 287.538 242.952 287.526L231.709 280.906C231.469 280.764 231.214 280.65 230.947 280.573C230.725 280.508 230.467 280.459 230.236 280.479C230.236 280.479 229.837 280.53 229.614 280.594C229.347 280.672 229.093 280.787 228.853 280.927L217.609 287.548C217.588 287.56 217.562 287.545 217.562 287.52V285.263C217.562 284.741 217.832 284.258 218.275 283.989L224.387 280.278C224.4 280.27 224.408 280.257 224.408 280.241V278.077C224.408 277.755 224.576 277.457 224.85 277.294L226.49 276.318L224.931 274.182C224.569 273.685 223.995 273.391 223.384 273.389L221.603 273.382C221.285 273.381 221.032 273.111 221.05 272.788L221.054 272.713C221.068 272.46 221.279 272.265 221.53 272.272L224.283 272.356C224.831 272.373 225.345 272.633 225.687 273.066L227.691 275.602L229.504 274.523L229.711 274.399C230.089 274.174 230.558 274.182 230.928 274.417L231.058 274.5L232.87 275.579L234.874 273.044C235.217 272.611 235.73 272.351 236.279 272.334L239.032 272.25C239.283 272.242 239.494 272.438 239.508 272.691L239.512 272.766C239.529 273.088 239.277 273.359 238.958 273.361L237.178 273.366C236.567 273.368 235.994 273.662 235.63 274.159L234.071 276.295L235.711 277.272C235.986 277.435 236.154 277.733 236.154 278.055V280.219C236.154 280.234 236.162 280.248 236.175 280.256L242.287 283.967C242.729 284.235 243 284.719 243 285.24Z" fill="url(#paint12_linear_5380_19939)" stroke="url(#paint13_linear_5380_19939)" stroke-width="0.0221046" stroke-miterlimit="10"/>
<path d="M230.325 281.922C230.757 281.92 231.5 282.423 231.5 282.423L236.146 285.037L242.975 289.183C242.985 289.189 242.991 289.201 242.991 289.212V292.287C242.991 292.314 242.962 292.33 242.939 292.317L231.567 285.62C231.506 285.585 231.444 285.552 231.379 285.524C231.157 285.428 230.746 285.251 230.325 285.289C230.325 285.289 230.017 285.226 229.182 285.547C229.116 285.572 229.054 285.606 228.994 285.643L217.621 292.338C217.598 292.352 217.569 292.335 217.569 292.308V289.234C217.569 289.222 217.576 289.211 217.585 289.205L224.415 285.058L229.061 282.445C229.062 282.446 229.894 281.92 230.325 281.922Z" fill="url(#paint14_linear_5380_19939)" stroke="url(#paint15_linear_5380_19939)" stroke-width="0.0221046" stroke-miterlimit="10"/>
<path d="M231.208 290.333C231.321 290.374 231.428 290.427 231.531 290.489L237.275 293.987C237.297 294 237.325 293.984 237.325 293.958V290.881C237.325 290.87 237.32 290.86 237.31 290.854L231.86 287.643C231.551 287.461 231.221 287.315 230.876 287.22C230.648 287.157 230.325 287.159 230.325 287.159C230.154 287.134 229.913 287.179 229.684 287.242C229.339 287.337 229.009 287.482 228.7 287.665L223.25 290.876C223.241 290.882 223.235 290.892 223.235 290.902V293.98C223.235 294.006 223.264 294.022 223.286 294.008L229.153 290.401C229.153 290.401 229.831 290.089 230.294 290.106L230.659 290.173C230.805 290.2 230.949 290.239 231.089 290.29L231.208 290.333Z" fill="url(#paint16_linear_5380_19939)" stroke="url(#paint17_linear_5380_19939)" stroke-width="0.0221046" stroke-miterlimit="10"/>
<path d="M230.326 300.75L227.931 297.647C227.925 297.638 227.916 297.63 227.906 297.626L226.133 296.849C226.092 296.831 226.052 296.812 226.012 296.792L223.419 295.461C223.396 295.449 223.395 295.416 223.417 295.403L228.558 292.373C228.988 292.12 229.453 291.931 229.94 291.832C230.082 291.802 230.216 291.783 230.324 291.784C230.324 291.784 230.614 291.806 230.755 291.835C231.242 291.936 231.571 292.098 232.001 292.351L237.142 295.381C237.164 295.394 237.163 295.427 237.14 295.439L234.547 296.77C234.508 296.791 234.467 296.809 234.426 296.827L232.653 297.604C232.643 297.609 232.634 297.616 232.627 297.625L230.326 300.75Z" fill="url(#paint18_linear_5380_19939)" stroke="url(#paint19_linear_5380_19939)" stroke-width="0.0221046" stroke-miterlimit="10"/>
<path d="M230.219 274.236V280.476C230.204 280.477 230.189 280.478 230.174 280.479C230.174 280.479 229.775 280.53 229.553 280.594C229.286 280.672 229.031 280.786 228.791 280.927L217.547 287.548C217.527 287.56 217.5 287.545 217.5 287.52V285.263C217.5 284.741 217.771 284.258 218.213 283.989L224.325 280.278C224.338 280.27 224.346 280.256 224.346 280.241V278.077C224.346 277.755 224.514 277.457 224.789 277.294L226.428 276.318L224.869 274.182C224.507 273.685 223.933 273.39 223.322 273.389L221.542 273.382C221.223 273.381 220.971 273.11 220.988 272.788L220.992 272.713C221.006 272.46 221.217 272.264 221.468 272.272L224.221 272.356C224.77 272.373 225.283 272.633 225.626 273.066L227.63 275.602L229.442 274.523L229.65 274.399C229.826 274.294 230.022 274.24 230.219 274.236Z" fill="#FFCD1C" stroke="url(#paint20_linear_5380_19939)" stroke-width="0.0221046" stroke-miterlimit="10"/>
<path d="M230.219 281.923V285.284C230.106 285.279 229.776 285.295 229.12 285.546C229.055 285.571 228.993 285.606 228.932 285.642L217.56 292.338C217.537 292.352 217.508 292.335 217.508 292.308V289.234C217.508 289.222 217.514 289.211 217.524 289.205L224.354 285.059L229 282.445C229 282.445 229.777 281.954 230.219 281.923Z" fill="#FFCD1C" stroke="url(#paint21_linear_5380_19939)" stroke-width="0.0221046" stroke-miterlimit="10"/>
<path d="M230.219 287.154V290.106C229.756 290.095 229.093 290.401 229.093 290.401L223.225 294.008C223.203 294.022 223.175 294.006 223.175 293.98V290.902C223.175 290.892 223.18 290.882 223.19 290.876L228.639 287.665C228.948 287.483 229.278 287.337 229.623 287.242C229.832 287.184 230.052 287.141 230.219 287.154Z" fill="#FFCD1C" stroke="url(#paint22_linear_5380_19939)" stroke-width="0.0221046" stroke-miterlimit="10"/>
<path d="M230.219 291.783V300.691L227.869 297.646C227.863 297.638 227.854 297.63 227.844 297.626L226.071 296.849C226.031 296.831 225.991 296.812 225.951 296.792L223.358 295.461C223.335 295.449 223.334 295.416 223.357 295.403L228.498 292.373C228.927 292.119 229.392 291.931 229.88 291.831C230.002 291.806 230.119 291.788 230.219 291.783Z" fill="#FFCD1C" stroke="url(#paint23_linear_5380_19939)" stroke-width="0.0221046" stroke-miterlimit="10"/>
</g>
<defs>
<linearGradient id="paint0_linear_5380_19939" x1="200.481" y1="221.65" x2="187.997" y2="243.273" gradientUnits="userSpaceOnUse">
<stop stop-color="#FFE013"/>
<stop offset="0.5058" stop-color="#F29612"/>
<stop offset="0.9899" stop-color="#E64111"/>
</linearGradient>
<linearGradient id="paint1_linear_5380_19939" x1="200.506" y1="221.606" x2="187.971" y2="243.317" gradientUnits="userSpaceOnUse">
<stop stop-color="#FFD14E"/>
<stop offset="0.0064866" stop-color="#FECF53" stop-opacity="0.9935"/>
<stop offset="0.0851" stop-color="#FABF78" stop-opacity="0.9149"/>
<stop offset="0.17" stop-color="#F6AF8E" stop-opacity="0.83"/>
<stop offset="0.2605" stop-color="#F4A09C" stop-opacity="0.7395"/>
<stop offset="0.3581" stop-color="#F293A3" stop-opacity="0.6419"/>
<stop offset="0.4657" stop-color="#F088A7" stop-opacity="0.5343"/>
<stop offset="0.5883" stop-color="#EF81A9" stop-opacity="0.4117"/>
<stop offset="0.7389" stop-color="#EE7CAA" stop-opacity="0.2611"/>
<stop offset="1" stop-color="#EE7AAA" stop-opacity="0"/>
</linearGradient>
<linearGradient id="paint2_linear_5380_19939" x1="192.59" y1="235.317" x2="184.088" y2="250.043" gradientUnits="userSpaceOnUse">
<stop stop-color="#FFE013"/>
<stop offset="0.5058" stop-color="#F29612"/>
<stop offset="0.9899" stop-color="#E64111"/>
</linearGradient>
<linearGradient id="paint3_linear_5380_19939" x1="192.616" y1="235.273" x2="184.063" y2="250.087" gradientUnits="userSpaceOnUse">
<stop stop-color="#FFD14E"/>
<stop offset="0.0064866" stop-color="#FECF53" stop-opacity="0.9935"/>
<stop offset="0.0851" stop-color="#FABF78" stop-opacity="0.9149"/>
<stop offset="0.17" stop-color="#F6AF8E" stop-opacity="0.83"/>
<stop offset="0.2605" stop-color="#F4A09C" stop-opacity="0.7395"/>
<stop offset="0.3581" stop-color="#F293A3" stop-opacity="0.6419"/>
<stop offset="0.4657" stop-color="#F088A7" stop-opacity="0.5343"/>
<stop offset="0.5883" stop-color="#EF81A9" stop-opacity="0.4117"/>
<stop offset="0.7389" stop-color="#EE7CAA" stop-opacity="0.2611"/>
<stop offset="1" stop-color="#EE7AAA" stop-opacity="0"/>
</linearGradient>
<linearGradient id="paint4_linear_5380_19939" x1="188.323" y1="242.707" x2="182.726" y2="252.403" gradientUnits="userSpaceOnUse">
<stop stop-color="#FFE013"/>
<stop offset="0.5058" stop-color="#F29612"/>
<stop offset="0.9899" stop-color="#E64111"/>
</linearGradient>
<linearGradient id="paint5_linear_5380_19939" x1="188.349" y1="242.663" x2="182.7" y2="252.447" gradientUnits="userSpaceOnUse">
<stop stop-color="#FFD14E"/>
<stop offset="0.0064866" stop-color="#FECF53" stop-opacity="0.9935"/>
<stop offset="0.0851" stop-color="#FABF78" stop-opacity="0.9149"/>
<stop offset="0.17" stop-color="#F6AF8E" stop-opacity="0.83"/>
<stop offset="0.2605" stop-color="#F4A09C" stop-opacity="0.7395"/>
<stop offset="0.3581" stop-color="#F293A3" stop-opacity="0.6419"/>
<stop offset="0.4657" stop-color="#F088A7" stop-opacity="0.5343"/>
<stop offset="0.5883" stop-color="#EF81A9" stop-opacity="0.4117"/>
<stop offset="0.7389" stop-color="#EE7CAA" stop-opacity="0.2611"/>
<stop offset="1" stop-color="#EE7AAA" stop-opacity="0"/>
</linearGradient>
<linearGradient id="paint6_linear_5380_19939" x1="184.546" y1="249.251" x2="177.231" y2="261.921" gradientUnits="userSpaceOnUse">
<stop stop-color="#FFE013"/>
<stop offset="0.5058" stop-color="#F29612"/>
<stop offset="0.9899" stop-color="#E64111"/>
</linearGradient>
<linearGradient id="paint7_linear_5380_19939" x1="184.571" y1="249.206" x2="177.189" y2="261.994" gradientUnits="userSpaceOnUse">
<stop stop-color="#FFD14E"/>
<stop offset="0.0064866" stop-color="#FECF53" stop-opacity="0.9935"/>
<stop offset="0.0851" stop-color="#FABF78" stop-opacity="0.9149"/>
<stop offset="0.17" stop-color="#F6AF8E" stop-opacity="0.83"/>
<stop offset="0.2605" stop-color="#F4A09C" stop-opacity="0.7395"/>
<stop offset="0.3581" stop-color="#F293A3" stop-opacity="0.6419"/>
<stop offset="0.4657" stop-color="#F088A7" stop-opacity="0.5343"/>
<stop offset="0.5883" stop-color="#EF81A9" stop-opacity="0.4117"/>
<stop offset="0.7389" stop-color="#EE7CAA" stop-opacity="0.2611"/>
<stop offset="1" stop-color="#EE7AAA" stop-opacity="0"/>
</linearGradient>
<linearGradient id="paint8_linear_5380_19939" x1="178.812" y1="238.029" x2="191.329" y2="216.349" gradientUnits="userSpaceOnUse">
<stop stop-color="#FFD14E"/>
<stop offset="0.0064866" stop-color="#FECF53" stop-opacity="0.9935"/>
<stop offset="0.0851" stop-color="#FABF78" stop-opacity="0.9149"/>
<stop offset="0.17" stop-color="#F6AF8E" stop-opacity="0.83"/>
<stop offset="0.2605" stop-color="#F4A09C" stop-opacity="0.7395"/>
<stop offset="0.3581" stop-color="#F293A3" stop-opacity="0.6419"/>
<stop offset="0.4657" stop-color="#F088A7" stop-opacity="0.5343"/>
<stop offset="0.5883" stop-color="#EF81A9" stop-opacity="0.4117"/>
<stop offset="0.7389" stop-color="#EE7CAA" stop-opacity="0.2611"/>
<stop offset="1" stop-color="#EE7AAA" stop-opacity="0"/>
</linearGradient>
<linearGradient id="paint9_linear_5380_19939" x1="174.909" y1="244.801" x2="183.463" y2="229.986" gradientUnits="userSpaceOnUse">
<stop stop-color="#FFD14E"/>
<stop offset="0.0064866" stop-color="#FECF53" stop-opacity="0.9935"/>
<stop offset="0.0851" stop-color="#FABF78" stop-opacity="0.9149"/>
<stop offset="0.17" stop-color="#F6AF8E" stop-opacity="0.83"/>
<stop offset="0.2605" stop-color="#F4A09C" stop-opacity="0.7395"/>
<stop offset="0.3581" stop-color="#F293A3" stop-opacity="0.6419"/>
<stop offset="0.4657" stop-color="#F088A7" stop-opacity="0.5343"/>
<stop offset="0.5883" stop-color="#EF81A9" stop-opacity="0.4117"/>
<stop offset="0.7389" stop-color="#EE7CAA" stop-opacity="0.2611"/>
<stop offset="1" stop-color="#EE7AAA" stop-opacity="0"/>
</linearGradient>
<linearGradient id="paint10_linear_5380_19939" x1="177.588" y1="249.495" x2="183.237" y2="239.711" gradientUnits="userSpaceOnUse">
<stop stop-color="#FFD14E"/>
<stop offset="0.0064866" stop-color="#FECF53" stop-opacity="0.9935"/>
<stop offset="0.0851" stop-color="#FABF78" stop-opacity="0.9149"/>
<stop offset="0.17" stop-color="#F6AF8E" stop-opacity="0.83"/>
<stop offset="0.2605" stop-color="#F4A09C" stop-opacity="0.7395"/>
<stop offset="0.3581" stop-color="#F293A3" stop-opacity="0.6419"/>
<stop offset="0.4657" stop-color="#F088A7" stop-opacity="0.5343"/>
<stop offset="0.5883" stop-color="#EF81A9" stop-opacity="0.4117"/>
<stop offset="0.7389" stop-color="#EE7CAA" stop-opacity="0.2611"/>
<stop offset="1" stop-color="#EE7AAA" stop-opacity="0"/>
</linearGradient>
<linearGradient id="paint11_linear_5380_19939" x1="172.21" y1="259.083" x2="179.578" y2="246.322" gradientUnits="userSpaceOnUse">
<stop stop-color="#FFD14E"/>
<stop offset="0.0064866" stop-color="#FECF53" stop-opacity="0.9935"/>
<stop offset="0.0851" stop-color="#FABF78" stop-opacity="0.9149"/>
<stop offset="0.17" stop-color="#F6AF8E" stop-opacity="0.83"/>
<stop offset="0.2605" stop-color="#F4A09C" stop-opacity="0.7395"/>
<stop offset="0.3581" stop-color="#F293A3" stop-opacity="0.6419"/>
<stop offset="0.4657" stop-color="#F088A7" stop-opacity="0.5343"/>
<stop offset="0.5883" stop-color="#EF81A9" stop-opacity="0.4117"/>
<stop offset="0.7389" stop-color="#EE7CAA" stop-opacity="0.2611"/>
<stop offset="1" stop-color="#EE7AAA" stop-opacity="0"/>
</linearGradient>
<linearGradient id="paint12_linear_5380_19939" x1="230.281" y1="272.25" x2="230.281" y2="287.553" gradientUnits="userSpaceOnUse">
<stop stop-color="#FFE013"/>
<stop offset="0.5058" stop-color="#F29612"/>
<stop offset="0.9899" stop-color="#E64111"/>
</linearGradient>
<linearGradient id="paint13_linear_5380_19939" x1="230.281" y1="272.219" x2="230.281" y2="287.584" gradientUnits="userSpaceOnUse">
<stop stop-color="#FFD14E"/>
<stop offset="0.0064866" stop-color="#FECF53" stop-opacity="0.9935"/>
<stop offset="0.0851" stop-color="#FABF78" stop-opacity="0.9149"/>
<stop offset="0.17" stop-color="#F6AF8E" stop-opacity="0.83"/>
<stop offset="0.2605" stop-color="#F4A09C" stop-opacity="0.7395"/>
<stop offset="0.3581" stop-color="#F293A3" stop-opacity="0.6419"/>
<stop offset="0.4657" stop-color="#F088A7" stop-opacity="0.5343"/>
<stop offset="0.5883" stop-color="#EF81A9" stop-opacity="0.4117"/>
<stop offset="0.7389" stop-color="#EE7CAA" stop-opacity="0.2611"/>
<stop offset="1" stop-color="#EE7AAA" stop-opacity="0"/>
</linearGradient>
<linearGradient id="paint14_linear_5380_19939" x1="230.28" y1="281.922" x2="230.28" y2="292.344" gradientUnits="userSpaceOnUse">
<stop stop-color="#FFE013"/>
<stop offset="0.5058" stop-color="#F29612"/>
<stop offset="0.9899" stop-color="#E64111"/>
</linearGradient>
<linearGradient id="paint15_linear_5380_19939" x1="230.28" y1="281.891" x2="230.28" y2="292.375" gradientUnits="userSpaceOnUse">
<stop stop-color="#FFD14E"/>
<stop offset="0.0064866" stop-color="#FECF53" stop-opacity="0.9935"/>
<stop offset="0.0851" stop-color="#FABF78" stop-opacity="0.9149"/>
<stop offset="0.17" stop-color="#F6AF8E" stop-opacity="0.83"/>
<stop offset="0.2605" stop-color="#F4A09C" stop-opacity="0.7395"/>
<stop offset="0.3581" stop-color="#F293A3" stop-opacity="0.6419"/>
<stop offset="0.4657" stop-color="#F088A7" stop-opacity="0.5343"/>
<stop offset="0.5883" stop-color="#EF81A9" stop-opacity="0.4117"/>
<stop offset="0.7389" stop-color="#EE7CAA" stop-opacity="0.2611"/>
<stop offset="1" stop-color="#EE7AAA" stop-opacity="0"/>
</linearGradient>
<linearGradient id="paint16_linear_5380_19939" x1="230.28" y1="287.152" x2="230.28" y2="294.013" gradientUnits="userSpaceOnUse">
<stop stop-color="#FFE013"/>
<stop offset="0.5058" stop-color="#F29612"/>
<stop offset="0.9899" stop-color="#E64111"/>
</linearGradient>
<linearGradient id="paint17_linear_5380_19939" x1="230.28" y1="287.121" x2="230.28" y2="294.045" gradientUnits="userSpaceOnUse">
<stop stop-color="#FFD14E"/>
<stop offset="0.0064866" stop-color="#FECF53" stop-opacity="0.9935"/>
<stop offset="0.0851" stop-color="#FABF78" stop-opacity="0.9149"/>
<stop offset="0.17" stop-color="#F6AF8E" stop-opacity="0.83"/>
<stop offset="0.2605" stop-color="#F4A09C" stop-opacity="0.7395"/>
<stop offset="0.3581" stop-color="#F293A3" stop-opacity="0.6419"/>
<stop offset="0.4657" stop-color="#F088A7" stop-opacity="0.5343"/>
<stop offset="0.5883" stop-color="#EF81A9" stop-opacity="0.4117"/>
<stop offset="0.7389" stop-color="#EE7CAA" stop-opacity="0.2611"/>
<stop offset="1" stop-color="#EE7AAA" stop-opacity="0"/>
</linearGradient>
<linearGradient id="paint18_linear_5380_19939" x1="230.281" y1="291.783" x2="230.281" y2="300.75" gradientUnits="userSpaceOnUse">
<stop stop-color="#FFE013"/>
<stop offset="0.5058" stop-color="#F29612"/>
<stop offset="0.9899" stop-color="#E64111"/>
</linearGradient>
<linearGradient id="paint19_linear_5380_19939" x1="230.281" y1="291.752" x2="230.281" y2="300.802" gradientUnits="userSpaceOnUse">
<stop stop-color="#FFD14E"/>
<stop offset="0.0064866" stop-color="#FECF53" stop-opacity="0.9935"/>
<stop offset="0.0851" stop-color="#FABF78" stop-opacity="0.9149"/>
<stop offset="0.17" stop-color="#F6AF8E" stop-opacity="0.83"/>
<stop offset="0.2605" stop-color="#F4A09C" stop-opacity="0.7395"/>
<stop offset="0.3581" stop-color="#F293A3" stop-opacity="0.6419"/>
<stop offset="0.4657" stop-color="#F088A7" stop-opacity="0.5343"/>
<stop offset="0.5883" stop-color="#EF81A9" stop-opacity="0.4117"/>
<stop offset="0.7389" stop-color="#EE7CAA" stop-opacity="0.2611"/>
<stop offset="1" stop-color="#EE7AAA" stop-opacity="0"/>
</linearGradient>
<linearGradient id="paint20_linear_5380_19939" x1="223.859" y1="287.584" x2="223.859" y2="272.241" gradientUnits="userSpaceOnUse">
<stop stop-color="#FFD14E"/>
<stop offset="0.0064866" stop-color="#FECF53" stop-opacity="0.9935"/>
<stop offset="0.0851" stop-color="#FABF78" stop-opacity="0.9149"/>
<stop offset="0.17" stop-color="#F6AF8E" stop-opacity="0.83"/>
<stop offset="0.2605" stop-color="#F4A09C" stop-opacity="0.7395"/>
<stop offset="0.3581" stop-color="#F293A3" stop-opacity="0.6419"/>
<stop offset="0.4657" stop-color="#F088A7" stop-opacity="0.5343"/>
<stop offset="0.5883" stop-color="#EF81A9" stop-opacity="0.4117"/>
<stop offset="0.7389" stop-color="#EE7CAA" stop-opacity="0.2611"/>
<stop offset="1" stop-color="#EE7AAA" stop-opacity="0"/>
</linearGradient>
<linearGradient id="paint21_linear_5380_19939" x1="223.863" y1="292.374" x2="223.863" y2="281.89" gradientUnits="userSpaceOnUse">
<stop stop-color="#FFD14E"/>
<stop offset="0.0064866" stop-color="#FECF53" stop-opacity="0.9935"/>
<stop offset="0.0851" stop-color="#FABF78" stop-opacity="0.9149"/>
<stop offset="0.17" stop-color="#F6AF8E" stop-opacity="0.83"/>
<stop offset="0.2605" stop-color="#F4A09C" stop-opacity="0.7395"/>
<stop offset="0.3581" stop-color="#F293A3" stop-opacity="0.6419"/>
<stop offset="0.4657" stop-color="#F088A7" stop-opacity="0.5343"/>
<stop offset="0.5883" stop-color="#EF81A9" stop-opacity="0.4117"/>
<stop offset="0.7389" stop-color="#EE7CAA" stop-opacity="0.2611"/>
<stop offset="1" stop-color="#EE7AAA" stop-opacity="0"/>
</linearGradient>
<linearGradient id="paint22_linear_5380_19939" x1="226.697" y1="294.045" x2="226.697" y2="287.121" gradientUnits="userSpaceOnUse">
<stop stop-color="#FFD14E"/>
<stop offset="0.0064866" stop-color="#FECF53" stop-opacity="0.9935"/>
<stop offset="0.0851" stop-color="#FABF78" stop-opacity="0.9149"/>
<stop offset="0.17" stop-color="#F6AF8E" stop-opacity="0.83"/>
<stop offset="0.2605" stop-color="#F4A09C" stop-opacity="0.7395"/>
<stop offset="0.3581" stop-color="#F293A3" stop-opacity="0.6419"/>
<stop offset="0.4657" stop-color="#F088A7" stop-opacity="0.5343"/>
<stop offset="0.5883" stop-color="#EF81A9" stop-opacity="0.4117"/>
<stop offset="0.7389" stop-color="#EE7CAA" stop-opacity="0.2611"/>
<stop offset="1" stop-color="#EE7AAA" stop-opacity="0"/>
</linearGradient>
<linearGradient id="paint23_linear_5380_19939" x1="226.779" y1="300.782" x2="226.779" y2="291.751" gradientUnits="userSpaceOnUse">
<stop stop-color="#FFD14E"/>
<stop offset="0.0064866" stop-color="#FECF53" stop-opacity="0.9935"/>
<stop offset="0.0851" stop-color="#FABF78" stop-opacity="0.9149"/>
<stop offset="0.17" stop-color="#F6AF8E" stop-opacity="0.83"/>
<stop offset="0.2605" stop-color="#F4A09C" stop-opacity="0.7395"/>
<stop offset="0.3581" stop-color="#F293A3" stop-opacity="0.6419"/>
<stop offset="0.4657" stop-color="#F088A7" stop-opacity="0.5343"/>
<stop offset="0.5883" stop-color="#EF81A9" stop-opacity="0.4117"/>
<stop offset="0.7389" stop-color="#EE7CAA" stop-opacity="0.2611"/>
<stop offset="1" stop-color="#EE7AAA" stop-opacity="0"/>
</linearGradient>
</defs>
</svg>
