<svg width="383" height="701" viewBox="0 0 383 701" fill="none" xmlns="http://www.w3.org/2000/svg">
<g clip-path="url(#clip0_3832_17730)">
<path d="M229.398 33.8585C230.794 33.0476 232.519 33.0476 233.916 33.8585L260.729 49.4229C262.116 50.2281 262.969 51.7108 262.969 53.3147V84.5188C262.969 86.1228 262.116 87.6055 260.729 88.4107L233.916 103.975C232.519 104.786 230.794 104.786 229.398 103.975L202.585 88.4107C201.198 87.6054 200.344 86.1228 200.344 84.5189V53.3147C200.344 51.7108 201.198 50.2281 202.585 49.4229L229.398 33.8585Z" stroke="#FCBE0A" stroke-width="7" stroke-linejoin="bevel"/>
<path d="M306.48 33.8585C307.877 33.0476 309.601 33.0476 310.998 33.8585L337.811 49.4229C339.198 50.2281 340.052 51.7108 340.052 53.3147V84.5188C340.052 86.1228 339.198 87.6055 337.811 88.4107L310.998 103.975C309.601 104.786 307.877 104.786 306.48 103.975L279.667 88.4107C278.28 87.6054 277.427 86.1228 277.427 84.5189V53.3147C277.427 51.7108 278.28 50.2281 279.667 49.4229L306.48 33.8585Z" stroke="#FCBE0A" stroke-width="7" stroke-linejoin="bevel"/>
<path d="M382.732 33.0247C384.129 32.2138 385.853 32.2138 387.25 33.0247L414.063 48.5891C415.45 49.3943 416.304 50.877 416.304 52.4809V83.685C416.304 85.289 415.45 86.7717 414.063 87.5769L387.25 103.141C385.853 103.952 384.129 103.952 382.732 103.141L355.919 87.5769C354.532 86.7716 353.679 85.289 353.679 83.6851V52.4809C353.679 50.877 354.532 49.3943 355.919 48.5891L382.732 33.0247Z" stroke="#FCBE0A" stroke-width="7" stroke-linejoin="bevel"/>
<path d="M308.967 428.859C310.364 428.048 312.088 428.048 313.485 428.859L340.298 444.423C341.685 445.228 342.539 446.711 342.539 448.315V479.519C342.539 481.123 341.685 482.606 340.298 483.411L313.485 498.975C312.088 499.786 310.364 499.786 308.967 498.975L282.154 483.411C280.767 482.606 279.913 481.123 279.913 479.519V448.315C279.913 446.711 280.767 445.228 282.154 444.423L308.967 428.859Z" stroke="#FCBE0A" stroke-width="7" stroke-linejoin="bevel"/>
<path d="M385.219 428.859C386.616 428.048 388.34 428.048 389.737 428.859L416.55 444.423C417.937 445.228 418.791 446.711 418.791 448.315V479.519C418.791 481.123 417.937 482.606 416.55 483.411L389.737 498.975C388.34 499.786 386.616 499.786 385.219 498.975L358.406 483.411C357.019 482.606 356.165 481.123 356.165 479.519V448.315C356.165 446.711 357.019 445.228 358.406 444.423L385.219 428.859Z" stroke="#FCBE0A" stroke-width="7" stroke-linejoin="bevel"/>
<path d="M270.84 363.025C272.237 362.214 273.962 362.214 275.359 363.025L302.171 378.59C303.559 379.395 304.412 380.877 304.412 382.481V413.685C304.412 415.289 303.559 416.772 302.171 417.577L275.359 433.142C273.962 433.953 272.237 433.953 270.84 433.142L244.028 417.577C242.641 416.772 241.787 415.289 241.787 413.685V382.481C241.787 380.877 242.641 379.395 244.028 378.59L270.84 363.025Z" stroke="#FCBE0A" stroke-width="7" stroke-linejoin="bevel"/>
<path d="M346.263 363.025C347.66 362.214 349.385 362.214 350.782 363.025L377.594 378.59C378.981 379.395 379.835 380.877 379.835 382.481V413.685C379.835 415.289 378.981 416.772 377.594 417.577L350.782 433.142C349.385 433.953 347.66 433.953 346.263 433.142L319.451 417.577C318.063 416.772 317.21 415.289 317.21 413.685V382.481C317.21 380.877 318.063 379.395 319.451 378.59L346.263 363.025Z" stroke="#FCBE0A" stroke-width="7" stroke-linejoin="bevel"/>
<path d="M385.219 298.025C386.616 297.214 388.34 297.214 389.737 298.025L416.55 313.59C417.937 314.395 418.791 315.878 418.791 317.482V348.686C418.791 350.29 417.937 351.772 416.55 352.578L389.737 368.142C388.34 368.953 386.616 368.953 385.219 368.142L358.406 352.578C357.019 351.772 356.165 350.29 356.165 348.686V317.482C356.165 315.878 357.019 314.395 358.406 313.59L385.219 298.025Z" stroke="#FCBE0A" stroke-width="7" stroke-linejoin="bevel"/>
<path d="M308.967 560.525C310.364 559.714 312.088 559.714 313.485 560.525L340.298 576.09C341.685 576.895 342.539 578.377 342.539 579.981V611.185C342.539 612.789 341.685 614.272 340.298 615.077L313.485 630.642C312.088 631.453 310.364 631.453 308.967 630.642L282.154 615.077C280.767 614.272 279.913 612.789 279.913 611.185V579.981C279.913 578.377 280.767 576.895 282.154 576.09L308.967 560.525Z" stroke="#FCBE0A" stroke-width="7" stroke-linejoin="bevel"/>
<path d="M346.263 493.858C347.66 493.047 349.385 493.047 350.782 493.858L377.594 509.423C378.981 510.228 379.835 511.711 379.835 513.315V544.519C379.835 546.123 378.981 547.605 377.594 548.41L350.782 563.975C349.385 564.786 347.66 564.786 346.263 563.975L319.451 548.41C318.063 547.605 317.21 546.123 317.21 544.519V513.315C317.21 511.711 318.063 510.228 319.451 509.423L346.263 493.858Z" stroke="#FCBE0A" stroke-width="7" stroke-linejoin="bevel"/>
<path d="M76.8936 167.192C78.2906 166.381 80.015 166.381 81.4119 167.192L108.225 182.756C109.612 183.561 110.465 185.044 110.465 186.648V217.852C110.465 219.456 109.612 220.939 108.225 221.744L81.4119 237.308C80.015 238.119 78.2906 238.119 76.8936 237.308L50.081 221.744C48.6938 220.939 47.8401 219.456 47.8401 217.852V186.648C47.8401 185.044 48.6938 183.561 50.081 182.756L76.8936 167.192Z" stroke="#FCBE0A" stroke-width="7" stroke-linejoin="bevel"/>
<path d="M155.633 167.192C157.03 166.381 158.754 166.381 160.151 167.192L186.964 182.756C188.351 183.561 189.205 185.044 189.205 186.648V217.852C189.205 219.456 188.351 220.939 186.964 221.744L160.151 237.308C158.754 238.119 157.03 238.119 155.633 237.308L128.82 221.744C127.433 220.939 126.579 219.456 126.579 217.852V186.648C126.579 185.044 127.433 183.561 128.82 182.756L155.633 167.192Z" stroke="#FCBE0A" stroke-width="7" stroke-linejoin="bevel"/>
<path d="M233.542 167.192C234.939 166.381 236.663 166.381 238.06 167.192L264.873 182.756C266.26 183.561 267.114 185.044 267.114 186.648V217.852C267.114 219.456 266.26 220.939 264.873 221.744L238.06 237.308C236.663 238.119 234.939 238.119 233.542 237.308L206.729 221.744C205.342 220.939 204.489 219.456 204.489 217.852V186.648C204.489 185.044 205.342 183.561 206.729 182.756L233.542 167.192Z" stroke="#FCBE0A" stroke-width="7" stroke-linejoin="bevel"/>
<path d="M308.138 167.192C309.535 166.381 311.259 166.381 312.656 167.192L339.469 182.756C340.856 183.561 341.71 185.044 341.71 186.648V217.852C341.71 219.456 340.856 220.939 339.469 221.744L312.656 237.308C311.259 238.119 309.535 238.119 308.138 237.308L281.325 221.744C279.938 220.939 279.084 219.456 279.084 217.852V186.648C279.084 185.044 279.938 183.561 281.325 182.756L308.138 167.192Z" stroke="#FCBE0A" stroke-width="7" stroke-linejoin="bevel"/>
<path d="M385.219 167.192C386.616 166.381 388.34 166.381 389.737 167.192L416.55 182.756C417.937 183.561 418.791 185.044 418.791 186.648V217.852C418.791 219.456 417.937 220.939 416.55 221.744L389.737 237.308C388.34 238.119 386.616 238.119 385.219 237.308L358.406 221.744C357.019 220.939 356.165 219.456 356.165 217.852V186.648C356.165 185.044 357.019 183.561 358.406 182.756L385.219 167.192Z" stroke="#FCBE0A" stroke-width="7" stroke-linejoin="bevel"/>
<path d="M37.939 101.359C39.336 100.548 41.0604 100.548 42.4574 101.359L69.27 116.923C70.6572 117.728 71.5109 119.211 71.5109 120.815V152.019C71.5109 153.623 70.6572 155.106 69.27 155.911L42.4573 171.475C41.0604 172.286 39.336 172.286 37.939 171.475L11.1264 155.911C9.73924 155.106 8.88554 153.623 8.88554 152.019V120.815C8.88554 119.211 9.73924 117.728 11.1264 116.923L37.939 101.359Z" stroke="#FCBE0A" stroke-width="7" stroke-linejoin="bevel"/>
<path d="M115.85 101.359C117.247 100.548 118.971 100.548 120.368 101.359L147.181 116.923C148.568 117.728 149.422 119.211 149.422 120.815V152.019C149.422 153.623 148.568 155.106 147.181 155.911L120.368 171.475C118.971 172.286 117.247 172.286 115.85 171.475L89.037 155.911C87.6499 155.106 86.7962 153.623 86.7962 152.019V120.815C86.7962 119.211 87.6499 117.728 89.037 116.923L115.85 101.359Z" stroke="#FCBE0A" stroke-width="7" stroke-linejoin="bevel"/>
<path d="M192.93 101.359C194.327 100.548 196.051 100.548 197.448 101.359L224.261 116.923C225.648 117.728 226.502 119.211 226.502 120.815V152.019C226.502 153.623 225.648 155.106 224.261 155.911L197.448 171.475C196.051 172.286 194.327 172.286 192.93 171.475L166.117 155.911C164.73 155.106 163.876 153.623 163.876 152.019V120.815C163.876 119.211 164.73 117.728 166.117 116.923L192.93 101.359Z" stroke="#FCBE0A" stroke-width="7" stroke-linejoin="bevel"/>
<path d="M269.182 101.359C270.579 100.548 272.303 100.548 273.7 101.359L300.513 116.923C301.9 117.728 302.754 119.211 302.754 120.815V152.019C302.754 153.623 301.9 155.106 300.513 155.911L273.7 171.475C272.303 172.286 270.579 172.286 269.182 171.475L242.369 155.911C240.982 155.106 240.128 153.623 240.128 152.019V120.815C240.128 119.211 240.982 117.728 242.369 116.923L269.182 101.359Z" stroke="#FCBE0A" stroke-width="7" stroke-linejoin="bevel"/>
<path d="M346.263 101.359C347.66 100.548 349.385 100.548 350.782 101.359L377.594 116.923C378.981 117.728 379.835 119.211 379.835 120.815V152.019C379.835 153.623 378.981 155.106 377.594 155.911L350.782 171.475C349.385 172.286 347.66 172.286 346.263 171.475L319.451 155.911C318.063 155.106 317.21 153.623 317.21 152.019V120.815C317.21 119.211 318.063 117.728 319.451 116.923L346.263 101.359Z" stroke="#FCBE0A" stroke-width="7" stroke-linejoin="bevel"/>
<path d="M76.8936 33.8585C78.2906 33.0476 80.015 33.0476 81.4119 33.8585L108.225 49.4229C109.612 50.2281 110.465 51.7108 110.465 53.3147V84.5188C110.465 86.1228 109.612 87.6055 108.225 88.4107L81.4119 103.975C80.015 104.786 78.2906 104.786 76.8936 103.975L50.081 88.4107C48.6938 87.6054 47.8401 86.1228 47.8401 84.5189V53.3147C47.8401 51.7108 48.6938 50.2281 50.081 49.4229L76.8936 33.8585Z" stroke="#FCBE0A" stroke-width="7" stroke-linejoin="bevel"/>
<path d="M153.146 33.8585C154.543 33.0476 156.267 33.0476 157.664 33.8585L184.477 49.4229C185.864 50.2281 186.717 51.7108 186.717 53.3147V84.5188C186.717 86.1228 185.864 87.6055 184.477 88.4107L157.664 103.975C156.267 104.786 154.543 104.786 153.146 103.975L126.333 88.4107C124.946 87.6054 124.092 86.1228 124.092 84.5189V53.3147C124.092 51.7108 124.946 50.2281 126.333 49.4229L153.146 33.8585Z" stroke="#FCBE0A" stroke-width="7" stroke-linejoin="bevel"/>
<path d="M37.939 -33.6416C39.336 -34.4525 41.0604 -34.4525 42.4574 -33.6416L69.27 -18.0772C70.6572 -17.272 71.5109 -15.7893 71.5109 -14.1854V17.0187C71.5109 18.6226 70.6572 20.1053 69.27 20.9105L42.4573 36.475C41.0604 37.2859 39.336 37.2859 37.939 36.475L11.1264 20.9105C9.73924 20.1053 8.88554 18.6227 8.88554 17.0187V-14.1854C8.88554 -15.7893 9.73924 -17.272 11.1264 -18.0772L37.939 -33.6416Z" stroke="#FCBE0A" stroke-width="7" stroke-linejoin="bevel"/>
<path d="M189.615 -33.6416C191.012 -34.4525 192.736 -34.4525 194.133 -33.6416L220.946 -18.0772C222.333 -17.272 223.187 -15.7893 223.187 -14.1854V17.0187C223.187 18.6226 222.333 20.1053 220.946 20.9105L194.133 36.475C192.736 37.2859 191.012 37.2859 189.615 36.475L162.802 20.9105C161.415 20.1053 160.561 18.6227 160.561 17.0187V-14.1854C160.561 -15.7893 161.415 -17.272 162.802 -18.0772L189.615 -33.6416Z" stroke="#FCBE0A" stroke-width="7" stroke-linejoin="bevel"/>
<path d="M114.191 -33.6416C115.588 -34.4525 117.312 -34.4525 118.709 -33.6416L145.522 -18.0772C146.909 -17.272 147.763 -15.7893 147.763 -14.1854V17.0187C147.763 18.6226 146.909 20.1053 145.522 20.9105L118.709 36.475C117.312 37.2859 115.588 37.2859 114.191 36.475L87.3783 20.9105C85.9912 20.1053 85.1375 18.6227 85.1375 17.0187V-14.1854C85.1375 -15.7893 85.9912 -17.272 87.3783 -18.0772L114.191 -33.6416Z" stroke="#FCBE0A" stroke-width="7" stroke-linejoin="bevel"/>
<path d="M342.948 -33.6416C344.345 -34.4525 346.069 -34.4525 347.466 -33.6416L374.279 -18.0772C375.666 -17.272 376.52 -15.7893 376.52 -14.1854V17.0187C376.52 18.6226 375.666 20.1053 374.279 20.9105L347.466 36.475C346.069 37.2859 344.345 37.2859 342.948 36.475L316.135 20.9105C314.748 20.1053 313.894 18.6227 313.894 17.0187V-14.1854C313.894 -15.7893 314.748 -17.272 316.135 -18.0772L342.948 -33.6416Z" stroke="#FCBE0A" stroke-width="7" stroke-linejoin="bevel"/>
<path d="M266.696 -33.6416C268.093 -34.4525 269.817 -34.4525 271.214 -33.6416L298.027 -18.0772C299.414 -17.272 300.268 -15.7893 300.268 -14.1854V17.0187C300.268 18.6226 299.414 20.1053 298.027 20.9105L271.214 36.475C269.817 37.2859 268.093 37.2859 266.696 36.475L239.883 20.9105C238.496 20.1053 237.642 18.6227 237.642 17.0187V-14.1854C237.642 -15.7893 238.496 -17.272 239.883 -18.0772L266.696 -33.6416Z" stroke="#FCBE0A" stroke-width="7" stroke-linejoin="bevel"/>
<path d="M308.967 298.025C310.364 297.214 312.088 297.214 313.485 298.025L340.298 313.59C341.685 314.395 342.539 315.878 342.539 317.482V348.686C342.539 350.29 341.685 351.772 340.298 352.578L313.485 368.142C312.088 368.953 310.364 368.953 308.967 368.142L282.154 352.578C280.767 351.772 279.913 350.29 279.913 348.686V317.482C279.913 315.878 280.767 314.395 282.154 313.59L308.967 298.025Z" stroke="#FCBE0A" stroke-width="7" stroke-linejoin="bevel"/>
<path d="M270.84 233.858C272.237 233.048 273.962 233.048 275.359 233.858L302.171 249.423C303.559 250.228 304.412 251.711 304.412 253.315V284.519C304.412 286.123 303.559 287.605 302.171 288.411L275.359 303.975C273.962 304.786 272.237 304.786 270.84 303.975L244.028 288.411C242.641 287.605 241.787 286.123 241.787 284.519V253.315C241.787 251.711 242.641 250.228 244.028 249.423L270.84 233.858Z" stroke="#FCBE0A" stroke-width="7" stroke-linejoin="bevel"/>
<path d="M347.092 233.858C348.489 233.048 350.214 233.048 351.611 233.858L378.423 249.423C379.81 250.228 380.664 251.711 380.664 253.315V284.519C380.664 286.123 379.81 287.605 378.423 288.411L351.611 303.975C350.214 304.786 348.489 304.786 347.092 303.975L320.28 288.411C318.893 287.605 318.039 286.123 318.039 284.519V253.315C318.039 251.711 318.893 250.228 320.28 249.423L347.092 233.858Z" stroke="#FCBE0A" stroke-width="7" stroke-linejoin="bevel"/>
<path d="M346.263 625.525C347.66 624.714 349.385 624.714 350.782 625.525L377.594 641.089C378.981 641.895 379.835 643.377 379.835 644.981V676.185C379.835 677.789 378.981 679.272 377.594 680.077L350.782 695.641C349.385 696.452 347.66 696.452 346.263 695.641L319.451 680.077C318.063 679.272 317.21 677.789 317.21 676.185V644.981C317.21 643.377 318.063 641.895 319.451 641.089L346.263 625.525Z" stroke="#FCBE0A" stroke-width="7" stroke-linejoin="bevel"/>
<path d="M385.219 560.525C386.616 559.714 388.34 559.714 389.737 560.525L416.55 576.09C417.937 576.895 418.791 578.377 418.791 579.981V611.185C418.791 612.789 417.937 614.272 416.55 615.077L389.737 630.642C388.34 631.453 386.616 631.453 385.219 630.642L358.406 615.077C357.019 614.272 356.165 612.789 356.165 611.185V579.981C356.165 578.377 357.019 576.895 358.406 576.09L385.219 560.525Z" stroke="#FCBE0A" stroke-width="7" stroke-linejoin="bevel"/>
<path d="M177.602 385.459L172.224 390.838C172.166 390.896 172.065 390.869 172.044 390.789L160.687 347.895C160.446 346.979 160.104 346.093 159.644 345.265C159.263 344.575 158.757 343.835 158.15 343.326C158.15 343.326 157.065 342.484 156.375 342.1C155.547 341.641 154.66 341.3 153.746 341.057L110.85 329.701C110.771 329.679 110.743 329.58 110.802 329.52L116.179 324.143C117.422 322.9 119.226 322.402 120.934 322.83L144.517 328.737C144.568 328.748 144.62 328.735 144.657 328.698L149.811 323.544C150.577 322.777 151.693 322.474 152.744 322.746L159.025 324.377L160.352 315.528C160.661 313.47 159.977 311.385 158.508 309.907L154.228 305.597C153.462 304.825 153.497 303.571 154.307 302.846L154.495 302.677C155.132 302.108 156.107 302.151 156.694 302.774L163.135 309.616C164.419 310.98 165.038 312.838 164.833 314.696L163.628 325.57L170.571 327.372L171.368 327.578C172.812 327.953 173.926 329.103 174.259 330.558L174.373 331.068L176.175 338.01L187.049 336.806C188.908 336.601 190.765 337.222 192.128 338.505L198.97 344.946C199.595 345.532 199.637 346.507 199.068 347.144L198.898 347.333C198.175 348.142 196.919 348.178 196.147 347.412L191.839 343.131C190.361 341.662 188.277 340.979 186.217 341.287L177.369 342.614L178.998 348.896C179.27 349.947 178.968 351.061 178.202 351.828L173.046 356.983C173.01 357.019 172.996 357.073 173.009 357.122L178.916 380.705C179.343 382.413 178.844 384.218 177.602 385.459Z" fill="url(#paint0_linear_3832_17730)" stroke="url(#paint1_linear_3832_17730)" stroke-width="0.0957895" stroke-miterlimit="10"/>
<path d="M154.93 346.978C155.975 348.014 156.569 351.005 156.569 351.005L161.552 368.438L168.152 394.791C168.161 394.829 168.149 394.871 168.121 394.899L160.798 402.221C160.735 402.285 160.625 402.255 160.601 402.169L149.117 358.783C149.055 358.551 148.982 358.324 148.892 358.101C148.586 357.337 148.014 355.922 146.911 354.997C146.911 354.997 146.316 354.105 143.537 352.853C143.317 352.754 143.087 352.687 142.855 352.628L99.4706 341.14C99.3829 341.118 99.3531 341.008 99.4184 340.942L106.739 333.622C106.767 333.593 106.809 333.581 106.848 333.59L133.2 340.19L150.634 345.174C150.634 345.177 153.893 345.932 154.93 346.978Z" fill="url(#paint2_linear_3832_17730)" stroke="url(#paint3_linear_3832_17730)" stroke-width="0.0957895" stroke-miterlimit="10"/>
<path d="M137.024 369.142C137.198 369.512 137.334 369.897 137.434 370.294L142.959 392.48C142.98 392.567 143.087 392.596 143.149 392.534L150.479 385.204C150.504 385.179 150.514 385.142 150.505 385.106L145.007 364.31C144.694 363.129 144.246 361.986 143.64 360.926C143.24 360.226 142.456 359.451 142.456 359.451C142.103 358.98 141.414 358.504 140.713 358.104C139.653 357.498 138.512 357.048 137.33 356.737L116.533 351.238C116.498 351.229 116.461 351.24 116.435 351.265L109.106 358.595C109.043 358.657 109.073 358.764 109.159 358.785L131.907 364.346C131.907 364.346 134.286 365.239 135.362 366.396L136.082 367.437C136.371 367.853 136.624 368.293 136.84 368.753L137.024 369.142Z" fill="url(#paint4_linear_3832_17730)" stroke="url(#paint5_linear_3832_17730)" stroke-width="0.0957895" stroke-miterlimit="10"/>
<path d="M110.084 391.823L111.7 378.655C111.705 378.618 111.702 378.58 111.687 378.544L109.26 372.417C109.205 372.275 109.153 372.134 109.105 371.989L106.021 362.563C105.994 362.48 106.069 362.398 106.154 362.421L125.774 367.607C127.413 368.04 128.983 368.713 130.395 369.65C130.807 369.923 131.177 370.201 131.436 370.462C131.436 370.462 132.082 371.215 132.354 371.627C133.29 373.041 133.696 374.219 134.13 375.859L139.316 395.478C139.338 395.563 139.258 395.64 139.173 395.612L129.748 392.527C129.604 392.481 129.461 392.428 129.32 392.373L123.193 389.946C123.157 389.931 123.118 389.928 123.081 389.932L110.084 391.823Z" fill="url(#paint6_linear_3832_17730)" stroke="url(#paint7_linear_3832_17730)" stroke-width="0.0957895" stroke-miterlimit="10"/>
<path d="M172.98 328.414L158.117 343.277C158.08 343.243 158.041 343.21 158.002 343.177C158.002 343.177 156.917 342.335 156.227 341.951C155.399 341.492 154.511 341.151 153.597 340.908L110.702 329.553C110.623 329.53 110.595 329.431 110.654 329.371L116.031 323.994C117.274 322.751 119.078 322.253 120.786 322.681L144.369 328.588C144.419 328.6 144.471 328.586 144.509 328.549L149.663 323.395C150.429 322.629 151.545 322.325 152.596 322.598L158.877 324.228L160.203 315.379C160.513 313.321 159.829 311.236 158.36 309.758L154.08 305.448C153.314 304.676 153.348 303.422 154.159 302.698L154.346 302.528C154.984 301.96 155.958 302.002 156.546 302.625L162.987 309.467C164.27 310.831 164.89 312.689 164.685 314.548L163.48 325.422L170.423 327.223L171.219 327.429C171.893 327.603 172.496 327.949 172.98 328.414Z" fill="#FFCD1C" stroke="url(#paint8_linear_3832_17730)" stroke-width="0.0957895" stroke-miterlimit="10"/>
<path d="M154.67 346.723L146.664 354.729C146.405 354.446 145.57 353.688 143.389 352.704C143.172 352.606 142.94 352.54 142.707 352.479L99.3237 340.993C99.2345 340.969 99.2047 340.859 99.2685 340.795L106.591 333.473C106.619 333.444 106.661 333.433 106.701 333.443L133.052 340.044L150.485 345.028C150.485 345.028 153.531 345.733 154.67 346.723Z" fill="#FFCD1C" stroke="url(#paint9_linear_3832_17730)" stroke-width="0.0957895" stroke-miterlimit="10"/>
<path d="M142.21 359.183L135.18 366.213C134.09 365.073 131.76 364.199 131.76 364.199L109.012 358.637C108.926 358.617 108.896 358.51 108.959 358.447L116.289 351.117C116.314 351.092 116.351 351.082 116.387 351.091L137.183 356.59C138.362 356.901 139.505 357.349 140.565 357.955C141.206 358.322 141.839 358.751 142.21 359.183Z" fill="#FFCD1C" stroke="url(#paint10_linear_3832_17730)" stroke-width="0.0957895" stroke-miterlimit="10"/>
<path d="M131.184 370.21L109.967 391.427L111.552 378.507C111.558 378.471 111.553 378.431 111.54 378.397L109.113 372.269C109.058 372.128 109.006 371.987 108.96 371.843L105.875 362.418C105.847 362.333 105.924 362.253 106.009 362.275L125.628 367.461C127.268 367.894 128.838 368.567 130.253 369.505C130.607 369.74 130.932 369.982 131.184 370.21Z" fill="#FFCD1C" stroke="url(#paint11_linear_3832_17730)" stroke-width="0.0957895" stroke-miterlimit="10"/>
<path d="M209.415 502.734L205.661 506.488C205.621 506.528 205.555 506.514 205.544 506.462L199.713 478.621C199.589 478.026 199.398 477.455 199.127 476.927C198.902 476.487 198.597 476.019 198.217 475.707C198.217 475.707 197.534 475.193 197.094 474.967C196.566 474.696 195.994 474.505 195.4 474.38L167.558 468.55C167.507 468.539 167.492 468.474 167.533 468.433L171.286 464.68C172.153 463.812 173.362 463.414 174.471 463.631L189.792 466.614C189.825 466.62 189.859 466.609 189.885 466.583L193.483 462.986C194.017 462.451 194.765 462.208 195.447 462.347L199.525 463.179L200.741 457.294C201.025 455.926 200.654 454.577 199.743 453.659L197.087 450.983C196.612 450.504 196.684 449.676 197.246 449.167L197.376 449.048C197.818 448.648 198.459 448.639 198.822 449.027L202.805 453.289C203.598 454.138 203.935 455.339 203.728 456.573L202.514 463.789L207.022 464.709L207.539 464.813C208.477 465.005 209.167 465.72 209.33 466.667L209.386 466.998L210.306 471.506L217.522 470.292C218.755 470.085 219.955 470.423 220.805 471.216L225.067 475.199C225.456 475.561 225.446 476.202 225.047 476.644L224.927 476.775C224.419 477.336 223.59 477.409 223.11 476.934L220.435 474.277C219.517 473.365 218.17 472.996 216.8 473.279L210.915 474.495L211.746 478.574C211.886 479.256 211.643 480.003 211.109 480.537L207.51 484.136C207.485 484.161 207.474 484.196 207.48 484.228L210.464 499.549C210.68 500.658 210.281 501.868 209.415 502.734Z" fill="url(#paint12_linear_3832_17730)" stroke="url(#paint13_linear_3832_17730)" stroke-width="0.0957895" stroke-miterlimit="10"/>
<path d="M195.952 478.239C196.601 478.882 196.877 480.83 196.877 480.83L199.49 492.132L202.823 509.251C202.828 509.276 202.818 509.304 202.799 509.324L197.688 514.434C197.644 514.479 197.572 514.463 197.56 514.408L191.664 486.246C191.632 486.096 191.593 485.949 191.542 485.805C191.37 485.313 191.048 484.402 190.356 483.835C190.356 483.835 189.998 483.27 188.214 482.552C188.073 482.496 187.924 482.46 187.773 482.43L159.613 476.531C159.556 476.52 159.541 476.449 159.587 476.403L164.696 471.294C164.716 471.274 164.744 471.264 164.769 471.269L181.888 474.602L193.19 477.215C193.189 477.217 195.309 477.589 195.952 478.239Z" fill="url(#paint14_linear_3832_17730)" stroke="url(#paint15_linear_3832_17730)" stroke-width="0.0957895" stroke-miterlimit="10"/>
<path d="M183.292 493.543C183.392 493.78 183.467 494.029 183.517 494.287L186.303 508.701C186.313 508.757 186.383 508.772 186.426 508.729L191.542 503.613C191.56 503.596 191.568 503.571 191.563 503.548L188.741 490.049C188.58 489.283 188.329 488.546 187.971 487.871C187.734 487.425 187.247 486.944 187.247 486.944C187.033 486.647 186.596 486.36 186.15 486.123C185.475 485.764 184.739 485.512 183.972 485.352L170.473 482.53C170.45 482.526 170.425 482.534 170.408 482.551L165.292 487.667C165.248 487.71 165.264 487.78 165.32 487.79L180.103 490.578C180.103 490.578 181.637 491.076 182.302 491.797L182.736 492.455C182.911 492.718 183.06 492.999 183.185 493.293L183.292 493.543Z" fill="url(#paint16_linear_3832_17730)" stroke="url(#paint17_linear_3832_17730)" stroke-width="0.0957895" stroke-miterlimit="10"/>
<path d="M164.654 509.537L166.228 500.793C166.232 500.768 166.232 500.743 166.223 500.72L164.86 496.774C164.829 496.683 164.8 496.592 164.774 496.498L163.105 490.403C163.09 490.349 163.143 490.292 163.198 490.304L175.933 492.965C176.997 493.188 178.006 493.571 178.901 494.134C179.162 494.298 179.396 494.467 179.556 494.629C179.556 494.629 179.953 495.1 180.116 495.361C180.679 496.257 180.901 497.019 181.124 498.083L183.785 510.818C183.797 510.873 183.741 510.927 183.686 510.912L177.591 509.242C177.498 509.217 177.406 509.187 177.315 509.156L173.369 507.793C173.346 507.785 173.32 507.784 173.296 507.788L164.654 509.537Z" fill="url(#paint18_linear_3832_17730)" stroke="url(#paint19_linear_3832_17730)" stroke-width="0.0957895" stroke-miterlimit="10"/>
<path d="M208.569 465.302L198.196 475.675C198.173 475.654 198.149 475.634 198.125 475.614C198.125 475.614 197.442 475.101 197.002 474.875C196.473 474.603 195.902 474.413 195.308 474.288L167.466 468.458C167.414 468.446 167.4 468.382 167.441 468.34L171.194 464.587C172.061 463.72 173.27 463.322 174.379 463.538L189.7 466.522C189.732 466.528 189.767 466.517 189.793 466.491L193.39 462.894C193.925 462.359 194.673 462.115 195.355 462.255L199.433 463.087L200.649 457.202C200.933 455.833 200.562 454.485 199.651 453.567L196.995 450.891C196.52 450.411 196.592 449.583 197.154 449.074L197.284 448.955C197.726 448.556 198.367 448.546 198.73 448.934L202.713 453.196C203.506 454.046 203.843 455.247 203.636 456.481L202.422 463.696L206.93 464.616L207.447 464.721C207.884 464.81 208.269 465.014 208.569 465.302Z" fill="#FFCD1C" stroke="url(#paint20_linear_3832_17730)" stroke-width="0.0957895" stroke-miterlimit="10"/>
<path d="M195.791 478.081L190.204 483.668C190.044 483.492 189.522 483.024 188.122 482.459C187.983 482.403 187.833 482.369 187.681 482.337L159.522 476.44C159.464 476.427 159.449 476.356 159.493 476.312L164.604 471.201C164.623 471.181 164.651 471.172 164.677 471.177L181.796 474.512L193.097 477.125C193.097 477.125 195.078 477.472 195.791 478.081Z" fill="#FFCD1C" stroke="url(#paint21_linear_3832_17730)" stroke-width="0.0957895" stroke-miterlimit="10"/>
<path d="M187.095 486.777L182.188 491.683C181.514 490.973 180.012 490.487 180.012 490.487L165.229 487.699C165.173 487.688 165.157 487.619 165.201 487.575L170.316 482.46C170.334 482.442 170.359 482.434 170.382 482.439L183.881 485.261C184.646 485.421 185.382 485.672 186.058 486.03C186.466 486.248 186.867 486.506 187.095 486.777Z" fill="#FFCD1C" stroke="url(#paint22_linear_3832_17730)" stroke-width="0.0957895" stroke-miterlimit="10"/>
<path d="M179.399 494.472L164.592 509.28L166.135 500.701C166.141 500.677 166.139 500.651 166.132 500.629L164.768 496.683C164.738 496.592 164.709 496.5 164.684 496.407L163.014 490.312C162.999 490.257 163.053 490.202 163.108 490.213L175.843 492.874C176.907 493.097 177.916 493.48 178.813 494.043C179.037 494.185 179.242 494.332 179.399 494.472Z" fill="#FFCD1C" stroke="url(#paint23_linear_3832_17730)" stroke-width="0.0957895" stroke-miterlimit="10"/>
</g>
<defs>
<linearGradient id="paint0_linear_3832_17730" x1="177.858" y1="323.833" x2="141.41" y2="360.282" gradientUnits="userSpaceOnUse">
<stop stop-color="#FFE013"/>
<stop offset="0.5058" stop-color="#F29612"/>
<stop offset="0.9899" stop-color="#E64111"/>
</linearGradient>
<linearGradient id="paint1_linear_3832_17730" x1="177.932" y1="323.759" x2="141.336" y2="360.356" gradientUnits="userSpaceOnUse">
<stop stop-color="#FFD14E"/>
<stop offset="0.0064866" stop-color="#FECF53" stop-opacity="0.9935"/>
<stop offset="0.0851" stop-color="#FABF78" stop-opacity="0.9149"/>
<stop offset="0.17" stop-color="#F6AF8E" stop-opacity="0.83"/>
<stop offset="0.2605" stop-color="#F4A09C" stop-opacity="0.7395"/>
<stop offset="0.3581" stop-color="#F293A3" stop-opacity="0.6419"/>
<stop offset="0.4657" stop-color="#F088A7" stop-opacity="0.5343"/>
<stop offset="0.5883" stop-color="#EF81A9" stop-opacity="0.4117"/>
<stop offset="0.7389" stop-color="#EE7CAA" stop-opacity="0.2611"/>
<stop offset="1" stop-color="#EE7AAA" stop-opacity="0"/>
</linearGradient>
<linearGradient id="paint2_linear_3832_17730" x1="154.821" y1="346.87" x2="129.999" y2="371.693" gradientUnits="userSpaceOnUse">
<stop stop-color="#FFE013"/>
<stop offset="0.5058" stop-color="#F29612"/>
<stop offset="0.9899" stop-color="#E64111"/>
</linearGradient>
<linearGradient id="paint3_linear_3832_17730" x1="154.896" y1="346.796" x2="129.925" y2="371.767" gradientUnits="userSpaceOnUse">
<stop stop-color="#FFD14E"/>
<stop offset="0.0064866" stop-color="#FECF53" stop-opacity="0.9935"/>
<stop offset="0.0851" stop-color="#FABF78" stop-opacity="0.9149"/>
<stop offset="0.17" stop-color="#F6AF8E" stop-opacity="0.83"/>
<stop offset="0.2605" stop-color="#F4A09C" stop-opacity="0.7395"/>
<stop offset="0.3581" stop-color="#F293A3" stop-opacity="0.6419"/>
<stop offset="0.4657" stop-color="#F088A7" stop-opacity="0.5343"/>
<stop offset="0.5883" stop-color="#EF81A9" stop-opacity="0.4117"/>
<stop offset="0.7389" stop-color="#EE7CAA" stop-opacity="0.2611"/>
<stop offset="1" stop-color="#EE7AAA" stop-opacity="0"/>
</linearGradient>
<linearGradient id="paint4_linear_3832_17730" x1="142.364" y1="359.327" x2="126.021" y2="375.67" gradientUnits="userSpaceOnUse">
<stop stop-color="#FFE013"/>
<stop offset="0.5058" stop-color="#F29612"/>
<stop offset="0.9899" stop-color="#E64111"/>
</linearGradient>
<linearGradient id="paint5_linear_3832_17730" x1="142.438" y1="359.253" x2="125.947" y2="375.745" gradientUnits="userSpaceOnUse">
<stop stop-color="#FFD14E"/>
<stop offset="0.0064866" stop-color="#FECF53" stop-opacity="0.9935"/>
<stop offset="0.0851" stop-color="#FABF78" stop-opacity="0.9149"/>
<stop offset="0.17" stop-color="#F6AF8E" stop-opacity="0.83"/>
<stop offset="0.2605" stop-color="#F4A09C" stop-opacity="0.7395"/>
<stop offset="0.3581" stop-color="#F293A3" stop-opacity="0.6419"/>
<stop offset="0.4657" stop-color="#F088A7" stop-opacity="0.5343"/>
<stop offset="0.5883" stop-color="#EF81A9" stop-opacity="0.4117"/>
<stop offset="0.7389" stop-color="#EE7CAA" stop-opacity="0.2611"/>
<stop offset="1" stop-color="#EE7AAA" stop-opacity="0"/>
</linearGradient>
<linearGradient id="paint6_linear_3832_17730" x1="131.334" y1="370.358" x2="109.976" y2="391.716" gradientUnits="userSpaceOnUse">
<stop stop-color="#FFE013"/>
<stop offset="0.5058" stop-color="#F29612"/>
<stop offset="0.9899" stop-color="#E64111"/>
</linearGradient>
<linearGradient id="paint7_linear_3832_17730" x1="131.408" y1="370.283" x2="109.853" y2="391.838" gradientUnits="userSpaceOnUse">
<stop stop-color="#FFD14E"/>
<stop offset="0.0064866" stop-color="#FECF53" stop-opacity="0.9935"/>
<stop offset="0.0851" stop-color="#FABF78" stop-opacity="0.9149"/>
<stop offset="0.17" stop-color="#F6AF8E" stop-opacity="0.83"/>
<stop offset="0.2605" stop-color="#F4A09C" stop-opacity="0.7395"/>
<stop offset="0.3581" stop-color="#F293A3" stop-opacity="0.6419"/>
<stop offset="0.4657" stop-color="#F088A7" stop-opacity="0.5343"/>
<stop offset="0.5883" stop-color="#EF81A9" stop-opacity="0.4117"/>
<stop offset="0.7389" stop-color="#EE7CAA" stop-opacity="0.2611"/>
<stop offset="1" stop-color="#EE7AAA" stop-opacity="0"/>
</linearGradient>
<linearGradient id="paint8_linear_3832_17730" x1="125.845" y1="344.864" x2="162.389" y2="308.32" gradientUnits="userSpaceOnUse">
<stop stop-color="#FFD14E"/>
<stop offset="0.0064866" stop-color="#FECF53" stop-opacity="0.9935"/>
<stop offset="0.0851" stop-color="#FABF78" stop-opacity="0.9149"/>
<stop offset="0.17" stop-color="#F6AF8E" stop-opacity="0.83"/>
<stop offset="0.2605" stop-color="#F4A09C" stop-opacity="0.7395"/>
<stop offset="0.3581" stop-color="#F293A3" stop-opacity="0.6419"/>
<stop offset="0.4657" stop-color="#F088A7" stop-opacity="0.5343"/>
<stop offset="0.5883" stop-color="#EF81A9" stop-opacity="0.4117"/>
<stop offset="0.7389" stop-color="#EE7CAA" stop-opacity="0.2611"/>
<stop offset="1" stop-color="#EE7AAA" stop-opacity="0"/>
</linearGradient>
<linearGradient id="paint9_linear_3832_17730" x1="114.443" y1="356.285" x2="139.416" y2="331.311" gradientUnits="userSpaceOnUse">
<stop stop-color="#FFD14E"/>
<stop offset="0.0064866" stop-color="#FECF53" stop-opacity="0.9935"/>
<stop offset="0.0851" stop-color="#FABF78" stop-opacity="0.9149"/>
<stop offset="0.17" stop-color="#F6AF8E" stop-opacity="0.83"/>
<stop offset="0.2605" stop-color="#F4A09C" stop-opacity="0.7395"/>
<stop offset="0.3581" stop-color="#F293A3" stop-opacity="0.6419"/>
<stop offset="0.4657" stop-color="#F088A7" stop-opacity="0.5343"/>
<stop offset="0.5883" stop-color="#EF81A9" stop-opacity="0.4117"/>
<stop offset="0.7389" stop-color="#EE7CAA" stop-opacity="0.2611"/>
<stop offset="1" stop-color="#EE7AAA" stop-opacity="0"/>
</linearGradient>
<linearGradient id="paint10_linear_3832_17730" x1="117.301" y1="367.098" x2="133.792" y2="350.607" gradientUnits="userSpaceOnUse">
<stop stop-color="#FFD14E"/>
<stop offset="0.0064866" stop-color="#FECF53" stop-opacity="0.9935"/>
<stop offset="0.0851" stop-color="#FABF78" stop-opacity="0.9149"/>
<stop offset="0.17" stop-color="#F6AF8E" stop-opacity="0.83"/>
<stop offset="0.2605" stop-color="#F4A09C" stop-opacity="0.7395"/>
<stop offset="0.3581" stop-color="#F293A3" stop-opacity="0.6419"/>
<stop offset="0.4657" stop-color="#F088A7" stop-opacity="0.5343"/>
<stop offset="0.5883" stop-color="#EF81A9" stop-opacity="0.4117"/>
<stop offset="0.7389" stop-color="#EE7CAA" stop-opacity="0.2611"/>
<stop offset="1" stop-color="#EE7AAA" stop-opacity="0"/>
</linearGradient>
<linearGradient id="paint11_linear_3832_17730" x1="101.453" y1="383.346" x2="122.964" y2="361.835" gradientUnits="userSpaceOnUse">
<stop stop-color="#FFD14E"/>
<stop offset="0.0064866" stop-color="#FECF53" stop-opacity="0.9935"/>
<stop offset="0.0851" stop-color="#FABF78" stop-opacity="0.9149"/>
<stop offset="0.17" stop-color="#F6AF8E" stop-opacity="0.83"/>
<stop offset="0.2605" stop-color="#F4A09C" stop-opacity="0.7395"/>
<stop offset="0.3581" stop-color="#F293A3" stop-opacity="0.6419"/>
<stop offset="0.4657" stop-color="#F088A7" stop-opacity="0.5343"/>
<stop offset="0.5883" stop-color="#EF81A9" stop-opacity="0.4117"/>
<stop offset="0.7389" stop-color="#EE7CAA" stop-opacity="0.2611"/>
<stop offset="1" stop-color="#EE7AAA" stop-opacity="0"/>
</linearGradient>
<linearGradient id="paint12_linear_3832_17730" x1="211.963" y1="462.094" x2="186.525" y2="487.532" gradientUnits="userSpaceOnUse">
<stop stop-color="#FFE013"/>
<stop offset="0.5058" stop-color="#F29612"/>
<stop offset="0.9899" stop-color="#E64111"/>
</linearGradient>
<linearGradient id="paint13_linear_3832_17730" x1="212.015" y1="462.042" x2="186.473" y2="487.584" gradientUnits="userSpaceOnUse">
<stop stop-color="#FFD14E"/>
<stop offset="0.0064866" stop-color="#FECF53" stop-opacity="0.9935"/>
<stop offset="0.0851" stop-color="#FABF78" stop-opacity="0.9149"/>
<stop offset="0.17" stop-color="#F6AF8E" stop-opacity="0.83"/>
<stop offset="0.2605" stop-color="#F4A09C" stop-opacity="0.7395"/>
<stop offset="0.3581" stop-color="#F293A3" stop-opacity="0.6419"/>
<stop offset="0.4657" stop-color="#F088A7" stop-opacity="0.5343"/>
<stop offset="0.5883" stop-color="#EF81A9" stop-opacity="0.4117"/>
<stop offset="0.7389" stop-color="#EE7CAA" stop-opacity="0.2611"/>
<stop offset="1" stop-color="#EE7AAA" stop-opacity="0"/>
</linearGradient>
<linearGradient id="paint14_linear_3832_17730" x1="195.885" y1="478.172" x2="178.561" y2="495.496" gradientUnits="userSpaceOnUse">
<stop stop-color="#FFE013"/>
<stop offset="0.5058" stop-color="#F29612"/>
<stop offset="0.9899" stop-color="#E64111"/>
</linearGradient>
<linearGradient id="paint15_linear_3832_17730" x1="195.937" y1="478.12" x2="178.509" y2="495.548" gradientUnits="userSpaceOnUse">
<stop stop-color="#FFD14E"/>
<stop offset="0.0064866" stop-color="#FECF53" stop-opacity="0.9935"/>
<stop offset="0.0851" stop-color="#FABF78" stop-opacity="0.9149"/>
<stop offset="0.17" stop-color="#F6AF8E" stop-opacity="0.83"/>
<stop offset="0.2605" stop-color="#F4A09C" stop-opacity="0.7395"/>
<stop offset="0.3581" stop-color="#F293A3" stop-opacity="0.6419"/>
<stop offset="0.4657" stop-color="#F088A7" stop-opacity="0.5343"/>
<stop offset="0.5883" stop-color="#EF81A9" stop-opacity="0.4117"/>
<stop offset="0.7389" stop-color="#EE7CAA" stop-opacity="0.2611"/>
<stop offset="1" stop-color="#EE7AAA" stop-opacity="0"/>
</linearGradient>
<linearGradient id="paint16_linear_3832_17730" x1="187.191" y1="486.866" x2="175.785" y2="498.272" gradientUnits="userSpaceOnUse">
<stop stop-color="#FFE013"/>
<stop offset="0.5058" stop-color="#F29612"/>
<stop offset="0.9899" stop-color="#E64111"/>
</linearGradient>
<linearGradient id="paint17_linear_3832_17730" x1="187.243" y1="486.814" x2="175.733" y2="498.324" gradientUnits="userSpaceOnUse">
<stop stop-color="#FFD14E"/>
<stop offset="0.0064866" stop-color="#FECF53" stop-opacity="0.9935"/>
<stop offset="0.0851" stop-color="#FABF78" stop-opacity="0.9149"/>
<stop offset="0.17" stop-color="#F6AF8E" stop-opacity="0.83"/>
<stop offset="0.2605" stop-color="#F4A09C" stop-opacity="0.7395"/>
<stop offset="0.3581" stop-color="#F293A3" stop-opacity="0.6419"/>
<stop offset="0.4657" stop-color="#F088A7" stop-opacity="0.5343"/>
<stop offset="0.5883" stop-color="#EF81A9" stop-opacity="0.4117"/>
<stop offset="0.7389" stop-color="#EE7CAA" stop-opacity="0.2611"/>
<stop offset="1" stop-color="#EE7AAA" stop-opacity="0"/>
</linearGradient>
<linearGradient id="paint18_linear_3832_17730" x1="179.493" y1="494.564" x2="164.587" y2="509.47" gradientUnits="userSpaceOnUse">
<stop stop-color="#FFE013"/>
<stop offset="0.5058" stop-color="#F29612"/>
<stop offset="0.9899" stop-color="#E64111"/>
</linearGradient>
<linearGradient id="paint19_linear_3832_17730" x1="179.545" y1="494.512" x2="164.501" y2="509.556" gradientUnits="userSpaceOnUse">
<stop stop-color="#FFD14E"/>
<stop offset="0.0064866" stop-color="#FECF53" stop-opacity="0.9935"/>
<stop offset="0.0851" stop-color="#FABF78" stop-opacity="0.9149"/>
<stop offset="0.17" stop-color="#F6AF8E" stop-opacity="0.83"/>
<stop offset="0.2605" stop-color="#F4A09C" stop-opacity="0.7395"/>
<stop offset="0.3581" stop-color="#F293A3" stop-opacity="0.6419"/>
<stop offset="0.4657" stop-color="#F088A7" stop-opacity="0.5343"/>
<stop offset="0.5883" stop-color="#EF81A9" stop-opacity="0.4117"/>
<stop offset="0.7389" stop-color="#EE7CAA" stop-opacity="0.2611"/>
<stop offset="1" stop-color="#EE7AAA" stop-opacity="0"/>
</linearGradient>
<linearGradient id="paint20_linear_3832_17730" x1="176.858" y1="477.968" x2="202.363" y2="452.463" gradientUnits="userSpaceOnUse">
<stop stop-color="#FFD14E"/>
<stop offset="0.0064866" stop-color="#FECF53" stop-opacity="0.9935"/>
<stop offset="0.0851" stop-color="#FABF78" stop-opacity="0.9149"/>
<stop offset="0.17" stop-color="#F6AF8E" stop-opacity="0.83"/>
<stop offset="0.2605" stop-color="#F4A09C" stop-opacity="0.7395"/>
<stop offset="0.3581" stop-color="#F293A3" stop-opacity="0.6419"/>
<stop offset="0.4657" stop-color="#F088A7" stop-opacity="0.5343"/>
<stop offset="0.5883" stop-color="#EF81A9" stop-opacity="0.4117"/>
<stop offset="0.7389" stop-color="#EE7CAA" stop-opacity="0.2611"/>
<stop offset="1" stop-color="#EE7AAA" stop-opacity="0"/>
</linearGradient>
<linearGradient id="paint21_linear_3832_17730" x1="168.9" y1="485.938" x2="186.329" y2="468.509" gradientUnits="userSpaceOnUse">
<stop stop-color="#FFD14E"/>
<stop offset="0.0064866" stop-color="#FECF53" stop-opacity="0.9935"/>
<stop offset="0.0851" stop-color="#FABF78" stop-opacity="0.9149"/>
<stop offset="0.17" stop-color="#F6AF8E" stop-opacity="0.83"/>
<stop offset="0.2605" stop-color="#F4A09C" stop-opacity="0.7395"/>
<stop offset="0.3581" stop-color="#F293A3" stop-opacity="0.6419"/>
<stop offset="0.4657" stop-color="#F088A7" stop-opacity="0.5343"/>
<stop offset="0.5883" stop-color="#EF81A9" stop-opacity="0.4117"/>
<stop offset="0.7389" stop-color="#EE7CAA" stop-opacity="0.2611"/>
<stop offset="1" stop-color="#EE7AAA" stop-opacity="0"/>
</linearGradient>
<linearGradient id="paint22_linear_3832_17730" x1="170.366" y1="492.957" x2="181.876" y2="481.447" gradientUnits="userSpaceOnUse">
<stop stop-color="#FFD14E"/>
<stop offset="0.0064866" stop-color="#FECF53" stop-opacity="0.9935"/>
<stop offset="0.0851" stop-color="#FABF78" stop-opacity="0.9149"/>
<stop offset="0.17" stop-color="#F6AF8E" stop-opacity="0.83"/>
<stop offset="0.2605" stop-color="#F4A09C" stop-opacity="0.7395"/>
<stop offset="0.3581" stop-color="#F293A3" stop-opacity="0.6419"/>
<stop offset="0.4657" stop-color="#F088A7" stop-opacity="0.5343"/>
<stop offset="0.5883" stop-color="#EF81A9" stop-opacity="0.4117"/>
<stop offset="0.7389" stop-color="#EE7CAA" stop-opacity="0.2611"/>
<stop offset="1" stop-color="#EE7AAA" stop-opacity="0"/>
</linearGradient>
<linearGradient id="paint23_linear_3832_17730" x1="159.291" y1="504.281" x2="174.304" y2="489.268" gradientUnits="userSpaceOnUse">
<stop stop-color="#FFD14E"/>
<stop offset="0.0064866" stop-color="#FECF53" stop-opacity="0.9935"/>
<stop offset="0.0851" stop-color="#FABF78" stop-opacity="0.9149"/>
<stop offset="0.17" stop-color="#F6AF8E" stop-opacity="0.83"/>
<stop offset="0.2605" stop-color="#F4A09C" stop-opacity="0.7395"/>
<stop offset="0.3581" stop-color="#F293A3" stop-opacity="0.6419"/>
<stop offset="0.4657" stop-color="#F088A7" stop-opacity="0.5343"/>
<stop offset="0.5883" stop-color="#EF81A9" stop-opacity="0.4117"/>
<stop offset="0.7389" stop-color="#EE7CAA" stop-opacity="0.2611"/>
<stop offset="1" stop-color="#EE7AAA" stop-opacity="0"/>
</linearGradient>
<clipPath id="clip0_3832_17730">
<rect width="506" height="701" fill="white"/>
</clipPath>
</defs>
</svg>
