<svg width="154" height="360" viewBox="0 0 154 360" fill="none" xmlns="http://www.w3.org/2000/svg">
<path d="M112.311 35.7247C112.93 35.3674 113.693 35.3674 114.311 35.7247L127.339 43.2464C127.958 43.6036 128.339 44.2639 128.339 44.9784V60.0218C128.339 60.7363 127.958 61.3966 127.339 61.7538L114.311 69.2755C113.693 69.6328 112.93 69.6328 112.311 69.2755L99.2834 61.7538C98.6646 61.3966 98.2834 60.7363 98.2834 60.0218V44.9784C98.2834 44.2639 98.6646 43.6036 99.2834 43.2464L112.311 35.7247Z" stroke="#FCBE0A" stroke-width="4" stroke-linejoin="bevel"/>
<path d="M150.013 35.7247C150.632 35.3674 151.394 35.3674 152.013 35.7247L165.041 43.2464C165.66 43.6036 166.041 44.2639 166.041 44.9784V60.0218C166.041 60.7363 165.66 61.3966 165.041 61.7538L152.013 69.2755C151.394 69.6328 150.632 69.6328 150.013 69.2755L136.985 61.7538C136.366 61.3966 135.985 60.7363 135.985 60.0218V44.9784C135.985 44.2639 136.366 43.6036 136.985 43.2464L150.013 35.7247Z" stroke="#FCBE0A" stroke-width="4" stroke-linejoin="bevel"/>
<path d="M151.23 227.887C151.849 227.53 152.611 227.53 153.23 227.887L166.258 235.409C166.877 235.766 167.258 236.426 167.258 237.141V252.184C167.258 252.898 166.877 253.559 166.258 253.916L153.23 261.438C152.611 261.795 151.849 261.795 151.23 261.438L138.202 253.916C137.583 253.559 137.202 252.898 137.202 252.184V237.141C137.202 236.426 137.583 235.766 138.202 235.409L151.23 227.887Z" stroke="#FCBE0A" stroke-width="4" stroke-linejoin="bevel"/>
<path d="M132.581 195.86C133.2 195.502 133.962 195.502 134.581 195.86L147.609 203.381C148.228 203.739 148.609 204.399 148.609 205.113V220.157C148.609 220.871 148.228 221.532 147.609 221.889L134.581 229.411C133.962 229.768 133.2 229.768 132.581 229.411L119.553 221.889C118.934 221.532 118.553 220.871 118.553 220.157V205.113C118.553 204.399 118.934 203.739 119.553 203.381L132.581 195.86Z" stroke="#FCBE0A" stroke-width="4" stroke-linejoin="bevel"/>
<path d="M169.473 195.86C170.092 195.502 170.854 195.502 171.473 195.86L184.501 203.381C185.119 203.739 185.501 204.399 185.501 205.113V220.157C185.501 220.871 185.119 221.532 184.501 221.889L171.473 229.411C170.854 229.768 170.092 229.768 169.473 229.411L156.445 221.889C155.826 221.532 155.445 220.871 155.445 220.157V205.113C155.445 204.399 155.826 203.739 156.445 203.381L169.473 195.86Z" stroke="#FCBE0A" stroke-width="4" stroke-linejoin="bevel"/>
<path d="M151.23 291.941C151.849 291.584 152.611 291.584 153.23 291.941L166.258 299.463C166.877 299.82 167.258 300.48 167.258 301.195V316.238C167.258 316.953 166.877 317.613 166.258 317.97L153.23 325.492C152.611 325.849 151.849 325.849 151.23 325.492L138.202 317.97C137.583 317.613 137.202 316.953 137.202 316.238V301.195C137.202 300.48 137.583 299.82 138.202 299.463L151.23 291.941Z" stroke="#FCBE0A" stroke-width="4" stroke-linejoin="bevel"/>
<path d="M169.473 259.509C170.092 259.151 170.854 259.151 171.473 259.509L184.501 267.03C185.119 267.388 185.501 268.048 185.501 268.762V283.806C185.501 284.52 185.119 285.181 184.501 285.538L171.473 293.059C170.854 293.417 170.092 293.417 169.473 293.059L156.445 285.538C155.826 285.181 155.445 284.52 155.445 283.806V268.762C155.445 268.048 155.826 267.388 156.445 267.03L169.473 259.509Z" stroke="#FCBE0A" stroke-width="4" stroke-linejoin="bevel"/>
<path d="M37.7166 100.59C38.3354 100.233 39.0978 100.233 39.7166 100.59L52.7446 108.111C53.3634 108.469 53.7446 109.129 53.7446 109.844V124.887C53.7446 125.601 53.3634 126.262 52.7446 126.619L39.7166 134.141C39.0978 134.498 38.3354 134.498 37.7166 134.141L24.6887 126.619C24.0699 126.262 23.6887 125.601 23.6887 124.887V109.844C23.6887 109.129 24.0699 108.469 24.6887 108.111L37.7166 100.59Z" stroke="#FCBE0A" stroke-width="4" stroke-linejoin="bevel"/>
<path d="M76.2296 100.59C76.8484 100.233 77.6108 100.233 78.2296 100.59L91.2575 108.111C91.8763 108.469 92.2575 109.129 92.2575 109.844V124.887C92.2575 125.601 91.8763 126.262 91.2575 126.619L78.2296 134.141C77.6108 134.498 76.8484 134.498 76.2296 134.141L63.2016 126.619C62.5828 126.262 62.2016 125.601 62.2016 124.887V109.844C62.2016 109.129 62.5828 108.469 63.2016 108.111L76.2296 100.59Z" stroke="#FCBE0A" stroke-width="4" stroke-linejoin="bevel"/>
<path d="M114.338 100.59C114.957 100.233 115.72 100.233 116.338 100.59L129.366 108.111C129.985 108.469 130.366 109.129 130.366 109.844V124.887C130.366 125.601 129.985 126.262 129.366 126.619L116.338 134.141C115.72 134.498 114.957 134.498 114.338 134.141L101.311 126.619C100.692 126.262 100.311 125.601 100.311 124.887V109.844C100.311 109.129 100.692 108.469 101.311 108.111L114.338 100.59Z" stroke="#FCBE0A" stroke-width="4" stroke-linejoin="bevel"/>
<path d="M150.825 100.59C151.443 100.233 152.206 100.233 152.825 100.59L165.852 108.111C166.471 108.469 166.852 109.129 166.852 109.844V124.887C166.852 125.601 166.471 126.262 165.852 126.619L152.825 134.141C152.206 134.498 151.443 134.498 150.825 134.141L137.797 126.619C137.178 126.262 136.797 125.601 136.797 124.887V109.844C136.797 109.129 137.178 108.469 137.797 108.111L150.825 100.59Z" stroke="#FCBE0A" stroke-width="4" stroke-linejoin="bevel"/>
<path d="M18.6622 68.5622C19.281 68.2049 20.0434 68.2049 20.6622 68.5622L33.6901 76.0838C34.3089 76.4411 34.6901 77.1014 34.6901 77.8159V92.8593C34.6901 93.5738 34.3089 94.2341 33.6901 94.5913L20.6622 102.113C20.0434 102.47 19.281 102.47 18.6622 102.113L5.63423 94.5913C5.01543 94.2341 4.63423 93.5738 4.63423 92.8593V77.8159C4.63423 77.1014 5.01543 76.4411 5.63423 76.0838L18.6622 68.5622Z" stroke="#FCBE0A" stroke-width="4" stroke-linejoin="bevel"/>
<path d="M56.7698 68.5622C57.3886 68.2049 58.151 68.2049 58.7698 68.5622L71.7978 76.0838C72.4166 76.4411 72.7978 77.1014 72.7978 77.8159V92.8593C72.7978 93.5738 72.4166 94.2341 71.7978 94.5913L58.7698 102.113C58.151 102.47 57.3886 102.47 56.7698 102.113L43.7419 94.5913C43.1231 94.2341 42.7419 93.5738 42.7419 92.8593V77.8159C42.7419 77.1014 43.1231 76.4411 43.7419 76.0838L56.7698 68.5622Z" stroke="#FCBE0A" stroke-width="4" stroke-linejoin="bevel"/>
<path d="M94.4722 68.5622C95.091 68.2049 95.8534 68.2049 96.4722 68.5622L109.5 76.0838C110.119 76.4411 110.5 77.1014 110.5 77.8159V92.8593C110.5 93.5738 110.119 94.2341 109.5 94.5913L96.4722 102.113C95.8534 102.47 95.091 102.47 94.4722 102.113L81.4443 94.5913C80.8255 94.2341 80.4443 93.5738 80.4443 92.8593V77.8159C80.4443 77.1014 80.8255 76.4411 81.4443 76.0838L94.4722 68.5622Z" stroke="#FCBE0A" stroke-width="4" stroke-linejoin="bevel"/>
<path d="M131.77 68.5622C132.389 68.2049 133.152 68.2049 133.77 68.5622L146.798 76.0838C147.417 76.4411 147.798 77.1014 147.798 77.8159V92.8593C147.798 93.5738 147.417 94.2341 146.798 94.5913L133.77 102.113C133.152 102.47 132.389 102.47 131.77 102.113L118.742 94.5913C118.124 94.2341 117.742 93.5738 117.742 92.8593V77.8159C117.742 77.1014 118.124 76.4411 118.742 76.0838L131.77 68.5622Z" stroke="#FCBE0A" stroke-width="4" stroke-linejoin="bevel"/>
<path d="M169.473 68.5622C170.092 68.2049 170.854 68.2049 171.473 68.5622L184.501 76.0838C185.119 76.4411 185.501 77.1014 185.501 77.8159V92.8593C185.501 93.5738 185.119 94.2341 184.501 94.5913L171.473 102.113C170.854 102.47 170.092 102.47 169.473 102.113L156.445 94.5913C155.826 94.2341 155.445 93.5738 155.445 92.8593V77.8159C155.445 77.1014 155.826 76.4411 156.445 76.0838L169.473 68.5622Z" stroke="#FCBE0A" stroke-width="4" stroke-linejoin="bevel"/>
<path d="M37.7166 35.7247C38.3354 35.3674 39.0978 35.3674 39.7166 35.7247L52.7446 43.2464C53.3634 43.6036 53.7446 44.2639 53.7446 44.9784V60.0218C53.7446 60.7363 53.3634 61.3966 52.7446 61.7538L39.7166 69.2755C39.0978 69.6328 38.3354 69.6328 37.7166 69.2755L24.6887 61.7538C24.0699 61.3966 23.6887 60.7363 23.6887 60.0218V44.9784C23.6887 44.2639 24.0699 43.6036 24.6887 43.2464L37.7166 35.7247Z" stroke="#FCBE0A" stroke-width="4" stroke-linejoin="bevel"/>
<path d="M75.0128 35.7247C75.6316 35.3674 76.394 35.3674 77.0128 35.7247L90.0407 43.2464C90.6595 43.6036 91.0407 44.2639 91.0407 44.9784V60.0218C91.0407 60.7363 90.6595 61.3966 90.0407 61.7538L77.0128 69.2755C76.394 69.6328 75.6316 69.6328 75.0128 69.2755L61.9848 61.7538C61.366 61.3966 60.9848 60.7363 60.9848 60.0218V44.9784C60.9848 44.2639 61.366 43.6036 61.9848 43.2464L75.0128 35.7247Z" stroke="#FCBE0A" stroke-width="4" stroke-linejoin="bevel"/>
<path d="M18.6622 2.88675C19.281 2.52949 20.0434 2.52949 20.6622 2.88675L33.6901 10.4084C34.3089 10.7657 34.6901 11.426 34.6901 12.1405V27.1839C34.6901 27.8984 34.3089 28.5587 33.6901 28.9159L20.6622 36.4376C20.0434 36.7949 19.281 36.7949 18.6622 36.4376L5.63423 28.9159C5.01543 28.5587 4.63423 27.8984 4.63423 27.1839V12.1405C4.63423 11.426 5.01543 10.7657 5.63423 10.4084L18.6622 2.88675Z" stroke="#FCBE0A" stroke-width="4" stroke-linejoin="bevel"/>
<path d="M92.8516 2.88675C93.4704 2.52949 94.2328 2.52949 94.8516 2.88675L107.88 10.4084C108.498 10.7657 108.88 11.426 108.88 12.1405V27.1839C108.88 27.8984 108.498 28.5587 107.88 28.9159L94.8516 36.4376C94.2328 36.7949 93.4704 36.7949 92.8516 36.4376L79.8237 28.9159C79.2049 28.5587 78.8237 27.8984 78.8237 27.1839V12.1405C78.8237 11.426 79.2049 10.7657 79.8237 10.4084L92.8516 2.88675Z" stroke="#FCBE0A" stroke-width="4" stroke-linejoin="bevel"/>
<path d="M55.96 2.88675C56.5788 2.52949 57.3412 2.52949 57.96 2.88675L70.988 10.4084C71.6068 10.7657 71.988 11.426 71.988 12.1405V27.1839C71.988 27.8984 71.6068 28.5587 70.988 28.9159L57.96 36.4376C57.3412 36.7949 56.5788 36.7949 55.96 36.4376L42.9321 28.9159C42.3133 28.5587 41.9321 27.8984 41.9321 27.1839V12.1405C41.9321 11.426 42.3133 10.7657 42.9321 10.4084L55.96 2.88675Z" stroke="#FCBE0A" stroke-width="4" stroke-linejoin="bevel"/>
<path d="M167.852 2.88675C168.471 2.52949 169.233 2.52949 169.852 2.88675L182.88 10.4084C183.499 10.7657 183.88 11.426 183.88 12.1405V27.1839C183.88 27.8984 183.499 28.5587 182.88 28.9159L169.852 36.4376C169.233 36.7949 168.471 36.7949 167.852 36.4376L154.824 28.9159C154.205 28.5587 153.824 27.8984 153.824 27.1839V12.1405C153.824 11.426 154.205 10.7657 154.824 10.4084L167.852 2.88675Z" stroke="#FCBE0A" stroke-width="4" stroke-linejoin="bevel"/>
<path d="M130.554 2.88675C131.173 2.52949 131.935 2.52949 132.554 2.88675L145.582 10.4084C146.201 10.7657 146.582 11.426 146.582 12.1405V27.1839C146.582 27.8984 146.201 28.5587 145.582 28.9159L132.554 36.4376C131.935 36.7949 131.173 36.7949 130.554 36.4376L117.526 28.9159C116.908 28.5587 116.526 27.8984 116.526 27.1839V12.1405C116.526 11.426 116.908 10.7657 117.526 10.4084L130.554 2.88675Z" stroke="#FCBE0A" stroke-width="4" stroke-linejoin="bevel"/>
<path d="M151.23 164.238C151.849 163.881 152.611 163.881 153.23 164.238L166.258 171.76C166.877 172.117 167.258 172.778 167.258 173.492V188.535C167.258 189.25 166.877 189.91 166.258 190.267L153.23 197.789C152.611 198.146 151.849 198.146 151.23 197.789L138.202 190.267C137.583 189.91 137.202 189.25 137.202 188.535V173.492C137.202 172.778 137.583 172.117 138.202 171.76L151.23 164.238Z" stroke="#FCBE0A" stroke-width="4" stroke-linejoin="bevel"/>
<path d="M132.581 133.022C133.2 132.665 133.962 132.665 134.581 133.022L147.609 140.544C148.228 140.901 148.609 141.561 148.609 142.276V157.319C148.609 158.034 148.228 158.694 147.609 159.051L134.581 166.573C133.962 166.93 133.2 166.93 132.581 166.573L119.553 159.051C118.934 158.694 118.553 158.034 118.553 157.319V142.276C118.553 141.561 118.934 140.901 119.553 140.544L132.581 133.022Z" stroke="#FCBE0A" stroke-width="4" stroke-linejoin="bevel"/>
<path d="M169.878 133.022C170.497 132.665 171.259 132.665 171.878 133.022L184.906 140.544C185.525 140.901 185.906 141.561 185.906 142.276V157.319C185.906 158.034 185.525 158.694 184.906 159.051L171.878 166.573C171.259 166.93 170.497 166.93 169.878 166.573L156.85 159.051C156.231 158.694 155.85 158.034 155.85 157.319V142.276C155.85 141.561 156.231 140.901 156.85 140.544L169.878 133.022Z" stroke="#FCBE0A" stroke-width="4" stroke-linejoin="bevel"/>
<path d="M169.473 323.563C170.092 323.205 170.854 323.205 171.473 323.563L184.501 331.084C185.119 331.441 185.501 332.102 185.501 332.816V347.86C185.501 348.574 185.119 349.234 184.501 349.592L171.473 357.113C170.854 357.471 170.092 357.471 169.473 357.113L156.445 349.592C155.826 349.234 155.445 348.574 155.445 347.86V332.816C155.445 332.102 155.826 331.441 156.445 331.084L169.473 323.563Z" stroke="#FCBE0A" stroke-width="4" stroke-linejoin="bevel"/>
<path d="M97.5113 199.287L94.598 202.2C94.5666 202.231 94.5127 202.218 94.502 202.175L88.7013 179.291C88.578 178.803 88.4004 178.331 88.1597 177.891C87.9603 177.524 87.6944 177.131 87.373 176.863C87.373 176.863 86.7975 176.419 86.4308 176.218C85.9906 175.977 85.5178 175.801 85.0302 175.677L62.1458 169.877C62.1038 169.865 62.0893 169.812 62.1215 169.78L65.0341 166.867C65.7073 166.194 66.6758 165.916 67.5871 166.134L80.1708 169.142C80.1977 169.149 80.2257 169.141 80.2458 169.121L83.0377 166.329C83.4527 165.914 84.0518 165.744 84.6125 165.883L87.9637 166.715L88.7308 161.971C88.9095 160.868 88.5571 159.756 87.7803 158.974L85.5175 156.695C85.1126 156.287 85.1393 155.616 85.578 155.223L85.6792 155.131C86.0239 154.822 86.5453 154.839 86.8557 155.168L90.2588 158.789C90.9368 159.51 91.2564 160.501 91.1346 161.497L90.4196 167.324L94.1236 168.244L94.5487 168.349C95.3194 168.54 95.9082 169.148 96.0767 169.925L96.1348 170.197L97.0542 173.901L102.882 173.186C103.878 173.064 104.868 173.385 105.589 174.063L109.209 177.466C109.54 177.775 109.556 178.297 109.248 178.642L109.155 178.744C108.763 179.181 108.091 179.209 107.682 178.804L105.404 176.54C104.623 175.764 103.512 175.412 102.408 175.59L97.6633 176.357L98.4945 179.709C98.6337 180.27 98.4646 180.868 98.0496 181.283L95.2569 184.076C95.2376 184.095 95.2293 184.124 95.2362 184.15L98.2449 196.734C98.4628 197.645 98.1838 198.614 97.5113 199.287Z" fill="url(#paint0_linear_3521_16051)" stroke="url(#paint1_linear_3521_16051)" stroke-width="0.0957895" stroke-miterlimit="10"/>
<path d="M85.6254 178.838C86.1783 179.386 86.4766 180.983 86.4766 180.983L89.0312 190.281L92.3929 204.342C92.3974 204.363 92.3908 204.385 92.3755 204.4L88.4093 208.366C88.3747 208.401 88.316 208.386 88.3038 208.34L82.4384 185.194C82.4064 185.07 82.3688 184.949 82.3225 184.83C82.1633 184.423 81.8665 183.669 81.2819 183.181C81.2819 183.181 80.9692 182.708 79.4904 182.056C79.3732 182.005 79.2504 181.97 79.1267 181.94L55.9815 176.072C55.9347 176.061 55.9194 176.002 55.9548 175.967L59.9203 172.001C59.9356 171.986 59.9579 171.979 59.9785 171.984L74.0397 175.346L83.3379 177.9C83.3379 177.902 85.0774 178.285 85.6254 178.838Z" fill="url(#paint2_linear_3521_16051)" stroke="url(#paint3_linear_3521_16051)" stroke-width="0.0957895" stroke-miterlimit="10"/>
<path d="M75.8992 190.816C75.99 191.013 76.06 191.218 76.1109 191.43L78.9245 203.268C78.9351 203.314 78.9922 203.33 79.0259 203.296L82.9962 199.326C83.0099 199.312 83.0157 199.292 83.0111 199.273L80.2026 188.178C80.0428 187.548 79.8103 186.94 79.4931 186.376C79.2834 186.004 78.8689 185.594 78.8689 185.594C78.6833 185.344 78.3172 185.094 77.945 184.884C77.3816 184.567 76.7735 184.334 76.1431 184.175L65.0482 181.366C65.0292 181.362 65.0092 181.368 64.9956 181.381L61.0253 185.351C60.9915 185.385 61.0068 185.442 61.0528 185.453L73.1916 188.282C73.1916 188.282 74.4587 188.745 75.0275 189.357L75.4061 189.91C75.5578 190.13 75.6904 190.364 75.8029 190.609L75.8992 190.816Z" fill="url(#paint4_linear_3521_16051)" stroke="url(#paint5_linear_3521_16051)" stroke-width="0.0957895" stroke-miterlimit="10"/>
<path d="M61.3343 203.129L62.2844 196.071C62.287 196.051 62.2857 196.031 62.2779 196.012L61.0187 192.748C60.9902 192.673 60.9632 192.598 60.9386 192.52L59.3487 187.495C59.3349 187.451 59.376 187.407 59.4212 187.418L69.8881 190.067C70.7627 190.288 71.5985 190.638 72.3483 191.131C72.567 191.274 72.7633 191.42 72.9001 191.559C72.9001 191.559 73.2408 191.957 73.3838 192.176C73.8755 192.927 74.0854 193.555 74.3069 194.429L76.9555 204.896C76.967 204.942 76.9235 204.983 76.8784 204.969L71.8539 203.379C71.777 203.355 71.701 203.327 71.6258 203.299L68.3622 202.04C68.3432 202.032 68.3225 202.031 68.3026 202.033L61.3343 203.129Z" fill="url(#paint6_linear_3521_16051)" stroke="url(#paint7_linear_3521_16051)" stroke-width="0.0957895" stroke-miterlimit="10"/>
<path d="M95.4059 168.786L87.3551 176.836C87.3354 176.818 87.315 176.801 87.2945 176.784C87.2945 176.784 86.719 176.34 86.3523 176.139C85.9121 175.899 85.4394 175.722 84.9517 175.598L62.0674 169.798C62.0253 169.786 62.0108 169.733 62.043 169.701L64.9556 166.788C65.6288 166.115 66.5974 165.837 67.5086 166.055L80.0923 169.064C80.1192 169.07 80.1472 169.062 80.1673 169.042L82.9592 166.25C83.3742 165.835 83.9733 165.665 84.534 165.805L87.8852 166.636L88.6523 161.892C88.831 160.789 88.4786 159.677 87.7018 158.895L85.439 156.617C85.0341 156.208 85.0608 155.537 85.4995 155.144L85.6007 155.052C85.9454 154.744 86.4668 154.76 86.7772 155.09L90.1803 158.71C90.8584 159.431 91.1779 160.422 91.0561 161.418L90.3411 167.246L94.0451 168.165L94.4702 168.27C94.8294 168.359 95.1502 168.54 95.4059 168.786Z" fill="#FFCD1C" stroke="url(#paint8_linear_3521_16051)" stroke-width="0.0957895" stroke-miterlimit="10"/>
<path d="M85.488 178.703L81.1517 183.04C81.015 182.89 80.5727 182.49 79.4119 181.977C79.2964 181.926 79.1727 181.892 79.0482 181.861L55.9038 175.994C55.8562 175.982 55.841 175.923 55.8756 175.889L59.8418 171.922C59.8571 171.907 59.8794 171.901 59.9008 171.906L73.9612 175.268L83.2594 177.823C83.2594 177.823 84.8847 178.181 85.488 178.703Z" fill="#FFCD1C" stroke="url(#paint9_linear_3521_16051)" stroke-width="0.0957895" stroke-miterlimit="10"/>
<path d="M78.7389 185.453L74.9311 189.26C74.355 188.657 73.114 188.204 73.114 188.204L60.9752 185.375C60.9292 185.364 60.914 185.307 60.9478 185.274L64.918 181.303C64.9317 181.29 64.9517 181.284 64.9707 181.288L76.0656 184.097C76.6944 184.256 77.3033 184.488 77.8667 184.806C78.2072 184.998 78.5434 185.223 78.7389 185.453Z" fill="#FFCD1C" stroke="url(#paint10_linear_3521_16051)" stroke-width="0.0957895" stroke-miterlimit="10"/>
<path d="M72.7664 191.425L61.2739 202.918L62.2057 195.993C62.2091 195.973 62.207 195.952 62.2 195.934L60.9409 192.67C60.9123 192.595 60.8853 192.52 60.8615 192.443L59.2716 187.418C59.257 187.373 59.2989 187.33 59.3441 187.341L69.811 189.99C70.6856 190.211 71.5214 190.561 72.2728 191.054C72.4607 191.177 72.6334 191.305 72.7664 191.425Z" fill="#FFCD1C" stroke="url(#paint11_linear_3521_16051)" stroke-width="0.0957895" stroke-miterlimit="10"/>
<path d="M116.094 263.816L114.077 265.833C114.055 265.855 114.019 265.847 114.013 265.818L110.572 250.551C110.499 250.225 110.39 249.912 110.237 249.621C110.11 249.378 109.939 249.119 109.728 248.945C109.728 248.945 109.35 248.659 109.108 248.531C108.817 248.378 108.502 248.269 108.177 248.195L92.9098 244.755C92.8818 244.748 92.8731 244.713 92.8953 244.691L94.9117 242.674C95.3778 242.208 96.0345 242.002 96.6427 242.13L105.042 243.9C105.06 243.903 105.079 243.898 105.092 243.884L107.025 241.951C107.313 241.664 107.719 241.538 108.093 241.62L110.329 242.112L110.94 238.907C111.082 238.162 110.868 237.422 110.361 236.912L108.886 235.425C108.622 235.159 108.653 234.707 108.956 234.434L109.026 234.37C109.264 234.156 109.614 234.157 109.816 234.372L112.031 236.737C112.472 237.209 112.667 237.868 112.565 238.54L111.968 242.472L114.439 243.016L114.723 243.078C115.237 243.191 115.621 243.588 115.718 244.107L115.752 244.289L116.296 246.76L120.228 246.162C120.9 246.061 121.559 246.256 122.03 246.697L124.395 248.912C124.611 249.114 124.612 249.464 124.398 249.702L124.333 249.773C124.061 250.075 123.608 250.107 123.342 249.843L121.856 248.367C121.346 247.86 120.607 247.646 119.861 247.788L116.656 248.399L117.147 250.635C117.23 251.01 117.104 251.415 116.817 251.703L114.883 253.636C114.87 253.649 114.864 253.669 114.868 253.686L116.638 262.085C116.766 262.693 116.559 263.351 116.094 263.816Z" fill="url(#paint12_linear_3521_16051)" stroke="url(#paint13_linear_3521_16051)" stroke-width="0.0957895" stroke-miterlimit="10"/>
<path d="M108.514 250.308C108.874 250.665 109.043 251.733 109.043 251.733L110.574 257.932L112.551 267.317C112.554 267.331 112.549 267.346 112.539 267.356L109.793 270.102C109.769 270.126 109.73 270.117 109.722 270.087L106.244 254.645C106.225 254.562 106.202 254.481 106.173 254.402C106.074 254.132 105.89 253.631 105.507 253.315C105.507 253.315 105.306 253.003 104.325 252.594C104.247 252.562 104.165 252.542 104.083 252.524L88.6414 249.044C88.6102 249.037 88.6012 248.998 88.6257 248.973L91.371 246.228C91.3815 246.217 91.3967 246.212 91.4105 246.215L100.795 248.193L106.995 249.723C106.995 249.724 108.157 249.947 108.514 250.308Z" fill="url(#paint14_linear_3521_16051)" stroke="url(#paint15_linear_3521_16051)" stroke-width="0.0957895" stroke-miterlimit="10"/>
<path d="M101.735 258.556C101.792 258.686 101.835 258.823 101.865 258.964L103.519 266.866C103.525 266.896 103.563 266.906 103.587 266.882L106.335 264.134C106.345 264.124 106.349 264.111 106.346 264.098L104.681 256.696C104.586 256.276 104.442 255.871 104.24 255.499C104.107 255.253 103.836 254.986 103.836 254.986C103.717 254.821 103.475 254.66 103.229 254.527C102.857 254.325 102.453 254.18 102.032 254.086L94.6303 252.421C94.6176 252.418 94.6041 252.422 94.5946 252.432L91.846 255.18C91.8226 255.204 91.8317 255.242 91.8624 255.248L99.9658 256.906C99.9658 256.906 100.808 257.192 101.178 257.592L101.422 257.956C101.519 258.101 101.604 258.256 101.675 258.418L101.735 258.556Z" fill="url(#paint16_linear_3521_16051)" stroke="url(#paint17_linear_3521_16051)" stroke-width="0.0957895" stroke-miterlimit="10"/>
<path d="M91.6969 267.125L92.4772 262.361C92.4793 262.348 92.4788 262.334 92.474 262.322L91.693 260.153C91.6753 260.103 91.6587 260.053 91.6437 260.001L90.6758 256.655C90.6674 256.626 90.6959 256.595 90.726 256.602L97.7092 258.173C98.2927 258.304 98.8475 258.522 99.3417 258.838C99.4858 258.93 99.6149 259.025 99.7041 259.115C99.7041 259.115 99.925 259.376 100.017 259.52C100.332 260.015 100.461 260.433 100.592 261.017L102.163 268C102.169 268.03 102.139 268.059 102.109 268.05L98.7635 267.082C98.7123 267.068 98.6618 267.05 98.6118 267.033L96.4431 266.252C96.4305 266.247 96.4167 266.246 96.4032 266.249L91.6969 267.125Z" fill="url(#paint18_linear_3521_16051)" stroke="url(#paint19_linear_3521_16051)" stroke-width="0.0957895" stroke-miterlimit="10"/>
<path d="M115.29 243.355L109.717 248.928C109.704 248.916 109.69 248.905 109.677 248.894C109.677 248.894 109.299 248.607 109.057 248.48C108.765 248.327 108.451 248.217 108.126 248.144L92.8585 244.704C92.8305 244.697 92.8218 244.662 92.8441 244.639L94.8604 242.623C95.3265 242.157 95.9832 241.95 96.5914 242.079L104.99 243.849C105.008 243.852 105.027 243.847 105.041 243.833L106.974 241.9C107.261 241.612 107.668 241.486 108.042 241.569L110.278 242.061L110.889 238.856C111.031 238.111 110.816 237.37 110.31 236.86L108.834 235.374C108.57 235.108 108.602 234.656 108.905 234.383L108.974 234.319C109.212 234.105 109.563 234.105 109.765 234.321L111.98 236.686C112.421 237.157 112.616 237.817 112.514 238.489L111.916 242.421L114.388 242.965L114.672 243.027C114.911 243.079 115.123 243.194 115.29 243.355Z" fill="#FFCD1C" stroke="url(#paint20_linear_3521_16051)" stroke-width="0.0957895" stroke-miterlimit="10"/>
<path d="M108.424 250.22L105.422 253.222C105.333 253.125 105.044 252.864 104.274 252.543C104.197 252.511 104.115 252.491 104.031 252.472L88.5906 248.993C88.5588 248.985 88.5498 248.946 88.5737 248.922L91.3196 246.177C91.3302 246.166 91.3453 246.161 91.3596 246.164L100.744 248.142L106.943 249.673C106.943 249.673 108.029 249.881 108.424 250.22Z" fill="#FFCD1C" stroke="url(#paint21_linear_3521_16051)" stroke-width="0.0957895" stroke-miterlimit="10"/>
<path d="M103.752 254.893L101.116 257.529C100.74 257.135 99.9153 256.856 99.9153 256.856L91.8119 255.197C91.7812 255.191 91.7721 255.153 91.7955 255.13L94.5441 252.381C94.5536 252.372 94.5671 252.367 94.5798 252.37L101.982 254.035C102.401 254.13 102.806 254.274 103.178 254.476C103.404 254.598 103.625 254.743 103.752 254.893Z" fill="#FFCD1C" stroke="url(#paint22_linear_3521_16051)" stroke-width="0.0957895" stroke-miterlimit="10"/>
<path d="M99.617 259.028L91.6607 266.984L92.4261 262.31C92.4287 262.297 92.4277 262.283 92.4234 262.271L91.6424 260.102C91.6247 260.052 91.6081 260.002 91.5937 259.951L90.6257 256.605C90.6168 256.575 90.6458 256.545 90.6759 256.552L97.6591 258.122C98.2426 258.254 98.7974 258.472 99.2927 258.788C99.4165 258.867 99.53 258.95 99.617 259.028Z" fill="#FFCD1C" stroke="url(#paint23_linear_3521_16051)" stroke-width="0.0957895" stroke-miterlimit="10"/>
<defs>
<linearGradient id="paint0_linear_3521_16051" x1="98.0467" y1="166.303" x2="78.3039" y2="186.046" gradientUnits="userSpaceOnUse">
<stop stop-color="#FFE013"/>
<stop offset="0.5058" stop-color="#F29612"/>
<stop offset="0.9899" stop-color="#E64111"/>
</linearGradient>
<linearGradient id="paint1_linear_3521_16051" x1="98.0869" y1="166.263" x2="78.2637" y2="186.086" gradientUnits="userSpaceOnUse">
<stop stop-color="#FFD14E"/>
<stop offset="0.0064866" stop-color="#FECF53" stop-opacity="0.9935"/>
<stop offset="0.0851" stop-color="#FABF78" stop-opacity="0.9149"/>
<stop offset="0.17" stop-color="#F6AF8E" stop-opacity="0.83"/>
<stop offset="0.2605" stop-color="#F4A09C" stop-opacity="0.7395"/>
<stop offset="0.3581" stop-color="#F293A3" stop-opacity="0.6419"/>
<stop offset="0.4657" stop-color="#F088A7" stop-opacity="0.5343"/>
<stop offset="0.5883" stop-color="#EF81A9" stop-opacity="0.4117"/>
<stop offset="0.7389" stop-color="#EE7CAA" stop-opacity="0.2611"/>
<stop offset="1" stop-color="#EE7AAA" stop-opacity="0"/>
</linearGradient>
<linearGradient id="paint2_linear_3521_16051" x1="85.5682" y1="178.781" x2="72.1227" y2="192.227" gradientUnits="userSpaceOnUse">
<stop stop-color="#FFE013"/>
<stop offset="0.5058" stop-color="#F29612"/>
<stop offset="0.9899" stop-color="#E64111"/>
</linearGradient>
<linearGradient id="paint3_linear_3521_16051" x1="85.6085" y1="178.741" x2="72.0825" y2="192.267" gradientUnits="userSpaceOnUse">
<stop stop-color="#FFD14E"/>
<stop offset="0.0064866" stop-color="#FECF53" stop-opacity="0.9935"/>
<stop offset="0.0851" stop-color="#FABF78" stop-opacity="0.9149"/>
<stop offset="0.17" stop-color="#F6AF8E" stop-opacity="0.83"/>
<stop offset="0.2605" stop-color="#F4A09C" stop-opacity="0.7395"/>
<stop offset="0.3581" stop-color="#F293A3" stop-opacity="0.6419"/>
<stop offset="0.4657" stop-color="#F088A7" stop-opacity="0.5343"/>
<stop offset="0.5883" stop-color="#EF81A9" stop-opacity="0.4117"/>
<stop offset="0.7389" stop-color="#EE7CAA" stop-opacity="0.2611"/>
<stop offset="1" stop-color="#EE7AAA" stop-opacity="0"/>
</linearGradient>
<linearGradient id="paint4_linear_3521_16051" x1="78.8206" y1="185.528" x2="69.968" y2="194.381" gradientUnits="userSpaceOnUse">
<stop stop-color="#FFE013"/>
<stop offset="0.5058" stop-color="#F29612"/>
<stop offset="0.9899" stop-color="#E64111"/>
</linearGradient>
<linearGradient id="paint5_linear_3521_16051" x1="78.8608" y1="185.488" x2="69.9278" y2="194.421" gradientUnits="userSpaceOnUse">
<stop stop-color="#FFD14E"/>
<stop offset="0.0064866" stop-color="#FECF53" stop-opacity="0.9935"/>
<stop offset="0.0851" stop-color="#FABF78" stop-opacity="0.9149"/>
<stop offset="0.17" stop-color="#F6AF8E" stop-opacity="0.83"/>
<stop offset="0.2605" stop-color="#F4A09C" stop-opacity="0.7395"/>
<stop offset="0.3581" stop-color="#F293A3" stop-opacity="0.6419"/>
<stop offset="0.4657" stop-color="#F088A7" stop-opacity="0.5343"/>
<stop offset="0.5883" stop-color="#EF81A9" stop-opacity="0.4117"/>
<stop offset="0.7389" stop-color="#EE7CAA" stop-opacity="0.2611"/>
<stop offset="1" stop-color="#EE7AAA" stop-opacity="0"/>
</linearGradient>
<linearGradient id="paint6_linear_3521_16051" x1="72.8461" y1="191.503" x2="61.2771" y2="203.072" gradientUnits="userSpaceOnUse">
<stop stop-color="#FFE013"/>
<stop offset="0.5058" stop-color="#F29612"/>
<stop offset="0.9899" stop-color="#E64111"/>
</linearGradient>
<linearGradient id="paint7_linear_3521_16051" x1="72.8863" y1="191.463" x2="61.2108" y2="203.139" gradientUnits="userSpaceOnUse">
<stop stop-color="#FFD14E"/>
<stop offset="0.0064866" stop-color="#FECF53" stop-opacity="0.9935"/>
<stop offset="0.0851" stop-color="#FABF78" stop-opacity="0.9149"/>
<stop offset="0.17" stop-color="#F6AF8E" stop-opacity="0.83"/>
<stop offset="0.2605" stop-color="#F4A09C" stop-opacity="0.7395"/>
<stop offset="0.3581" stop-color="#F293A3" stop-opacity="0.6419"/>
<stop offset="0.4657" stop-color="#F088A7" stop-opacity="0.5343"/>
<stop offset="0.5883" stop-color="#EF81A9" stop-opacity="0.4117"/>
<stop offset="0.7389" stop-color="#EE7CAA" stop-opacity="0.2611"/>
<stop offset="1" stop-color="#EE7AAA" stop-opacity="0"/>
</linearGradient>
<linearGradient id="paint8_linear_3521_16051" x1="70.0729" y1="177.895" x2="89.8679" y2="158.1" gradientUnits="userSpaceOnUse">
<stop stop-color="#FFD14E"/>
<stop offset="0.0064866" stop-color="#FECF53" stop-opacity="0.9935"/>
<stop offset="0.0851" stop-color="#FABF78" stop-opacity="0.9149"/>
<stop offset="0.17" stop-color="#F6AF8E" stop-opacity="0.83"/>
<stop offset="0.2605" stop-color="#F4A09C" stop-opacity="0.7395"/>
<stop offset="0.3581" stop-color="#F293A3" stop-opacity="0.6419"/>
<stop offset="0.4657" stop-color="#F088A7" stop-opacity="0.5343"/>
<stop offset="0.5883" stop-color="#EF81A9" stop-opacity="0.4117"/>
<stop offset="0.7389" stop-color="#EE7CAA" stop-opacity="0.2611"/>
<stop offset="1" stop-color="#EE7AAA" stop-opacity="0"/>
</linearGradient>
<linearGradient id="paint9_linear_3521_16051" x1="63.897" y1="184.081" x2="77.4241" y2="170.554" gradientUnits="userSpaceOnUse">
<stop stop-color="#FFD14E"/>
<stop offset="0.0064866" stop-color="#FECF53" stop-opacity="0.9935"/>
<stop offset="0.0851" stop-color="#FABF78" stop-opacity="0.9149"/>
<stop offset="0.17" stop-color="#F6AF8E" stop-opacity="0.83"/>
<stop offset="0.2605" stop-color="#F4A09C" stop-opacity="0.7395"/>
<stop offset="0.3581" stop-color="#F293A3" stop-opacity="0.6419"/>
<stop offset="0.4657" stop-color="#F088A7" stop-opacity="0.5343"/>
<stop offset="0.5883" stop-color="#EF81A9" stop-opacity="0.4117"/>
<stop offset="0.7389" stop-color="#EE7CAA" stop-opacity="0.2611"/>
<stop offset="1" stop-color="#EE7AAA" stop-opacity="0"/>
</linearGradient>
<linearGradient id="paint10_linear_3521_16051" x1="65.3564" y1="189.85" x2="74.2894" y2="180.917" gradientUnits="userSpaceOnUse">
<stop stop-color="#FFD14E"/>
<stop offset="0.0064866" stop-color="#FECF53" stop-opacity="0.9935"/>
<stop offset="0.0851" stop-color="#FABF78" stop-opacity="0.9149"/>
<stop offset="0.17" stop-color="#F6AF8E" stop-opacity="0.83"/>
<stop offset="0.2605" stop-color="#F4A09C" stop-opacity="0.7395"/>
<stop offset="0.3581" stop-color="#F293A3" stop-opacity="0.6419"/>
<stop offset="0.4657" stop-color="#F088A7" stop-opacity="0.5343"/>
<stop offset="0.5883" stop-color="#EF81A9" stop-opacity="0.4117"/>
<stop offset="0.7389" stop-color="#EE7CAA" stop-opacity="0.2611"/>
<stop offset="1" stop-color="#EE7AAA" stop-opacity="0"/>
</linearGradient>
<linearGradient id="paint11_linear_3521_16051" x1="56.7699" y1="198.648" x2="68.4216" y2="186.996" gradientUnits="userSpaceOnUse">
<stop stop-color="#FFD14E"/>
<stop offset="0.0064866" stop-color="#FECF53" stop-opacity="0.9935"/>
<stop offset="0.0851" stop-color="#FABF78" stop-opacity="0.9149"/>
<stop offset="0.17" stop-color="#F6AF8E" stop-opacity="0.83"/>
<stop offset="0.2605" stop-color="#F4A09C" stop-opacity="0.7395"/>
<stop offset="0.3581" stop-color="#F293A3" stop-opacity="0.6419"/>
<stop offset="0.4657" stop-color="#F088A7" stop-opacity="0.5343"/>
<stop offset="0.5883" stop-color="#EF81A9" stop-opacity="0.4117"/>
<stop offset="0.7389" stop-color="#EE7CAA" stop-opacity="0.2611"/>
<stop offset="1" stop-color="#EE7AAA" stop-opacity="0"/>
</linearGradient>
<linearGradient id="paint12_linear_3521_16051" x1="117.115" y1="241.632" x2="103.447" y2="255.3" gradientUnits="userSpaceOnUse">
<stop stop-color="#FFE013"/>
<stop offset="0.5058" stop-color="#F29612"/>
<stop offset="0.9899" stop-color="#E64111"/>
</linearGradient>
<linearGradient id="paint13_linear_3521_16051" x1="117.143" y1="241.604" x2="103.42" y2="255.328" gradientUnits="userSpaceOnUse">
<stop stop-color="#FFD14E"/>
<stop offset="0.0064866" stop-color="#FECF53" stop-opacity="0.9935"/>
<stop offset="0.0851" stop-color="#FABF78" stop-opacity="0.9149"/>
<stop offset="0.17" stop-color="#F6AF8E" stop-opacity="0.83"/>
<stop offset="0.2605" stop-color="#F4A09C" stop-opacity="0.7395"/>
<stop offset="0.3581" stop-color="#F293A3" stop-opacity="0.6419"/>
<stop offset="0.4657" stop-color="#F088A7" stop-opacity="0.5343"/>
<stop offset="0.5883" stop-color="#EF81A9" stop-opacity="0.4117"/>
<stop offset="0.7389" stop-color="#EE7CAA" stop-opacity="0.2611"/>
<stop offset="1" stop-color="#EE7AAA" stop-opacity="0"/>
</linearGradient>
<linearGradient id="paint14_linear_3521_16051" x1="108.477" y1="250.271" x2="99.1681" y2="259.579" gradientUnits="userSpaceOnUse">
<stop stop-color="#FFE013"/>
<stop offset="0.5058" stop-color="#F29612"/>
<stop offset="0.9899" stop-color="#E64111"/>
</linearGradient>
<linearGradient id="paint15_linear_3521_16051" x1="108.504" y1="250.243" x2="99.1402" y2="259.607" gradientUnits="userSpaceOnUse">
<stop stop-color="#FFD14E"/>
<stop offset="0.0064866" stop-color="#FECF53" stop-opacity="0.9935"/>
<stop offset="0.0851" stop-color="#FABF78" stop-opacity="0.9149"/>
<stop offset="0.17" stop-color="#F6AF8E" stop-opacity="0.83"/>
<stop offset="0.2605" stop-color="#F4A09C" stop-opacity="0.7395"/>
<stop offset="0.3581" stop-color="#F293A3" stop-opacity="0.6419"/>
<stop offset="0.4657" stop-color="#F088A7" stop-opacity="0.5343"/>
<stop offset="0.5883" stop-color="#EF81A9" stop-opacity="0.4117"/>
<stop offset="0.7389" stop-color="#EE7CAA" stop-opacity="0.2611"/>
<stop offset="1" stop-color="#EE7AAA" stop-opacity="0"/>
</linearGradient>
<linearGradient id="paint16_linear_3521_16051" x1="103.805" y1="254.942" x2="97.6765" y2="261.071" gradientUnits="userSpaceOnUse">
<stop stop-color="#FFE013"/>
<stop offset="0.5058" stop-color="#F29612"/>
<stop offset="0.9899" stop-color="#E64111"/>
</linearGradient>
<linearGradient id="paint17_linear_3521_16051" x1="103.833" y1="254.915" x2="97.6486" y2="261.099" gradientUnits="userSpaceOnUse">
<stop stop-color="#FFD14E"/>
<stop offset="0.0064866" stop-color="#FECF53" stop-opacity="0.9935"/>
<stop offset="0.0851" stop-color="#FABF78" stop-opacity="0.9149"/>
<stop offset="0.17" stop-color="#F6AF8E" stop-opacity="0.83"/>
<stop offset="0.2605" stop-color="#F4A09C" stop-opacity="0.7395"/>
<stop offset="0.3581" stop-color="#F293A3" stop-opacity="0.6419"/>
<stop offset="0.4657" stop-color="#F088A7" stop-opacity="0.5343"/>
<stop offset="0.5883" stop-color="#EF81A9" stop-opacity="0.4117"/>
<stop offset="0.7389" stop-color="#EE7CAA" stop-opacity="0.2611"/>
<stop offset="1" stop-color="#EE7AAA" stop-opacity="0"/>
</linearGradient>
<linearGradient id="paint18_linear_3521_16051" x1="99.6688" y1="259.079" x2="91.6596" y2="267.088" gradientUnits="userSpaceOnUse">
<stop stop-color="#FFE013"/>
<stop offset="0.5058" stop-color="#F29612"/>
<stop offset="0.9899" stop-color="#E64111"/>
</linearGradient>
<linearGradient id="paint19_linear_3521_16051" x1="99.6967" y1="259.051" x2="91.6137" y2="267.134" gradientUnits="userSpaceOnUse">
<stop stop-color="#FFD14E"/>
<stop offset="0.0064866" stop-color="#FECF53" stop-opacity="0.9935"/>
<stop offset="0.0851" stop-color="#FABF78" stop-opacity="0.9149"/>
<stop offset="0.17" stop-color="#F6AF8E" stop-opacity="0.83"/>
<stop offset="0.2605" stop-color="#F4A09C" stop-opacity="0.7395"/>
<stop offset="0.3581" stop-color="#F293A3" stop-opacity="0.6419"/>
<stop offset="0.4657" stop-color="#F088A7" stop-opacity="0.5343"/>
<stop offset="0.5883" stop-color="#EF81A9" stop-opacity="0.4117"/>
<stop offset="0.7389" stop-color="#EE7CAA" stop-opacity="0.2611"/>
<stop offset="1" stop-color="#EE7AAA" stop-opacity="0"/>
</linearGradient>
<linearGradient id="paint20_linear_3521_16051" x1="98.0777" y1="249.986" x2="111.782" y2="236.282" gradientUnits="userSpaceOnUse">
<stop stop-color="#FFD14E"/>
<stop offset="0.0064866" stop-color="#FECF53" stop-opacity="0.9935"/>
<stop offset="0.0851" stop-color="#FABF78" stop-opacity="0.9149"/>
<stop offset="0.17" stop-color="#F6AF8E" stop-opacity="0.83"/>
<stop offset="0.2605" stop-color="#F4A09C" stop-opacity="0.7395"/>
<stop offset="0.3581" stop-color="#F293A3" stop-opacity="0.6419"/>
<stop offset="0.4657" stop-color="#F088A7" stop-opacity="0.5343"/>
<stop offset="0.5883" stop-color="#EF81A9" stop-opacity="0.4117"/>
<stop offset="0.7389" stop-color="#EE7CAA" stop-opacity="0.2611"/>
<stop offset="1" stop-color="#EE7AAA" stop-opacity="0"/>
</linearGradient>
<linearGradient id="paint21_linear_3521_16051" x1="93.8017" y1="254.268" x2="103.167" y2="244.903" gradientUnits="userSpaceOnUse">
<stop stop-color="#FFD14E"/>
<stop offset="0.0064866" stop-color="#FECF53" stop-opacity="0.9935"/>
<stop offset="0.0851" stop-color="#FABF78" stop-opacity="0.9149"/>
<stop offset="0.17" stop-color="#F6AF8E" stop-opacity="0.83"/>
<stop offset="0.2605" stop-color="#F4A09C" stop-opacity="0.7395"/>
<stop offset="0.3581" stop-color="#F293A3" stop-opacity="0.6419"/>
<stop offset="0.4657" stop-color="#F088A7" stop-opacity="0.5343"/>
<stop offset="0.5883" stop-color="#EF81A9" stop-opacity="0.4117"/>
<stop offset="0.7389" stop-color="#EE7CAA" stop-opacity="0.2611"/>
<stop offset="1" stop-color="#EE7AAA" stop-opacity="0"/>
</linearGradient>
<linearGradient id="paint22_linear_3521_16051" x1="94.6673" y1="258.117" x2="100.852" y2="251.933" gradientUnits="userSpaceOnUse">
<stop stop-color="#FFD14E"/>
<stop offset="0.0064866" stop-color="#FECF53" stop-opacity="0.9935"/>
<stop offset="0.0851" stop-color="#FABF78" stop-opacity="0.9149"/>
<stop offset="0.17" stop-color="#F6AF8E" stop-opacity="0.83"/>
<stop offset="0.2605" stop-color="#F4A09C" stop-opacity="0.7395"/>
<stop offset="0.3581" stop-color="#F293A3" stop-opacity="0.6419"/>
<stop offset="0.4657" stop-color="#F088A7" stop-opacity="0.5343"/>
<stop offset="0.5883" stop-color="#EF81A9" stop-opacity="0.4117"/>
<stop offset="0.7389" stop-color="#EE7CAA" stop-opacity="0.2611"/>
<stop offset="1" stop-color="#EE7AAA" stop-opacity="0"/>
</linearGradient>
<linearGradient id="paint23_linear_3521_16051" x1="88.7186" y1="264.204" x2="96.7851" y2="256.138" gradientUnits="userSpaceOnUse">
<stop stop-color="#FFD14E"/>
<stop offset="0.0064866" stop-color="#FECF53" stop-opacity="0.9935"/>
<stop offset="0.0851" stop-color="#FABF78" stop-opacity="0.9149"/>
<stop offset="0.17" stop-color="#F6AF8E" stop-opacity="0.83"/>
<stop offset="0.2605" stop-color="#F4A09C" stop-opacity="0.7395"/>
<stop offset="0.3581" stop-color="#F293A3" stop-opacity="0.6419"/>
<stop offset="0.4657" stop-color="#F088A7" stop-opacity="0.5343"/>
<stop offset="0.5883" stop-color="#EF81A9" stop-opacity="0.4117"/>
<stop offset="0.7389" stop-color="#EE7CAA" stop-opacity="0.2611"/>
<stop offset="1" stop-color="#EE7AAA" stop-opacity="0"/>
</linearGradient>
</defs>
</svg>
