<svg width="474" height="716" viewBox="0 0 474 716" fill="none" xmlns="http://www.w3.org/2000/svg">
<g clip-path="url(#clip0_3832_17729)">
<path d="M277.25 -38.6595C278.642 -39.4634 280.358 -39.4634 281.75 -38.6595L315.752 -19.0283C317.145 -18.2245 318.002 -16.7389 318.002 -15.1312V24.1312C318.002 25.7389 317.145 27.2245 315.752 28.0283L281.75 47.6595C280.358 48.4634 278.642 48.4634 277.25 47.6595L243.248 28.0283C241.855 27.2245 240.998 25.7389 240.998 24.1312V-15.1312C240.998 -16.7389 241.855 -18.2245 243.248 -19.0283L277.25 -38.6595Z" stroke="#FCBE0A" stroke-width="7" stroke-linejoin="bevel"/>
<path d="M370.25 -38.6595C371.642 -39.4634 373.358 -39.4634 374.75 -38.6595L408.752 -19.0283C410.145 -18.2245 411.002 -16.7389 411.002 -15.1312V24.1312C411.002 25.7389 410.145 27.2245 408.752 28.0283L374.75 47.6595C373.358 48.4634 371.642 48.4634 370.25 47.6595L336.248 28.0283C334.855 27.2245 333.998 25.7389 333.998 24.1312V-15.1312C333.998 -16.7389 334.855 -18.2245 336.248 -19.0283L370.25 -38.6595Z" stroke="#FCBE0A" stroke-width="7" stroke-linejoin="bevel"/>
<path d="M462.25 -39.6595C463.642 -40.4634 465.358 -40.4634 466.75 -39.6595L500.752 -20.0283C502.145 -19.2245 503.002 -17.7389 503.002 -16.1312V23.1312C503.002 24.7389 502.145 26.2245 500.752 27.0283L466.75 46.6595C465.358 47.4634 463.642 47.4634 462.25 46.6595L428.248 27.0283C426.855 26.2245 425.998 24.7389 425.998 23.1312V-16.1312C425.998 -17.7389 426.855 -19.2245 428.248 -20.0283L462.25 -39.6595Z" stroke="#FCBE0A" stroke-width="7" stroke-linejoin="bevel"/>
<path d="M373.25 435.34C374.642 434.537 376.358 434.537 377.75 435.34L411.752 454.972C413.145 455.776 414.002 457.261 414.002 458.869V498.131C414.002 499.739 413.145 501.224 411.752 502.028L377.75 521.66C376.358 522.463 374.642 522.463 373.25 521.66L339.248 502.028C337.855 501.224 336.998 499.739 336.998 498.131V458.869C336.998 457.261 337.855 455.776 339.248 454.972L373.25 435.34Z" stroke="#FCBE0A" stroke-width="7" stroke-linejoin="bevel"/>
<path d="M465.25 435.34C466.642 434.537 468.358 434.537 469.75 435.34L503.752 454.972C505.145 455.776 506.002 457.261 506.002 458.869V498.131C506.002 499.739 505.145 501.224 503.752 502.028L469.75 521.66C468.358 522.463 466.642 522.463 465.25 521.66L431.248 502.028C429.855 501.224 428.998 499.739 428.998 498.131V458.869C428.998 457.261 429.855 455.776 431.248 454.972L465.25 435.34Z" stroke="#FCBE0A" stroke-width="7" stroke-linejoin="bevel"/>
<path d="M327.25 356.34C328.642 355.537 330.358 355.537 331.75 356.34L365.752 375.972C367.145 376.776 368.002 378.261 368.002 379.869V419.131C368.002 420.739 367.145 422.224 365.752 423.028L331.75 442.66C330.358 443.463 328.642 443.463 327.25 442.66L293.248 423.028C291.855 422.224 290.998 420.739 290.998 419.131V379.869C290.998 378.261 291.855 376.776 293.248 375.972L327.25 356.34Z" stroke="#FCBE0A" stroke-width="7" stroke-linejoin="bevel"/>
<path d="M418.25 356.34C419.642 355.537 421.358 355.537 422.75 356.34L456.752 375.972C458.145 376.776 459.002 378.261 459.002 379.869V419.131C459.002 420.739 458.145 422.224 456.752 423.028L422.75 442.66C421.358 443.463 419.642 443.463 418.25 442.66L384.248 423.028C382.855 422.224 381.998 420.739 381.998 419.131V379.869C381.998 378.261 382.855 376.776 384.248 375.972L418.25 356.34Z" stroke="#FCBE0A" stroke-width="7" stroke-linejoin="bevel"/>
<path d="M465.25 278.34C466.642 277.537 468.358 277.537 469.75 278.34L503.752 297.972C505.145 298.776 506.002 300.261 506.002 301.869V341.131C506.002 342.739 505.145 344.224 503.752 345.028L469.75 364.66C468.358 365.463 466.642 365.463 465.25 364.66L431.248 345.028C429.855 344.224 428.998 342.739 428.998 341.131V301.869C428.998 300.261 429.855 298.776 431.248 297.972L465.25 278.34Z" stroke="#FCBE0A" stroke-width="7" stroke-linejoin="bevel"/>
<path d="M373.25 593.34C374.642 592.537 376.358 592.537 377.75 593.34L411.752 612.972C413.145 613.776 414.002 615.261 414.002 616.869V656.131C414.002 657.739 413.145 659.224 411.752 660.028L377.75 679.66C376.358 680.463 374.642 680.463 373.25 679.66L339.248 660.028C337.855 659.224 336.998 657.739 336.998 656.131V616.869C336.998 615.261 337.855 613.776 339.248 612.972L373.25 593.34Z" stroke="#FCBE0A" stroke-width="7" stroke-linejoin="bevel"/>
<path d="M418.25 513.34C419.642 512.537 421.358 512.537 422.75 513.34L456.752 532.972C458.145 533.776 459.002 535.261 459.002 536.869V576.131C459.002 577.739 458.145 579.224 456.752 580.028L422.75 599.66C421.358 600.463 419.642 600.463 418.25 599.66L384.248 580.028C382.855 579.224 381.998 577.739 381.998 576.131V536.869C381.998 535.261 382.855 533.776 384.248 532.972L418.25 513.34Z" stroke="#FCBE0A" stroke-width="7" stroke-linejoin="bevel"/>
<path d="M93.25 121.34C94.6423 120.537 96.3577 120.537 97.75 121.34L131.752 140.972C133.145 141.776 134.002 143.261 134.002 144.869V184.131C134.002 185.739 133.145 187.224 131.752 188.028L97.75 207.66C96.3577 208.463 94.6423 208.463 93.25 207.66L59.2478 188.028C57.8555 187.224 56.9978 185.739 56.9978 184.131V144.869C56.9978 143.261 57.8555 141.776 59.2478 140.972L93.25 121.34Z" stroke="#FCBE0A" stroke-width="7" stroke-linejoin="bevel"/>
<path d="M188.25 121.34C189.642 120.537 191.358 120.537 192.75 121.34L226.752 140.972C228.145 141.776 229.002 143.261 229.002 144.869V184.131C229.002 185.739 228.145 187.224 226.752 188.028L192.75 207.66C191.358 208.463 189.642 208.463 188.25 207.66L154.248 188.028C152.855 187.224 151.998 185.739 151.998 184.131V144.869C151.998 143.261 152.855 141.776 154.248 140.972L188.25 121.34Z" stroke="#FCBE0A" stroke-width="7" stroke-linejoin="bevel"/>
<path d="M282.25 121.34C283.642 120.537 285.358 120.537 286.75 121.34L320.752 140.972C322.145 141.776 323.002 143.261 323.002 144.869V184.131C323.002 185.739 322.145 187.224 320.752 188.028L286.75 207.66C285.358 208.463 283.642 208.463 282.25 207.66L248.248 188.028C246.855 187.224 245.998 185.739 245.998 184.131V144.869C245.998 143.261 246.855 141.776 248.248 140.972L282.25 121.34Z" stroke="#FCBE0A" stroke-width="7" stroke-linejoin="bevel"/>
<path d="M372.25 121.34C373.642 120.537 375.358 120.537 376.75 121.34L410.752 140.972C412.145 141.776 413.002 143.261 413.002 144.869V184.131C413.002 185.739 412.145 187.224 410.752 188.028L376.75 207.66C375.358 208.463 373.642 208.463 372.25 207.66L338.248 188.028C336.855 187.224 335.998 185.739 335.998 184.131V144.869C335.998 143.261 336.855 141.776 338.248 140.972L372.25 121.34Z" stroke="#FCBE0A" stroke-width="7" stroke-linejoin="bevel"/>
<path d="M465.25 121.34C466.642 120.537 468.358 120.537 469.75 121.34L503.752 140.972C505.145 141.776 506.002 143.261 506.002 144.869V184.131C506.002 185.739 505.145 187.224 503.752 188.028L469.75 207.66C468.358 208.463 466.642 208.463 465.25 207.66L431.248 188.028C429.855 187.224 428.998 185.739 428.998 184.131V144.869C428.998 143.261 429.855 141.776 431.248 140.972L465.25 121.34Z" stroke="#FCBE0A" stroke-width="7" stroke-linejoin="bevel"/>
<path d="M46.25 42.3405C47.6423 41.5366 49.3577 41.5366 50.75 42.3405L84.7522 61.9717C86.1445 62.7755 87.0022 64.2611 87.0022 65.8688V105.131C87.0022 106.739 86.1445 108.224 84.7522 109.028L50.75 128.66C49.3577 129.463 47.6423 129.463 46.25 128.66L12.2478 109.028C10.8555 108.224 9.99777 106.739 9.99777 105.131V65.8688C9.99777 64.2611 10.8555 62.7755 12.2478 61.9717L46.25 42.3405Z" stroke="#FCBE0A" stroke-width="7" stroke-linejoin="bevel"/>
<path d="M140.25 42.3405C141.642 41.5366 143.358 41.5366 144.75 42.3405L178.752 61.9717C180.145 62.7755 181.002 64.2611 181.002 65.8688V105.131C181.002 106.739 180.145 108.224 178.752 109.028L144.75 128.66C143.358 129.463 141.642 129.463 140.25 128.66L106.248 109.028C104.855 108.224 103.998 106.739 103.998 105.131V65.8688C103.998 64.2611 104.855 62.7755 106.248 61.9717L140.25 42.3405Z" stroke="#FCBE0A" stroke-width="7" stroke-linejoin="bevel"/>
<path d="M233.25 42.3405C234.642 41.5366 236.358 41.5366 237.75 42.3405L271.752 61.9717C273.145 62.7755 274.002 64.2611 274.002 65.8688V105.131C274.002 106.739 273.145 108.224 271.752 109.028L237.75 128.66C236.358 129.463 234.642 129.463 233.25 128.66L199.248 109.028C197.855 108.224 196.998 106.739 196.998 105.131V65.8688C196.998 64.2611 197.855 62.7755 199.248 61.9717L233.25 42.3405Z" stroke="#FCBE0A" stroke-width="7" stroke-linejoin="bevel"/>
<path d="M325.25 42.3405C326.642 41.5366 328.358 41.5366 329.75 42.3405L363.752 61.9717C365.145 62.7755 366.002 64.2611 366.002 65.8688V105.131C366.002 106.739 365.145 108.224 363.752 109.028L329.75 128.66C328.358 129.463 326.642 129.463 325.25 128.66L291.248 109.028C289.855 108.224 288.998 106.739 288.998 105.131V65.8688C288.998 64.2611 289.855 62.7755 291.248 61.9717L325.25 42.3405Z" stroke="#FCBE0A" stroke-width="7" stroke-linejoin="bevel"/>
<path d="M418.25 42.3405C419.642 41.5366 421.358 41.5366 422.75 42.3405L456.752 61.9717C458.145 62.7755 459.002 64.2611 459.002 65.8688V105.131C459.002 106.739 458.145 108.224 456.752 109.028L422.75 128.66C421.358 129.463 419.642 129.463 418.25 128.66L384.248 109.028C382.855 108.224 381.998 106.739 381.998 105.131V65.8688C381.998 64.2611 382.855 62.7755 384.248 61.9717L418.25 42.3405Z" stroke="#FCBE0A" stroke-width="7" stroke-linejoin="bevel"/>
<path d="M512.25 37.3405C513.642 36.5366 515.358 36.5366 516.75 37.3405L550.752 56.9717C552.145 57.7755 553.002 59.2611 553.002 60.8688V100.131C553.002 101.739 552.145 103.224 550.752 104.028L516.75 123.66C515.358 124.463 513.642 124.463 512.25 123.66L478.248 104.028C476.855 103.224 475.998 101.739 475.998 100.131V60.8688C475.998 59.2611 476.855 57.7755 478.248 56.9717L512.25 37.3405Z" stroke="#FCBE0A" stroke-width="7" stroke-linejoin="bevel"/>
<path d="M93.25 -38.6595C94.6423 -39.4634 96.3577 -39.4634 97.75 -38.6595L131.752 -19.0283C133.145 -18.2245 134.002 -16.7389 134.002 -15.1312V24.1312C134.002 25.7389 133.145 27.2245 131.752 28.0283L97.75 47.6595C96.3577 48.4634 94.6423 48.4634 93.25 47.6595L59.2478 28.0283C57.8555 27.2245 56.9978 25.7389 56.9978 24.1312V-15.1312C56.9978 -16.7389 57.8555 -18.2245 59.2478 -19.0283L93.25 -38.6595Z" stroke="#FCBE0A" stroke-width="7" stroke-linejoin="bevel"/>
<path d="M185.25 -38.6595C186.642 -39.4634 188.358 -39.4634 189.75 -38.6595L223.752 -19.0283C225.145 -18.2245 226.002 -16.7389 226.002 -15.1312V24.1312C226.002 25.7389 225.145 27.2245 223.752 28.0283L189.75 47.6595C188.358 48.4634 186.642 48.4634 185.25 47.6595L151.248 28.0283C149.855 27.2245 148.998 25.7389 148.998 24.1312V-15.1312C148.998 -16.7389 149.855 -18.2245 151.248 -19.0283L185.25 -38.6595Z" stroke="#FCBE0A" stroke-width="7" stroke-linejoin="bevel"/>
<path d="M373.25 278.34C374.642 277.537 376.358 277.537 377.75 278.34L411.752 297.972C413.145 298.776 414.002 300.261 414.002 301.869V341.131C414.002 342.739 413.145 344.224 411.752 345.028L377.75 364.66C376.358 365.463 374.642 365.463 373.25 364.66L339.248 345.028C337.855 344.224 336.998 342.739 336.998 341.131V301.869C336.998 300.261 337.855 298.776 339.248 297.972L373.25 278.34Z" stroke="#FCBE0A" stroke-width="7" stroke-linejoin="bevel"/>
<path d="M327.25 201.34C328.642 200.537 330.358 200.537 331.75 201.34L365.752 220.972C367.145 221.776 368.002 223.261 368.002 224.869V264.131C368.002 265.739 367.145 267.224 365.752 268.028L331.75 287.66C330.358 288.463 328.642 288.463 327.25 287.66L293.248 268.028C291.855 267.224 290.998 265.739 290.998 264.131V224.869C290.998 223.261 291.855 221.776 293.248 220.972L327.25 201.34Z" stroke="#FCBE0A" stroke-width="7" stroke-linejoin="bevel"/>
<path d="M419.25 201.34C420.642 200.537 422.358 200.537 423.75 201.34L457.752 220.972C459.145 221.776 460.002 223.261 460.002 224.869V264.131C460.002 265.739 459.145 267.224 457.752 268.028L423.75 287.66C422.358 288.463 420.642 288.463 419.25 287.66L385.248 268.028C383.855 267.224 382.998 265.739 382.998 264.131V224.869C382.998 223.261 383.855 221.776 385.248 220.972L419.25 201.34Z" stroke="#FCBE0A" stroke-width="7" stroke-linejoin="bevel"/>
<path d="M465.25 593.34C466.642 592.537 468.358 592.537 469.75 593.34L503.752 612.972C505.145 613.776 506.002 615.261 506.002 616.869V656.131C506.002 657.739 505.145 659.224 503.752 660.028L469.75 679.66C468.358 680.463 466.642 680.463 465.25 679.66L431.248 660.028C429.855 659.224 428.998 657.739 428.998 656.131V616.869C428.998 615.261 429.855 613.776 431.248 612.972L465.25 593.34Z" stroke="#FCBE0A" stroke-width="7" stroke-linejoin="bevel"/>
<path d="M134.23 346.162L127.282 353.109C127.208 353.184 127.077 353.15 127.051 353.046L112.499 297.758C112.19 296.578 111.75 295.436 111.159 294.37C110.669 293.481 110.018 292.527 109.237 291.873C109.237 291.873 107.839 290.789 106.951 290.296C105.884 289.705 104.74 289.267 103.562 288.956L48.2718 274.406C48.1703 274.377 48.134 274.249 48.2107 274.172L55.1562 267.227C56.7616 265.621 59.0886 264.975 61.2899 265.523L91.6884 273.088C91.7535 273.104 91.8206 273.086 91.8686 273.038L98.5263 266.381C99.516 265.391 100.956 264.997 102.31 265.346L110.406 267.435L112.136 256.022C112.539 253.367 111.662 250.68 109.77 248.777L104.261 243.229C103.275 242.235 103.322 240.618 104.369 239.681L104.611 239.463C105.434 238.728 106.691 238.781 107.447 239.583L115.738 248.392C117.39 250.147 118.185 252.542 117.916 254.939L116.34 268.964L125.288 271.273L126.315 271.536C128.177 272.017 129.611 273.497 130.037 275.373L130.184 276.03L132.492 284.979L146.517 283.402C148.914 283.133 151.307 283.93 153.063 285.582L161.872 293.873C162.676 294.627 162.728 295.885 161.994 296.707L161.773 296.951C160.839 297.996 159.22 298.046 158.226 297.06L152.68 291.548C150.777 289.656 148.091 288.781 145.435 289.182L134.021 290.912L136.108 299.01C136.458 300.365 136.065 301.802 135.076 302.792L128.416 309.452C128.37 309.498 128.351 309.567 128.368 309.63L135.933 340.028C136.481 342.23 135.833 344.559 134.23 346.162Z" fill="url(#paint0_linear_3832_17729)" stroke="url(#paint1_linear_3832_17729)" stroke-width="0.0957895" stroke-miterlimit="10"/>
<path d="M105.075 296.589C106.421 297.923 107.18 301.778 107.18 301.778L113.569 324.248L122.022 358.216C122.033 358.265 122.018 358.319 121.982 358.355L112.524 367.814C112.441 367.896 112.299 367.858 112.269 367.747L97.5547 311.824C97.4745 311.526 97.3809 311.232 97.2662 310.945C96.8723 309.961 96.1382 308.137 94.7175 306.946C94.7175 306.946 93.952 305.797 90.372 304.189C90.0885 304.063 89.7916 303.977 89.4927 303.901L33.5722 289.181C33.4592 289.152 33.421 289.01 33.5054 288.926L42.9616 279.47C42.9981 279.433 43.0517 279.418 43.1016 279.429L77.0693 287.883L99.5393 294.271C99.5393 294.275 103.741 295.243 105.075 296.589Z" fill="url(#paint2_linear_3832_17729)" stroke="url(#paint3_linear_3832_17729)" stroke-width="0.0957895" stroke-miterlimit="10"/>
<path d="M81.9382 325.209C82.1619 325.686 82.3359 326.182 82.4638 326.693L89.5404 355.291C89.5671 355.402 89.7051 355.44 89.7856 355.36L99.2533 345.892C99.2859 345.859 99.2994 345.812 99.288 345.766L92.2422 318.96C91.8412 317.438 91.2658 315.965 90.4872 314.6C89.9725 313.698 88.9636 312.7 88.9636 312.7C88.51 312.093 87.6214 311.481 86.7194 310.966C85.3538 310.188 83.8826 309.61 82.3596 309.211L55.5536 302.165C55.5076 302.154 55.4597 302.167 55.4271 302.2L45.9594 311.668C45.8788 311.748 45.917 311.886 46.0281 311.913L75.3501 319.035C75.3501 319.035 78.4151 320.182 79.801 321.671L80.7273 323.012C81.0985 323.548 81.4237 324.115 81.701 324.707L81.9382 325.209Z" fill="url(#paint4_linear_3832_17729)" stroke="url(#paint5_linear_3832_17729)" stroke-width="0.0957895" stroke-miterlimit="10"/>
<path d="M47.1495 354.515L49.2619 337.531C49.2677 337.483 49.2639 337.433 49.2448 337.387L46.1288 329.491C46.058 329.309 45.9911 329.127 45.93 328.94L41.9728 316.792C41.9384 316.685 42.0363 316.579 42.1455 316.608L67.4341 323.253C69.5473 323.808 71.57 324.673 73.3894 325.878C73.9199 326.228 74.3967 326.586 74.7298 326.923C74.7298 326.923 75.5605 327.892 75.9107 328.423C77.1143 330.244 77.6361 331.763 78.1917 333.876L84.8365 359.165C84.8651 359.274 84.7615 359.374 84.6523 359.337L72.5049 355.38C72.3191 355.321 72.1352 355.252 71.9532 355.181L64.0573 352.065C64.0113 352.046 63.9615 352.043 63.9135 352.048L47.1495 354.515Z" fill="url(#paint6_linear_3832_17729)" stroke="url(#paint7_linear_3832_17729)" stroke-width="0.0957895" stroke-miterlimit="10"/>
<path d="M128.392 272.611L109.194 291.809C109.146 291.765 109.096 291.723 109.047 291.681C109.047 291.681 107.649 290.597 106.76 290.104C105.693 289.513 104.55 289.075 103.371 288.764L48.0813 274.214C47.9797 274.185 47.9434 274.057 48.0202 273.98L54.9656 267.035C56.571 265.429 58.898 264.783 61.0993 265.331L91.4978 272.897C91.563 272.912 91.6301 272.895 91.678 272.847L98.3357 266.189C99.3255 265.199 100.765 264.805 102.119 265.154L110.216 267.243L111.945 255.83C112.348 253.176 111.471 250.488 109.58 248.585L104.07 243.037C103.084 242.043 103.132 240.426 104.179 239.49L104.42 239.271C105.243 238.536 106.5 238.589 107.256 239.391L115.548 248.2C117.2 249.956 117.995 252.35 117.726 254.748L116.149 268.773L125.098 271.081L126.125 271.344C126.992 271.568 127.77 272.012 128.392 272.611Z" fill="#FFCD1C" stroke="url(#paint8_linear_3832_17729)" stroke-width="0.0957895" stroke-miterlimit="10"/>
<path d="M104.742 296.261L94.4016 306.601C94.0685 306.238 92.9925 305.261 90.1825 303.997C89.9029 303.871 89.604 303.787 89.3032 303.709L33.3846 288.991C33.2697 288.96 33.2315 288.819 33.314 288.736L42.7721 279.278C42.8086 279.242 42.8622 279.226 42.914 279.24L76.8798 287.695L99.3498 294.083C99.3498 294.083 103.275 294.986 104.742 296.261Z" fill="#FFCD1C" stroke="url(#paint9_linear_3832_17729)" stroke-width="0.0957895" stroke-miterlimit="10"/>
<path d="M88.6468 312.355L79.5665 321.436C78.1633 319.967 75.1615 318.845 75.1615 318.845L45.8395 311.723C45.7284 311.697 45.6902 311.559 45.7708 311.478L55.2385 302.01C55.2711 301.978 55.319 301.964 55.365 301.976L82.171 309.021C83.6902 309.421 85.1633 309.996 86.5289 310.775C87.3543 311.247 88.1701 311.798 88.6468 312.355Z" fill="#FFCD1C" stroke="url(#paint10_linear_3832_17729)" stroke-width="0.0957895" stroke-miterlimit="10"/>
<path d="M74.4052 326.598L46.9994 354.004L49.0714 337.339C49.0791 337.293 49.0734 337.242 49.0562 337.198L45.9401 329.302C45.8693 329.12 45.8024 328.938 45.7432 328.752L41.7861 316.605C41.7498 316.495 41.8495 316.392 41.9587 316.42L67.2474 323.065C69.3605 323.621 71.3833 324.485 73.2064 325.691C73.6622 325.993 74.0816 326.305 74.4052 326.598Z" fill="#FFCD1C" stroke="url(#paint11_linear_3832_17729)" stroke-width="0.0957895" stroke-miterlimit="10"/>
<path d="M156.779 523.216L151.961 528.034C151.909 528.086 151.824 528.067 151.81 528L144.111 492.049C143.948 491.282 143.697 490.544 143.344 489.861C143.051 489.292 142.655 488.685 142.163 488.281C142.163 488.281 141.278 487.614 140.709 487.319C140.026 486.966 139.287 486.717 138.521 486.552L102.569 478.854C102.503 478.839 102.483 478.756 102.536 478.702L107.353 473.886C108.467 472.772 110.023 472.266 111.455 472.552L131.237 476.498C131.279 476.506 131.324 476.492 131.357 476.459L135.975 471.842C136.661 471.155 137.624 470.846 138.505 471.03L143.771 472.13L145.302 464.546C145.659 462.782 145.173 461.04 143.991 459.851L140.549 456.382C139.933 455.76 140.019 454.692 140.742 454.039L140.909 453.887C141.476 453.374 142.303 453.366 142.774 453.869L147.938 459.392C148.967 460.493 149.409 462.045 149.15 463.634L147.63 472.935L153.45 474.15L154.118 474.288C155.33 474.542 156.224 475.468 156.441 476.69L156.515 477.118L157.73 482.939L167.03 481.419C168.62 481.159 170.17 481.603 171.271 482.632L176.794 487.796C177.299 488.266 177.29 489.092 176.778 489.66L176.624 489.828C175.972 490.549 174.903 490.637 174.282 490.021L170.814 486.578C169.624 485.396 167.883 484.911 166.119 485.267L158.535 486.798L159.633 492.065C159.817 492.946 159.509 493.908 158.823 494.594L154.204 499.213C154.172 499.245 154.157 499.291 154.166 499.332L158.112 519.113C158.398 520.546 157.891 522.103 156.779 523.216Z" fill="url(#paint12_linear_3832_17729)" stroke="url(#paint13_linear_3832_17729)" stroke-width="0.0957895" stroke-miterlimit="10"/>
<path d="M139.258 491.532C140.1 492.366 140.468 494.881 140.468 494.881L143.91 509.476L148.319 531.58C148.325 531.613 148.313 531.649 148.287 531.674L141.728 538.233C141.671 538.291 141.578 538.27 141.562 538.198L133.778 501.834C133.735 501.64 133.684 501.45 133.618 501.265C133.392 500.629 132.971 499.452 132.075 498.716C132.075 498.716 131.609 497.984 129.304 497.047C129.122 496.973 128.929 496.927 128.735 496.887L92.3724 489.099C92.2989 489.084 92.2785 488.992 92.3371 488.933L98.8953 482.375C98.9206 482.35 98.9565 482.338 98.9889 482.343L121.093 486.752L135.688 490.194C135.688 490.197 138.425 490.691 139.258 491.532Z" fill="url(#paint14_linear_3832_17729)" stroke="url(#paint15_linear_3832_17729)" stroke-width="0.0957895" stroke-miterlimit="10"/>
<path d="M123.022 511.194C123.153 511.5 123.251 511.821 123.318 512.154L127.003 530.765C127.017 530.838 127.107 530.858 127.163 530.802L133.729 524.236C133.751 524.213 133.762 524.181 133.756 524.151L130.029 506.721C129.817 505.731 129.488 504.78 129.022 503.906C128.713 503.329 128.082 502.706 128.082 502.706C127.804 502.322 127.239 501.948 126.662 501.64C125.789 501.174 124.839 500.843 123.848 500.632L106.417 496.906C106.387 496.9 106.355 496.911 106.333 496.933L99.7665 503.499C99.7106 503.555 99.7311 503.645 99.8034 503.659L118.89 507.349C118.89 507.349 120.872 508 121.734 508.935L122.299 509.787C122.526 510.127 122.721 510.49 122.883 510.871L123.022 511.194Z" fill="url(#paint16_linear_3832_17729)" stroke="url(#paint17_linear_3832_17729)" stroke-width="0.0957895" stroke-miterlimit="10"/>
<path d="M99.0841 531.706L101.059 520.437C101.064 520.405 101.063 520.372 101.052 520.343L99.2687 515.244C99.2283 515.126 99.1904 515.009 99.1566 514.887L96.964 507.014C96.945 506.945 97.0131 506.872 97.0841 506.887L113.528 510.401C114.903 510.695 116.206 511.195 117.365 511.928C117.702 512.141 118.004 512.36 118.212 512.571C118.212 512.571 118.727 513.181 118.94 513.519C119.671 514.678 119.963 515.662 120.257 517.036L123.771 533.48C123.786 533.551 123.714 533.621 123.643 533.6L115.771 531.408C115.65 531.375 115.531 531.336 115.414 531.296L110.315 529.512C110.285 529.501 110.252 529.5 110.221 529.506L99.0841 531.706Z" fill="url(#paint18_linear_3832_17729)" stroke="url(#paint19_linear_3832_17729)" stroke-width="0.0957895" stroke-miterlimit="10"/>
<path d="M155.451 474.925L142.136 488.24C142.106 488.213 142.075 488.187 142.043 488.161C142.043 488.161 141.159 487.494 140.59 487.199C139.907 486.846 139.168 486.597 138.402 486.432L102.449 478.735C102.383 478.719 102.364 478.636 102.417 478.583L107.234 473.766C108.347 472.652 109.904 472.147 111.336 472.432L131.118 476.378C131.16 476.386 131.205 476.372 131.238 476.339L135.855 471.722C136.542 471.035 137.504 470.726 138.385 470.91L143.651 472.01L145.183 464.426C145.539 462.662 145.053 460.92 143.872 459.731L140.429 456.262C139.813 455.64 139.9 454.573 140.622 453.919L140.789 453.767C141.357 453.254 142.184 453.246 142.655 453.749L147.819 459.272C148.848 460.373 149.29 461.925 149.031 463.514L147.511 472.815L153.331 474.03L153.999 474.168C154.564 474.286 155.061 474.552 155.451 474.925Z" fill="#FFCD1C" stroke="url(#paint20_linear_3832_17729)" stroke-width="0.0957895" stroke-miterlimit="10"/>
<path d="M139.048 491.328L131.876 498.499C131.669 498.271 130.993 497.664 129.184 496.927C129.004 496.853 128.81 496.808 128.614 496.767L92.2532 488.98C92.1785 488.964 92.1582 488.872 92.2154 488.815L98.7749 482.255C98.8002 482.23 98.8361 482.218 98.8697 482.225L120.973 486.635L135.567 490.077C135.567 490.077 138.125 490.537 139.048 491.328Z" fill="#FFCD1C" stroke="url(#paint21_linear_3832_17729)" stroke-width="0.0957895" stroke-miterlimit="10"/>
<path d="M127.887 502.49L121.589 508.787C120.714 507.867 118.774 507.231 118.774 507.231L99.6868 503.54C99.6145 503.526 99.594 503.437 99.6499 503.381L106.216 496.815C106.239 496.792 106.271 496.781 106.301 496.787L123.732 500.514C124.72 500.725 125.671 501.054 126.545 501.52C127.073 501.804 127.592 502.139 127.887 502.49Z" fill="#FFCD1C" stroke="url(#paint22_linear_3832_17729)" stroke-width="0.0957895" stroke-miterlimit="10"/>
<path d="M118.008 512.367L99.0007 531.374L100.938 520.317C100.944 520.287 100.942 520.253 100.933 520.224L99.1488 515.126C99.1084 515.008 99.0706 514.89 99.0379 514.77L96.8453 506.897C96.8251 506.826 96.8945 506.755 96.9655 506.77L113.41 510.284C114.784 510.578 116.088 511.078 117.248 511.81C117.539 511.994 117.804 512.185 118.008 512.367Z" fill="#FFCD1C" stroke="url(#paint23_linear_3832_17729)" stroke-width="0.0957895" stroke-miterlimit="10"/>
</g>
<defs>
<linearGradient id="paint0_linear_3832_17729" x1="134.693" y1="266.694" x2="87.6135" y2="313.773" gradientUnits="userSpaceOnUse">
<stop stop-color="#FFE013"/>
<stop offset="0.5058" stop-color="#F29612"/>
<stop offset="0.9899" stop-color="#E64111"/>
</linearGradient>
<linearGradient id="paint1_linear_3832_17729" x1="134.789" y1="266.598" x2="87.5175" y2="313.869" gradientUnits="userSpaceOnUse">
<stop stop-color="#FFD14E"/>
<stop offset="0.0064866" stop-color="#FECF53" stop-opacity="0.9935"/>
<stop offset="0.0851" stop-color="#FABF78" stop-opacity="0.9149"/>
<stop offset="0.17" stop-color="#F6AF8E" stop-opacity="0.83"/>
<stop offset="0.2605" stop-color="#F4A09C" stop-opacity="0.7395"/>
<stop offset="0.3581" stop-color="#F293A3" stop-opacity="0.6419"/>
<stop offset="0.4657" stop-color="#F088A7" stop-opacity="0.5343"/>
<stop offset="0.5883" stop-color="#EF81A9" stop-opacity="0.4117"/>
<stop offset="0.7389" stop-color="#EE7CAA" stop-opacity="0.2611"/>
<stop offset="1" stop-color="#EE7AAA" stop-opacity="0"/>
</linearGradient>
<linearGradient id="paint2_linear_3832_17729" x1="104.936" y1="296.45" x2="72.8729" y2="328.513" gradientUnits="userSpaceOnUse">
<stop stop-color="#FFE013"/>
<stop offset="0.5058" stop-color="#F29612"/>
<stop offset="0.9899" stop-color="#E64111"/>
</linearGradient>
<linearGradient id="paint3_linear_3832_17729" x1="105.032" y1="296.354" x2="72.777" y2="328.609" gradientUnits="userSpaceOnUse">
<stop stop-color="#FFD14E"/>
<stop offset="0.0064866" stop-color="#FECF53" stop-opacity="0.9935"/>
<stop offset="0.0851" stop-color="#FABF78" stop-opacity="0.9149"/>
<stop offset="0.17" stop-color="#F6AF8E" stop-opacity="0.83"/>
<stop offset="0.2605" stop-color="#F4A09C" stop-opacity="0.7395"/>
<stop offset="0.3581" stop-color="#F293A3" stop-opacity="0.6419"/>
<stop offset="0.4657" stop-color="#F088A7" stop-opacity="0.5343"/>
<stop offset="0.5883" stop-color="#EF81A9" stop-opacity="0.4117"/>
<stop offset="0.7389" stop-color="#EE7CAA" stop-opacity="0.2611"/>
<stop offset="1" stop-color="#EE7AAA" stop-opacity="0"/>
</linearGradient>
<linearGradient id="paint4_linear_3832_17729" x1="88.8456" y1="312.54" x2="67.7352" y2="333.651" gradientUnits="userSpaceOnUse">
<stop stop-color="#FFE013"/>
<stop offset="0.5058" stop-color="#F29612"/>
<stop offset="0.9899" stop-color="#E64111"/>
</linearGradient>
<linearGradient id="paint5_linear_3832_17729" x1="88.9415" y1="312.444" x2="67.6393" y2="333.747" gradientUnits="userSpaceOnUse">
<stop stop-color="#FFD14E"/>
<stop offset="0.0064866" stop-color="#FECF53" stop-opacity="0.9935"/>
<stop offset="0.0851" stop-color="#FABF78" stop-opacity="0.9149"/>
<stop offset="0.17" stop-color="#F6AF8E" stop-opacity="0.83"/>
<stop offset="0.2605" stop-color="#F4A09C" stop-opacity="0.7395"/>
<stop offset="0.3581" stop-color="#F293A3" stop-opacity="0.6419"/>
<stop offset="0.4657" stop-color="#F088A7" stop-opacity="0.5343"/>
<stop offset="0.5883" stop-color="#EF81A9" stop-opacity="0.4117"/>
<stop offset="0.7389" stop-color="#EE7CAA" stop-opacity="0.2611"/>
<stop offset="1" stop-color="#EE7AAA" stop-opacity="0"/>
</linearGradient>
<linearGradient id="paint6_linear_3832_17729" x1="74.5982" y1="326.788" x2="47.0102" y2="354.376" gradientUnits="userSpaceOnUse">
<stop stop-color="#FFE013"/>
<stop offset="0.5058" stop-color="#F29612"/>
<stop offset="0.9899" stop-color="#E64111"/>
</linearGradient>
<linearGradient id="paint7_linear_3832_17729" x1="74.6941" y1="326.693" x2="46.8521" y2="354.534" gradientUnits="userSpaceOnUse">
<stop stop-color="#FFD14E"/>
<stop offset="0.0064866" stop-color="#FECF53" stop-opacity="0.9935"/>
<stop offset="0.0851" stop-color="#FABF78" stop-opacity="0.9149"/>
<stop offset="0.17" stop-color="#F6AF8E" stop-opacity="0.83"/>
<stop offset="0.2605" stop-color="#F4A09C" stop-opacity="0.7395"/>
<stop offset="0.3581" stop-color="#F293A3" stop-opacity="0.6419"/>
<stop offset="0.4657" stop-color="#F088A7" stop-opacity="0.5343"/>
<stop offset="0.5883" stop-color="#EF81A9" stop-opacity="0.4117"/>
<stop offset="0.7389" stop-color="#EE7CAA" stop-opacity="0.2611"/>
<stop offset="1" stop-color="#EE7AAA" stop-opacity="0"/>
</linearGradient>
<linearGradient id="paint8_linear_3832_17729" x1="67.5754" y1="293.926" x2="114.78" y2="246.722" gradientUnits="userSpaceOnUse">
<stop stop-color="#FFD14E"/>
<stop offset="0.0064866" stop-color="#FECF53" stop-opacity="0.9935"/>
<stop offset="0.0851" stop-color="#FABF78" stop-opacity="0.9149"/>
<stop offset="0.17" stop-color="#F6AF8E" stop-opacity="0.83"/>
<stop offset="0.2605" stop-color="#F4A09C" stop-opacity="0.7395"/>
<stop offset="0.3581" stop-color="#F293A3" stop-opacity="0.6419"/>
<stop offset="0.4657" stop-color="#F088A7" stop-opacity="0.5343"/>
<stop offset="0.5883" stop-color="#EF81A9" stop-opacity="0.4117"/>
<stop offset="0.7389" stop-color="#EE7CAA" stop-opacity="0.2611"/>
<stop offset="1" stop-color="#EE7AAA" stop-opacity="0"/>
</linearGradient>
<linearGradient id="paint9_linear_3832_17729" x1="52.8487" y1="308.677" x2="85.1061" y2="276.42" gradientUnits="userSpaceOnUse">
<stop stop-color="#FFD14E"/>
<stop offset="0.0064866" stop-color="#FECF53" stop-opacity="0.9935"/>
<stop offset="0.0851" stop-color="#FABF78" stop-opacity="0.9149"/>
<stop offset="0.17" stop-color="#F6AF8E" stop-opacity="0.83"/>
<stop offset="0.2605" stop-color="#F4A09C" stop-opacity="0.7395"/>
<stop offset="0.3581" stop-color="#F293A3" stop-opacity="0.6419"/>
<stop offset="0.4657" stop-color="#F088A7" stop-opacity="0.5343"/>
<stop offset="0.5883" stop-color="#EF81A9" stop-opacity="0.4117"/>
<stop offset="0.7389" stop-color="#EE7CAA" stop-opacity="0.2611"/>
<stop offset="1" stop-color="#EE7AAA" stop-opacity="0"/>
</linearGradient>
<linearGradient id="paint10_linear_3832_17729" x1="56.5091" y1="322.616" x2="77.811" y2="301.314" gradientUnits="userSpaceOnUse">
<stop stop-color="#FFD14E"/>
<stop offset="0.0064866" stop-color="#FECF53" stop-opacity="0.9935"/>
<stop offset="0.0851" stop-color="#FABF78" stop-opacity="0.9149"/>
<stop offset="0.17" stop-color="#F6AF8E" stop-opacity="0.83"/>
<stop offset="0.2605" stop-color="#F4A09C" stop-opacity="0.7395"/>
<stop offset="0.3581" stop-color="#F293A3" stop-opacity="0.6419"/>
<stop offset="0.4657" stop-color="#F088A7" stop-opacity="0.5343"/>
<stop offset="0.5883" stop-color="#EF81A9" stop-opacity="0.4117"/>
<stop offset="0.7389" stop-color="#EE7CAA" stop-opacity="0.2611"/>
<stop offset="1" stop-color="#EE7AAA" stop-opacity="0"/>
</linearGradient>
<linearGradient id="paint11_linear_3832_17729" x1="36.039" y1="343.601" x2="63.8243" y2="315.816" gradientUnits="userSpaceOnUse">
<stop stop-color="#FFD14E"/>
<stop offset="0.0064866" stop-color="#FECF53" stop-opacity="0.9935"/>
<stop offset="0.0851" stop-color="#FABF78" stop-opacity="0.9149"/>
<stop offset="0.17" stop-color="#F6AF8E" stop-opacity="0.83"/>
<stop offset="0.2605" stop-color="#F4A09C" stop-opacity="0.7395"/>
<stop offset="0.3581" stop-color="#F293A3" stop-opacity="0.6419"/>
<stop offset="0.4657" stop-color="#F088A7" stop-opacity="0.5343"/>
<stop offset="0.5883" stop-color="#EF81A9" stop-opacity="0.4117"/>
<stop offset="0.7389" stop-color="#EE7CAA" stop-opacity="0.2611"/>
<stop offset="1" stop-color="#EE7AAA" stop-opacity="0"/>
</linearGradient>
<linearGradient id="paint12_linear_3832_17729" x1="159.808" y1="470.809" x2="127.156" y2="503.46" gradientUnits="userSpaceOnUse">
<stop stop-color="#FFE013"/>
<stop offset="0.5058" stop-color="#F29612"/>
<stop offset="0.9899" stop-color="#E64111"/>
</linearGradient>
<linearGradient id="paint13_linear_3832_17729" x1="159.874" y1="470.742" x2="127.09" y2="503.527" gradientUnits="userSpaceOnUse">
<stop stop-color="#FFD14E"/>
<stop offset="0.0064866" stop-color="#FECF53" stop-opacity="0.9935"/>
<stop offset="0.0851" stop-color="#FABF78" stop-opacity="0.9149"/>
<stop offset="0.17" stop-color="#F6AF8E" stop-opacity="0.83"/>
<stop offset="0.2605" stop-color="#F4A09C" stop-opacity="0.7395"/>
<stop offset="0.3581" stop-color="#F293A3" stop-opacity="0.6419"/>
<stop offset="0.4657" stop-color="#F088A7" stop-opacity="0.5343"/>
<stop offset="0.5883" stop-color="#EF81A9" stop-opacity="0.4117"/>
<stop offset="0.7389" stop-color="#EE7CAA" stop-opacity="0.2611"/>
<stop offset="1" stop-color="#EE7AAA" stop-opacity="0"/>
</linearGradient>
<linearGradient id="paint14_linear_3832_17729" x1="139.171" y1="491.446" x2="116.934" y2="513.682" gradientUnits="userSpaceOnUse">
<stop stop-color="#FFE013"/>
<stop offset="0.5058" stop-color="#F29612"/>
<stop offset="0.9899" stop-color="#E64111"/>
</linearGradient>
<linearGradient id="paint15_linear_3832_17729" x1="139.238" y1="491.379" x2="116.868" y2="513.749" gradientUnits="userSpaceOnUse">
<stop stop-color="#FFD14E"/>
<stop offset="0.0064866" stop-color="#FECF53" stop-opacity="0.9935"/>
<stop offset="0.0851" stop-color="#FABF78" stop-opacity="0.9149"/>
<stop offset="0.17" stop-color="#F6AF8E" stop-opacity="0.83"/>
<stop offset="0.2605" stop-color="#F4A09C" stop-opacity="0.7395"/>
<stop offset="0.3581" stop-color="#F293A3" stop-opacity="0.6419"/>
<stop offset="0.4657" stop-color="#F088A7" stop-opacity="0.5343"/>
<stop offset="0.5883" stop-color="#EF81A9" stop-opacity="0.4117"/>
<stop offset="0.7389" stop-color="#EE7CAA" stop-opacity="0.2611"/>
<stop offset="1" stop-color="#EE7AAA" stop-opacity="0"/>
</linearGradient>
<linearGradient id="paint16_linear_3832_17729" x1="128.01" y1="502.605" x2="113.369" y2="517.246" gradientUnits="userSpaceOnUse">
<stop stop-color="#FFE013"/>
<stop offset="0.5058" stop-color="#F29612"/>
<stop offset="0.9899" stop-color="#E64111"/>
</linearGradient>
<linearGradient id="paint17_linear_3832_17729" x1="128.077" y1="502.538" x2="113.303" y2="517.312" gradientUnits="userSpaceOnUse">
<stop stop-color="#FFD14E"/>
<stop offset="0.0064866" stop-color="#FECF53" stop-opacity="0.9935"/>
<stop offset="0.0851" stop-color="#FABF78" stop-opacity="0.9149"/>
<stop offset="0.17" stop-color="#F6AF8E" stop-opacity="0.83"/>
<stop offset="0.2605" stop-color="#F4A09C" stop-opacity="0.7395"/>
<stop offset="0.3581" stop-color="#F293A3" stop-opacity="0.6419"/>
<stop offset="0.4657" stop-color="#F088A7" stop-opacity="0.5343"/>
<stop offset="0.5883" stop-color="#EF81A9" stop-opacity="0.4117"/>
<stop offset="0.7389" stop-color="#EE7CAA" stop-opacity="0.2611"/>
<stop offset="1" stop-color="#EE7AAA" stop-opacity="0"/>
</linearGradient>
<linearGradient id="paint18_linear_3832_17729" x1="118.13" y1="512.486" x2="98.997" y2="531.62" gradientUnits="userSpaceOnUse">
<stop stop-color="#FFE013"/>
<stop offset="0.5058" stop-color="#F29612"/>
<stop offset="0.9899" stop-color="#E64111"/>
</linearGradient>
<linearGradient id="paint19_linear_3832_17729" x1="118.197" y1="512.42" x2="98.8874" y2="531.729" gradientUnits="userSpaceOnUse">
<stop stop-color="#FFD14E"/>
<stop offset="0.0064866" stop-color="#FECF53" stop-opacity="0.9935"/>
<stop offset="0.0851" stop-color="#FABF78" stop-opacity="0.9149"/>
<stop offset="0.17" stop-color="#F6AF8E" stop-opacity="0.83"/>
<stop offset="0.2605" stop-color="#F4A09C" stop-opacity="0.7395"/>
<stop offset="0.3581" stop-color="#F293A3" stop-opacity="0.6419"/>
<stop offset="0.4657" stop-color="#F088A7" stop-opacity="0.5343"/>
<stop offset="0.5883" stop-color="#EF81A9" stop-opacity="0.4117"/>
<stop offset="0.7389" stop-color="#EE7CAA" stop-opacity="0.2611"/>
<stop offset="1" stop-color="#EE7AAA" stop-opacity="0"/>
</linearGradient>
<linearGradient id="paint20_linear_3832_17729" x1="114.626" y1="491.062" x2="147.363" y2="458.324" gradientUnits="userSpaceOnUse">
<stop stop-color="#FFD14E"/>
<stop offset="0.0064866" stop-color="#FECF53" stop-opacity="0.9935"/>
<stop offset="0.0851" stop-color="#FABF78" stop-opacity="0.9149"/>
<stop offset="0.17" stop-color="#F6AF8E" stop-opacity="0.83"/>
<stop offset="0.2605" stop-color="#F4A09C" stop-opacity="0.7395"/>
<stop offset="0.3581" stop-color="#F293A3" stop-opacity="0.6419"/>
<stop offset="0.4657" stop-color="#F088A7" stop-opacity="0.5343"/>
<stop offset="0.5883" stop-color="#EF81A9" stop-opacity="0.4117"/>
<stop offset="0.7389" stop-color="#EE7CAA" stop-opacity="0.2611"/>
<stop offset="1" stop-color="#EE7AAA" stop-opacity="0"/>
</linearGradient>
<linearGradient id="paint21_linear_3832_17729" x1="104.411" y1="501.292" x2="126.782" y2="478.92" gradientUnits="userSpaceOnUse">
<stop stop-color="#FFD14E"/>
<stop offset="0.0064866" stop-color="#FECF53" stop-opacity="0.9935"/>
<stop offset="0.0851" stop-color="#FABF78" stop-opacity="0.9149"/>
<stop offset="0.17" stop-color="#F6AF8E" stop-opacity="0.83"/>
<stop offset="0.2605" stop-color="#F4A09C" stop-opacity="0.7395"/>
<stop offset="0.3581" stop-color="#F293A3" stop-opacity="0.6419"/>
<stop offset="0.4657" stop-color="#F088A7" stop-opacity="0.5343"/>
<stop offset="0.5883" stop-color="#EF81A9" stop-opacity="0.4117"/>
<stop offset="0.7389" stop-color="#EE7CAA" stop-opacity="0.2611"/>
<stop offset="1" stop-color="#EE7AAA" stop-opacity="0"/>
</linearGradient>
<linearGradient id="paint22_linear_3832_17729" x1="106.348" y1="510.356" x2="121.121" y2="495.582" gradientUnits="userSpaceOnUse">
<stop stop-color="#FFD14E"/>
<stop offset="0.0064866" stop-color="#FECF53" stop-opacity="0.9935"/>
<stop offset="0.0851" stop-color="#FABF78" stop-opacity="0.9149"/>
<stop offset="0.17" stop-color="#F6AF8E" stop-opacity="0.83"/>
<stop offset="0.2605" stop-color="#F4A09C" stop-opacity="0.7395"/>
<stop offset="0.3581" stop-color="#F293A3" stop-opacity="0.6419"/>
<stop offset="0.4657" stop-color="#F088A7" stop-opacity="0.5343"/>
<stop offset="0.5883" stop-color="#EF81A9" stop-opacity="0.4117"/>
<stop offset="0.7389" stop-color="#EE7CAA" stop-opacity="0.2611"/>
<stop offset="1" stop-color="#EE7AAA" stop-opacity="0"/>
</linearGradient>
<linearGradient id="paint23_linear_3832_17729" x1="92.1313" y1="524.892" x2="111.401" y2="505.622" gradientUnits="userSpaceOnUse">
<stop stop-color="#FFD14E"/>
<stop offset="0.0064866" stop-color="#FECF53" stop-opacity="0.9935"/>
<stop offset="0.0851" stop-color="#FABF78" stop-opacity="0.9149"/>
<stop offset="0.17" stop-color="#F6AF8E" stop-opacity="0.83"/>
<stop offset="0.2605" stop-color="#F4A09C" stop-opacity="0.7395"/>
<stop offset="0.3581" stop-color="#F293A3" stop-opacity="0.6419"/>
<stop offset="0.4657" stop-color="#F088A7" stop-opacity="0.5343"/>
<stop offset="0.5883" stop-color="#EF81A9" stop-opacity="0.4117"/>
<stop offset="0.7389" stop-color="#EE7CAA" stop-opacity="0.2611"/>
<stop offset="1" stop-color="#EE7AAA" stop-opacity="0"/>
</linearGradient>
<clipPath id="clip0_3832_17729">
<rect width="611" height="716" fill="white"/>
</clipPath>
</defs>
</svg>
